<svg width="489" height="400" viewBox="0 0 489 400" fill="none" xmlns="http://www.w3.org/2000/svg">
<path d="M436.88 208.41C436.88 259.016 416.776 307.549 380.993 343.333C345.209 379.117 296.675 399.22 246.07 399.22C195.464 399.22 146.93 379.117 111.146 343.333C75.3627 307.549 55.2595 259.016 55.2595 208.41C55.2595 103 140.69 17.59 246.07 17.59C351.45 17.59 436.88 103 436.88 208.41Z" fill="#FFD3B6"/>
<path d="M483.759 287.61C487.013 281.25 488.71 274.209 488.71 267.065C488.71 259.921 487.013 252.88 483.759 246.52C480.506 240.158 478.809 233.115 478.809 225.97C478.809 218.825 480.506 211.782 483.759 205.42C487.013 199.058 488.71 192.015 488.71 184.87C488.71 177.725 487.013 170.682 483.759 164.32L473.119 143.77L423.779 112.77L365.859 143.77L376.499 164.32C379.753 170.682 381.45 177.725 381.45 184.87C381.45 192.015 379.753 199.058 376.499 205.42C373.246 211.782 371.549 218.825 371.549 225.97C371.549 233.115 373.246 240.158 376.499 246.52C379.753 252.88 381.45 259.921 381.45 267.065C381.45 274.209 379.753 281.25 376.499 287.61C373.246 293.972 371.549 301.015 371.549 308.16C371.549 315.305 373.246 322.348 376.499 328.71C379.753 335.072 381.45 342.115 381.45 349.26C381.45 356.405 379.753 363.448 376.499 369.81C371.749 378.99 377.809 390.36 387.499 390.36H451.499C464.849 390.36 477.169 382.51 483.749 369.81C487.003 363.448 488.7 356.405 488.7 349.26C488.7 342.115 487.003 335.072 483.749 328.71C480.496 322.348 478.799 315.305 478.799 308.16C478.799 301.015 480.496 293.972 483.749 287.61H483.759Z" fill="#FBE29F"/>
<path d="M244.57 0C52.9595 0 28.7595 151.73 28.7595 151.73L68.9595 139.85C70.6692 146.02 73.9864 151.625 78.572 156.093C83.1576 160.561 88.8473 163.731 95.0595 165.28C101.248 166.71 107.706 166.454 113.762 164.538C119.818 162.623 125.249 159.118 129.49 154.39C133.735 149.656 139.173 146.149 145.236 144.234C151.299 142.318 157.765 142.065 163.96 143.5C170.148 144.934 176.609 144.681 182.667 142.767C188.724 140.853 194.158 137.349 198.4 132.62C203.04 127.493 209.055 123.807 215.73 122C220.103 124.591 224.988 126.201 230.045 126.719C235.102 127.237 240.211 126.65 245.02 125C251.02 122.948 257.463 122.55 263.67 123.846C269.878 125.143 275.622 128.087 280.3 132.37C284.977 136.653 290.721 139.597 296.929 140.894C303.137 142.19 309.579 141.792 315.58 139.74C321.578 137.688 328.019 137.289 334.226 138.586C340.432 139.883 346.174 142.827 350.85 147.11C355.526 151.394 361.269 154.34 367.477 155.639C373.685 156.938 380.128 156.541 386.13 154.49L405.77 147.74C405.77 147.74 437.77 151.44 460.5 153.98C483.23 156.52 436.22 0 244.57 0Z" fill="#FBE29F"/>
<path d="M5.48961 287.62C2.23126 281.26 0.531982 274.216 0.531982 267.07C0.531982 259.924 2.23126 252.88 5.48961 246.52C8.74323 240.158 10.4398 233.115 10.4398 225.97C10.4398 218.825 8.74323 211.782 5.48961 205.42C2.23126 199.06 0.531982 192.016 0.531982 184.87C0.531982 177.724 2.23126 170.68 5.48961 164.32L16.1296 143.77L65.4696 112.77L123.39 143.77L112.75 164.32C109.496 170.682 107.799 177.725 107.799 184.87C107.799 192.015 109.496 199.058 112.75 205.42C116.003 211.782 117.7 218.825 117.7 225.97C117.7 233.115 116.003 240.158 112.75 246.52C109.496 252.882 107.799 259.925 107.799 267.07C107.799 274.215 109.496 281.258 112.75 287.62C116.003 293.98 117.7 301.021 117.7 308.165C117.7 315.309 116.003 322.35 112.75 328.71C109.496 335.072 107.799 342.115 107.799 349.26C107.799 356.405 109.496 363.448 112.75 369.81C117.5 378.99 111.43 390.36 101.75 390.36H37.7496C24.3896 390.36 12.0696 382.51 5.49961 369.81C2.24126 363.45 0.541982 356.406 0.541982 349.26C0.541982 342.114 2.24126 335.07 5.49961 328.71C8.7516 322.349 10.4465 315.307 10.4447 308.164C10.443 301.02 8.74469 293.979 5.48961 287.62Z" fill="#FBE29F"/>
<path d="M46.8195 241.7C46.7166 198.319 54.3145 155.265 69.2595 114.54L97.2595 43.92C97.2595 43.92 25.1895 82.92 16.7095 143.77C9.03952 151.46 6.31952 162.77 6.06952 164.32C-3.39048 168.2 -0.530483 192.67 6.06952 205.42C9.32313 211.782 11.0197 218.825 11.0197 225.97C11.0197 233.115 9.32313 240.158 6.06952 246.52C2.81598 252.88 1.11939 259.921 1.11939 267.065C1.11939 274.209 2.81598 281.25 6.06952 287.61C9.32313 293.972 11.0197 301.015 11.0197 308.16C11.0197 315.305 9.32313 322.348 6.06952 328.71C2.8159 335.072 1.11929 342.115 1.11929 349.26C1.11929 356.405 2.8159 363.448 6.06952 369.81C12.6495 382.51 24.9695 390.36 38.3195 390.36H78.0395C58.0395 345.77 46.8195 295.24 46.8195 241.7Z" fill="#FCCB88"/>
<path d="M152.5 253.81C169.71 253.81 183.65 242.49 183.65 228.52C183.65 214.55 169.71 203.24 152.5 203.24C135.29 203.24 121.36 214.56 121.36 228.52C121.36 242.48 135.3 253.81 152.5 253.81Z" fill="#FFBF9D"/>
<path d="M336.17 253.81C353.37 253.81 367.32 242.49 367.32 228.52C367.32 214.55 353.37 203.24 336.17 203.24C318.97 203.24 305.02 214.56 305.02 228.52C305.02 242.48 318.96 253.81 336.17 253.81Z" fill="#FFBF9D"/>
<path d="M182.19 196C181.298 196.014 180.418 196.204 179.599 196.559C178.781 196.913 178.041 197.426 177.42 198.066C176.8 198.707 176.312 199.464 175.984 200.293C175.656 201.122 175.495 202.008 175.51 202.9V215.27C175.475 216.168 175.622 217.064 175.942 217.905C176.261 218.745 176.747 219.512 177.371 220.16C177.994 220.807 178.742 221.323 179.569 221.675C180.396 222.027 181.286 222.208 182.185 222.208C183.084 222.208 183.973 222.027 184.801 221.675C185.628 221.323 186.375 220.807 186.999 220.16C187.622 219.512 188.108 218.745 188.428 217.905C188.748 217.064 188.894 216.168 188.86 215.27V202.89C188.886 201.093 188.199 199.358 186.949 198.066C185.699 196.775 183.987 196.032 182.19 196Z" fill="#313D40"/>
<path d="M306.77 196C304.971 196.032 303.258 196.776 302.007 198.07C300.756 199.364 300.07 201.101 300.1 202.9V215.27C300.065 216.168 300.212 217.064 300.532 217.905C300.851 218.745 301.337 219.512 301.961 220.16C302.584 220.807 303.332 221.323 304.159 221.675C304.986 222.027 305.876 222.208 306.775 222.208C307.674 222.208 308.563 222.027 309.391 221.675C310.218 221.323 310.965 220.807 311.589 220.16C312.212 219.512 312.698 218.745 313.018 217.905C313.338 217.064 313.484 216.168 313.45 215.27V202.89C313.476 201.091 312.788 199.355 311.535 198.063C310.283 196.771 308.569 196.029 306.77 196Z" fill="#313D40"/>
<path d="M265.29 264.12C264.636 263.527 263.869 263.072 263.035 262.783C262.201 262.494 261.317 262.378 260.436 262.441C259.556 262.503 258.697 262.744 257.912 263.147C257.127 263.551 256.433 264.11 255.87 264.79C254.485 266.47 252.746 267.823 250.776 268.752C248.807 269.681 246.657 270.162 244.48 270.162C242.302 270.162 240.152 269.681 238.183 268.752C236.214 267.823 234.474 266.47 233.09 264.79C232.527 264.11 231.832 263.551 231.047 263.147C230.262 262.744 229.403 262.503 228.523 262.441C227.642 262.378 226.758 262.494 225.924 262.783C225.09 263.072 224.323 263.527 223.67 264.12C222.331 265.347 221.516 267.043 221.395 268.855C221.274 270.667 221.856 272.456 223.02 273.85C225.632 277.009 228.909 279.552 232.618 281.298C236.327 283.044 240.376 283.949 244.475 283.949C248.574 283.949 252.622 283.044 256.331 281.298C260.04 279.552 263.317 277.009 265.93 273.85C267.109 272.463 267.702 270.672 267.583 268.855C267.463 267.039 266.641 265.34 265.29 264.12Z" fill="#313D40"/>
</svg>
