<svg width="467" height="405" viewBox="0 0 467 405" fill="none" xmlns="http://www.w3.org/2000/svg">
<path d="M33.64 121.103C20.5138 149.71 13.7353 180.819 13.77 212.293H452.49C452.525 180.819 445.746 149.71 432.62 121.103L329.42 80.2229H157.86L33.64 121.103Z" fill="#915227"/>
<path d="M83.87 198.673C83.7276 164.181 90.4092 130.002 103.53 98.1029L33.64 121.103C20.5138 149.71 13.7353 180.819 13.77 212.293H84.22C83.9934 207.78 83.8767 203.24 83.87 198.673Z" fill="#704122"/>
<path d="M414.93 285.083C443.279 285.083 466.26 262.102 466.26 233.753C466.26 205.404 443.279 182.423 414.93 182.423C386.581 182.423 363.6 205.404 363.6 233.753C363.6 262.102 386.581 285.083 414.93 285.083Z" fill="#FFBE9C"/>
<path d="M432.62 121.103L430.94 111.363C428.644 98.1143 422.05 85.9902 412.176 76.8629C402.302 67.7356 389.698 62.1128 376.31 60.8629L357.51 59.1129C355.09 51.0663 351.04 43.604 345.611 37.1908C340.182 30.7776 333.491 25.5508 325.955 21.8359C318.418 18.121 310.197 15.9977 301.804 15.598C293.411 15.1984 285.026 16.531 277.17 19.5129L277.12 19.4629C271.394 13.3217 264.465 8.4246 256.764 5.07626C249.064 1.72792 240.757 0 232.36 0C223.963 0 215.656 1.72792 207.956 5.07626C200.255 8.4246 193.326 13.3217 187.6 19.4629V19.5129C179.745 16.5295 171.359 15.1956 162.965 15.5946C154.572 15.9935 146.351 18.1167 138.813 21.8317C131.276 25.5468 124.585 30.7742 119.156 37.1882C113.728 43.6023 109.678 51.0655 107.26 59.1129L89.73 60.7429C76.0608 62.0152 63.2163 67.8464 53.261 77.2993C43.3057 86.7522 36.8177 99.2778 34.84 112.863L33.64 121.103H150.3L233.13 176.343L314.59 121.103H432.62Z" fill="#936C4C"/>
<path d="M414.67 213.203C410.23 129.863 310.6 88.6629 249.9 145.933L248.6 147.183C244.47 151.235 238.916 153.504 233.13 153.504C227.345 153.504 221.79 151.235 217.66 147.183C217.24 146.773 216.81 146.353 216.36 145.943C155.83 88.8129 56.26 129.623 51.62 212.723C51.43 216.023 51.34 219.343 51.33 222.723C51.15 322.333 132.22 404.163 231.84 404.853C332.84 405.563 414.93 323.903 414.93 223.063C414.93 219.73 414.843 216.456 414.67 213.243V213.203Z" fill="#FFD3BC"/>
<path d="M190 399.603C127.56 365.883 83.9 288.603 83.9 198.673C83.8752 178.807 86.0518 158.999 90.39 139.613C75.6465 150.652 64.3553 165.665 57.84 182.893C55.6847 182.575 53.5087 182.418 51.33 182.423C37.7164 182.423 24.6605 187.831 15.0342 197.457C5.40797 207.083 0 220.139 0 233.753C0 247.366 5.40797 260.422 15.0342 270.049C24.6605 279.675 37.7164 285.083 51.33 285.083C54.8747 285.127 58.4083 284.68 61.83 283.753C72.0132 312.118 89.0386 337.532 111.396 357.74C133.754 377.949 160.754 392.328 190 399.603Z" fill="#FFBE9C"/>
<path d="M163.45 15.563C150.711 16.0568 138.444 20.5173 128.363 28.3215C118.282 36.1257 110.89 46.8837 107.22 59.093L89.73 60.743C76.0608 62.0152 63.2163 67.8464 53.261 77.2994C43.3057 86.7523 36.8177 99.2779 34.84 112.863L33.64 121.103H95.26C108.53 77.613 132.62 40.743 163.45 15.563Z" fill="#775032"/>
<path d="M142 267.673C159.2 267.673 173.15 256.353 173.15 242.383C173.15 228.413 159.15 217.093 142 217.093C124.85 217.093 110.86 228.423 110.86 242.383C110.86 256.343 124.83 267.673 142 267.673Z" fill="#FFBF9D"/>
<path d="M325.7 267.673C342.9 267.673 356.84 256.353 356.84 242.383C356.84 228.413 342.9 217.093 325.7 217.093C308.5 217.093 294.55 228.423 294.55 242.383C294.55 256.343 308.5 267.673 325.7 267.673Z" fill="#FFBF9D"/>
<path d="M171.72 209.853C170.828 209.867 169.948 210.057 169.13 210.412C168.311 210.766 167.571 211.278 166.951 211.919C166.33 212.56 165.842 213.317 165.514 214.146C165.187 214.975 165.025 215.861 165.04 216.753V229.123C165.005 230.021 165.152 230.917 165.472 231.757C165.792 232.598 166.278 233.365 166.901 234.013C167.524 234.66 168.272 235.176 169.099 235.528C169.926 235.88 170.816 236.061 171.715 236.061C172.614 236.061 173.504 235.88 174.331 235.528C175.158 235.176 175.906 234.66 176.529 234.013C177.152 233.365 177.638 232.598 177.958 231.757C178.278 230.917 178.425 230.021 178.39 229.123V216.753C178.419 214.954 177.733 213.216 176.483 211.923C175.232 210.629 173.519 209.884 171.72 209.853Z" fill="#313D40"/>
<path d="M296.3 209.853C295.409 209.867 294.529 210.057 293.711 210.412C292.894 210.766 292.154 211.279 291.534 211.92C290.915 212.561 290.428 213.317 290.101 214.147C289.774 214.976 289.614 215.862 289.63 216.753V229.113C289.63 230.882 290.333 232.578 291.584 233.829C292.834 235.08 294.531 235.783 296.3 235.783C298.069 235.783 299.765 235.08 301.016 233.829C302.267 232.578 302.97 230.882 302.97 229.113V216.753C302.986 215.862 302.826 214.976 302.499 214.147C302.172 213.317 301.685 212.561 301.066 211.92C300.446 211.279 299.706 210.766 298.889 210.412C298.071 210.057 297.191 209.867 296.3 209.853Z" fill="#313D40"/>
<path d="M254.82 277.993C254.166 277.399 253.4 276.945 252.565 276.656C251.731 276.367 250.847 276.251 249.967 276.313C249.086 276.376 248.228 276.617 247.443 277.02C246.658 277.424 245.963 277.983 245.4 278.663C244.015 280.343 242.276 281.696 240.307 282.625C238.337 283.554 236.187 284.035 234.01 284.035C231.833 284.035 229.682 283.554 227.713 282.625C225.744 281.696 224.005 280.343 222.62 278.663C222.057 277.983 221.362 277.424 220.577 277.02C219.792 276.617 218.934 276.376 218.053 276.313C217.173 276.251 216.289 276.367 215.455 276.656C214.62 276.945 213.853 277.399 213.2 277.993C211.861 279.22 211.046 280.916 210.925 282.728C210.804 284.54 211.386 286.329 212.55 287.723C215.162 290.882 218.44 293.425 222.148 295.171C225.857 296.917 229.906 297.822 234.005 297.822C238.104 297.822 242.153 296.917 245.861 295.171C249.57 293.425 252.848 290.882 255.46 287.723C256.623 286.329 257.205 284.541 257.086 282.73C256.967 280.919 256.155 279.222 254.82 277.993Z" fill="#313D40"/>
</svg>
