<svg width="455" height="395" viewBox="0 0 455 395" fill="none" xmlns="http://www.w3.org/2000/svg">
<path d="M50.02 277.95C77.6453 277.95 100.04 255.555 100.04 227.93C100.04 200.305 77.6453 177.91 50.02 177.91C22.3947 177.91 0 200.305 0 227.93C0 255.555 22.3947 277.95 50.02 277.95Z" fill="#F9D2C0"/>
<path d="M447.62 202.85C438.26 89.43 343 0 227.18 0C113.42 0 19.44 86.32 7.31001 196.9C6.97422 199.958 7.28667 203.053 8.22698 205.983C9.1673 208.913 10.7144 211.611 12.7674 213.903C14.8204 216.195 17.3333 218.028 20.1422 219.284C22.9512 220.539 25.9932 221.189 29.07 221.19H119.13L447.62 202.85Z" fill="#5C586F"/>
<path d="M74.91 205.27C74.811 163.536 86.0952 122.566 107.548 86.7681C129.001 50.9704 159.81 21.7009 196.66 2.10999C97 15.92 18.34 96.38 7.31001 196.9C6.97422 199.958 7.28667 203.053 8.22698 205.983C9.1673 208.913 10.7144 211.611 12.7674 213.903C14.8204 216.195 17.3333 218.028 20.1422 219.283C22.9512 220.539 25.9932 221.189 29.07 221.19H75.47C75.11 215.93 74.91 210.63 74.91 205.27Z" fill="#4F4C5F"/>
<path d="M404.33 277.95C431.955 277.95 454.35 255.555 454.35 227.93C454.35 200.305 431.955 177.91 404.33 177.91C376.705 177.91 354.31 200.305 354.31 227.93C354.31 255.555 376.705 277.95 404.33 277.95Z" fill="#F9D2C0"/>
<path d="M337.26 78.67C328.825 82.1087 320.733 86.334 313.09 91.29C307.493 94.945 301.155 97.3149 294.533 98.2295C287.911 99.1442 281.169 98.5809 274.79 96.58C176.88 66.76 148.32 162.1 140.67 203.24C139.741 208.275 137.08 212.826 133.147 216.104C129.215 219.382 124.26 221.182 119.14 221.19H50.06C50.6883 251.019 58.8401 280.205 73.7592 306.043C88.6782 331.88 109.881 353.531 135.401 368.986C160.921 384.442 189.931 393.202 219.74 394.453C249.549 395.705 279.191 389.407 305.917 376.145C332.642 362.883 355.585 343.085 372.618 318.59C389.65 294.094 400.219 265.693 403.345 236.022C406.472 206.351 402.054 176.371 390.501 148.863C378.948 121.355 360.635 97.2111 337.26 78.67Z" fill="#FFE3D4"/>
<path d="M75.47 221.19H50.06C50.7556 254.433 60.7901 286.809 79.0165 314.618C97.243 342.427 122.926 364.547 153.13 378.45C107.451 338.374 79.5239 281.822 75.47 221.19Z" fill="#F9D2C0"/>
<path d="M135.56 261.91C152.77 261.91 166.71 250.59 166.71 236.62C166.71 222.65 152.77 211.33 135.56 211.33C118.35 211.33 104.42 222.65 104.42 236.62C104.42 250.59 118.36 261.91 135.56 261.91Z" fill="#FFBF9D"/>
<path d="M319.23 261.91C336.43 261.91 350.38 250.59 350.38 236.62C350.38 222.65 336.43 211.33 319.23 211.33C302.03 211.33 288.08 222.65 288.08 236.62C288.08 250.59 302 261.91 319.23 261.91Z" fill="#FFBF9D"/>
<path d="M165.25 204.09C164.358 204.104 163.478 204.294 162.66 204.649C161.841 205.003 161.101 205.515 160.481 206.156C159.86 206.797 159.372 207.554 159.045 208.383C158.717 209.212 158.555 210.098 158.57 210.99V223.35C158.535 224.248 158.682 225.144 159.002 225.985C159.322 226.825 159.808 227.592 160.431 228.24C161.054 228.887 161.802 229.403 162.629 229.755C163.456 230.107 164.346 230.288 165.245 230.288C166.144 230.288 167.034 230.107 167.861 229.755C168.688 229.403 169.436 228.887 170.059 228.24C170.682 227.592 171.168 226.825 171.488 225.985C171.808 225.144 171.955 224.248 171.92 223.35V211C171.936 210.108 171.776 209.222 171.449 208.392C171.123 207.562 170.636 206.805 170.016 206.163C169.397 205.522 168.657 205.008 167.839 204.652C167.022 204.297 166.142 204.106 165.25 204.09Z" fill="#313D40"/>
<path d="M289.83 204.09C288.031 204.122 286.318 204.866 285.067 206.16C283.816 207.453 283.131 209.191 283.16 210.99V223.35C283.125 224.248 283.272 225.144 283.592 225.985C283.912 226.825 284.398 227.592 285.021 228.24C285.644 228.887 286.392 229.403 287.219 229.755C288.046 230.107 288.936 230.288 289.835 230.288C290.734 230.288 291.624 230.107 292.451 229.755C293.278 229.403 294.026 228.887 294.649 228.24C295.272 227.592 295.758 226.825 296.078 225.985C296.398 225.144 296.545 224.248 296.51 223.35V211C296.526 210.107 296.366 209.221 296.038 208.39C295.711 207.559 295.223 206.802 294.603 206.16C293.982 205.518 293.241 205.005 292.423 204.65C291.604 204.294 290.723 204.104 289.83 204.09Z" fill="#313D40"/>
<path d="M248.35 272.22C247.697 271.627 246.93 271.172 246.095 270.883C245.261 270.595 244.377 270.478 243.497 270.541C242.616 270.603 241.758 270.844 240.973 271.248C240.188 271.651 239.493 272.21 238.93 272.89C237.543 274.567 235.803 275.917 233.834 276.844C231.865 277.771 229.716 278.251 227.54 278.251C225.364 278.251 223.215 277.771 221.246 276.844C219.277 275.917 217.537 274.567 216.15 272.89C215.587 272.21 214.892 271.651 214.107 271.248C213.322 270.844 212.464 270.603 211.583 270.541C210.703 270.478 209.819 270.595 208.985 270.883C208.15 271.172 207.383 271.627 206.73 272.22C205.391 273.447 204.576 275.143 204.455 276.955C204.334 278.767 204.916 280.556 206.08 281.95C208.688 285.114 211.964 287.662 215.671 289.414C219.379 291.165 223.428 292.075 227.528 292.08C231.629 292.085 235.68 291.184 239.391 289.441C243.103 287.699 246.384 285.158 249 282C250.193 280.609 250.794 278.806 250.672 276.977C250.551 275.149 249.717 273.441 248.35 272.22Z" fill="#313D40"/>
</svg>
