<svg width="464" height="370" viewBox="0 0 464 370" fill="none" xmlns="http://www.w3.org/2000/svg">
<path d="M412.604 250.92C440.649 250.92 463.384 228.185 463.384 200.14C463.384 172.095 440.649 149.36 412.604 149.36C384.559 149.36 361.824 172.095 361.824 200.14C361.824 228.185 384.559 250.92 412.604 250.92Z" fill="#E2BBA1"/>
<path d="M231.664 9.77002C63.6644 9.77002 51.1244 135.53 51.7944 191.77C52.4908 239.205 71.8968 284.445 105.788 317.641C139.679 350.837 185.311 369.302 232.75 369.016C280.19 368.73 325.595 349.716 359.083 316.113C392.572 282.511 411.43 237.04 411.554 189.6C411.554 172.38 399.394 9.77002 231.664 9.77002Z" fill="#EFCDB6"/>
<path d="M194.184 365.63C134.554 327.89 94.4744 257.76 94.4744 177.46C94.4744 128.82 101.044 78.24 125.944 42C119.944 40.43 112.174 42.74 107.064 47C77.4544 71.81 64.1644 104.72 55.3144 143.7C53.4944 143.5 52.6444 149.32 50.7744 149.32C43.6318 149.322 36.5699 150.831 30.0499 153.748C23.5299 156.664 17.6985 160.923 12.9362 166.247C8.17403 171.57 4.58818 177.838 2.41283 184.642C0.237489 191.445 -0.478432 198.631 0.311816 205.729C1.10207 212.828 3.38071 219.68 6.99897 225.839C10.6172 231.997 15.4937 237.323 21.3101 241.469C27.1264 245.615 33.7518 248.487 40.7536 249.899C47.7554 251.31 54.9762 251.229 61.9444 249.66C72.1799 278.714 89.7191 304.646 112.875 324.962C136.031 345.277 164.025 359.293 194.164 365.66L194.184 365.63Z" fill="#E2BBA1"/>
<path d="M411.554 154.5C397.824 67 320.944 0 228.224 0C135.504 0 58.6145 67 44.9445 154.5C74.6945 149.11 113.624 122.29 135.124 91.35C135.859 101.854 138.771 112.091 143.674 121.41C144.129 122.348 144.886 123.106 145.824 123.562C146.762 124.017 147.826 124.143 148.844 123.92C171.324 118.35 219.364 86.17 228.274 63.75C237.184 86.17 285.214 118.35 307.694 123.92C308.714 124.142 309.779 124.016 310.718 123.56C311.658 123.105 312.417 122.348 312.874 121.41C317.78 112.093 320.689 101.855 321.414 91.35C342.864 122.29 381.804 149.11 411.554 154.5Z" fill="#303030"/>
<path d="M139.834 236.6C157.034 236.6 170.984 225.28 170.984 211.32C170.984 197.36 157.034 186 139.834 186C122.634 186 108.684 197.32 108.684 211.29C108.684 225.26 122.634 236.6 139.834 236.6Z" fill="#FFBF9D"/>
<path d="M323.504 236.6C340.704 236.6 354.645 225.28 354.645 211.32C354.645 197.36 340.704 186 323.504 186C306.304 186 292.354 197.32 292.354 211.29C292.354 225.26 306.294 236.6 323.504 236.6Z" fill="#FFBF9D"/>
<path d="M169.514 178.78C167.715 178.812 166.002 179.556 164.752 180.85C163.501 182.144 162.815 183.881 162.844 185.68V198.05C162.81 198.948 162.957 199.844 163.276 200.685C163.596 201.525 164.082 202.292 164.706 202.94C165.329 203.588 166.076 204.103 166.904 204.455C167.731 204.807 168.62 204.988 169.519 204.988C170.418 204.988 171.308 204.807 172.135 204.455C172.963 204.103 173.71 203.588 174.333 202.94C174.957 202.292 175.443 201.525 175.763 200.685C176.082 199.844 176.229 198.948 176.194 198.05V185.68C176.209 184.788 176.048 183.902 175.72 183.073C175.392 182.244 174.904 181.487 174.284 180.846C173.663 180.206 172.923 179.693 172.105 179.339C171.286 178.984 170.406 178.794 169.514 178.78Z" fill="#313D40"/>
<path d="M294.104 178.78C293.213 178.794 292.334 178.984 291.516 179.339C290.698 179.694 289.958 180.206 289.339 180.847C288.719 181.488 288.232 182.245 287.905 183.074C287.579 183.903 287.419 184.789 287.434 185.68V198.05C287.434 199.819 288.137 201.516 289.388 202.766C290.639 204.017 292.335 204.72 294.104 204.72C295.873 204.72 297.57 204.017 298.821 202.766C300.072 201.516 300.774 199.819 300.774 198.05V185.68C300.804 183.881 300.118 182.144 298.867 180.85C297.617 179.556 295.904 178.812 294.104 178.78Z" fill="#313D40"/>
<path d="M252.614 246.91C251.962 246.317 251.196 245.862 250.362 245.574C249.529 245.285 248.646 245.169 247.766 245.231C246.886 245.294 246.029 245.534 245.245 245.938C244.46 246.342 243.766 246.9 243.204 247.58C241.819 249.26 240.079 250.613 238.109 251.542C236.139 252.471 233.987 252.953 231.809 252.953C229.631 252.953 227.48 252.471 225.51 251.542C223.54 250.613 221.8 249.26 220.414 247.58C219.852 246.9 219.158 246.342 218.374 245.938C217.59 245.534 216.732 245.294 215.853 245.231C214.973 245.169 214.09 245.285 213.257 245.574C212.423 245.862 211.657 246.317 211.004 246.91C209.665 248.139 208.85 249.836 208.729 251.65C208.608 253.464 209.19 255.254 210.354 256.65C212.969 259.806 216.247 262.346 219.955 264.09C223.664 265.833 227.711 266.737 231.809 266.737C235.907 266.737 239.955 265.833 243.664 264.09C247.372 262.346 250.65 259.806 253.264 256.65C254.429 255.254 255.011 253.464 254.89 251.65C254.769 249.836 253.954 248.139 252.614 246.91Z" fill="#313D40"/>
</svg>
