<svg width="464" height="399" viewBox="0 0 464 399" fill="none" xmlns="http://www.w3.org/2000/svg">
<path d="M10.6355 221.2C10.6355 99.23 109.855 0 231.826 0C353.796 0 453.026 99.23 453.026 221.2H10.6355Z" fill="#5C586F"/>
<path d="M412.765 280.19C440.81 280.19 463.545 257.455 463.545 229.41C463.545 201.365 440.81 178.63 412.765 178.63C384.72 178.63 361.985 201.365 361.985 229.41C361.985 257.455 384.72 280.19 412.765 280.19Z" fill="#F9D2C0"/>
<path d="M404.735 169.17C403.35 164.371 400.198 160.276 395.913 157.71C391.628 155.143 386.53 154.296 381.645 155.34C262.735 180.62 179.495 117.89 143.105 82C139.58 78.5359 134.888 76.5132 129.949 76.3282C125.01 76.1432 120.18 77.8093 116.405 81C91.5946 101.794 72.8567 128.899 62.1691 159.456C51.4814 190.013 49.2404 222.888 55.6824 254.613C62.1244 286.337 77.0105 315.735 98.77 339.703C120.53 363.671 148.355 381.321 179.312 390.791C210.268 400.26 243.206 401.198 274.651 393.505C306.095 385.812 334.88 369.774 357.968 347.083C381.056 324.391 397.591 295.888 405.827 264.582C414.064 233.275 413.697 200.326 404.765 169.21L404.735 169.17Z" fill="#FFE3D4"/>
<path d="M194.345 394.91C134.715 357.17 94.6354 287 94.6354 206.74C94.6354 158.1 109.335 113.19 134.185 76.95C131.113 76.1449 127.893 76.0879 124.794 76.7838C121.695 77.4798 118.808 78.9085 116.375 80.95C86.1955 106.175 65.1189 140.6 56.3754 178.95C49.035 178.138 41.6056 178.936 34.6054 181.29C27.6051 183.643 21.2023 187.495 15.8431 192.576C10.484 197.658 6.29758 203.847 3.5756 210.712C0.853615 217.578 -0.338413 224.954 0.0826009 232.327C0.503614 239.701 2.52754 246.893 6.01331 253.404C9.49907 259.915 14.3628 265.588 20.2655 270.026C26.1682 274.465 32.9679 277.562 40.1905 279.104C47.4132 280.645 54.8851 280.592 62.0854 278.95C72.3209 308.004 89.8601 333.936 113.016 354.252C136.172 374.567 164.166 388.583 194.305 394.95L194.345 394.91Z" fill="#F9D2C0"/>
<path d="M139.995 259.6C157.195 259.6 171.145 248.28 171.145 234.31C171.145 220.34 157.195 209 139.995 209C122.795 209 108.845 220.32 108.845 234.29C108.845 248.26 122.795 259.6 139.995 259.6Z" fill="#FFCCB6"/>
<path d="M323.665 259.6C340.865 259.6 354.805 248.28 354.805 234.31C354.805 220.34 340.865 209 323.665 209C306.465 209 292.515 220.32 292.515 234.29C292.515 248.26 306.455 259.6 323.665 259.6Z" fill="#FFCCB6"/>
<path d="M169.676 201.78C167.878 201.812 166.167 202.555 164.916 203.846C163.666 205.138 162.979 206.873 163.005 208.67V221C162.971 221.898 163.118 222.794 163.437 223.635C163.757 224.475 164.243 225.242 164.867 225.89C165.49 226.538 166.237 227.053 167.065 227.405C167.892 227.757 168.782 227.938 169.68 227.938C170.579 227.938 171.469 227.757 172.296 227.405C173.124 227.053 173.871 226.538 174.494 225.89C175.118 225.242 175.604 224.475 175.924 223.635C176.243 222.794 176.39 221.898 176.355 221V208.67C176.382 206.871 175.694 205.135 174.441 203.843C173.189 202.551 171.475 201.809 169.676 201.78Z" fill="#313D40"/>
<path d="M294.265 201.78C293.375 201.794 292.496 201.984 291.679 202.338C290.862 202.692 290.123 203.204 289.503 203.843C288.884 204.483 288.397 205.239 288.069 206.067C287.742 206.895 287.581 207.78 287.595 208.67V221C287.595 222.769 288.298 224.466 289.549 225.716C290.8 226.967 292.496 227.67 294.265 227.67C296.034 227.67 297.731 226.967 298.982 225.716C300.233 224.466 300.935 222.769 300.935 221V208.67C300.962 206.873 300.275 205.138 299.025 203.846C297.774 202.555 296.063 201.812 294.265 201.78Z" fill="#313D40"/>
<path d="M252.776 269.91C252.124 269.316 251.358 268.86 250.524 268.57C249.691 268.281 248.807 268.164 247.927 268.227C247.047 268.29 246.189 268.53 245.404 268.935C244.62 269.34 243.927 269.899 243.366 270.58C241.978 272.257 240.237 273.607 238.267 274.534C236.297 275.461 234.147 275.941 231.971 275.941C229.794 275.941 227.644 275.461 225.674 274.534C223.704 273.607 221.963 272.257 220.576 270.58C220.014 269.899 219.321 269.34 218.537 268.935C217.752 268.53 216.894 268.29 216.014 268.227C215.134 268.164 214.251 268.281 213.417 268.57C212.583 268.86 211.817 269.316 211.166 269.91C209.826 271.137 209.012 272.833 208.891 274.645C208.77 276.457 209.352 278.246 210.516 279.64C213.128 282.799 216.405 285.342 220.114 287.088C223.823 288.834 227.871 289.739 231.971 289.739C236.07 289.739 240.118 288.834 243.827 287.088C247.536 285.342 250.813 282.799 253.426 279.64C254.589 278.246 255.171 276.457 255.05 274.645C254.929 272.833 254.115 271.137 252.776 269.91Z" fill="#313D40"/>
</svg>
