<svg width="446" height="408" viewBox="0 0 446 408" fill="none" xmlns="http://www.w3.org/2000/svg">
<path d="M6.11011 232.454C6.11011 112.874 103.4 15.5842 223 15.5842C342.6 15.5842 439.87 112.874 439.87 232.454H6.11011Z" fill="#00D1B3"/>
<path d="M398.31 290.504C424.632 290.504 445.97 269.166 445.97 242.844C445.97 216.522 424.632 195.184 398.31 195.184C371.988 195.184 350.65 216.522 350.65 242.844C350.65 269.166 371.988 290.504 398.31 290.504Z" fill="#FFBE9C"/>
<path d="M47.66 290.504C73.9819 290.504 95.32 269.166 95.32 242.844C95.32 216.522 73.9819 195.184 47.66 195.184C21.3381 195.184 0 216.522 0 242.844C0 269.166 21.3381 290.504 47.66 290.504Z" fill="#FFBE9C"/>
<path d="M222.98 407.784C319.812 407.784 398.31 329.286 398.31 232.454C398.31 135.622 319.812 57.1242 222.98 57.1242C126.148 57.1242 47.6499 135.622 47.6499 232.454C47.6499 329.286 126.148 407.784 222.98 407.784Z" fill="#FFD3BC"/>
<path d="M340.15 31.7442C291.428 3.25863 233.999 -6.50538 178.601 4.2779C123.203 15.0612 73.6296 45.6534 39.1499 90.3342C37.5602 92.3981 36.405 94.7627 35.754 97.2852C35.103 99.8077 34.9698 102.436 35.3623 105.011C35.7547 107.587 36.6648 110.056 38.0377 112.27C39.4105 114.484 41.2176 116.398 43.3499 117.894C78.8799 142.894 130.57 158.774 184.76 158.774C252.36 158.774 316.04 124.324 349.37 81.7742C362 65.7142 357.81 42.0942 340.15 31.7442Z" fill="#50E1CD"/>
<path d="M86.5001 214.004C86.5001 166.364 101.9 122.004 128.38 84.8242C98.6796 103.861 75.4113 131.414 61.6153 163.882C47.8192 196.351 44.1368 232.226 51.0492 266.82C57.9615 301.414 75.1472 333.119 100.361 357.793C125.575 382.467 157.644 398.962 192.38 405.124C128.15 361.884 86.5001 292.384 86.5001 214.004Z" fill="#FFBE9C"/>
<path d="M233.4 0.244214C229.94 0.094214 226.47 0.00421405 223 0.00421405C187.489 -0.00112008 152.451 8.13928 120.58 23.7992C88.7086 39.4591 60.8544 62.2211 39.1599 90.3342C37.5702 92.3981 36.415 94.7627 35.764 97.2852C35.113 99.8077 34.9798 102.436 35.3723 105.011C35.7648 107.587 36.6749 110.056 38.0477 112.27C39.4205 114.484 41.2276 116.398 43.3599 117.894C58.8099 128.774 77.3599 137.894 97.7499 144.784C119 81.1442 168.71 28.8342 233.4 0.244214Z" fill="#00D1B3"/>
<path d="M131.15 268.294C148.35 268.294 162.29 256.964 162.29 243.004C162.29 229.044 148.35 217.714 131.15 217.714C113.95 217.714 100 229.004 100 243.004C100 257.004 114 268.294 131.15 268.294Z" fill="#FFBF9D"/>
<path d="M314.81 268.294C332 268.294 346 257.004 346 243.004C346 229.004 332 217.714 314.81 217.714C297.62 217.714 283.67 229.004 283.67 243.004C283.67 257.004 297.61 268.294 314.81 268.294Z" fill="#FFBF9D"/>
<path d="M160.83 210.474C159.94 210.489 159.061 210.678 158.244 211.032C157.427 211.386 156.687 211.898 156.068 212.538C155.448 213.177 154.961 213.933 154.634 214.761C154.306 215.589 154.145 216.474 154.16 217.364V229.734C154.125 230.632 154.272 231.529 154.592 232.369C154.912 233.209 155.398 233.976 156.021 234.624C156.644 235.272 157.392 235.787 158.219 236.139C159.046 236.491 159.936 236.673 160.835 236.673C161.734 236.673 162.624 236.491 163.451 236.139C164.278 235.787 165.026 235.272 165.649 234.624C166.272 233.976 166.758 233.209 167.078 232.369C167.398 231.529 167.545 230.632 167.51 229.734V217.364C167.525 216.473 167.363 215.588 167.035 214.759C166.707 213.93 166.219 213.174 165.599 212.534C164.978 211.894 164.238 211.383 163.419 211.029C162.601 210.676 161.721 210.487 160.83 210.474Z" fill="#313D40"/>
<path d="M285.42 210.474C284.529 210.487 283.649 210.676 282.83 211.029C282.012 211.383 281.272 211.894 280.651 212.534C280.031 213.174 279.543 213.93 279.215 214.759C278.887 215.588 278.725 216.473 278.74 217.364V229.734C278.705 230.632 278.852 231.529 279.172 232.369C279.492 233.209 279.978 233.976 280.601 234.624C281.224 235.272 281.972 235.787 282.799 236.139C283.626 236.491 284.516 236.673 285.415 236.673C286.314 236.673 287.204 236.491 288.031 236.139C288.858 235.787 289.606 235.272 290.229 234.624C290.852 233.976 291.338 233.209 291.658 232.369C291.978 231.529 292.125 230.632 292.09 229.734V217.364C292.104 216.474 291.943 215.589 291.616 214.761C291.289 213.933 290.801 213.177 290.182 212.538C289.563 211.898 288.823 211.386 288.006 211.032C287.189 210.678 286.31 210.489 285.42 210.474Z" fill="#313D40"/>
<path d="M243.93 278.604C243.278 278.01 242.512 277.554 241.679 277.265C240.845 276.975 239.961 276.858 239.081 276.921C238.201 276.984 237.343 277.225 236.559 277.629C235.775 278.034 235.081 278.593 234.52 279.274C233.132 280.951 231.391 282.301 229.422 283.228C227.452 284.155 225.302 284.636 223.125 284.636C220.948 284.636 218.798 284.155 216.828 283.228C214.859 282.301 213.118 280.951 211.73 279.274C211.169 278.593 210.475 278.034 209.691 277.629C208.907 277.225 208.049 276.984 207.169 276.921C206.289 276.858 205.405 276.975 204.572 277.265C203.738 277.554 202.972 278.01 202.32 278.604C200.981 279.831 200.166 281.527 200.045 283.339C199.924 285.151 200.506 286.94 201.67 288.334C204.284 291.49 207.562 294.03 211.271 295.774C214.98 297.518 219.027 298.422 223.125 298.422C227.223 298.422 231.271 297.518 234.979 295.774C238.688 294.03 241.966 291.49 244.58 288.334C245.744 286.94 246.326 285.151 246.205 283.339C246.084 281.527 245.269 279.831 243.93 278.604Z" fill="#313D40"/>
</svg>
