<svg width="459" height="394" viewBox="0 0 459 394" fill="none" xmlns="http://www.w3.org/2000/svg">
<path d="M14.2299 215.32H444.87C444.87 96.5902 348.28 0.00015486 229.55 0.00015486H82.8399C79.5249 -0.0127858 76.2571 0.785489 73.3215 2.32536C70.3859 3.86523 67.8716 6.09993 65.9979 8.83457C64.1242 11.5692 62.9479 14.7207 62.5718 18.0143C62.1956 21.3079 62.631 24.6435 63.8399 27.7302C68.3043 38.8054 75.6393 48.491 85.0899 55.7902C62.7709 75.9406 44.931 100.552 32.7247 128.033C20.5184 155.513 14.2176 185.251 14.2299 215.32Z" fill="#E7886E"/>
<path d="M408 276.25C435.83 276.25 458.39 253.69 458.39 225.86C458.39 198.031 435.83 175.47 408 175.47C380.17 175.47 357.61 198.031 357.61 225.86C357.61 253.69 380.17 276.25 408 276.25Z" fill="#FFCABD"/>
<path d="M14.2299 215.32H83.0399C83.6199 136.26 147.14 36.8902 222.33 0.00015486H82.8399C79.5249 -0.0127858 76.2571 0.785489 73.3215 2.32536C70.3859 3.86523 67.8716 6.09993 65.9979 8.83457C64.1242 11.5692 62.9479 14.7207 62.5718 18.0143C62.1956 21.3079 62.631 24.6435 63.8399 27.7302C68.3043 38.8054 75.6393 48.491 85.0899 55.7902C62.7709 75.9406 44.931 100.552 32.7247 128.033C20.5184 155.513 14.2176 185.251 14.2299 215.32Z" fill="#E27858"/>
<path d="M381.17 121.19C374.869 111.034 366.088 102.648 355.653 96.8205C345.218 90.9933 333.472 87.9167 321.52 87.8801C301.05 87.8801 278.16 91.0902 256.92 101.44C248.397 105.605 239.036 107.77 229.55 107.77C220.064 107.77 210.703 105.605 202.18 101.44C180.93 91.0902 158.04 87.8501 137.58 87.8801C125.757 87.8741 114.126 90.8624 103.771 96.5665C93.4151 102.271 84.673 110.504 78.3598 120.5C61.4453 147.477 52.0571 178.489 51.169 210.318C50.281 242.147 57.9255 273.634 73.3095 301.512C88.6935 329.391 111.257 352.645 138.658 368.863C166.06 385.081 197.302 393.672 229.143 393.744C260.984 393.817 292.265 385.369 319.74 369.276C347.215 353.183 369.884 330.031 385.395 302.223C400.906 274.415 408.694 242.964 407.951 211.131C407.208 179.298 397.961 148.244 381.17 121.19Z" fill="#FFD8D2"/>
<path d="M83.0198 216.41C83.0198 175.57 100.02 129.19 126.74 88.7402C116.875 90.2724 107.454 93.8997 99.1085 99.378C90.7634 104.856 83.6885 112.059 78.3598 120.5C67.6825 137.474 59.9597 156.135 55.5198 175.69C54.0511 175.543 52.5759 175.47 51.0998 175.47C44.4235 175.376 37.795 176.61 31.5995 179.1C25.4041 181.59 19.7653 185.286 15.0107 189.974C10.2562 194.662 6.48082 200.248 3.90391 206.408C1.32701 212.568 0 219.178 0 225.855C0 232.532 1.32701 239.143 3.90391 245.302C6.48082 251.462 10.2562 257.048 15.0107 261.736C19.7653 266.424 25.4041 270.121 31.5995 272.611C37.795 275.1 44.4235 276.334 51.0998 276.24C54.5239 276.292 57.9389 275.875 61.2498 275C73.4943 309.69 96.1821 339.736 126.195 361.009C156.208 382.282 192.073 393.737 228.86 393.8C229.96 393.8 231.05 393.8 232.15 393.8C147.63 380.13 83.0198 305.92 83.0198 216.41Z" fill="#FFCABD"/>
<path d="M137.71 259.06C154.91 259.06 168.85 247.74 168.85 233.77C168.85 219.8 154.92 208.49 137.71 208.49C120.5 208.49 106.56 219.81 106.56 233.77C106.56 247.73 120.51 259.06 137.71 259.06Z" fill="#FFBF9D"/>
<path d="M321.38 259.06C338.58 259.06 352.53 247.74 352.53 233.77C352.53 219.8 338.58 208.49 321.38 208.49C304.18 208.49 290.23 219.81 290.23 233.77C290.23 247.73 304.18 259.06 321.38 259.06Z" fill="#FFBF9D"/>
<path d="M167.4 201.24C166.508 201.255 165.628 201.444 164.81 201.799C163.991 202.153 163.251 202.666 162.631 203.306C162.01 203.947 161.522 204.704 161.194 205.533C160.867 206.363 160.705 207.248 160.72 208.14V220.51C160.685 221.408 160.832 222.305 161.152 223.145C161.472 223.985 161.958 224.752 162.581 225.4C163.204 226.048 163.952 226.563 164.779 226.915C165.606 227.267 166.496 227.449 167.395 227.449C168.294 227.449 169.184 227.267 170.011 226.915C170.838 226.563 171.586 226.048 172.209 225.4C172.832 224.752 173.318 223.985 173.638 223.145C173.958 222.305 174.105 221.408 174.07 220.51V208.14C174.086 207.249 173.926 206.363 173.599 205.534C173.272 204.705 172.785 203.948 172.166 203.307C171.546 202.666 170.806 202.154 169.989 201.799C169.171 201.444 168.291 201.254 167.4 201.24Z" fill="#313D40"/>
<path d="M291.98 201.24C290.181 201.272 288.468 202.016 287.217 203.31C285.966 204.604 285.28 206.341 285.31 208.14V220.51C285.275 221.408 285.422 222.305 285.742 223.145C286.062 223.985 286.548 224.752 287.171 225.4C287.794 226.048 288.542 226.563 289.369 226.915C290.196 227.267 291.086 227.449 291.985 227.449C292.884 227.449 293.774 227.267 294.601 226.915C295.428 226.563 296.176 226.048 296.799 225.4C297.422 224.752 297.908 223.985 298.228 223.145C298.548 222.305 298.695 221.408 298.66 220.51V208.14C298.674 207.248 298.513 206.363 298.185 205.533C297.857 204.704 297.369 203.947 296.749 203.306C296.129 202.666 295.388 202.153 294.57 201.799C293.752 201.444 292.872 201.255 291.98 201.24Z" fill="#313D40"/>
<path d="M250.5 269.37C249.846 268.777 249.079 268.322 248.245 268.033C247.411 267.745 246.527 267.628 245.647 267.691C244.766 267.753 243.907 267.994 243.123 268.398C242.338 268.801 241.643 269.36 241.08 270.04C239.695 271.72 237.956 273.073 235.987 274.002C234.017 274.931 231.867 275.413 229.69 275.413C227.513 275.413 225.362 274.931 223.393 274.002C221.424 273.073 219.685 271.72 218.3 270.04C217.737 269.36 217.042 268.801 216.257 268.398C215.472 267.994 214.614 267.753 213.733 267.691C212.853 267.628 211.969 267.745 211.134 268.033C210.3 268.322 209.533 268.777 208.88 269.37C207.529 270.59 206.706 272.289 206.587 274.105C206.468 275.922 207.06 277.714 208.24 279.1C210.851 282.259 214.128 284.802 217.836 286.548C221.544 288.293 225.591 289.199 229.69 289.199C233.788 289.199 237.836 288.293 241.544 286.548C245.252 284.802 248.529 282.259 251.14 279.1C252.319 277.714 252.912 275.922 252.793 274.105C252.673 272.289 251.851 270.59 250.5 269.37Z" fill="#313D40"/>
</svg>
