<svg width="458" height="394" viewBox="0 0 458 394" fill="none" xmlns="http://www.w3.org/2000/svg">
<path d="M13.52 215.32C13.52 96.59 110.11 0 228.84 0C347.57 0 444.16 96.59 444.16 215.32H13.52Z" fill="#5C586F"/>
<path d="M407.29 276.25C435.12 276.25 457.68 253.69 457.68 225.86C457.68 198.03 435.12 175.47 407.29 175.47C379.46 175.47 356.9 198.03 356.9 225.86C356.9 253.69 379.46 276.25 407.29 276.25Z" fill="#FFBD86"/>
<path d="M80.54 198.06C80.54 122.18 113.05 54.46 164 10C76.84 37.59 13.52 119.2 13.52 215.32H81.11C80.74 209.62 80.54 203.86 80.54 198.06Z" fill="#4F4C5F"/>
<path d="M402.89 175.81C401.356 169.037 398.183 162.745 393.65 157.485C389.117 152.225 383.362 148.157 376.89 145.64C334.49 129 306.49 87.73 306.49 87.73C269.27 150.78 185.7 152.3 185.7 152.3C210.77 127.23 195.57 87.73 195.57 87.73C166.62 121.07 122.7 133.89 90.7499 138.73C82.6518 139.932 75.0814 143.474 68.9698 148.921C62.8581 154.368 58.4717 161.483 56.3499 169.39C52.2665 184.743 50.2487 200.573 50.3499 216.46C50.9799 313.67 130.35 393.06 227.54 393.73C254.437 393.903 281.025 387.998 305.32 376.455C329.615 364.912 350.988 348.03 367.844 327.069C384.7 306.109 396.604 281.611 402.665 255.405C408.727 229.2 408.79 201.963 402.85 175.73L402.89 175.81Z" fill="#FED2A4"/>
<path d="M154.61 377.51C109.11 333.16 80.54 269.18 80.54 198.06C80.5294 178.344 82.7638 158.691 87.2 139.48C79.8303 141.233 73.072 144.948 67.6411 150.229C62.2101 155.51 58.3087 162.162 56.35 169.48C55.7967 171.547 55.2867 173.637 54.82 175.75C53.3486 175.593 51.8698 175.516 50.39 175.52C37.0257 175.52 24.2088 180.829 14.7589 190.279C5.30893 199.729 0 212.546 0 225.91C0 239.274 5.30893 252.091 14.7589 261.541C24.2088 270.991 37.0257 276.3 50.39 276.3C53.8625 276.39 57.3252 275.89 60.63 274.82C68.6896 297.33 81.1529 318.008 97.2923 335.648C113.432 353.288 132.924 367.536 154.63 377.56L154.61 377.51Z" fill="#FFBD86"/>
<path d="M137 253.54C154.2 253.54 168.14 242.22 168.14 228.25C168.14 214.28 154.21 203 137 203C119.79 203 105.85 214.32 105.85 228.29C105.85 242.26 119.81 253.54 137 253.54Z" fill="#FFBF9D"/>
<path d="M320.67 253.54C337.87 253.54 351.82 242.22 351.82 228.25C351.82 214.28 337.87 203 320.67 203C303.47 203 289.53 214.32 289.53 228.29C289.53 242.26 303.47 253.54 320.67 253.54Z" fill="#FFBF9D"/>
<path d="M166.69 195.72C165.799 195.734 164.919 195.924 164.101 196.279C163.284 196.634 162.544 197.146 161.924 197.787C161.305 198.428 160.818 199.184 160.491 200.014C160.164 200.843 160.004 201.729 160.02 202.62V215C160.02 216.769 160.723 218.466 161.974 219.716C163.224 220.967 164.921 221.67 166.69 221.67C168.459 221.67 170.156 220.967 171.406 219.716C172.657 218.466 173.36 216.769 173.36 215V202.62C173.376 201.729 173.216 200.843 172.889 200.014C172.562 199.184 172.075 198.428 171.456 197.787C170.836 197.146 170.096 196.634 169.279 196.279C168.461 195.924 167.581 195.734 166.69 195.72Z" fill="#313D40"/>
<path d="M291.28 195.72C290.388 195.734 289.508 195.924 288.69 196.279C287.871 196.633 287.131 197.145 286.511 197.786C285.89 198.427 285.402 199.184 285.074 200.013C284.747 200.842 284.585 201.728 284.6 202.62V215C284.6 216.777 285.306 218.481 286.562 219.738C287.819 220.994 289.523 221.7 291.3 221.7C293.077 221.7 294.781 220.994 296.038 219.738C297.294 218.481 298 216.777 298 215V202.62C298.015 201.725 297.852 200.836 297.522 200.004C297.191 199.172 296.7 198.414 296.075 197.772C295.451 197.131 294.705 196.62 293.882 196.267C293.06 195.915 292.175 195.729 291.28 195.72Z" fill="#313D40"/>
<path d="M249.79 263.85C249.137 263.257 248.37 262.802 247.535 262.513C246.701 262.224 245.817 262.108 244.937 262.171C244.056 262.233 243.198 262.474 242.413 262.877C241.628 263.281 240.933 263.84 240.37 264.52C238.983 266.197 237.243 267.547 235.274 268.474C233.305 269.4 231.156 269.881 228.98 269.881C226.804 269.881 224.655 269.4 222.686 268.474C220.717 267.547 218.977 266.197 217.59 264.52C217.027 263.84 216.332 263.281 215.547 262.877C214.762 262.474 213.904 262.233 213.023 262.171C212.143 262.108 211.259 262.224 210.425 262.513C209.59 262.802 208.823 263.257 208.17 263.85C206.835 265.079 206.023 266.776 205.904 268.587C205.785 270.398 206.367 272.186 207.53 273.58C210.142 276.739 213.42 279.282 217.129 281.028C220.837 282.774 224.886 283.679 228.985 283.679C233.084 283.679 237.133 282.774 240.841 281.028C244.55 279.282 247.828 276.739 250.44 273.58C251.604 272.186 252.186 270.397 252.065 268.585C251.944 266.773 251.129 265.077 249.79 263.85Z" fill="#313D40"/>
</svg>
