<svg width="464" height="370" viewBox="0 0 464 370" fill="none" xmlns="http://www.w3.org/2000/svg">
<path d="M412.604 250.92C440.649 250.92 463.384 228.185 463.384 200.14C463.384 172.095 440.649 149.36 412.604 149.36C384.559 149.36 361.824 172.095 361.824 200.14C361.824 228.185 384.559 250.92 412.604 250.92Z" fill="#E2BBA1"/>
<path d="M231.664 9.77002C63.6644 9.77002 51.1244 135.53 51.7944 191.77C52.4908 239.205 71.8968 284.445 105.788 317.641C139.679 350.837 185.311 369.302 232.75 369.016C280.19 368.73 325.595 349.716 359.083 316.113C392.572 282.511 411.43 237.04 411.554 189.6C411.554 172.38 399.394 9.77002 231.664 9.77002Z" fill="#EFCDB6"/>
<path d="M194.184 365.63C134.554 327.89 94.4744 257.76 94.4744 177.46C94.4744 128.82 101.044 78.24 125.944 42C119.944 40.43 112.174 42.74 107.064 47C77.4544 71.81 64.1644 104.72 55.3144 143.7C53.4944 143.5 52.6444 149.32 50.7744 149.32C43.6318 149.322 36.5699 150.831 30.0499 153.748C23.5299 156.664 17.6985 160.923 12.9362 166.247C8.17403 171.57 4.58818 177.838 2.41283 184.642C0.237489 191.445 -0.478432 198.631 0.311816 205.729C1.10207 212.828 3.38071 219.68 6.99897 225.839C10.6172 231.997 15.4937 237.323 21.3101 241.469C27.1264 245.615 33.7518 248.487 40.7536 249.899C47.7554 251.31 54.9762 251.229 61.9444 249.66C72.1799 278.714 89.7191 304.646 112.875 324.962C136.031 345.277 164.025 359.293 194.164 365.66L194.184 365.63Z" fill="#E2BBA1"/>
<path d="M411.554 154.5C397.824 67 320.944 0 228.224 0C135.504 0 58.6145 67 44.9445 154.5C74.6945 149.11 113.624 122.29 135.124 91.35C135.859 101.854 138.771 112.091 143.674 121.41C144.129 122.348 144.886 123.106 145.824 123.562C146.762 124.017 147.826 124.143 148.844 123.92C171.324 118.35 219.364 86.17 228.274 63.75C237.184 86.17 285.214 118.35 307.694 123.92C308.714 124.142 309.779 124.016 310.718 123.56C311.658 123.105 312.417 122.348 312.874 121.41C317.78 112.093 320.689 101.855 321.414 91.35C342.864 122.29 381.804 149.11 411.554 154.5Z" fill="#825034"/>
<path d="M141.564 241C158.764 241 172.714 229.68 172.714 215.71C172.714 201.74 158.714 190.43 141.564 190.43C124.414 190.43 110.414 201.75 110.414 215.71C110.414 229.67 124.364 241 141.564 241Z" fill="#FFBF9D"/>
<path d="M325.234 241C342.434 241 356.374 229.68 356.374 215.71C356.374 201.74 342.434 190.43 325.234 190.43C308.034 190.43 294.084 201.75 294.084 215.71C294.084 229.67 308.024 241 325.234 241Z" fill="#FFBF9D"/>
<path d="M171.244 183.16C169.445 183.192 167.732 183.936 166.482 185.23C165.231 186.524 164.545 188.261 164.574 190.06V202.43C164.54 203.328 164.687 204.224 165.006 205.065C165.326 205.905 165.812 206.672 166.435 207.32C167.059 207.968 167.806 208.483 168.634 208.835C169.461 209.187 170.35 209.368 171.249 209.368C172.148 209.368 173.038 209.187 173.865 208.835C174.693 208.483 175.44 207.968 176.063 207.32C176.687 206.672 177.173 205.905 177.493 205.065C177.812 204.224 177.959 203.328 177.924 202.43V190.06C177.939 189.168 177.778 188.282 177.45 187.453C177.122 186.624 176.634 185.867 176.014 185.226C175.393 184.586 174.653 184.073 173.835 183.719C173.016 183.364 172.136 183.174 171.244 183.16Z" fill="#313D40"/>
<path d="M295.834 183.16C294.943 183.174 294.063 183.364 293.244 183.719C292.426 184.073 291.685 184.586 291.065 185.226C290.445 185.867 289.957 186.624 289.629 187.453C289.301 188.282 289.14 189.168 289.154 190.06V202.43C289.12 203.328 289.267 204.224 289.586 205.065C289.906 205.905 290.392 206.672 291.015 207.32C291.639 207.968 292.386 208.483 293.214 208.835C294.041 209.187 294.93 209.368 295.829 209.368C296.728 209.368 297.618 209.187 298.445 208.835C299.273 208.483 300.02 207.968 300.643 207.32C301.267 206.672 301.753 205.905 302.073 205.065C302.392 204.224 302.539 203.328 302.504 202.43V190.06C302.534 188.261 301.848 186.524 300.597 185.23C299.347 183.936 297.634 183.192 295.834 183.16Z" fill="#313D40"/>
<path d="M254.344 251.29C253.689 250.701 252.922 250.25 252.088 249.966C251.254 249.682 250.371 249.569 249.493 249.636C248.614 249.702 247.758 249.946 246.976 250.352C246.195 250.759 245.503 251.319 244.944 252C243.559 253.68 241.818 255.033 239.848 255.962C237.878 256.891 235.727 257.373 233.549 257.373C231.371 257.373 229.22 256.891 227.25 255.962C225.28 255.033 223.54 253.68 222.154 252C221.592 251.32 220.898 250.762 220.114 250.358C219.33 249.954 218.472 249.714 217.593 249.651C216.713 249.589 215.83 249.705 214.997 249.994C214.163 250.282 213.397 250.737 212.744 251.33C211.405 252.557 210.591 254.253 210.47 256.065C210.349 257.877 210.93 259.666 212.094 261.06C214.707 264.219 217.984 266.762 221.693 268.508C225.402 270.254 229.45 271.159 233.549 271.159C237.649 271.159 241.697 270.254 245.406 268.508C249.115 266.762 252.392 264.219 255.004 261.06C256.179 259.662 256.767 257.864 256.644 256.042C256.52 254.22 255.696 252.517 254.344 251.29Z" fill="#313D40"/>
</svg>
