<svg width="458" height="394" viewBox="0 0 458 394" fill="none" xmlns="http://www.w3.org/2000/svg">
<path d="M380.24 62.3802L228.84 95.7002L77.4299 62.3802C117.69 22.4227 172.112 0 228.835 0C285.557 0 339.98 22.4227 380.24 62.3802Z" fill="#5C586F"/>
<path d="M444.16 215.32H13.5199C13.4842 185.605 19.6347 156.208 31.5799 129L228.84 95.7002L426.1 129C438.045 156.208 444.196 185.605 444.16 215.32Z" fill="#5C586F"/>
<path d="M85.1399 207.06C85.0629 176.224 90.9475 145.663 102.47 117.06L31.5799 129C19.6374 156.202 13.487 185.592 13.5199 215.3H85.2899C85.1999 212.58 85.1399 209.82 85.1399 207.06Z" fill="#4F4C5F"/>
<path d="M407.29 276.25C435.12 276.25 457.68 253.69 457.68 225.86C457.68 198.031 435.12 175.47 407.29 175.47C379.46 175.47 356.9 198.031 356.9 225.86C356.9 253.69 379.46 276.25 407.29 276.25Z" fill="#E2BBA1"/>
<path d="M72.6099 129C57.613 156.17 49.9607 186.78 50.4085 217.81C50.8562 248.841 59.3885 279.218 75.163 305.943C90.9376 332.669 113.409 354.818 140.359 370.205C167.309 385.593 197.806 393.686 228.84 393.686C259.873 393.686 290.37 385.593 317.321 370.205C344.271 354.818 366.742 332.669 382.517 305.943C398.291 279.218 406.824 248.841 407.271 217.81C407.719 186.78 400.067 156.17 385.07 129L228.84 95.7002L72.6099 129Z" fill="#EFCDB6"/>
<path d="M219.78 0.200195C166.231 2.42669 115.452 24.6073 77.4299 62.3802L126.26 73.1202C149.93 39.2202 182.4 13.4702 219.78 0.200195Z" fill="#4F4C5F"/>
<path d="M163 381.22C115.75 341.7 85.14 278.41 85.14 207.06C85.0905 178.422 90.1707 150.007 100.14 123.16L72.61 129C64.5004 143.637 58.5074 159.35 54.81 175.67C53.3413 175.523 51.8661 175.45 50.39 175.45C37.0257 175.45 24.2088 180.759 14.7589 190.209C5.30893 199.659 0 212.476 0 225.84C0 239.205 5.30893 252.021 14.7589 261.471C24.2088 270.921 37.0257 276.23 50.39 276.23C53.8339 276.296 57.2703 275.882 60.6 275C69.1396 298.966 82.6897 320.835 100.347 339.151C118.004 357.467 139.363 371.809 163 381.22Z" fill="#E2BBA1"/>
<path d="M426.1 129H31.5801C42.529 104.103 58.0854 81.4994 77.4301 62.3802H380.25C399.595 81.4994 415.151 104.103 426.1 129Z" fill="#D8D8D8"/>
<path d="M134.29 62.3802H77.4301C58.0854 81.4994 42.529 104.103 31.5801 129H98.0001C106.203 104.884 118.477 82.3512 134.29 62.3802Z" fill="#CACAC8"/>
<path d="M45 103.43H412.72C409.48 98.0969 406.023 92.9435 402.35 87.9702H55.35C51.67 92.9569 48.22 98.1102 45 103.43Z" fill="#FF889E"/>
<path d="M116.77 88.0002H55.33C51.6633 92.9669 48.22 98.1102 45 103.43H108.57C111.097 98.1302 113.83 92.9869 116.77 88.0002Z" fill="#FF748F"/>
<path d="M137 237.24C154.2 237.24 168.14 225.92 168.14 211.96C168.14 198 154.21 186.67 137 186.67C119.79 186.67 105.86 198 105.86 212C105.86 226 119.81 237.24 137 237.24Z" fill="#FFBF9D"/>
<path d="M320.67 237.24C337.87 237.24 351.82 225.92 351.82 211.96C351.82 198 337.87 186.67 320.67 186.67C303.47 186.67 289.53 198 289.53 212C289.53 226 303.47 237.24 320.67 237.24Z" fill="#FFBF9D"/>
<path d="M166.69 179.42C165.799 179.434 164.919 179.624 164.101 179.979C163.284 180.334 162.544 180.846 161.924 181.487C161.305 182.128 160.818 182.885 160.491 183.714C160.164 184.543 160.004 185.429 160.02 186.32V198.69C160.02 200.459 160.723 202.156 161.974 203.407C163.225 204.657 164.921 205.36 166.69 205.36C168.459 205.36 170.156 204.657 171.407 203.407C172.657 202.156 173.36 200.459 173.36 198.69V186.32C173.376 185.429 173.216 184.543 172.889 183.714C172.563 182.885 172.075 182.128 171.456 181.487C170.836 180.846 170.097 180.334 169.279 179.979C168.461 179.624 167.581 179.434 166.69 179.42Z" fill="#313D40"/>
<path d="M291.28 179.42C290.388 179.434 289.508 179.624 288.69 179.979C287.872 180.333 287.131 180.846 286.511 181.486C285.891 182.127 285.403 182.884 285.075 183.713C284.747 184.543 284.586 185.428 284.6 186.32V198.69C284.565 199.588 284.712 200.485 285.032 201.325C285.352 202.165 285.838 202.932 286.461 203.58C287.084 204.228 287.832 204.743 288.659 205.095C289.486 205.447 290.376 205.629 291.275 205.629C292.174 205.629 293.064 205.447 293.891 205.095C294.718 204.743 295.466 204.228 296.089 203.58C296.712 202.932 297.199 202.165 297.518 201.325C297.838 200.485 297.985 199.588 297.95 198.69V186.32C297.98 184.521 297.294 182.784 296.043 181.49C294.792 180.196 293.079 179.452 291.28 179.42Z" fill="#313D40"/>
<path d="M249.79 247.56C249.138 246.965 248.372 246.508 247.538 246.218C246.704 245.928 245.82 245.81 244.939 245.872C244.058 245.933 243.199 246.173 242.413 246.577C241.628 246.981 240.933 247.54 240.37 248.22C238.985 249.9 237.246 251.253 235.277 252.182C233.308 253.111 231.157 253.593 228.98 253.593C226.803 253.593 224.653 253.111 222.683 252.182C220.714 251.253 218.975 249.9 217.59 248.22C217.027 247.54 216.332 246.981 215.547 246.577C214.762 246.173 213.903 245.933 213.022 245.872C212.141 245.81 211.257 245.928 210.423 246.218C209.589 246.508 208.822 246.965 208.17 247.56C206.835 248.79 206.024 250.486 205.904 252.297C205.785 254.109 206.367 255.896 207.53 257.29C210.144 260.446 213.423 262.986 217.131 264.73C220.84 266.474 224.887 267.378 228.985 267.378C233.083 267.378 237.131 266.474 240.839 264.73C244.548 262.986 247.826 260.446 250.44 257.29C251.604 255.896 252.186 254.107 252.065 252.295C251.944 250.483 251.129 248.787 249.79 247.56Z" fill="#313D40"/>
</svg>
