<svg width="396" height="396" viewBox="0 0 396 396" fill="none" xmlns="http://www.w3.org/2000/svg">
<path d="M198.151 395.38C307.332 395.38 395.841 306.871 395.841 197.69C395.841 88.5088 307.332 0 198.151 0C88.97 0 0.461182 88.5088 0.461182 197.69C0.461182 306.871 88.97 395.38 198.151 395.38Z" fill="#606060"/>
<path d="M321.641 303.54C286.641 235.61 168.531 182.81 138.171 113.17V113.25C138.171 113.25 60.0011 115.82 23.6411 212.6C29.9383 243.912 44.5907 272.937 66.0449 296.598C87.4992 320.258 114.956 337.673 145.504 346.995C176.052 356.317 208.554 357.2 239.563 349.55C270.573 341.899 298.934 326.001 321.641 303.54Z" fill="#FFD3B6"/>
<path d="M40.7011 197.86C40.7011 152.18 102.121 46.4099 129.091 13.5699C129.091 13.5699 97.4711 16.9099 55.4611 59.5699C32.2711 82.9999 -4.53893 141.75 0.461074 203C7.09107 284.23 42.4611 341 122.461 380.32C74.1711 333.65 40.7011 270 40.7011 197.86Z" fill="#3D3D3D"/>
<path d="M106.091 240.5C123.291 240.5 137.231 229.18 137.231 215.21C137.231 201.24 123.291 189.92 106.091 189.92C88.8912 189.92 74.9412 201.25 74.9412 215.21C74.9412 229.17 88.8912 240.5 106.091 240.5Z" fill="#FFBF9D"/>
<path d="M135.771 182.68C133.972 182.711 132.259 183.456 131.008 184.75C129.758 186.043 129.072 187.781 129.101 189.58V202C129.066 202.898 129.213 203.794 129.533 204.635C129.853 205.475 130.339 206.242 130.962 206.89C131.585 207.537 132.333 208.053 133.16 208.405C133.987 208.757 134.877 208.938 135.776 208.938C136.675 208.938 137.565 208.757 138.392 208.405C139.219 208.053 139.967 207.537 140.59 206.89C141.213 206.242 141.7 205.475 142.019 204.635C142.339 203.794 142.486 202.898 142.451 202V189.58C142.466 188.688 142.305 187.802 141.977 186.973C141.649 186.144 141.161 185.387 140.54 184.746C139.92 184.105 139.18 183.593 138.361 183.239C137.543 182.884 136.663 182.694 135.771 182.68Z" fill="#313D40"/>
<path d="M218.871 250.81C218.218 250.216 217.451 249.762 216.617 249.473C215.782 249.184 214.898 249.068 214.018 249.13C213.138 249.193 212.279 249.434 211.494 249.837C210.709 250.241 210.014 250.8 209.451 251.48C208.067 253.16 206.327 254.513 204.358 255.442C202.389 256.371 200.239 256.852 198.061 256.852C195.884 256.852 193.734 256.371 191.765 255.442C189.795 254.513 188.056 253.16 186.671 251.48C186.108 250.8 185.413 250.241 184.629 249.837C183.844 249.434 182.985 249.193 182.105 249.13C181.224 249.068 180.34 249.184 179.506 249.473C178.672 249.762 177.905 250.216 177.251 250.81C175.916 252.039 175.105 253.736 174.985 255.547C174.866 257.358 175.448 259.146 176.611 260.54C179.223 263.699 182.501 266.242 186.21 267.988C189.919 269.734 193.967 270.639 198.066 270.639C202.165 270.639 206.214 269.734 209.923 267.988C213.632 266.242 216.909 263.699 219.521 260.54C220.685 259.146 221.267 257.357 221.146 255.545C221.025 253.733 220.21 252.037 218.871 250.81Z" fill="#313D40"/>
</svg>
