<svg width="458" height="394" viewBox="0 0 458 394" fill="none" xmlns="http://www.w3.org/2000/svg">
<path d="M13.52 215.32C13.52 96.59 110.11 0 228.84 0C347.57 0 444.16 96.59 444.16 215.32H13.52Z" fill="#E7886E"/>
<path d="M407.29 273.79C435.12 273.79 457.68 251.23 457.68 223.4C457.68 195.57 435.12 173.01 407.29 173.01C379.46 173.01 356.9 195.57 356.9 223.4C356.9 251.23 379.46 273.79 407.29 273.79Z" fill="#FFC69F"/>
<path d="M50.39 275.91C78.2196 275.91 100.78 253.35 100.78 225.52C100.78 197.69 78.2196 175.13 50.39 175.13C22.5604 175.13 0 197.69 0 225.52C0 253.35 22.5604 275.91 50.39 275.91Z" fill="#FFC69F"/>
<path d="M358.09 121.44C350.153 125.742 341.268 127.995 332.24 127.995C323.212 127.995 314.327 125.742 306.39 121.44C298.452 117.143 289.567 114.892 280.54 114.892C271.513 114.892 262.628 117.143 254.69 121.44C246.753 125.742 237.868 127.995 228.84 127.995C219.812 127.995 210.927 125.742 202.99 121.44C195.051 117.143 186.167 114.892 177.14 114.892C168.113 114.892 159.228 117.143 151.29 121.44C143.353 125.742 134.468 127.995 125.44 127.995C116.412 127.995 107.527 125.742 99.5899 121.44C93.8026 118.326 87.4963 116.293 80.9799 115.44C62.8436 142.281 52.3555 173.552 50.6403 205.9C48.925 238.248 56.0474 270.454 71.2437 299.062C86.4399 327.67 109.137 351.602 136.9 368.292C164.663 384.981 196.446 393.799 228.84 393.799C261.234 393.799 293.016 384.981 320.78 368.292C348.543 351.602 371.24 327.67 386.436 299.062C401.632 270.454 408.755 238.248 407.04 205.9C405.324 173.552 394.836 142.281 376.7 115.44C370.184 116.293 363.877 118.326 358.09 121.44Z" fill="#FFD3B6"/>
<path d="M137 255.58C154.2 255.58 168.14 244.25 168.14 230.29C168.14 216.33 154.21 205 137 205C119.79 205 105.85 216.32 105.85 230.29C105.85 244.26 119.81 255.58 137 255.58Z" fill="#FFBF9D"/>
<path d="M320.67 255.58C337.87 255.58 351.82 244.25 351.82 230.29C351.82 216.33 337.87 205 320.67 205C303.47 205 289.53 216.32 289.53 230.29C289.53 244.26 303.47 255.58 320.67 255.58Z" fill="#FFBF9D"/>
<path d="M166.69 197.76C165.8 197.774 164.921 197.964 164.104 198.318C163.287 198.672 162.547 199.184 161.928 199.823C161.309 200.463 160.821 201.219 160.494 202.047C160.167 202.875 160.006 203.76 160.02 204.65V217C160.02 218.769 160.723 220.466 161.974 221.716C163.225 222.967 164.921 223.67 166.69 223.67C168.459 223.67 170.156 222.967 171.407 221.716C172.657 220.466 173.36 218.769 173.36 217V204.65C173.375 203.76 173.214 202.875 172.886 202.047C172.559 201.219 172.072 200.463 171.452 199.823C170.833 199.184 170.094 198.672 169.277 198.318C168.459 197.964 167.581 197.774 166.69 197.76Z" fill="#313D40"/>
<path d="M291.28 197.76C290.389 197.773 289.509 197.962 288.691 198.315C287.872 198.669 287.132 199.18 286.511 199.82C285.891 200.46 285.403 201.216 285.075 202.045C284.747 202.873 284.585 203.759 284.6 204.65V217C284.6 218.777 285.306 220.481 286.562 221.738C287.819 222.994 289.523 223.7 291.3 223.7C293.077 223.7 294.781 222.994 296.038 221.738C297.294 220.481 298 218.777 298 217V204.65C298.015 203.755 297.852 202.867 297.521 202.035C297.191 201.204 296.699 200.446 296.075 199.806C295.45 199.165 294.705 198.655 293.882 198.304C293.059 197.953 292.175 197.768 291.28 197.76Z" fill="#313D40"/>
<path d="M249.79 265.89C249.137 265.297 248.37 264.842 247.535 264.553C246.701 264.265 245.817 264.148 244.937 264.211C244.056 264.273 243.198 264.514 242.413 264.918C241.628 265.321 240.933 265.88 240.37 266.56C238.983 268.237 237.243 269.587 235.274 270.514C233.305 271.441 231.156 271.921 228.98 271.921C226.804 271.921 224.655 271.441 222.686 270.514C220.717 269.587 218.977 268.237 217.59 266.56C217.028 265.879 216.333 265.319 215.549 264.914C214.764 264.51 213.905 264.269 213.024 264.206C212.143 264.143 211.258 264.26 210.424 264.55C209.59 264.839 208.823 265.295 208.17 265.89C206.833 267.118 206.02 268.815 205.9 270.627C205.781 272.439 206.365 274.227 207.53 275.62C210.142 278.779 213.42 281.322 217.129 283.068C220.837 284.814 224.886 285.719 228.985 285.719C233.084 285.719 237.133 284.814 240.842 283.068C244.55 281.322 247.828 278.779 250.44 275.62C251.604 274.226 252.186 272.437 252.065 270.625C251.944 268.813 251.129 267.117 249.79 265.89Z" fill="#313D40"/>
</svg>
