<svg width="513" height="394" viewBox="0 0 513 394" fill="none" xmlns="http://www.w3.org/2000/svg">
<path d="M504.87 86.9834L488.65 78.7334L495.18 56.1334C496.127 52.8952 495.778 49.4156 494.207 46.4299C492.635 43.4443 489.965 41.1864 486.76 40.1334L464.43 32.7434L466.79 14.7434C467.061 12.7286 466.855 10.6783 466.19 8.75722C465.525 6.83613 464.419 5.09779 462.96 3.68183C461.502 2.26587 459.731 1.21176 457.791 0.604181C455.851 -0.00340152 453.795 -0.147524 451.79 0.18339C394.79 9.86339 382.62 66.7834 382.62 66.7834L414.34 126.983C414.34 126.983 468.16 149.143 508.39 107.603C509.8 106.137 510.847 104.359 511.445 102.414C512.043 100.469 512.176 98.4109 511.834 96.405C511.491 94.3991 510.683 92.5016 509.473 90.8652C508.264 89.2288 506.687 87.8992 504.87 86.9834Z" fill="#FFA2E7"/>
<path d="M43.1396 217.263C43.1396 99.8834 138.63 4.39343 256.01 4.39343C373.39 4.39343 468.88 99.8834 468.88 217.263H43.1396Z" fill="#FFB5EC"/>
<path d="M205.84 10.3734C175.855 17.6667 147.821 31.4091 123.69 50.6434C115.62 33.0434 97.5296 6.50338 60.2396 0.17338C58.2337 -0.157534 56.1783 -0.0134113 54.2382 0.594171C52.2982 1.20175 50.5277 2.25586 49.0689 3.67182C47.6102 5.08778 46.5039 6.82612 45.8388 8.74721C45.1738 10.6683 44.9685 12.7186 45.2396 14.7334L47.5996 32.7334L25.2596 40.1634C22.0542 41.2164 19.3838 43.4742 17.8126 46.4599C16.2414 49.4456 15.8925 52.9252 16.8396 56.1634L23.3696 78.7634L7.14958 86.9834C5.33237 87.8992 3.75552 89.2288 2.54593 90.8652C1.33634 92.5016 0.527802 94.3991 0.185377 96.405C-0.157047 98.4109 -0.0237918 100.469 0.57442 102.414C1.17263 104.359 2.21909 106.137 3.62958 107.603C21.9296 126.493 43.0296 132.203 60.6296 132.823C49.0727 159.466 43.1259 188.202 43.1596 217.243H117.16C116.946 212.91 116.84 208.55 116.84 204.163C116.81 125.593 151.61 55.5934 205.84 10.3734Z" fill="#FFA2E7"/>
<path d="M432.43 277.493C459.944 277.493 482.25 255.188 482.25 227.673C482.25 200.159 459.944 177.853 432.43 177.853C404.915 177.853 382.61 200.159 382.61 227.673C382.61 255.188 404.915 277.493 432.43 277.493Z" fill="#FFCABD"/>
<path d="M432.43 217.253C432.431 240.445 427.86 263.409 418.978 284.832C410.095 306.255 397.076 325.716 380.666 342.103C364.255 358.49 344.774 371.48 323.338 380.331C301.902 389.181 278.931 393.719 255.74 393.683C158.17 393.533 78.7397 313.283 79.5997 215.683C79.8098 184.269 88.4431 153.486 104.6 126.543C105.422 125.173 106.516 123.987 107.816 123.057C109.116 122.128 110.593 121.477 112.156 121.143C113.719 120.809 115.333 120.8 116.899 121.117C118.465 121.433 119.95 122.069 121.26 122.983L139.51 135.563C142.467 137.605 145.976 138.698 149.57 138.698C153.163 138.698 156.672 137.605 159.63 135.563L192.73 112.743C195.691 110.706 199.201 109.616 202.795 109.616C206.389 109.616 209.898 110.706 212.86 112.743L245.95 135.563C248.907 137.605 252.416 138.698 256.01 138.698C259.603 138.698 263.112 137.605 266.07 135.563L299.16 112.743C302.123 110.707 305.634 109.617 309.23 109.617C312.825 109.617 316.336 110.707 319.3 112.743L352.38 135.563C355.339 137.606 358.849 138.699 362.445 138.699C366.04 138.699 369.551 137.606 372.51 135.563L390.76 122.983C392.065 122.078 393.542 121.45 395.1 121.137C396.657 120.825 398.262 120.835 399.816 121.167C401.369 121.498 402.838 122.145 404.132 123.066C405.426 123.987 406.518 125.164 407.34 126.523C423.805 153.908 432.481 185.269 432.43 217.223V217.253Z" fill="#FFD8D2"/>
<path d="M185.46 378.873C143.01 334.193 116.81 272.423 116.81 204.183C116.785 178.303 120.634 152.564 128.23 127.823L121.23 123.013C119.92 122.109 118.439 121.482 116.878 121.171C115.317 120.861 113.709 120.873 112.153 121.208C110.597 121.542 109.126 122.192 107.83 123.116C106.534 124.041 105.442 125.221 104.62 126.583C95.0623 142.549 88.1054 159.932 84.0096 178.083C82.5509 177.936 81.0857 177.863 79.6196 177.863C73.0184 177.77 66.4644 178.989 60.3386 181.451C54.2128 183.912 48.6373 187.567 43.9361 192.202C39.235 196.837 35.5019 202.36 32.9539 208.45C30.4059 214.54 29.0938 221.076 29.0938 227.678C29.0938 234.28 30.4059 240.816 32.9539 246.907C35.5019 252.997 39.235 258.52 43.9361 263.155C48.6373 267.79 54.2128 271.445 60.3386 273.906C66.4644 276.367 73.0184 277.587 79.6196 277.493C83.0611 277.54 86.4918 277.099 89.8096 276.183C97.9573 298.891 110.638 319.704 127.082 337.358C143.525 355.011 163.387 369.136 185.46 378.873Z" fill="#FFCABD"/>
<path d="M164.18 252.153C181.38 252.153 195.32 240.823 195.32 226.863C195.32 212.903 181.38 201.573 164.18 201.573C146.98 201.573 133.01 212.893 133.01 226.863C133.01 240.833 147.01 252.153 164.18 252.153Z" fill="#FFBF9D"/>
<path d="M347.839 252.153C365.039 252.153 378.989 240.823 378.989 226.863C378.989 212.903 364.989 201.573 347.839 201.573C330.689 201.573 316.699 212.893 316.699 226.863C316.699 240.833 330.639 252.153 347.839 252.153Z" fill="#FFBF9D"/>
<path d="M193.86 194.333C192.969 194.348 192.09 194.537 191.273 194.891C190.456 195.245 189.717 195.757 189.097 196.397C188.478 197.037 187.991 197.792 187.663 198.62C187.336 199.448 187.175 200.333 187.19 201.223V213.593C187.155 214.492 187.302 215.388 187.621 216.228C187.941 217.068 188.427 217.835 189.051 218.483C189.674 219.131 190.421 219.646 191.249 219.998C192.076 220.35 192.966 220.532 193.865 220.532C194.764 220.532 195.653 220.35 196.48 219.998C197.308 219.646 198.055 219.131 198.679 218.483C199.302 217.835 199.788 217.068 200.108 216.228C200.427 215.388 200.574 214.492 200.54 213.593V201.223C200.554 200.332 200.393 199.447 200.065 198.618C199.737 197.789 199.249 197.033 198.628 196.393C198.008 195.753 197.267 195.242 196.449 194.888C195.631 194.535 194.751 194.346 193.86 194.333Z" fill="#313D40"/>
<path d="M318.45 194.333C317.558 194.346 316.678 194.535 315.86 194.888C315.042 195.242 314.301 195.753 313.681 196.393C313.06 197.033 312.572 197.789 312.244 198.618C311.916 199.447 311.755 200.332 311.77 201.223V213.593C311.735 214.492 311.882 215.388 312.202 216.228C312.521 217.068 313.007 217.835 313.631 218.483C314.254 219.131 315.002 219.646 315.829 219.998C316.656 220.35 317.546 220.532 318.445 220.532C319.344 220.532 320.233 220.35 321.061 219.998C321.888 219.646 322.635 219.131 323.259 218.483C323.882 217.835 324.368 217.068 324.688 216.228C325.008 215.388 325.154 214.492 325.12 213.593V201.223C325.134 200.333 324.973 199.448 324.646 198.62C324.319 197.792 323.831 197.037 323.212 196.397C322.592 195.757 321.853 195.245 321.036 194.891C320.219 194.537 319.34 194.348 318.45 194.333Z" fill="#313D40"/>
<path d="M277.009 262.463C276.357 261.869 275.59 261.413 274.755 261.123C273.921 260.834 273.037 260.717 272.156 260.779C271.275 260.842 270.416 261.083 269.631 261.488C268.846 261.892 268.152 262.452 267.589 263.133C266.203 264.81 264.463 266.16 262.494 267.087C260.525 268.014 258.376 268.494 256.199 268.494C254.023 268.494 251.874 268.014 249.905 267.087C247.936 266.16 246.196 264.81 244.809 263.133C244.247 262.452 243.553 261.892 242.768 261.488C241.983 261.083 241.124 260.842 240.243 260.779C239.362 260.717 238.478 260.834 237.643 261.123C236.809 261.413 236.042 261.869 235.389 262.463C234.054 263.693 233.243 265.389 233.124 267.2C233.005 269.012 233.587 270.799 234.749 272.193C237.364 275.349 240.642 277.89 244.35 279.633C248.059 281.377 252.106 282.281 256.204 282.281C260.302 282.281 264.35 281.377 268.058 279.633C271.767 277.89 275.045 275.349 277.659 272.193C278.823 270.799 279.405 269.01 279.284 267.198C279.163 265.386 278.348 263.69 277.009 262.463Z" fill="#313D40"/>
</svg>
