<svg width="555" height="402" viewBox="0 0 555 402" fill="none" xmlns="http://www.w3.org/2000/svg">
<path d="M542.343 77.8492C527.453 74.1092 514.453 62.2492 505.753 52.2992C500.491 46.0985 495.805 39.4309 491.753 32.3792C485.678 22.1772 476.975 13.7939 466.553 8.105C456.131 2.41614 444.372 -0.369435 432.505 0.0393024C420.639 0.44804 409.099 4.03609 399.093 10.4286C389.087 16.8211 380.982 25.7834 375.623 36.3792L464.353 125.139C469.148 129.874 474.886 133.546 481.193 135.919H481.283C512.893 148.119 537.393 124.509 552.113 103.259C553.622 101.048 554.571 98.5037 554.88 95.8448C555.19 93.1859 554.849 90.4917 553.889 87.9932C552.928 85.4947 551.376 83.2665 549.365 81.4997C547.354 79.7329 544.944 78.4803 542.343 77.8492Z" fill="#FBC072"/>
<path d="M73.2731 260.829C73.2731 260.829 90.5331 313.929 69.8331 364.279C63.3231 380.099 78.9831 396.129 95.0531 390.279C119.563 381.279 135.053 362.019 139.873 320.809V260.829H73.2731Z" fill="#FBC072"/>
<path d="M481.713 260.829C481.713 260.829 464.443 313.929 485.153 364.279C491.653 380.099 476.003 396.129 459.933 390.279C435.423 381.279 419.933 362.019 415.113 320.809V260.829H481.713Z" fill="#FBC072"/>
<path d="M60.7329 222.179C60.7329 102.659 157.963 5.41919 277.493 5.41919C397.023 5.41919 494.253 102.659 494.253 222.179H60.7329Z" fill="#FCCB88"/>
<path d="M457.133 283.499C485.145 283.499 507.853 260.791 507.853 232.779C507.853 204.767 485.145 182.059 457.133 182.059C429.121 182.059 406.413 204.767 406.413 232.779C406.413 260.791 429.121 283.499 457.133 283.499Z" fill="#FFCABD"/>
<path d="M229.623 10.7592C210.982 14.9812 192.986 21.6701 176.113 30.6492C170.432 21.6852 162.66 14.235 153.463 8.93917C138.367 0.198556 120.435 -2.24246 103.552 2.14492C86.6687 6.5323 72.1938 17.3948 63.2631 32.3792C59.2115 39.4308 54.5255 46.0984 49.2631 52.2992C40.5631 62.2992 27.5531 74.1092 12.6631 77.8492C10.0563 78.479 7.64154 79.7329 5.6268 81.503C3.61205 83.273 2.05764 85.5062 1.09735 88.0102C0.137066 90.5142 -0.200318 93.2141 0.11424 95.8774C0.428798 98.5408 1.38588 101.088 2.90309 103.299C17.6131 124.549 42.1231 148.159 73.7331 135.999H73.8231C75.9061 135.197 77.9339 134.259 79.8931 133.189C67.2321 161.171 60.6995 191.536 60.7331 222.249H132.433C132.253 218.339 132.143 214.419 132.143 210.469C132.099 171.953 140.859 133.937 157.753 99.3243C174.648 64.7117 199.231 34.4185 229.623 10.7592Z" fill="#FBC072"/>
<path d="M452.673 182.259C452.673 182.259 419.713 139.999 359.213 139.999C321.643 139.999 299.213 121.169 287.623 106.879C286.399 105.374 284.854 104.161 283.102 103.328C281.349 102.495 279.433 102.062 277.493 102.062C275.553 102.062 273.637 102.495 271.885 103.328C270.132 104.161 268.588 105.374 267.363 106.879C255.753 121.169 233.363 139.999 195.773 139.999C135.273 139.999 102.313 182.279 102.313 182.279C99.2836 195.639 97.7872 209.301 97.8532 222.999C98.2832 321.999 181.393 403.399 280.413 401.819C307.144 401.368 333.437 394.961 357.378 383.063C381.319 371.166 402.305 354.078 418.808 333.044C435.31 312.011 446.913 287.561 452.771 261.477C458.63 235.392 458.596 208.329 452.673 182.259Z" fill="#FFD8D2"/>
<path d="M201.683 384.679C172.978 354.399 152.191 317.502 141.164 277.262C130.138 237.022 129.213 194.682 138.473 153.999C114.793 166.309 102.313 182.299 102.313 182.299C100.913 182.159 99.4331 182.079 97.8631 182.079C91.1419 181.985 84.4689 183.227 78.232 185.734C71.995 188.241 66.3184 191.962 61.5321 196.682C56.7457 201.401 52.9451 207.025 50.3509 213.226C47.7568 219.428 46.4209 226.082 46.4209 232.804C46.4209 239.526 47.7568 246.181 50.3509 252.382C52.9451 258.583 56.7457 264.207 61.5321 268.927C66.3184 273.646 71.995 277.368 78.232 279.875C84.4689 282.381 91.1419 283.624 97.8631 283.529C101.416 283.584 104.958 283.112 108.373 282.129C124.803 327.248 158.324 364.091 201.693 384.699L201.683 384.679Z" fill="#FFCABD"/>
<path d="M185.663 265.549C202.863 265.549 216.803 254.229 216.803 240.259C216.803 226.289 202.863 214.999 185.663 214.999C168.463 214.999 154.513 226.329 154.513 240.289C154.513 254.249 168.453 265.549 185.663 265.549Z" fill="#FFBF9D"/>
<path d="M369.323 265.549C386.523 265.549 400.473 254.229 400.473 240.259C400.473 226.289 386.523 214.999 369.323 214.999C352.123 214.999 338.173 226.329 338.173 240.289C338.173 254.249 352.123 265.549 369.323 265.549Z" fill="#FFBF9D"/>
<path d="M215.343 207.729C214.452 207.744 213.571 207.933 212.753 208.288C211.935 208.642 211.194 209.155 210.574 209.796C209.954 210.436 209.466 211.193 209.138 212.022C208.81 212.852 208.649 213.738 208.663 214.629V226.999C208.628 227.898 208.775 228.794 209.095 229.634C209.415 230.474 209.901 231.241 210.524 231.889C211.148 232.537 211.895 233.052 212.722 233.404C213.549 233.756 214.439 233.938 215.338 233.938C216.237 233.938 217.127 233.756 217.954 233.404C218.781 233.052 219.529 232.537 220.152 231.889C220.775 231.241 221.262 230.474 221.581 229.634C221.901 228.794 222.048 227.898 222.013 226.999V214.629C222.043 212.83 221.357 211.093 220.106 209.799C218.855 208.505 217.142 207.761 215.343 207.729Z" fill="#313D40"/>
<path d="M339.963 207.729C338.164 207.761 336.451 208.505 335.2 209.799C333.95 211.093 333.264 212.83 333.293 214.629V226.999C333.258 227.898 333.405 228.794 333.725 229.634C334.045 230.474 334.531 231.241 335.154 231.889C335.777 232.537 336.525 233.052 337.352 233.404C338.179 233.756 339.069 233.938 339.968 233.938C340.867 233.938 341.757 233.756 342.584 233.404C343.411 233.052 344.159 232.537 344.782 231.889C345.405 231.241 345.891 230.474 346.211 229.634C346.531 228.794 346.678 227.898 346.643 226.999V214.629C346.658 213.738 346.496 212.852 346.169 212.022C345.841 211.193 345.353 210.436 344.732 209.796C344.112 209.155 343.372 208.642 342.553 208.288C341.735 207.933 340.855 207.744 339.963 207.729Z" fill="#313D40"/>
<path d="M298.443 275.859C297.79 275.266 297.023 274.811 296.188 274.522C295.354 274.234 294.47 274.117 293.59 274.18C292.709 274.242 291.851 274.483 291.066 274.887C290.281 275.291 289.586 275.849 289.023 276.529C287.638 278.209 285.899 279.562 283.93 280.491C281.961 281.42 279.81 281.902 277.633 281.902C275.456 281.902 273.306 281.42 271.336 280.491C269.367 279.562 267.628 278.209 266.243 276.529C265.68 275.849 264.985 275.291 264.2 274.887C263.415 274.483 262.557 274.242 261.676 274.18C260.796 274.117 259.912 274.234 259.078 274.522C258.244 274.811 257.477 275.266 256.823 275.859C255.472 277.079 254.65 278.778 254.53 280.594C254.411 282.411 255.004 284.203 256.183 285.589C258.794 288.748 262.071 291.291 265.779 293.037C269.487 294.783 273.535 295.688 277.633 295.688C281.731 295.688 285.779 294.783 289.487 293.037C293.195 291.291 296.472 288.748 299.083 285.589C300.263 284.203 300.855 282.411 300.736 280.594C300.616 278.778 299.794 277.079 298.443 275.859Z" fill="#313D40"/>
</svg>
