<svg width="453" height="396" viewBox="0 0 453 396" fill="none" xmlns="http://www.w3.org/2000/svg">
<path d="M7.86002 221.318C7.76946 246.535 9.28921 271.733 12.41 296.757C14.3804 311.839 21.7741 325.687 33.2097 335.715C44.6453 345.742 59.3405 351.264 74.55 351.248H378.17C393.378 351.264 408.072 345.742 419.506 335.714C430.94 325.686 438.332 311.838 440.3 296.757C443.429 271.734 444.952 246.536 444.86 221.318H7.86002Z" fill="#E7886E"/>
<path d="M215.33 221.318H7.86002C7.76946 246.535 9.28921 271.733 12.41 296.757C14.3804 311.839 21.7741 325.687 33.2097 335.715C44.6453 345.742 59.3405 351.264 74.55 351.248H215.33V221.318Z" fill="#E27858"/>
<path d="M7.86011 221.318C7.86011 100.838 105.86 2.8175 226.36 2.8175C346.86 2.8175 444.86 100.818 444.86 221.318H7.86011Z" fill="#E7886E"/>
<path d="M132.63 63.0775L107.57 38.0175C76.9806 57.8297 51.8332 84.9795 34.4179 116.994C17.0027 149.009 7.87299 184.872 7.86011 221.317H82.2001C82.0101 217.387 81.9001 213.437 81.9001 209.457C81.8233 156.34 99.7005 104.756 132.63 63.0775Z" fill="#E27858"/>
<path d="M402.87 278.817C430.396 278.817 452.71 256.503 452.71 228.977C452.71 201.452 430.396 179.137 402.87 179.137C375.344 179.137 353.03 201.452 353.03 228.977C353.03 256.503 375.344 278.817 402.87 278.817Z" fill="#FFCABD"/>
<path d="M398.49 179.328H296.81C292.073 179.329 287.406 178.191 283.201 176.011C278.996 173.83 275.377 170.67 272.65 166.798L250.52 135.398C247.791 131.525 244.172 128.364 239.966 126.183C235.761 124.001 231.093 122.862 226.355 122.862C221.617 122.862 216.949 124.001 212.744 126.183C208.538 128.364 204.918 131.525 202.19 135.398L180.07 166.798C177.34 170.67 173.72 173.83 169.513 176.011C165.307 178.191 160.638 179.329 155.9 179.328H54.2199C51.254 192.453 49.7846 205.872 49.8399 219.328C50.2599 316.638 131.93 396.598 229.23 395.038C255.491 394.59 281.322 388.292 304.841 376.602C328.361 364.912 348.979 348.124 365.192 327.461C381.406 306.798 392.808 282.78 398.568 257.154C404.328 231.529 404.301 204.941 398.49 179.328Z" fill="#FFD8D2"/>
<path d="M110.41 120.257H110.49C137.85 122.707 155.57 92.0275 139.77 69.5475L139.72 69.4775L139.77 69.4075C155.57 46.9275 137.85 16.2475 110.49 18.6975H110.41C98.85 -6.2325 63.41 -6.2325 51.85 18.6975H51.77C24.4 16.2575 6.67996 46.9475 22.49 69.4175V69.4875V69.5575C6.67996 92.0175 24.4 122.717 51.77 120.268H51.85C63.41 145.188 98.85 145.188 110.41 120.257Z" fill="#FBE29F"/>
<path d="M81.13 95.3975C95.4397 95.3975 107.04 83.7972 107.04 69.4875C107.04 55.1778 95.4397 43.5775 81.13 43.5775C66.8203 43.5775 55.22 55.1778 55.22 69.4875C55.22 83.7972 66.8203 95.3975 81.13 95.3975Z" fill="#FF889E"/>
<path d="M342.3 120.258H342.23C314.86 122.718 297.14 92.0175 312.94 69.5575L312.99 69.4875L312.94 69.4175C297.14 46.9375 314.86 16.2575 342.23 18.7075H342.3C353.86 -6.22249 389.3 -6.22249 400.87 18.7075H400.94C428.31 16.2575 446 46.9375 430.23 69.4175L430.18 69.4875L430.23 69.5575C446 92.0175 428.31 122.718 400.94 120.268H400.87C389.31 145.188 353.86 145.188 342.3 120.258Z" fill="#FBE29F"/>
<path d="M371.59 95.3975C385.9 95.3975 397.5 83.7972 397.5 69.4875C397.5 55.1778 385.9 43.5775 371.59 43.5775C357.28 43.5775 345.68 55.1778 345.68 69.4875C345.68 83.7972 357.28 95.3975 371.59 95.3975Z" fill="#FF889E"/>
<path d="M153.51 379.018C130.818 356.997 112.785 330.64 100.483 301.511C88.1811 272.382 81.8615 241.077 81.9 209.458C81.8995 199.384 82.5341 189.321 83.8 179.328H54.22C52.7646 179.181 51.3028 179.107 49.84 179.108C36.6216 179.108 23.9446 184.359 14.5978 193.705C5.25098 203.052 0 215.729 0 228.948C0 242.166 5.25098 254.843 14.5978 264.19C23.9446 273.537 36.6216 278.788 49.84 278.788C53.3264 278.837 56.8018 278.386 60.16 277.448C68.2628 299.692 80.6809 320.116 96.7008 337.547C112.721 354.977 132.027 369.071 153.51 379.018Z" fill="#FFCABD"/>
<path d="M133 264.548C150.21 264.548 164.15 253.228 164.15 239.258C164.15 225.288 150.17 214.018 133 214.018C115.83 214.018 101.86 225.338 101.86 239.308C101.86 253.278 115.76 264.548 133 264.548Z" fill="#FFBF9D"/>
<path d="M316.63 264.548C333.83 264.548 347.78 253.228 347.78 239.258C347.78 225.288 333.83 214.018 316.63 214.018C299.43 214.018 285.48 225.338 285.48 239.308C285.48 253.278 299.43 264.548 316.63 264.548Z" fill="#FFBF9D"/>
<path d="M162.65 206.728C160.856 206.764 159.15 207.51 157.904 208.801C156.658 210.092 155.973 211.823 156 213.618V226.018C155.965 226.916 156.112 227.812 156.432 228.652C156.752 229.492 157.238 230.259 157.861 230.907C158.484 231.555 159.232 232.07 160.059 232.422C160.886 232.774 161.776 232.956 162.675 232.956C163.574 232.956 164.464 232.774 165.291 232.422C166.118 232.07 166.866 231.555 167.489 230.907C168.112 230.259 168.598 229.492 168.918 228.652C169.238 227.812 169.385 226.916 169.35 226.018V213.618C169.363 212.725 169.2 211.839 168.871 211.009C168.541 210.18 168.051 209.423 167.429 208.783C166.806 208.143 166.064 207.632 165.244 207.28C164.424 206.927 163.543 206.739 162.65 206.728Z" fill="#313D40"/>
<path d="M287.23 206.728C285.433 206.759 283.721 207.502 282.471 208.794C281.221 210.085 280.533 211.82 280.56 213.618V226.018C280.525 226.916 280.672 227.812 280.992 228.652C281.312 229.492 281.798 230.259 282.421 230.907C283.044 231.555 283.792 232.07 284.619 232.422C285.446 232.774 286.336 232.956 287.235 232.956C288.134 232.956 289.024 232.774 289.851 232.422C290.678 232.07 291.426 231.555 292.049 230.907C292.672 230.259 293.158 229.492 293.478 228.652C293.798 227.812 293.945 226.916 293.91 226.018V213.618C293.937 211.818 293.248 210.082 291.996 208.79C290.743 207.498 289.029 206.756 287.23 206.728Z" fill="#313D40"/>
<path d="M245.75 274.857C245.097 274.264 244.33 273.809 243.496 273.521C242.661 273.232 241.777 273.115 240.897 273.178C240.016 273.241 239.158 273.481 238.373 273.885C237.588 274.289 236.893 274.848 236.33 275.528C234.943 277.204 233.203 278.555 231.234 279.481C229.265 280.408 227.116 280.889 224.94 280.889C222.764 280.889 220.615 280.408 218.646 279.481C216.677 278.555 214.937 277.204 213.55 275.528C212.987 274.848 212.292 274.289 211.507 273.885C210.722 273.481 209.864 273.241 208.983 273.178C208.103 273.115 207.219 273.232 206.385 273.521C205.551 273.809 204.784 274.264 204.13 274.857C202.791 276.084 201.976 277.78 201.855 279.592C201.734 281.404 202.316 283.193 203.48 284.588C206.092 287.747 209.37 290.29 213.079 292.035C216.787 293.781 220.836 294.686 224.935 294.686C229.034 294.686 233.083 293.781 236.792 292.035C240.5 290.29 243.778 287.747 246.39 284.588C247.57 283.201 248.162 281.409 248.043 279.593C247.923 277.776 247.101 276.078 245.75 274.857Z" fill="#313D40"/>
</svg>
