<svg width="497" height="476" viewBox="0 0 497 476" fill="none" xmlns="http://www.w3.org/2000/svg">
<path d="M14.4424 42.35C14.4424 55.51 9.9224 65.25 3.1924 72.45C2.0501 73.7069 1.18094 75.1871 0.639854 76.797C0.0987685 78.4069 -0.102479 80.1115 0.0488302 81.8032C0.200139 83.4949 0.700715 85.1367 1.51892 86.6251C2.33713 88.1134 3.45517 89.4158 4.8024 90.45C17.4124 100.23 41.4624 112.03 78.2324 102.84L114.472 45.44C92.5024 -15.48 14.4424 -8.99998 14.4424 42.35Z" fill="#FBC072"/>
<path d="M148.102 42.86C144.497 39.257 140.2 36.4201 135.47 34.5196C130.741 32.6191 125.676 31.6944 120.579 31.8009C115.483 31.9073 110.461 33.0429 105.815 35.1392C101.169 37.2356 96.9944 40.2495 93.5424 44C83.2271 55.1928 73.9584 67.3067 65.8524 80.19C61.2869 87.4491 59.321 96.0431 60.2766 104.565C61.2322 113.087 65.0526 121.032 71.1124 127.1L78.6224 134.61L148.102 42.86Z" fill="#B08BD7"/>
<path d="M460.832 398.49C472.742 452.8 375.272 475.12 375.272 475.12H175.832C175.832 475.12 78.3624 452.8 90.2724 398.49C108.132 315.92 64.2024 328.56 64.2024 211.35C64.2606 155.314 86.5465 101.59 126.17 61.9673C165.793 22.3441 219.517 0.0582381 275.552 0C392.102 0 486.902 94.81 486.902 211.35C486.902 328.56 442.972 315.92 460.832 398.49Z" fill="#FCCB88"/>
<path d="M129.352 180.51C129.352 118.22 161.642 60.43 203.222 12.75C162.478 27.5948 127.285 54.6136 102.42 90.1412C77.5539 125.669 64.2185 167.985 64.2224 211.35C64.2224 328.56 108.152 315.92 90.2924 398.49C78.3824 452.8 175.852 475.12 175.852 475.12H356.112C228.822 460.49 129.352 334.18 129.352 180.51Z" fill="#FBC072"/>
<path d="M449.542 278.63C475.329 278.63 496.232 257.726 496.232 231.94C496.232 206.154 475.329 185.25 449.542 185.25C423.756 185.25 402.852 206.154 402.852 231.94C402.852 257.726 423.756 278.63 449.542 278.63Z" fill="#FFCABD"/>
<path d="M449.542 211.35C449.58 186.381 444.214 161.699 433.812 139C430.003 130.644 423.387 123.886 415.113 119.902C406.839 115.917 397.43 114.958 388.522 117.19C355.522 125.53 316.852 130.32 275.522 130.32C234.192 130.32 195.582 125.53 162.522 117.19C153.702 114.943 144.374 115.845 136.146 119.738C127.919 123.632 121.308 130.274 117.452 138.52C106.891 161.349 101.431 186.206 101.452 211.36C101.452 306.58 178.992 384.71 274.212 385.36C297.172 385.535 319.939 381.165 341.201 372.502C362.463 363.838 381.801 351.051 398.099 334.88C414.397 318.708 427.334 299.471 436.163 278.276C444.992 257.082 449.539 234.35 449.542 211.39V211.35Z" fill="#FFD8D2"/>
<path d="M177.702 355C147.302 306.07 129.352 245.75 129.352 180.49C129.47 159.305 133.006 138.278 139.822 118.22C134.938 119.934 130.447 122.61 126.615 126.09C122.783 129.57 119.688 133.783 117.512 138.48C110.655 153.343 105.942 169.103 103.512 185.29C102.872 185.29 102.232 185.24 101.512 185.24C95.3242 185.149 89.1797 186.29 83.4362 188.596C77.6927 190.901 72.4649 194.325 68.0568 198.669C63.6487 203.014 60.1482 208.191 57.7589 213.9C55.3696 219.609 54.1392 225.736 54.1392 231.925C54.1392 238.114 55.3696 244.241 57.7589 249.95C60.1482 255.659 63.6487 260.836 68.0568 265.18C72.4649 269.525 77.6927 272.949 83.4362 275.254C89.1797 277.56 95.3242 278.701 101.512 278.61C105.849 278.747 110.161 277.924 114.142 276.2C127.133 308.137 149.238 335.544 177.702 355Z" fill="#FFCABD"/>
<path d="M183.722 259.73C200.922 259.73 214.862 248.41 214.862 234.45C214.862 220.49 200.972 209.16 183.722 209.16C166.472 209.16 152.572 220.48 152.572 234.45C152.572 248.42 166.522 259.73 183.722 259.73Z" fill="#FFBF9D"/>
<path d="M367.382 259.73C384.582 259.73 398.532 248.41 398.532 234.45C398.532 220.49 384.582 209.16 367.382 209.16C350.182 209.16 336.242 220.48 336.242 234.45C336.242 248.42 350.182 259.73 367.382 259.73Z" fill="#FFBF9D"/>
<path d="M213.402 201.91C211.603 201.942 209.89 202.686 208.64 203.98C207.389 205.274 206.703 207.011 206.732 208.81V221.18C206.698 222.078 206.845 222.974 207.164 223.815C207.484 224.655 207.97 225.422 208.593 226.07C209.217 226.718 209.964 227.233 210.792 227.585C211.619 227.937 212.508 228.118 213.407 228.118C214.306 228.118 215.196 227.937 216.023 227.585C216.851 227.233 217.598 226.718 218.221 226.07C218.845 225.422 219.331 224.655 219.651 223.815C219.97 222.974 220.117 222.078 220.082 221.18V208.81C220.097 207.918 219.936 207.032 219.608 206.203C219.28 205.374 218.792 204.617 218.172 203.976C217.551 203.336 216.811 202.823 215.993 202.469C215.174 202.114 214.294 201.924 213.402 201.91Z" fill="#313D40"/>
<path d="M337.972 201.91C337.081 201.924 336.2 202.114 335.382 202.469C334.564 202.823 333.823 203.336 333.203 203.976C332.583 204.617 332.095 205.374 331.767 206.203C331.439 207.032 331.278 207.918 331.292 208.81V221.18C331.258 222.078 331.404 222.974 331.724 223.815C332.044 224.655 332.53 225.422 333.153 226.07C333.777 226.718 334.524 227.233 335.351 227.585C336.179 227.937 337.068 228.118 337.967 228.118C338.866 228.118 339.756 227.937 340.583 227.585C341.41 227.233 342.158 226.718 342.781 226.07C343.405 225.422 343.891 224.655 344.21 223.815C344.53 222.974 344.677 222.078 344.642 221.18V208.81C344.672 207.011 343.986 205.274 342.735 203.98C341.485 202.686 339.771 201.942 337.972 201.91Z" fill="#313D40"/>
<path d="M296.502 270.05C295.851 269.455 295.086 268.999 294.252 268.708C293.419 268.418 292.536 268.3 291.656 268.362C290.776 268.424 289.917 268.664 289.133 269.067C288.348 269.471 287.654 270.03 287.092 270.71C285.707 272.39 283.966 273.743 281.996 274.672C280.026 275.601 277.875 276.083 275.697 276.083C273.519 276.083 271.368 275.601 269.398 274.672C267.428 273.743 265.688 272.39 264.302 270.71C263.74 270.03 263.046 269.471 262.262 269.067C261.477 268.664 260.619 268.424 259.739 268.362C258.859 268.3 257.975 268.418 257.142 268.708C256.309 268.999 255.544 269.455 254.892 270.05C253.553 271.277 252.739 272.973 252.618 274.785C252.496 276.597 253.078 278.386 254.242 279.78C256.857 282.936 260.135 285.476 263.843 287.22C267.552 288.964 271.599 289.868 275.697 289.868C279.795 289.868 283.843 288.964 287.551 287.22C291.26 285.476 294.538 282.936 297.152 279.78C298.316 278.386 298.898 276.597 298.777 274.785C298.656 272.973 297.841 271.277 296.502 270.05Z" fill="#313D40"/>
</svg>
