<svg width="431" height="445" viewBox="0 0 431 445" fill="none" xmlns="http://www.w3.org/2000/svg">
<path d="M215.325 0L263.815 217.41L215.325 445H102.135C-2.38543 403.25 0.00457102 370.77 0.00457102 215.33C0.00457102 96.59 96.6046 0 215.325 0Z" fill="#50E1CD"/>
<path d="M328.515 445H215.325V0C334.005 0 430.645 96.59 430.645 215.33C430.645 370.77 433.005 403.25 328.515 445Z" fill="#5C586F"/>
<path d="M393.114 199.91C392.213 189.634 388.309 179.849 381.888 171.775C375.467 163.701 366.814 157.693 357.004 154.5C300.814 136.24 264.224 136.5 215.364 70.33C166.504 136.47 129.914 136.24 73.7245 154.5C63.908 157.681 55.2451 163.681 48.8165 171.753C42.3879 179.825 38.478 189.611 37.5745 199.89C37.0317 206.208 36.8248 212.55 36.9545 218.89C38.8545 315.29 118.034 393.25 214.444 393.74C237.95 393.856 261.247 389.327 282.998 380.413C304.748 371.498 324.523 358.375 341.186 341.796C357.85 325.217 371.074 305.509 380.098 283.804C389.123 262.1 393.771 238.826 393.774 215.32C393.774 210.133 393.554 204.997 393.114 199.91Z" fill="#FFD8D2"/>
<path d="M123.635 268.07C140.835 268.07 154.785 256.75 154.785 242.78C154.785 228.81 140.835 217.5 123.635 217.5C106.435 217.5 92.4846 228.82 92.4846 242.78C92.4846 256.74 106.435 268.07 123.635 268.07Z" fill="#FFBF9D"/>
<path d="M307.305 268.07C324.505 268.07 338.445 256.75 338.445 242.78C338.445 228.81 324.505 217.5 307.305 217.5C290.105 217.5 276.155 228.82 276.155 242.78C276.155 256.74 290.095 268.07 307.305 268.07Z" fill="#FFBF9D"/>
<path d="M153.315 210.25C151.515 210.282 149.802 211.026 148.552 212.32C147.301 213.614 146.615 215.351 146.645 217.15V229.52C146.61 230.418 146.757 231.314 147.077 232.155C147.396 232.995 147.882 233.762 148.506 234.41C149.129 235.057 149.877 235.573 150.704 235.925C151.531 236.277 152.421 236.458 153.32 236.458C154.219 236.458 155.108 236.277 155.936 235.925C156.763 235.573 157.51 235.057 158.134 234.41C158.757 233.762 159.243 232.995 159.563 232.155C159.883 231.314 160.029 230.418 159.995 229.52V217.15C160.009 216.258 159.848 215.372 159.52 214.543C159.192 213.714 158.704 212.957 158.084 212.316C157.464 211.676 156.723 211.163 155.905 210.809C155.087 210.454 154.206 210.264 153.315 210.25Z" fill="#313D40"/>
<path d="M277.905 210.25C277.013 210.264 276.133 210.454 275.315 210.809C274.496 211.163 273.756 211.676 273.135 212.316C272.515 212.957 272.027 213.714 271.699 214.543C271.371 215.372 271.21 216.258 271.225 217.15V229.52C271.19 230.418 271.337 231.314 271.657 232.155C271.976 232.995 272.462 233.762 273.086 234.41C273.709 235.057 274.457 235.573 275.284 235.925C276.111 236.277 277.001 236.458 277.9 236.458C278.799 236.458 279.688 236.277 280.516 235.925C281.343 235.573 282.09 235.057 282.714 234.41C283.337 233.762 283.823 232.995 284.143 232.155C284.463 231.314 284.61 230.418 284.575 229.52V217.15C284.604 215.351 283.918 213.614 282.668 212.32C281.417 211.026 279.704 210.282 277.905 210.25Z" fill="#313D40"/>
<path d="M236.415 278.38C235.762 277.787 234.996 277.332 234.163 277.044C233.329 276.755 232.446 276.639 231.566 276.701C230.687 276.764 229.829 277.004 229.045 277.408C228.261 277.812 227.567 278.37 227.005 279.05C225.619 280.73 223.879 282.083 221.909 283.012C219.939 283.941 217.788 284.423 215.61 284.423C213.432 284.423 211.281 283.941 209.311 283.012C207.341 282.083 205.6 280.73 204.215 279.05C203.653 278.37 202.959 277.812 202.175 277.408C201.391 277.004 200.533 276.764 199.653 276.701C198.773 276.639 197.89 276.755 197.057 277.044C196.223 277.332 195.457 277.787 194.805 278.38C193.466 279.607 192.651 281.303 192.53 283.115C192.409 284.927 192.991 286.716 194.155 288.11C196.767 291.269 200.044 293.812 203.753 295.558C207.462 297.304 211.511 298.209 215.61 298.209C219.709 298.209 223.757 297.304 227.466 295.558C231.175 293.812 234.452 291.269 237.065 288.11C238.229 286.716 238.811 284.927 238.689 283.115C238.568 281.303 237.754 279.607 236.415 278.38Z" fill="#313D40"/>
</svg>
