<svg width="501" height="395" viewBox="0 0 501 395" fill="none" xmlns="http://www.w3.org/2000/svg">
<path d="M430.66 255.216C458.705 255.216 481.44 232.481 481.44 204.436C481.44 176.391 458.705 153.656 430.66 153.656C402.615 153.656 379.88 176.391 379.88 204.436C379.88 232.481 402.615 255.216 430.66 255.216Z" fill="#EFBFAB"/>
<path d="M50.78 253.416C78.825 253.416 101.56 230.681 101.56 202.636C101.56 174.591 78.825 151.856 50.78 151.856C22.735 151.856 0 174.591 0 202.636C0 230.681 22.735 253.416 50.78 253.416Z" fill="#EFBFAB"/>
<path d="M428.3 115.886C430.908 116.494 433.471 117.283 435.97 118.246C463.54 128.886 484.9 108.246 497.7 89.6956C499.008 87.7749 499.829 85.5647 500.091 83.2558C500.354 80.947 500.051 78.6088 499.209 76.4432C498.366 74.2776 497.009 72.3496 495.255 70.8255C493.501 69.3015 491.402 68.2273 489.14 67.6956C476.14 64.4356 464.87 54.1056 457.3 45.4556C452.709 40.0644 448.622 34.2634 445.09 28.1256C439.8 19.2611 432.227 11.9784 423.164 7.03736C414.1 2.09632 403.876 -0.322082 393.559 0.0344176C383.242 0.390918 373.209 3.50926 364.508 9.06417C355.807 14.6191 348.756 22.407 344.09 31.6156L428.3 115.886Z" fill="#E27858"/>
<path d="M418.11 218.296H454.59C454.62 187.498 447.935 157.065 435 129.116C401.21 56.0356 327.18 5.21564 241.52 5.21564C155.86 5.21564 81.8301 56.0356 48.0001 129.116C35.0647 157.064 28.3826 187.499 28.4201 218.296H418.11Z" fill="#E7886E"/>
<path d="M394 129.116H335.88L310.88 91.1157L285.88 129.116H197.08L172.08 91.1157L147.08 129.116H89.0802C73.3908 155.946 65.0608 186.442 64.9317 217.523C64.8026 248.603 72.8789 279.168 88.3448 306.128C103.811 333.087 126.118 355.488 153.013 371.065C179.909 386.643 210.439 394.846 241.52 394.846C272.601 394.846 303.132 386.643 330.027 371.065C356.922 355.488 379.23 333.087 394.696 306.128C410.161 279.168 418.238 248.603 418.109 217.523C417.98 186.442 409.65 155.946 393.96 129.116H394Z" fill="#FFD3BC"/>
<path d="M149.69 264.356C166.89 264.356 180.83 253.036 180.83 239.076C180.83 225.116 166.89 213.786 149.69 213.786C132.49 213.786 118.54 225.106 118.54 239.076C118.54 253.046 132.49 264.356 149.69 264.356Z" fill="#FFBF9D"/>
<path d="M333.35 264.356C350.55 264.356 364.5 253.036 364.5 239.076C364.5 225.116 350.55 213.786 333.35 213.786C316.15 213.786 302.21 225.106 302.21 239.076C302.21 253.046 316.15 264.356 333.35 264.356Z" fill="#FFBF9D"/>
<path d="M179.37 206.536C177.571 206.567 175.858 207.312 174.607 208.605C173.356 209.899 172.67 211.636 172.7 213.436V225.806C172.665 226.704 172.812 227.6 173.132 228.44C173.452 229.28 173.938 230.047 174.561 230.695C175.184 231.343 175.932 231.859 176.759 232.211C177.586 232.563 178.476 232.744 179.375 232.744C180.274 232.744 181.164 232.563 181.991 232.211C182.818 231.859 183.566 231.343 184.189 230.695C184.812 230.047 185.298 229.28 185.618 228.44C185.938 227.6 186.085 226.704 186.05 225.806V213.436C186.064 212.544 185.903 211.658 185.575 210.829C185.247 209.999 184.759 209.243 184.139 208.602C183.519 207.961 182.778 207.449 181.96 207.094C181.142 206.74 180.262 206.55 179.37 206.536Z" fill="#313D40"/>
<path d="M304 206.536C303.108 206.55 302.228 206.74 301.41 207.094C300.591 207.449 299.851 207.961 299.231 208.602C298.61 209.243 298.122 209.999 297.794 210.829C297.467 211.658 297.305 212.544 297.32 213.436V225.806C297.285 226.704 297.432 227.6 297.752 228.44C298.072 229.28 298.558 230.047 299.181 230.695C299.804 231.343 300.552 231.859 301.379 232.211C302.206 232.563 303.096 232.744 303.995 232.744C304.894 232.744 305.784 232.563 306.611 232.211C307.438 231.859 308.186 231.343 308.809 230.695C309.432 230.047 309.918 229.28 310.238 228.44C310.558 227.6 310.705 226.704 310.67 225.806V213.436C310.699 211.636 310.013 209.899 308.763 208.605C307.512 207.312 305.799 206.567 304 206.536Z" fill="#313D40"/>
<path d="M262.47 274.676C261.818 274.08 261.051 273.624 260.217 273.333C259.383 273.043 258.499 272.925 257.618 272.987C256.738 273.049 255.878 273.289 255.093 273.692C254.308 274.096 253.613 274.655 253.05 275.336C251.665 277.016 249.926 278.369 247.957 279.298C245.987 280.226 243.837 280.708 241.66 280.708C239.483 280.708 237.332 280.226 235.363 279.298C233.394 278.369 231.655 277.016 230.27 275.336C229.708 274.656 229.014 274.097 228.229 273.693C227.445 273.289 226.586 273.05 225.706 272.988C224.826 272.926 223.943 273.044 223.11 273.334C222.277 273.624 221.511 274.081 220.86 274.676C219.521 275.903 218.706 277.598 218.585 279.41C218.464 281.223 219.046 283.012 220.21 284.406C222.824 287.562 226.102 290.102 229.811 291.846C233.519 293.589 237.567 294.493 241.665 294.493C245.763 294.493 249.81 293.589 253.519 291.846C257.227 290.102 260.506 287.562 263.12 284.406C264.284 283.012 264.866 281.223 264.745 279.41C264.624 277.598 263.809 275.903 262.47 274.676Z" fill="#313D40"/>
</svg>
