<svg width="453" height="447" viewBox="0 0 453 447" fill="none" xmlns="http://www.w3.org/2000/svg">
<path d="M13.38 213.11C13.38 95.6 109 0 226.49 0C343.98 0 439.6 95.6 439.6 213.11H13.38Z" fill="#FCCB88"/>
<path d="M433.43 294.86C431.86 279.86 425.43 264.86 434.31 252.72H18.66C27.51 264.89 21.11 279.9 19.54 294.86V294.96C18.1954 307.76 20.943 320.656 27.388 331.796C33.833 342.936 43.6436 351.746 55.41 356.96C69.2356 363.083 80.2866 374.134 86.41 387.96C91.6192 399.73 100.428 409.544 111.569 415.99C122.711 422.436 135.61 425.181 148.41 423.83H148.51C163.472 422.261 178.484 426.291 190.65 435.14L190.75 435.21C201.148 442.774 213.676 446.849 226.535 446.849C239.394 446.849 251.922 442.774 262.32 435.21L262.42 435.14C274.586 426.291 289.598 422.261 304.56 423.83H304.66C317.46 425.176 330.357 422.429 341.497 415.984C352.637 409.539 361.447 399.727 366.66 387.96C372.779 374.131 383.831 363.079 397.66 356.96C409.428 351.748 419.241 342.939 425.686 331.798C432.132 320.658 434.878 307.76 433.53 294.96L433.43 294.86Z" fill="#FCCB88"/>
<path d="M403.1 273.4C430.642 273.4 452.97 251.072 452.97 223.53C452.97 195.988 430.642 173.66 403.1 173.66C375.558 173.66 353.23 195.988 353.23 223.53C353.23 251.072 375.558 273.4 403.1 273.4Z" fill="#FFCABD"/>
<path d="M95.18 252.72H18.66C27.51 264.89 21.11 279.9 19.54 294.86V294.96C18.1954 307.76 20.943 320.656 27.388 331.796C33.833 342.936 43.6436 351.746 55.41 356.96C69.2356 363.083 80.2866 374.134 86.41 387.96C91.6192 399.73 100.428 409.544 111.569 415.99C122.711 422.436 135.61 425.181 148.41 423.83H148.51C163.472 422.261 178.484 426.291 190.65 435.14L190.75 435.21C200.535 442.326 212.22 446.363 224.312 446.805C236.403 447.247 248.351 444.073 258.63 437.69C178.85 422.69 114.63 348.85 95.23 252.77L95.18 252.72Z" fill="#FBC072"/>
<path d="M375.09 117.63C374.306 116.411 373.281 115.365 372.078 114.558C370.874 113.75 369.518 113.198 368.093 112.934C366.668 112.671 365.204 112.703 363.791 113.027C362.379 113.351 361.048 113.961 359.88 114.82L359.79 114.89C354.314 119.055 347.625 121.31 340.745 121.31C333.866 121.31 327.176 119.055 321.7 114.89C316.227 110.725 309.538 108.469 302.66 108.469C295.782 108.469 289.093 110.725 283.62 114.89C278.144 119.055 271.455 121.31 264.575 121.31C257.696 121.31 251.006 119.055 245.53 114.89C240.054 110.725 233.365 108.47 226.485 108.47C219.606 108.47 212.916 110.725 207.44 114.89C201.964 119.055 195.275 121.31 188.395 121.31C181.516 121.31 174.826 119.055 169.35 114.89C163.877 110.725 157.188 108.469 150.31 108.469C143.432 108.469 136.743 110.725 131.27 114.89C125.794 119.055 119.104 121.31 112.225 121.31C105.346 121.31 98.6557 119.055 93.18 114.89L93.09 114.82C91.9209 113.961 90.5879 113.35 89.1736 113.027C87.7592 112.703 86.2935 112.673 84.867 112.938C83.4405 113.203 82.0836 113.758 80.8801 114.569C79.6766 115.379 78.6521 116.428 77.87 117.65C60.7371 144.332 51.1035 175.134 49.9808 206.823C48.858 238.512 56.2875 269.919 71.4892 297.746C86.6909 325.573 109.104 348.794 136.376 364.972C163.647 381.149 194.771 389.686 226.48 389.686C258.189 389.686 289.313 381.149 316.584 364.972C343.856 348.794 366.269 325.573 381.471 297.746C396.673 269.919 404.102 238.512 402.979 206.823C401.857 175.134 392.223 144.332 375.09 117.65V117.63Z" fill="#FFD8D2"/>
<path d="M152.55 373.66C113.55 328.33 89.19 263.77 89.19 192.11C89.3053 167.046 92.0435 142.064 97.36 117.57C95.8997 116.786 94.5022 115.89 93.18 114.89L93.09 114.82C91.9222 113.959 90.5901 113.348 89.1762 113.024C87.7624 112.699 86.297 112.669 84.8708 112.934C83.4447 113.2 82.0883 113.755 80.8858 114.566C79.6832 115.377 78.6601 116.427 77.88 117.65C66.785 134.869 58.7878 153.895 54.25 173.87C52.84 173.74 51.39 173.66 49.87 173.66C36.6437 173.66 23.959 178.914 14.6066 188.267C5.25415 197.619 0 210.304 0 223.53C0 236.756 5.25415 249.441 14.6066 258.793C23.959 268.146 36.6437 273.4 49.87 273.4C53.2619 273.424 56.644 273.031 59.94 272.23C67.8051 294.473 80.0542 314.911 95.962 332.334C111.87 349.757 131.112 363.809 152.55 373.66Z" fill="#FFCABD"/>
<path d="M134.65 255.05C151.85 255.05 165.8 243.73 165.8 229.76C165.8 215.79 151.8 204.47 134.65 204.47C117.5 204.47 103.5 215.79 103.5 229.76C103.5 243.73 117.45 255.05 134.65 255.05Z" fill="#FFAEBA"/>
<path d="M318.32 255.05C335.52 255.05 349.46 243.73 349.46 229.76C349.46 215.79 335.52 204.47 318.32 204.47C301.12 204.47 287.17 215.79 287.17 229.76C287.17 243.73 301.11 255.05 318.32 255.05Z" fill="#FFAEBA"/>
<path d="M164.33 197.23C162.533 197.262 160.821 198.005 159.571 199.296C158.32 200.588 157.633 202.323 157.66 204.12V216.49C157.625 217.388 157.772 218.284 158.092 219.125C158.412 219.965 158.898 220.732 159.521 221.38C160.144 222.027 160.892 222.543 161.719 222.895C162.546 223.247 163.436 223.428 164.335 223.428C165.234 223.428 166.124 223.247 166.951 222.895C167.778 222.543 168.526 222.027 169.149 221.38C169.772 220.732 170.258 219.965 170.578 219.125C170.898 218.284 171.045 217.388 171.01 216.49V204.12C171.037 202.321 170.348 200.585 169.096 199.293C167.843 198.001 166.129 197.259 164.33 197.23Z" fill="#313D40"/>
<path d="M288.92 197.23C288.03 197.244 287.151 197.434 286.334 197.788C285.516 198.142 284.777 198.654 284.158 199.293C283.538 199.933 283.051 200.689 282.724 201.517C282.396 202.345 282.235 203.23 282.25 204.12V216.49C282.25 217.366 282.422 218.233 282.758 219.042C283.093 219.852 283.584 220.587 284.204 221.206C284.823 221.826 285.558 222.317 286.367 222.652C287.177 222.987 288.044 223.16 288.92 223.16C289.796 223.16 290.663 222.987 291.472 222.652C292.282 222.317 293.017 221.826 293.636 221.206C294.256 220.587 294.747 219.852 295.082 219.042C295.417 218.233 295.59 217.366 295.59 216.49V204.12C295.604 203.23 295.444 202.345 295.116 201.517C294.789 200.689 294.302 199.933 293.682 199.293C293.063 198.654 292.323 198.142 291.506 197.788C290.689 197.434 289.81 197.244 288.92 197.23Z" fill="#313D40"/>
<path d="M247.43 265.36C246.779 264.762 246.013 264.303 245.179 264.01C244.345 263.717 243.46 263.597 242.578 263.657C241.696 263.716 240.835 263.955 240.048 264.358C239.261 264.761 238.564 265.319 238 266C236.612 267.677 234.871 269.027 232.902 269.954C230.932 270.881 228.782 271.361 226.605 271.361C224.428 271.361 222.278 270.881 220.308 269.954C218.339 269.027 216.598 267.677 215.21 266C214.648 265.32 213.954 264.762 213.17 264.358C212.386 263.954 211.528 263.714 210.648 263.651C209.769 263.589 208.886 263.705 208.052 263.994C207.219 264.282 206.453 264.737 205.8 265.33C204.461 266.557 203.646 268.253 203.525 270.065C203.404 271.877 203.986 273.666 205.15 275.06C207.762 278.219 211.04 280.762 214.749 282.508C218.457 284.254 222.506 285.159 226.605 285.159C230.704 285.159 234.753 284.254 238.461 282.508C242.17 280.762 245.448 278.219 248.06 275.06C249.217 273.67 249.797 271.889 249.68 270.084C249.563 268.279 248.758 266.588 247.43 265.36Z" fill="#313D40"/>
</svg>
