<svg width="465" height="378" viewBox="0 0 465 378" fill="none" xmlns="http://www.w3.org/2000/svg">
<path d="M393.141 142.04C432.364 142.04 464.161 110.243 464.161 71.02C464.161 31.7967 432.364 0 393.141 0C353.918 0 322.121 31.7967 322.121 71.02C322.121 110.243 353.918 142.04 393.141 142.04Z" fill="#FFA2E7"/>
<path d="M20.0613 219.92C20.0613 103.03 115.151 7.91998 232.061 7.91998C348.971 7.91998 444.061 103.01 444.061 219.92H20.0613Z" fill="#FFB5EC"/>
<path d="M407.731 290.27C435.13 290.27 457.341 268.059 457.341 240.66C457.341 213.261 435.13 191.05 407.731 191.05C380.332 191.05 358.121 213.261 358.121 240.66C358.121 268.059 380.332 290.27 407.731 290.27Z" fill="#FFCABD"/>
<path d="M131.211 33.46C125.426 24.2024 117.585 16.4034 108.296 10.6691C99.0065 4.93479 88.5202 1.41968 77.6518 0.39695C66.7834 -0.625783 55.8255 0.871399 45.6298 4.77214C35.434 8.67288 26.2751 14.8721 18.8647 22.8881C11.4544 30.904 5.99221 40.5207 2.90273 50.9909C-0.186746 61.461 -0.820315 72.5025 1.05126 83.2573C2.92284 94.0121 7.24916 104.191 13.694 113.001C20.1388 121.812 28.5285 129.019 38.2112 134.06C26.194 161.087 19.9997 190.341 20.0312 219.92H93.0312C88.6997 200.768 86.5063 181.195 86.4912 161.56C86.4912 113.56 103.121 69.27 131.211 33.49V33.46Z" fill="#FFA2E7"/>
<path d="M56.3611 214C56.3268 203.479 57.4299 192.984 59.6511 182.7C63.6511 164.3 81.6511 151.14 102.311 151.14H361.771C382.591 151.14 400.531 164.51 404.511 183.04C406.651 193.076 407.727 203.309 407.721 213.57C407.721 263.65 360.521 377.11 232.121 377.11C103.721 377.11 56.5111 263.6 56.3611 214Z" fill="#FFD8D2"/>
<path d="M86.4912 160.89C86.4912 158.58 86.5512 156.28 86.6412 153.99C73.0812 158.74 62.6412 169.47 59.6412 183.06C59.3012 184.64 59.0012 186.23 58.7112 187.83C57.9412 187.83 57.1512 187.77 56.3512 187.77C28.9212 187.77 6.75122 208 6.75122 233C6.75122 258 28.9212 278.19 56.3612 278.19C61.0345 278.275 65.686 277.534 70.1012 276C81.4612 300.49 82.4012 304.23 121.721 338.48C161.041 372.73 209.371 377.06 209.371 377.06C153.001 336.58 86.4912 229.82 86.4912 160.89Z" fill="#FFCABD"/>
<path d="M140.211 251.11C157.411 251.11 171.361 239.79 171.361 225.82C171.361 211.85 157.411 200.54 140.211 200.54C123.011 200.54 109.061 211.86 109.061 225.82C109.061 239.78 123.011 251.11 140.211 251.11Z" fill="#FFBF9D"/>
<path d="M323.921 251.11C341.121 251.11 355.061 239.79 355.061 225.82C355.061 211.85 341.081 200.54 323.921 200.54C306.761 200.54 292.771 211.86 292.771 225.82C292.771 239.78 306.671 251.11 323.921 251.11Z" fill="#FFBF9D"/>
<path d="M169.921 193.29C168.122 193.322 166.409 194.066 165.159 195.36C163.908 196.654 163.222 198.391 163.251 200.19V212.56C163.217 213.458 163.363 214.354 163.683 215.195C164.003 216.035 164.489 216.802 165.112 217.45C165.736 218.097 166.483 218.613 167.31 218.965C168.138 219.317 169.027 219.498 169.926 219.498C170.825 219.498 171.715 219.317 172.542 218.965C173.369 218.613 174.117 218.097 174.74 217.45C175.364 216.802 175.85 216.035 176.169 215.195C176.489 214.354 176.636 213.458 176.601 212.56V200.19C176.616 199.298 176.455 198.412 176.127 197.583C175.799 196.754 175.311 195.997 174.691 195.356C174.07 194.716 173.33 194.203 172.512 193.849C171.693 193.494 170.813 193.304 169.921 193.29Z" fill="#313D40"/>
<path d="M294.481 193.29C293.59 193.304 292.71 193.494 291.891 193.849C291.073 194.203 290.332 194.716 289.712 195.356C289.092 195.997 288.604 196.754 288.276 197.583C287.948 198.412 287.787 199.298 287.801 200.19V212.56C287.767 213.458 287.914 214.354 288.233 215.195C288.553 216.035 289.039 216.802 289.662 217.45C290.286 218.097 291.033 218.613 291.86 218.965C292.688 219.317 293.577 219.498 294.476 219.498C295.375 219.498 296.265 219.317 297.092 218.965C297.919 218.613 298.667 218.097 299.29 217.45C299.914 216.802 300.4 216.035 300.719 215.195C301.039 214.354 301.186 213.458 301.151 212.56V200.19C301.181 198.391 300.495 196.654 299.244 195.36C297.994 194.066 296.281 193.322 294.481 193.29Z" fill="#313D40"/>
<path d="M252.991 261.42C252.339 260.827 251.573 260.372 250.739 260.084C249.906 259.795 249.023 259.679 248.143 259.741C247.263 259.804 246.405 260.044 245.621 260.448C244.837 260.852 244.143 261.41 243.581 262.09C242.196 263.77 240.455 265.123 238.485 266.052C236.515 266.981 234.364 267.463 232.186 267.463C230.008 267.463 227.857 266.981 225.887 266.052C223.917 265.123 222.177 263.77 220.791 262.09C220.229 261.41 219.535 260.852 218.751 260.448C217.967 260.044 217.109 259.804 216.23 259.741C215.35 259.679 214.467 259.795 213.633 260.084C212.8 260.372 212.034 260.827 211.381 261.42C210.042 262.647 209.228 264.343 209.107 266.155C208.985 267.967 209.567 269.756 210.731 271.15C213.344 274.309 216.621 276.852 220.33 278.598C224.039 280.344 228.087 281.249 232.186 281.249C236.285 281.249 240.334 280.344 244.043 278.598C247.752 276.852 251.029 274.309 253.641 271.15C254.805 269.756 255.387 267.967 255.266 266.155C255.145 264.343 254.33 262.647 252.991 261.42Z" fill="#313D40"/>
</svg>
