<svg width="448" height="386" viewBox="0 0 448 386" fill="none" xmlns="http://www.w3.org/2000/svg">
<path d="M76.16 152.33C118.222 152.33 152.32 118.232 152.32 76.1698C152.32 34.1078 118.222 0.00976562 76.16 0.00976562C34.098 0.00976562 0 34.1078 0 76.1698C0 118.232 34.098 152.33 76.16 152.33Z" fill="#CE7E44"/>
<path d="M103.01 41.8197C74.2792 19.3537 34.4822 20.7867 7.51715 43.1627C9.84915 38.3247 12.7141 33.6547 16.1581 29.2507C42.0681 -3.88429 89.9331 -9.74229 123.069 16.1677C156.204 42.0777 162.062 89.9427 136.152 123.079C132.708 127.483 128.867 131.39 124.734 134.819C139.947 103.254 131.742 64.2857 103.01 41.8197Z" fill="#C06421"/>
<path d="M89.7861 1.23474C101.554 3.36474 112.993 8.28874 123.069 16.1667C156.204 42.0767 162.062 89.9417 136.152 123.078C110.242 156.213 62.3771 162.071 29.2411 136.161C19.1651 128.283 11.6291 118.368 6.72314 107.461C16.5741 85.9647 30.4241 64.1617 41.9521 49.4197C53.4801 34.6777 71.3001 15.9787 89.7861 1.23474Z" fill="#C06421"/>
<path d="M22.452 144.632C16.46 139.929 14.319 131.781 17.083 124.683C25.76 102.397 41.144 76.8845 54.778 59.4485C68.412 42.0125 89.461 20.9305 108.998 7.13553C115.22 2.74153 123.644 2.85453 129.653 7.53553C129.687 7.56253 129.721 7.58853 129.756 7.61553C162.891 33.5255 162.063 89.9415 136.153 123.078C110.243 156.213 55.691 170.621 22.556 144.711C22.521 144.685 22.486 144.659 22.452 144.632Z" fill="#FF98C9"/>
<path d="M109.697 33.2691C108.073 31.9991 99.246 25.2071 92.499 20.1411C97.979 15.4061 103.534 10.9991 108.972 7.15612C115.202 2.75412 123.632 2.84712 129.65 7.53512C129.685 7.56212 129.72 7.59012 129.755 7.61712C162.89 33.5271 162.062 89.9431 136.152 123.079C132.817 127.344 129.005 131.295 124.829 134.893C141.65 101.577 138.567 55.8441 109.697 33.2691Z" fill="#EB6DA8"/>
<path d="M32.022 373.652L57.304 356.261C58.596 355.372 60.442 355.794 61.22 357.156L76.439 383.802C77.625 385.878 80.844 385.501 81.364 383.226L112.246 248.086C112.557 246.727 111.646 245.359 110.211 245.031L61.878 233.986C60.444 233.658 59.029 234.494 58.718 235.854L27.836 370.994C27.316 373.269 30.052 375.007 32.022 373.652Z" fill="#EB6DA8"/>
<path d="M415.657 373.652L390.375 356.261C389.083 355.372 387.237 355.794 386.459 357.156L371.24 383.802C370.055 385.878 366.835 385.501 366.315 383.226L335.433 248.086C335.122 246.727 336.033 245.359 337.468 245.031L385.801 233.986C387.235 233.658 388.65 234.494 388.961 235.854L419.843 370.994C420.363 373.269 417.627 375.007 415.657 373.652Z" fill="#EB6DA8"/>
<path d="M371.54 152.33C413.602 152.33 447.7 118.232 447.7 76.1698C447.7 34.1078 413.602 0.00976562 371.54 0.00976562C329.478 0.00976562 295.38 34.1078 295.38 76.1698C295.38 118.232 329.478 152.33 371.54 152.33Z" fill="#CE7E44"/>
<path d="M344.69 41.8197C373.421 19.3537 413.218 20.7867 440.183 43.1627C437.851 38.3247 434.986 33.6547 431.542 29.2507C405.632 -3.88429 357.767 -9.74229 324.631 16.1677C291.496 42.0777 285.638 89.9427 311.548 123.079C314.992 127.483 318.833 131.39 322.966 134.819C307.753 103.254 315.958 64.2857 344.69 41.8197Z" fill="#C06421"/>
<path d="M357.914 1.23474C346.146 3.36474 334.707 8.28874 324.631 16.1667C291.496 42.0767 285.638 89.9417 311.548 123.078C337.458 156.213 385.323 162.071 418.459 136.161C428.535 128.283 436.071 118.368 440.977 107.461C431.126 85.9647 417.276 64.1617 405.748 49.4197C394.22 34.6777 376.4 15.9787 357.914 1.23474Z" fill="#C06421"/>
<path d="M425.248 144.632C431.24 139.929 433.381 131.781 430.617 124.683C421.94 102.397 406.556 76.8845 392.922 59.4485C379.288 42.0125 358.239 20.9305 338.702 7.13553C332.48 2.74153 324.056 2.85453 318.047 7.53553C318.013 7.56253 317.979 7.58853 317.944 7.61553C284.809 33.5255 285.637 89.9415 311.547 123.078C337.457 156.213 392.009 170.621 425.144 144.711C425.179 144.685 425.214 144.659 425.248 144.632Z" fill="#FF98C9"/>
<path d="M338.003 33.2691C339.627 31.9991 348.454 25.2071 355.201 20.1411C349.721 15.4061 344.166 10.9991 338.728 7.15612C332.498 2.75412 324.068 2.84712 318.05 7.53512C318.015 7.56212 317.98 7.59012 317.945 7.61712C284.81 33.5271 285.638 89.9431 311.548 123.079C314.883 127.344 318.695 131.295 322.871 134.893C306.05 101.577 309.133 55.8441 338.003 33.2691Z" fill="#EB6DA8"/>
<path d="M392.01 242.946C411.332 242.946 426.996 227.282 426.996 207.96C426.996 188.637 411.332 172.974 392.01 172.974C372.688 172.974 357.024 188.637 357.024 207.96C357.024 227.282 372.688 242.946 392.01 242.946Z" fill="#CC9883"/>
<path d="M55.6701 242.946C74.9923 242.946 90.6561 227.282 90.6561 207.96C90.6561 188.637 74.9923 172.974 55.6701 172.974C36.3478 172.974 20.6841 188.637 20.6841 207.96C20.6841 227.282 36.3478 242.946 55.6701 242.946Z" fill="#CC9883"/>
<path d="M223.84 374.64C321.319 374.64 400.34 295.618 400.34 198.14C400.34 100.661 321.319 21.6396 223.84 21.6396C126.362 21.6396 47.3403 100.661 47.3403 198.14C47.3403 295.618 126.362 374.64 223.84 374.64Z" fill="#FBC4AC"/>
<path d="M78.1982 198.136C78.1982 105.86 149.017 30.1356 239.266 22.3196C234.181 21.8796 229.039 21.6416 223.839 21.6416C126.364 21.6416 47.3442 100.661 47.3442 198.137C47.3442 295.613 126.364 374.63 223.839 374.63C229.038 374.63 234.181 374.392 239.266 373.951C149.016 366.135 78.1982 290.412 78.1982 198.136Z" fill="#E3B098"/>
<path d="M223.839 6.21387C123.568 6.21387 41.0101 83.5099 32.6201 181.646C32.6201 181.646 138.136 212.38 223.839 111.42C309.542 212.38 415.058 181.646 415.058 181.646C406.669 83.5099 324.111 6.21387 223.839 6.21387Z" fill="#CE7E44"/>
<path d="M63.4731 181.646C71.4281 88.5919 146.071 14.2889 239.266 6.83987C234.175 6.43287 229.033 6.21387 223.839 6.21387C123.568 6.21387 41.0101 83.5099 32.6201 181.646C32.6201 181.646 44.3691 185.061 63.1951 185.872C63.2551 183.283 63.4731 181.646 63.4731 181.646Z" fill="#C06421"/>
<path d="M132.15 247.82C149.35 247.82 163.29 236.5 163.29 222.54C163.29 208.58 149.35 197.25 132.15 197.25C114.95 197.25 101 208.57 101 222.54C101 236.51 114.95 247.82 132.15 247.82Z" fill="#FFA99D"/>
<path d="M315.81 247.82C333.01 247.82 346.96 236.5 346.96 222.54C346.96 208.58 333.01 197.25 315.81 197.25C298.61 197.25 284.67 208.57 284.67 222.54C284.67 236.51 298.61 247.82 315.81 247.82Z" fill="#FFA99D"/>
<path d="M161.83 190C160.031 190.032 158.318 190.776 157.067 192.07C155.816 193.364 155.131 195.101 155.16 196.9V209.27C155.125 210.168 155.272 211.064 155.592 211.905C155.912 212.745 156.398 213.512 157.021 214.16C157.644 214.807 158.392 215.323 159.219 215.675C160.046 216.027 160.936 216.208 161.835 216.208C162.734 216.208 163.624 216.027 164.451 215.675C165.278 215.323 166.026 214.807 166.649 214.16C167.272 213.512 167.758 212.745 168.078 211.905C168.398 211.064 168.545 210.168 168.51 209.27V196.9C168.525 196.008 168.363 195.122 168.035 194.293C167.708 193.464 167.22 192.707 166.599 192.066C165.979 191.426 165.238 190.913 164.42 190.559C163.602 190.204 162.722 190.014 161.83 190Z" fill="#313D40"/>
<path d="M286.46 190C285.568 190.014 284.688 190.204 283.87 190.559C283.052 190.913 282.311 191.426 281.691 192.066C281.07 192.707 280.582 193.464 280.255 194.293C279.927 195.122 279.765 196.008 279.78 196.9V209.27C279.745 210.168 279.892 211.064 280.212 211.905C280.532 212.745 281.018 213.512 281.641 214.16C282.264 214.807 283.012 215.323 283.839 215.675C284.666 216.027 285.556 216.208 286.455 216.208C287.354 216.208 288.244 216.027 289.071 215.675C289.898 215.323 290.646 214.807 291.269 214.16C291.892 213.512 292.378 212.745 292.698 211.905C293.018 211.064 293.165 210.168 293.13 209.27V196.9C293.159 195.101 292.474 193.364 291.223 192.07C289.972 190.776 288.259 190.032 286.46 190Z" fill="#313D40"/>
<path d="M244.93 258.14C244.278 257.545 243.512 257.088 242.678 256.798C241.844 256.508 240.959 256.39 240.079 256.451C239.198 256.513 238.339 256.753 237.553 257.157C236.768 257.561 236.073 258.12 235.51 258.8C234.125 260.48 232.386 261.833 230.417 262.762C228.448 263.691 226.297 264.173 224.12 264.173C221.943 264.173 219.792 263.691 217.823 262.762C215.854 261.833 214.115 260.48 212.73 258.8C212.168 258.12 211.474 257.561 210.689 257.157C209.905 256.754 209.047 256.514 208.167 256.452C207.286 256.39 206.403 256.508 205.57 256.798C204.737 257.089 203.971 257.545 203.32 258.14C201.981 259.367 201.166 261.063 201.045 262.875C200.924 264.687 201.506 266.476 202.67 267.87C205.284 271.026 208.562 273.566 212.271 275.31C215.979 277.053 220.027 277.958 224.125 277.958C228.223 277.958 232.271 277.053 235.979 275.31C239.688 273.566 242.966 271.026 245.58 267.87C246.744 266.476 247.326 264.687 247.205 262.875C247.084 261.063 246.269 259.367 244.93 258.14Z" fill="#313D40"/>
</svg>
