<svg width="444" height="396" viewBox="0 0 444 396" fill="none" xmlns="http://www.w3.org/2000/svg">
<path d="M71.0055 49.3386C69.5172 46.3833 67.5123 43.718 65.0855 41.4686C59.7755 36.4686 52.8955 33.4686 44.6355 32.6586C40.5861 32.193 36.8814 30.1561 34.3188 26.9863C31.7563 23.8164 30.5408 19.7672 30.934 15.7101C31.3273 11.653 33.2978 7.91253 36.4215 5.29386C39.5451 2.67519 43.5721 1.38771 47.6355 1.70856C78.7455 4.75856 95.0555 25.7086 99.7755 37.6186L70.8955 49.0986L71.0055 49.3386Z" fill="#FF748F"/>
<path d="M442.796 266.849C440.315 251.422 438.978 235.833 438.796 220.209C438.796 100.509 341.415 3.11865 221.705 3.11865C101.995 3.11865 4.67548 100.509 4.67548 220.179C4.51053 235.811 3.19026 251.411 0.72548 266.849C-0.66532 276.066 -0.0515623 285.474 2.52488 294.432C5.10132 303.391 9.57981 311.688 15.6548 318.757C21.7298 325.827 29.2583 331.503 37.7267 335.399C46.1951 339.294 55.4042 341.316 64.7255 341.329H378.725C418.415 341.329 448.605 306.059 442.796 266.849Z" fill="#5C586F"/>
<path d="M140.645 47.9286L120.795 28.0786C51.8055 64.4686 4.67548 136.939 4.67548 220.179C4.51053 235.811 3.19026 251.411 0.72548 266.849C-0.66532 276.066 -0.0515623 285.474 2.52488 294.432C5.10132 303.391 9.57981 311.688 15.6548 318.757C21.7298 325.827 29.2583 331.503 37.7267 335.398C46.1951 339.294 55.4042 341.316 64.7255 341.329H126.805C98.5955 303.329 81.8055 255.329 81.8055 203.039C81.8055 142.749 104.235 88.0386 140.685 47.9286H140.645Z" fill="#4F4C5F"/>
<path d="M329.565 166.619L312.005 145.089C310.573 143.336 308.769 141.923 306.724 140.953C304.679 139.983 302.444 139.48 300.18 139.48C297.917 139.48 295.682 139.983 293.637 140.953C291.591 141.923 289.788 143.336 288.355 145.089L270.785 166.619C269.358 168.366 267.562 169.775 265.525 170.745C263.488 171.715 261.261 172.222 259.005 172.229H184.565C182.303 172.228 180.068 171.724 178.024 170.754C175.98 169.783 174.177 168.371 172.745 166.619L155.165 145.089C153.734 143.336 151.931 141.923 149.887 140.953C147.843 139.984 145.608 139.48 143.345 139.48C141.083 139.48 138.848 139.984 136.804 140.953C134.76 141.923 132.957 143.336 131.525 145.089L113.945 166.619C112.514 168.371 110.711 169.783 108.667 170.754C106.623 171.724 104.388 172.228 102.125 172.229H71.2954C65.8232 172.22 60.5256 174.154 56.3465 177.687C52.1673 181.22 49.378 186.121 48.4754 191.519C46.8823 201.21 46.103 211.017 46.1454 220.839C46.4854 318.119 126.875 397.109 224.145 395.839C249.429 395.473 274.337 389.655 297.167 378.783C319.997 367.91 340.212 352.24 356.431 332.841C372.651 313.441 384.494 290.771 391.151 266.376C397.808 241.982 399.123 216.438 395.005 191.489C394.1 186.095 391.309 181.198 387.13 177.671C382.951 174.143 377.654 172.215 372.185 172.229H341.385C339.123 172.228 336.888 171.724 334.844 170.754C332.8 169.783 330.997 168.371 329.565 166.619Z" fill="#FFD8D2"/>
<path d="M81.7654 203.039C81.7715 192.736 82.4396 182.445 83.7654 172.229H71.2954C65.8232 172.22 60.5256 174.154 56.3465 177.687C52.1673 181.22 49.378 186.121 48.4754 191.519C46.8823 201.21 46.103 211.017 46.1454 220.839C46.4254 301.729 102.075 369.969 176.735 389.919C119.555 350.109 81.7654 281.289 81.7654 203.039Z" fill="#FFCABD"/>
<path d="M42.8255 125.479C34.3493 119.607 28.5528 110.608 26.7112 100.462C24.8696 90.3167 27.1337 79.855 33.0055 71.3786C54.8447 39.6902 86.0375 15.6156 122.226 2.51861C127.043 0.694789 132.175 -0.153576 137.323 0.0227993C142.471 0.199174 147.533 1.39677 152.214 3.54602C156.895 5.69527 161.103 8.75332 164.592 12.5425C168.081 16.3317 170.783 20.7765 172.54 25.6187C174.297 30.4609 175.074 35.604 174.827 40.7491C174.579 45.8943 173.311 50.9389 171.098 55.59C168.884 60.2411 165.768 64.4059 161.931 67.8425C158.093 71.279 153.612 73.9189 148.746 75.6086C127.72 83.2358 109.602 97.2417 96.9255 115.669C91.0503 124.141 82.0511 129.934 71.9064 131.773C61.7616 133.613 51.3015 131.349 42.8255 125.479Z" fill="#FF889E"/>
<path d="M59.9455 40.3787C49.8551 49.6921 40.8207 60.088 33.0055 71.3787C27.1323 79.855 24.8668 90.3173 26.7075 100.464C28.5481 110.611 34.3441 119.61 42.8205 125.484C51.2968 131.357 61.7591 133.622 71.9057 131.782C82.0524 129.941 91.0522 124.145 96.9255 115.669C99.1607 112.442 101.568 109.337 104.135 106.369C79.8355 94.6587 62.3855 69.8087 59.9455 40.3787Z" fill="#FF748F"/>
<path d="M128.605 281.499C145.815 281.499 159.755 270.169 159.755 256.209C159.755 242.249 145.815 230.919 128.605 230.919C111.395 230.919 97.4655 242.239 97.4655 256.179C97.4655 270.119 111.405 281.499 128.605 281.499Z" fill="#FFBF9D"/>
<path d="M312.275 281.499C329.475 281.499 343.415 270.169 343.415 256.209C343.415 242.249 329.475 230.919 312.275 230.919C295.075 230.919 281.125 242.239 281.125 256.179C281.125 270.119 295.075 281.499 312.275 281.499Z" fill="#FFBF9D"/>
<path d="M158.295 223.679C157.404 223.692 156.524 223.88 155.706 224.234C154.888 224.587 154.147 225.098 153.527 225.738C152.906 226.378 152.418 227.134 152.09 227.963C151.762 228.792 151.601 229.677 151.615 230.569V242.939C151.581 243.837 151.728 244.733 152.047 245.573C152.367 246.413 152.853 247.18 153.477 247.828C154.1 248.476 154.847 248.991 155.675 249.343C156.502 249.696 157.391 249.877 158.29 249.877C159.189 249.877 160.079 249.696 160.906 249.343C161.734 248.991 162.481 248.476 163.104 247.828C163.728 247.18 164.214 246.413 164.534 245.573C164.853 244.733 165 243.837 164.965 242.939V230.569C164.98 229.678 164.819 228.794 164.492 227.965C164.164 227.137 163.677 226.382 163.058 225.742C162.438 225.102 161.699 224.591 160.882 224.237C160.065 223.883 159.186 223.693 158.295 223.679Z" fill="#313D40"/>
<path d="M282.875 223.679C281.985 223.693 281.106 223.883 280.289 224.237C279.472 224.591 278.733 225.102 278.113 225.742C277.494 226.382 277.007 227.137 276.679 227.965C276.352 228.794 276.191 229.678 276.205 230.569V242.939C276.171 243.837 276.318 244.733 276.637 245.573C276.957 246.413 277.443 247.18 278.066 247.828C278.69 248.476 279.437 248.991 280.265 249.343C281.092 249.696 281.981 249.877 282.88 249.877C283.779 249.877 284.669 249.696 285.496 249.343C286.324 248.991 287.071 248.476 287.694 247.828C288.318 247.18 288.804 246.413 289.124 245.573C289.443 244.733 289.59 243.837 289.555 242.939V230.569C289.57 229.677 289.409 228.792 289.081 227.963C288.753 227.134 288.265 226.378 287.644 225.738C287.024 225.098 286.283 224.587 285.465 224.234C284.647 223.88 283.767 223.692 282.875 223.679Z" fill="#313D40"/>
<path d="M241.396 291.809C240.743 291.214 239.976 290.758 239.142 290.468C238.307 290.179 237.423 290.062 236.542 290.125C235.661 290.187 234.802 290.428 234.017 290.833C233.232 291.238 232.538 291.797 231.976 292.479C230.589 294.156 228.849 295.506 226.88 296.432C224.911 297.359 222.762 297.84 220.586 297.84C218.409 297.84 216.26 297.359 214.291 296.432C212.322 295.506 210.582 294.156 209.196 292.479C208.633 291.797 207.939 291.238 207.154 290.833C206.369 290.428 205.51 290.187 204.629 290.125C203.748 290.062 202.864 290.179 202.029 290.468C201.195 290.758 200.428 291.214 199.776 291.809C198.436 293.036 197.622 294.731 197.501 296.543C197.38 298.355 197.962 300.144 199.125 301.539C201.738 304.698 205.015 307.241 208.724 308.987C212.433 310.732 216.481 311.637 220.581 311.637C224.68 311.637 228.728 310.732 232.437 308.987C236.146 307.241 239.423 304.698 242.036 301.539C243.215 300.152 243.808 298.36 243.688 296.544C243.569 294.727 242.746 293.029 241.396 291.809Z" fill="#313D40"/>
</svg>
