<svg width="458" height="452" viewBox="0 0 458 452" fill="none" xmlns="http://www.w3.org/2000/svg">
<path d="M192.049 314.58L39.2988 239.58C-22.4312 334.67 79.3988 344.58 51.2988 425.35C50.1979 428.553 49.9236 431.981 50.5012 435.318C51.0789 438.655 52.4899 441.792 54.6034 444.438C56.7169 447.084 59.4643 449.154 62.591 450.454C65.7176 451.755 69.1222 452.246 72.4888 451.88C95.3488 449.43 126.099 439.88 151.779 409.71C199.339 353.91 192.029 314.58 192.029 314.58H192.049Z" fill="#5B381E"/>
<path d="M265.879 314.58L418.629 239.58C480.349 334.67 378.519 344.58 406.629 425.35C407.73 428.553 408.004 431.981 407.427 435.318C406.849 438.655 405.438 441.792 403.324 444.438C401.211 447.084 398.464 449.154 395.337 450.454C392.21 451.755 388.806 452.246 385.439 451.88C362.589 449.43 331.829 439.88 306.149 409.71C258.559 353.91 265.879 314.58 265.879 314.58Z" fill="#7F512A"/>
<path d="M14.199 214.76C14.199 96.34 110.539 0 228.959 0C347.379 0 443.719 96.34 443.719 214.76H14.199Z" fill="#7F512A"/>
<path d="M136.159 47.85L120.999 29.18C57.179 66.45 14.199 135.67 14.199 214.76H83.719C83.519 210.68 83.419 206.58 83.419 202.46C83.2511 146.482 101.816 92.0563 136.159 47.85Z" fill="#5B381E"/>
<path d="M406.939 275.52C434.697 275.52 457.199 253.018 457.199 225.26C457.199 197.502 434.697 175 406.939 175C379.181 175 356.679 197.502 356.679 225.26C356.679 253.018 379.181 275.52 406.939 275.52Z" fill="#FFCABD"/>
<path d="M242.929 106.83C239.22 103.136 234.198 101.062 228.964 101.062C223.729 101.062 218.708 103.136 214.999 106.83C154.219 167.73 55.4489 175.2 55.3989 175.2C49.4691 201.264 49.4858 228.33 55.4476 254.387C61.4095 280.444 73.1634 304.824 89.8369 325.717C106.51 346.61 127.675 363.479 151.761 375.073C175.846 386.666 202.233 392.687 228.964 392.687C255.694 392.687 282.082 386.666 306.167 375.073C330.252 363.479 351.417 346.61 368.091 325.717C384.764 304.824 396.518 280.444 402.48 254.387C408.442 228.33 408.459 201.264 402.529 175.2C402.449 175.2 303.699 167.73 242.929 106.83Z" fill="#FFDCCE"/>
<path d="M151.639 375.11C107.602 328.433 83.1679 266.631 83.3789 202.46C83.3859 191.806 84.0539 181.162 85.3789 170.59C75.4759 172.702 65.4593 174.242 55.3789 175.2C53.9135 175.053 52.4417 174.98 50.9689 174.98C44.3097 174.886 37.6982 176.117 31.5186 178.6C25.3391 181.083 19.7147 184.77 14.9723 189.446C10.23 194.122 6.46424 199.694 3.89393 205.838C1.32362 211.982 0 218.575 0 225.235C0 231.895 1.32362 238.488 3.89393 244.632C6.46424 250.776 10.23 256.348 14.9723 261.024C19.7147 265.7 25.3391 269.387 31.5186 271.87C37.6982 274.353 44.3097 275.584 50.9689 275.49C54.4058 275.536 57.8322 275.102 61.1489 274.2C76.8789 318.411 109.383 354.651 151.629 375.08L151.639 375.11Z" fill="#FFCABD"/>
<path d="M137.269 271.57C154.469 271.57 168.419 260.25 168.419 246.28C168.419 232.31 154.469 221 137.269 221C120.069 221 106.119 232.32 106.119 246.28C106.119 260.24 120.069 271.57 137.269 271.57Z" fill="#FFBF9D"/>
<path d="M320.939 271.57C338.139 271.57 352.079 260.25 352.079 246.28C352.079 232.31 338.139 221 320.939 221C303.739 221 289.789 232.32 289.789 246.28C289.789 260.24 303.719 271.57 320.939 271.57Z" fill="#FFBF9D"/>
<path d="M166.949 213.75C165.15 213.782 163.437 214.526 162.186 215.82C160.935 217.114 160.249 218.851 160.279 220.65V233C160.244 233.898 160.391 234.794 160.711 235.635C161.031 236.475 161.517 237.242 162.14 237.89C162.763 238.537 163.511 239.053 164.338 239.405C165.165 239.757 166.055 239.938 166.954 239.938C167.853 239.938 168.743 239.757 169.57 239.405C170.397 239.053 171.145 238.537 171.768 237.89C172.391 237.242 172.877 236.475 173.197 235.635C173.517 234.794 173.664 233.898 173.629 233V220.65C173.643 219.758 173.482 218.872 173.154 218.043C172.827 217.214 172.339 216.457 171.718 215.816C171.098 215.176 170.357 214.663 169.539 214.309C168.721 213.954 167.841 213.764 166.949 213.75Z" fill="#313D40"/>
<path d="M291.539 213.75C290.648 213.764 289.768 213.954 288.95 214.309C288.133 214.664 287.393 215.176 286.773 215.817C286.154 216.458 285.667 217.215 285.34 218.044C285.013 218.873 284.853 219.759 284.869 220.65V233C284.869 234.769 285.572 236.466 286.823 237.716C288.073 238.967 289.77 239.67 291.539 239.67C293.308 239.67 295.005 238.967 296.255 237.716C297.506 236.466 298.209 234.769 298.209 233V220.65C298.225 219.759 298.065 218.873 297.738 218.044C297.411 217.215 296.924 216.458 296.305 215.817C295.685 215.176 294.945 214.664 294.128 214.309C293.31 213.954 292.43 213.764 291.539 213.75Z" fill="#313D40"/>
<path d="M250.049 281.88C249.396 281.287 248.63 280.832 247.797 280.544C246.963 280.255 246.08 280.139 245.201 280.201C244.321 280.264 243.463 280.504 242.679 280.908C241.895 281.312 241.201 281.87 240.639 282.55C239.253 284.23 237.513 285.583 235.543 286.512C233.573 287.441 231.422 287.923 229.244 287.923C227.066 287.923 224.915 287.441 222.945 286.512C220.975 285.583 219.235 284.23 217.849 282.55C217.287 281.87 216.593 281.312 215.809 280.908C215.025 280.504 214.167 280.264 213.287 280.201C212.408 280.139 211.524 280.255 210.691 280.544C209.858 280.832 209.092 281.287 208.439 281.88C207.1 283.107 206.285 284.803 206.164 286.615C206.043 288.427 206.625 290.216 207.789 291.61C210.401 294.769 213.679 297.312 217.387 299.058C221.096 300.804 225.145 301.709 229.244 301.709C233.343 301.709 237.392 300.804 241.1 299.058C244.809 297.312 248.087 294.769 250.699 291.61C251.863 290.216 252.445 288.427 252.324 286.615C252.203 284.803 251.388 283.107 250.049 281.88Z" fill="#313D40"/>
</svg>
