<svg width="467" height="433" viewBox="0 0 467 433" fill="none" xmlns="http://www.w3.org/2000/svg">
<path d="M71.0352 373.7L58.9652 361.6C52.9477 355.583 45.0595 351.796 36.6011 350.863C28.1427 349.931 19.6189 351.908 12.4352 356.47C9.04418 358.626 6.18075 361.516 4.05632 364.927C1.93189 368.337 0.600705 372.182 0.161069 376.176C-0.278567 380.17 0.184571 384.212 1.51628 388.003C2.848 391.794 5.01428 395.238 7.85516 398.08L34.5852 424.81C37.4261 427.653 40.8696 429.82 44.661 431.153C48.4525 432.486 52.495 432.95 56.4898 432.51C60.4845 432.07 64.3294 430.738 67.7402 428.613C71.151 426.487 74.0405 423.622 76.1952 420.23C80.7585 413.047 82.737 404.523 81.8044 396.064C80.8718 387.605 77.0838 379.716 71.0652 373.7H71.0352Z" fill="#FF748F"/>
<path d="M395.605 373.7L407.705 361.6C413.723 355.583 421.611 351.796 430.069 350.863C438.528 349.931 447.052 351.908 454.235 356.47C457.626 358.626 460.49 361.516 462.614 364.927C464.739 368.337 466.07 372.182 466.509 376.176C466.949 380.17 466.486 384.212 465.154 388.003C463.822 391.794 461.656 395.238 458.815 398.08L432.085 424.81C429.244 427.653 425.801 429.82 422.009 431.153C418.218 432.486 414.175 432.95 410.181 432.51C406.186 432.07 402.341 430.738 398.93 428.613C395.519 426.487 392.63 423.622 390.475 420.23C385.912 413.047 383.933 404.523 384.866 396.064C385.799 387.605 389.587 379.716 395.605 373.7Z" fill="#FF748F"/>
<path d="M108.543 373.692C124.625 357.61 126.543 333.455 112.828 319.739C99.113 306.024 74.9578 307.943 58.876 324.025C42.7942 340.106 40.8757 364.262 54.5909 377.977C68.3061 391.692 92.4614 389.774 108.543 373.692Z" fill="#FF889E"/>
<path d="M411.925 378.002C425.64 364.287 423.722 340.132 407.64 324.05C391.558 307.968 367.403 306.05 353.688 319.765C339.972 333.48 341.891 357.636 357.973 373.717C374.054 389.799 398.21 391.718 411.925 378.002Z" fill="#FF889E"/>
<path d="M16.4351 215.32C16.4351 96.59 113.035 0 231.755 0C350.475 0 447.085 96.59 447.085 215.32H16.4351Z" fill="#FF889E"/>
<path d="M91.3351 207.34C91.3351 121.67 133.985 46.34 198.555 2.56C95.5551 18.56 16.4351 107.88 16.4351 215.32H91.4351C91.3951 212.67 91.3351 210 91.3351 207.34Z" fill="#FF748F"/>
<path d="M410.205 276.25C438.035 276.25 460.595 253.69 460.595 225.86C460.595 198.03 438.035 175.47 410.205 175.47C382.375 175.47 359.815 198.03 359.815 225.86C359.815 253.69 382.375 276.25 410.205 276.25Z" fill="#FFCABD"/>
<path d="M401.745 160.89C400.145 155.815 396.971 151.381 392.683 148.23C388.396 145.078 383.217 143.373 377.895 143.36H282.195C278.294 143.359 274.447 142.445 270.962 140.692C267.477 138.938 264.451 136.393 262.125 133.26L243.665 108.36C242.287 106.501 240.492 104.99 238.425 103.949C236.357 102.908 234.075 102.366 231.76 102.366C229.446 102.366 227.163 102.908 225.096 103.949C223.029 104.99 221.234 106.501 219.855 108.36L201.395 133.26C199.07 136.393 196.044 138.938 192.559 140.692C189.074 142.445 185.227 143.359 181.325 143.36H85.6253C80.3299 143.362 75.1717 145.044 70.8944 148.166C66.617 151.288 63.4414 155.687 61.8253 160.73C56.1613 178.372 53.2866 196.791 53.3053 215.32C53.3053 313.87 134.775 394.61 233.305 393.76C261.266 393.498 288.774 386.674 313.614 373.837C338.455 361 359.934 342.509 376.321 319.853C392.709 297.197 403.547 271.01 407.963 243.399C412.379 215.789 410.249 187.527 401.745 160.89Z" fill="#FFDCCE"/>
<path d="M158.265 377.74C116.845 333.67 91.3352 273.58 91.3352 207.34C91.3171 185.744 94.073 164.234 99.5352 143.34H85.6252C80.331 143.341 75.1738 145.022 70.8966 148.142C66.6194 151.262 63.443 155.659 61.8252 160.7C60.2518 165.593 58.8918 170.593 57.7452 175.7C56.3252 175.57 54.8652 175.49 53.3052 175.49C40.0652 175.677 27.4306 181.067 18.1338 190.496C8.83696 199.924 3.625 212.634 3.625 225.875C3.625 239.116 8.83696 251.825 18.1338 261.254C27.4306 270.683 40.0652 276.073 53.3052 276.26C56.8025 276.303 60.2899 275.879 63.6752 275C71.8353 297.545 84.4016 318.24 100.641 335.879C116.881 353.518 136.47 367.748 158.265 377.74Z" fill="#FFCABD"/>
<path d="M141.485 261.91C158.695 261.91 172.635 250.59 172.635 236.62C172.635 222.65 158.695 211.33 141.485 211.33C124.275 211.33 110.345 222.65 110.345 236.62C110.345 250.59 124.285 261.91 141.485 261.91Z" fill="#FFBF9D"/>
<path d="M325.155 261.91C342.355 261.91 356.305 250.59 356.305 236.62C356.305 222.65 342.355 211.33 325.155 211.33C307.955 211.33 293.965 222.65 293.965 236.62C293.965 250.59 307.965 261.91 325.155 261.91Z" fill="#FFBF9D"/>
<path d="M171.175 204.09C170.284 204.104 169.403 204.294 168.585 204.649C167.767 205.003 167.026 205.515 166.406 206.156C165.786 206.797 165.298 207.554 164.97 208.383C164.642 209.212 164.481 210.098 164.495 210.99V223.35C164.46 224.248 164.607 225.144 164.927 225.985C165.247 226.825 165.733 227.592 166.356 228.24C166.98 228.887 167.727 229.403 168.554 229.755C169.382 230.107 170.271 230.288 171.17 230.288C172.069 230.288 172.959 230.107 173.786 229.755C174.613 229.403 175.361 228.887 175.984 228.24C176.607 227.592 177.094 226.825 177.413 225.985C177.733 225.144 177.88 224.248 177.845 223.35V211C177.861 210.108 177.701 209.222 177.375 208.392C177.048 207.562 176.561 206.805 175.942 206.163C175.322 205.522 174.583 205.008 173.765 204.652C172.947 204.297 172.067 204.106 171.175 204.09Z" fill="#313D40"/>
<path d="M295.755 204.09C293.956 204.122 292.243 204.866 290.992 206.16C289.742 207.453 289.056 209.191 289.085 210.99V223.35C289.05 224.248 289.197 225.144 289.517 225.985C289.837 226.825 290.323 227.592 290.946 228.24C291.569 228.887 292.317 229.403 293.144 229.755C293.971 230.107 294.861 230.288 295.76 230.288C296.659 230.288 297.549 230.107 298.376 229.755C299.203 229.403 299.951 228.887 300.574 228.24C301.197 227.592 301.683 226.825 302.003 225.985C302.323 225.144 302.47 224.248 302.435 223.35V211C302.451 210.107 302.291 209.221 301.963 208.39C301.636 207.559 301.148 206.802 300.528 206.16C299.908 205.518 299.167 205.005 298.348 204.65C297.529 204.294 296.648 204.104 295.755 204.09Z" fill="#313D40"/>
<path d="M254.275 272.22C253.622 271.627 252.855 271.172 252.021 270.883C251.187 270.595 250.303 270.478 249.422 270.541C248.542 270.603 247.683 270.844 246.898 271.248C246.113 271.651 245.418 272.21 244.855 272.89C243.469 274.567 241.729 275.917 239.76 276.844C237.791 277.771 235.641 278.251 233.465 278.251C231.289 278.251 229.14 277.771 227.171 276.844C225.202 275.917 223.462 274.567 222.075 272.89C221.512 272.21 220.818 271.651 220.033 271.248C219.248 270.844 218.389 270.603 217.509 270.541C216.628 270.478 215.744 270.595 214.91 270.883C214.076 271.172 213.309 271.627 212.655 272.22C211.296 273.443 210.465 275.147 210.336 276.971C210.207 278.795 210.791 280.598 211.965 282C214.577 285.175 217.86 287.732 221.577 289.487C225.294 291.243 229.354 292.153 233.465 292.153C237.576 292.153 241.636 291.243 245.354 289.487C249.071 287.732 252.354 285.175 254.965 282C256.154 280.604 256.748 278.798 256.619 276.969C256.489 275.14 255.648 273.435 254.275 272.22Z" fill="#313D40"/>
</svg>
