<svg width="423" height="476" viewBox="0 0 423 476" fill="none" xmlns="http://www.w3.org/2000/svg">
<path d="M422.7 211.35C422.7 94.81 327.89 0 211.35 0C94.81 0 0 94.81 0 211.35C0 328.56 43.93 315.91 26.07 398.49C14.17 452.8 111.63 475.12 111.63 475.12H311.08C311.08 475.12 408.53 452.8 396.63 398.49C378.78 315.91 422.7 328.56 422.7 211.35Z" fill="#B08BD7"/>
<path d="M288.32 417.23C170.44 417.23 74.88 320.36 74.88 200.88C74.88 109.88 130.33 31.98 208.88 0.0300293C93.46 1.38003 0 95.65 0 211.35C0 328.56 43.93 315.91 26.07 398.49C14.17 452.8 111.63 475.12 111.63 475.12H311.08L288.32 417.23Z" fill="#A47CD1"/>
<path d="M385.34 211.1C385.3 204.83 382.919 198.802 378.664 194.197C374.409 189.592 368.587 186.744 362.34 186.21C286.41 179.62 224.19 139.5 191.88 114.21C185.588 109.281 177.671 106.9 169.704 107.541C161.737 108.182 154.303 111.798 148.88 117.67C115.88 153.83 74.8799 173.52 53.5399 181.99C49.1053 183.747 45.2626 186.73 42.4611 190.59C39.6595 194.451 38.0151 199.029 37.7199 203.79C37.5499 206.55 37.4399 209.2 37.4399 211.33C37.4399 257.478 55.772 301.735 88.4034 334.367C121.035 366.998 165.292 385.33 211.44 385.33C257.588 385.33 301.845 366.998 334.477 334.367C367.108 301.735 385.44 257.478 385.44 211.33C385.445 211.247 385.445 211.163 385.44 211.08L385.34 211.1Z" fill="#FFD3BC"/>
<path d="M74.88 200.88C74.8914 191.017 75.5595 181.165 76.88 171.39C67.88 176 59.79 179.5 53.48 182.01C49.0454 183.767 45.2026 186.75 42.4011 190.61C39.5996 194.471 37.9551 199.049 37.66 203.81C37.49 206.57 37.38 209.22 37.38 211.35C37.3831 250.07 50.2961 287.684 74.0764 318.242C97.8567 348.8 131.147 370.556 168.68 380.07C139.67 360.063 115.97 333.292 99.6268 302.071C83.2837 270.851 74.7901 236.12 74.88 200.88Z" fill="#FFBE9C"/>
<path d="M119.45 260.24C136.65 260.24 150.59 248.91 150.59 234.95C150.59 220.99 136.65 209.66 119.45 209.66C102.25 209.66 88.3 221 88.3 235C88.3 249 102.25 260.24 119.45 260.24Z" fill="#FFBF9D"/>
<path d="M303.11 260.24C320.31 260.24 334.26 248.91 334.26 234.95C334.26 220.99 320.31 209.66 303.11 209.66C285.91 209.66 272 221 272 235C272 249 285.91 260.24 303.11 260.24Z" fill="#FFBF9D"/>
<path d="M149.13 202.42C148.24 202.434 147.361 202.624 146.544 202.978C145.727 203.332 144.987 203.844 144.368 204.483C143.748 205.123 143.261 205.879 142.934 206.707C142.606 207.535 142.446 208.42 142.46 209.31V221.68C142.425 222.578 142.572 223.474 142.892 224.315C143.212 225.155 143.698 225.922 144.321 226.57C144.944 227.218 145.692 227.733 146.519 228.085C147.346 228.437 148.236 228.618 149.135 228.618C150.034 228.618 150.924 228.437 151.751 228.085C152.578 227.733 153.326 227.218 153.949 226.57C154.572 225.922 155.058 225.155 155.378 224.315C155.698 223.474 155.845 222.578 155.81 221.68V209.31C155.825 208.419 155.663 207.533 155.335 206.705C155.007 205.876 154.519 205.12 153.899 204.48C153.278 203.84 152.538 203.329 151.72 202.975C150.901 202.622 150.021 202.433 149.13 202.42Z" fill="#313D40"/>
<path d="M273.72 202.41C272.828 202.424 271.948 202.614 271.13 202.969C270.312 203.323 269.571 203.836 268.951 204.476C268.33 205.117 267.842 205.874 267.515 206.703C267.187 207.532 267.025 208.418 267.04 209.31V221.68C267.005 222.578 267.152 223.474 267.472 224.315C267.792 225.155 268.278 225.922 268.901 226.57C269.524 227.218 270.272 227.733 271.099 228.085C271.926 228.437 272.816 228.618 273.715 228.618C274.614 228.618 275.504 228.437 276.331 228.085C277.158 227.733 277.906 227.218 278.529 226.57C279.152 225.922 279.638 225.155 279.958 224.315C280.278 223.474 280.425 222.578 280.39 221.68V209.31C280.419 207.511 279.734 205.774 278.483 204.48C277.232 203.186 275.519 202.442 273.72 202.41Z" fill="#313D40"/>
<path d="M232.23 270.55C231.579 269.954 230.813 269.497 229.979 269.207C229.146 268.917 228.262 268.8 227.381 268.862C226.501 268.925 225.642 269.166 224.858 269.572C224.074 269.977 223.38 270.538 222.82 271.22C221.432 272.897 219.691 274.247 217.722 275.174C215.752 276.101 213.602 276.581 211.425 276.581C209.248 276.581 207.098 276.101 205.128 275.174C203.159 274.247 201.418 272.897 200.03 271.22C199.469 270.539 198.775 269.979 197.991 269.575C197.207 269.17 196.349 268.93 195.469 268.867C194.589 268.804 193.705 268.921 192.872 269.21C192.038 269.5 191.272 269.956 190.62 270.55C189.281 271.777 188.466 273.473 188.345 275.285C188.224 277.097 188.806 278.886 189.97 280.28C192.584 283.436 195.863 285.976 199.571 287.72C203.28 289.463 207.327 290.367 211.425 290.367C215.523 290.367 219.571 289.463 223.279 287.72C226.988 285.976 230.266 283.436 232.88 280.28C234.044 278.886 234.626 277.097 234.505 275.285C234.384 273.473 233.569 271.777 232.23 270.55Z" fill="#313D40"/>
</svg>
