<svg width="334" height="623" viewBox="0 0 334 623" fill="none" xmlns="http://www.w3.org/2000/svg">
<path d="M167.409 0L198 142.514L178.895 251.676H161.416L135.739 252.714L119.757 267.243C119.757 267.243 107.772 264.649 99.2816 272.951C90.7914 281.254 87.2955 288 87.2955 288C21.3575 260.633 31.5714 243.042 31.5714 141.15C31.5714 63.3154 92.513 0 167.409 0Z" fill="#50E1CD"/>
<path d="M249.306 288C249.306 288 242.348 278.141 235.886 271.914C229.425 267.243 221.97 264.649 216.006 266.724C212.97 267.781 203.083 248.043 193.349 254.789C184.224 251.086 168 252.714 168 252.714V0C242.513 0 303.188 63.3154 303.188 141.15C303.188 243.042 314.91 260.633 249.306 288Z" fill="#5C586F"/>
<path d="M130.901 622C116.542 622 105.408 606.068 105.408 584.686L105 450.685C105 440.425 107.739 430.585 112.615 423.331C117.491 416.076 124.104 412 131 412C137.896 412 144.509 416.076 149.385 423.331C154.261 430.585 157 440.425 157 450.685L156.417 584.521C156.411 605.903 145.26 622 130.901 622Z" fill="#3F3F3F"/>
<path d="M105 580V592.827C105 609.491 104.73 623 131 623C157.27 623 157 609.765 157 592.827V580H105Z" fill="#CE2489"/>
<path d="M201.901 622C187.542 622 176.408 606.068 176.408 584.686L176 450.685C176 440.425 178.739 430.585 183.615 423.331C188.491 416.076 195.104 412 202 412C208.896 412 215.509 416.076 220.385 423.331C225.261 430.585 228 440.425 228 450.685L227.417 584.521C227.411 605.903 216.26 622 201.901 622Z" fill="#3F3F3F"/>
<path d="M176 580V592.827C176 609.491 175.73 623 202 623C228.27 623 228 609.765 228 592.827V580H176Z" fill="#CE2489"/>
<path d="M90 398C90 436 107.5 453 167.5 453C227.5 453 245 436 245 398H90Z" fill="#3F3F3F"/>
<path d="M303.482 357.147L240.799 270.895C232.183 259.397 217.188 256.066 207.32 263.462C197.453 270.859 196.457 286.158 205.075 297.644L267.74 383.928C276.355 395.426 291.344 398.756 301.218 391.361C311.091 383.965 312.098 368.646 303.482 357.147Z" fill="#FFD3BC"/>
<path d="M216.963 307.475L206.073 291.049C196.389 276.74 199.225 263.682 209.389 256.805C219.553 249.928 234.254 252.261 243.931 266.575L254.075 282.182L216.963 307.475Z" fill="#41B7A0"/>
<path d="M29.6491 357.73L92.3328 271.477C100.949 259.979 115.943 256.648 125.811 264.045C135.679 271.441 136.675 286.74 128.056 298.227L65.3919 384.511C56.7761 396.009 41.7871 399.338 31.9136 391.943C22.0402 384.548 21.0333 369.228 29.6491 357.73Z" fill="#FFD3BC"/>
<path d="M116.168 308.059L127.058 291.633C136.742 277.324 133.906 264.266 123.742 257.389C113.578 250.512 98.8767 252.845 89.2 267.159L79.056 282.766L116.168 308.059Z" fill="#41B7A0"/>
<path d="M243.111 349.237C243.111 287.815 212.276 237.325 166.246 237.325C120.216 237.325 89.1748 287.815 89.1748 349.237C89.1748 369.912 89.1748 398.74 89.1748 398.74H243.111C243.111 398.74 243.111 368.213 243.111 349.237Z" fill="#46CCB2"/>
<path d="M166.485 303.148C185.028 303.148 200.059 288.117 200.059 269.574C200.059 251.032 185.028 236 166.485 236C147.943 236 132.911 251.032 132.911 269.574C132.911 288.117 147.943 303.148 166.485 303.148Z" fill="#F6BDA0"/>
<path d="M279.862 126.27C279.293 119.779 276.827 113.599 272.772 108.499C268.716 103.4 263.251 99.6051 257.055 97.5883C221.565 86.0551 198.454 86.2193 167.594 44.4258C136.734 86.2004 113.623 86.0551 78.1331 97.5883C71.9329 99.5972 66.4614 103.387 62.401 108.485C58.3406 113.584 55.8711 119.764 55.3004 126.257C54.9576 130.247 54.8269 134.253 54.9088 138.258C56.1089 199.145 106.12 248.385 167.013 248.694C181.859 248.767 196.574 245.907 210.312 240.277C224.049 234.646 236.539 226.357 247.064 215.886C257.589 205.415 265.941 192.967 271.641 179.258C277.341 165.549 280.277 150.849 280.279 136.003C280.279 132.727 280.14 129.482 279.862 126.27Z" fill="#FFD3BC"/>
<path d="M109.656 169.319C120.519 169.319 129.33 162.169 129.33 153.345C129.33 144.522 120.519 137.378 109.656 137.378C98.792 137.378 89.981 144.528 89.981 153.345C89.981 162.163 98.792 169.319 109.656 169.319Z" fill="#FFBF9D"/>
<path d="M225.661 169.319C236.525 169.319 245.33 162.169 245.33 153.345C245.33 144.522 236.525 137.378 225.661 137.378C214.798 137.378 205.987 144.528 205.987 153.345C205.987 162.163 214.791 169.319 225.661 169.319Z" fill="#FFBF9D"/>
<path d="M128.401 132.8C127.265 132.82 126.183 133.29 125.393 134.107C124.603 134.924 124.17 136.022 124.188 137.158V144.971C124.166 145.538 124.259 146.104 124.461 146.635C124.663 147.166 124.97 147.65 125.364 148.059C125.757 148.468 126.23 148.794 126.752 149.016C127.274 149.239 127.836 149.353 128.404 149.353C128.972 149.353 129.534 149.239 130.056 149.016C130.579 148.794 131.051 148.468 131.445 148.059C131.838 147.65 132.145 147.166 132.347 146.635C132.549 146.104 132.642 145.538 132.62 144.971V137.158C132.629 136.595 132.528 136.035 132.32 135.511C132.113 134.988 131.805 134.51 131.413 134.105C131.022 133.7 130.554 133.377 130.037 133.153C129.52 132.929 128.964 132.809 128.401 132.8Z" fill="#313D40"/>
<path d="M207.093 132.8C206.53 132.809 205.974 132.929 205.457 133.153C204.941 133.377 204.473 133.7 204.081 134.105C203.689 134.51 203.381 134.988 203.174 135.511C202.967 136.035 202.865 136.595 202.874 137.158V144.971C202.852 145.538 202.945 146.104 203.147 146.635C203.349 147.166 203.656 147.65 204.05 148.059C204.443 148.468 204.916 148.794 205.438 149.016C205.96 149.239 206.522 149.353 207.09 149.353C207.658 149.353 208.22 149.239 208.742 149.016C209.265 148.794 209.737 148.468 210.131 148.059C210.524 147.65 210.831 147.166 211.033 146.635C211.235 146.104 211.328 145.538 211.306 144.971V137.158C211.325 136.022 210.892 134.924 210.102 134.107C209.312 133.29 208.23 132.82 207.093 132.8Z" fill="#313D40"/>
<path d="M180.889 175.831C180.477 175.456 179.993 175.169 179.467 174.987C178.94 174.805 178.382 174.731 177.827 174.771C177.271 174.81 176.729 174.962 176.234 175.217C175.739 175.472 175.301 175.825 174.946 176.254C174.07 177.315 172.971 178.17 171.727 178.757C170.483 179.343 169.124 179.648 167.748 179.648C166.373 179.648 165.014 179.343 163.77 178.757C162.526 178.17 161.427 177.315 160.551 176.254C160.196 175.825 159.758 175.472 159.263 175.217C158.768 174.962 158.226 174.81 157.67 174.771C157.115 174.731 156.557 174.805 156.03 174.987C155.504 175.169 155.02 175.456 154.608 175.831C153.762 176.606 153.248 177.677 153.171 178.821C153.095 179.966 153.462 181.096 154.197 181.976C155.847 183.972 157.917 185.578 160.26 186.681C162.602 187.783 165.159 188.355 167.748 188.355C170.338 188.355 172.895 187.783 175.237 186.681C177.58 185.578 179.65 183.972 181.3 181.976C182.035 181.096 182.402 179.966 182.326 178.821C182.249 177.677 181.735 176.606 180.889 175.831Z" fill="#313D40"/>
<path d="M279.996 13.5345C284.63 14.0246 289.01 15.8953 292.568 18.9039C296.127 21.9126 298.7 25.9207 299.953 30.4088C311.769 72.133 285.405 106.54 285.405 106.54L211.686 36.4828C234.592 13.196 263.085 11.7683 279.996 13.5345Z" fill="#6A647F"/>
<path d="M273.947 35.8122H273.99C275.143 35.8802 276.242 36.3227 277.121 37.0725C277.999 37.8222 278.609 38.8382 278.858 39.9661C284.919 67.6038 268.919 90.5398 267.337 92.7183L227.952 52.4341C242.881 37.2337 261.491 35.0983 273.959 35.8183L273.947 35.8122Z" fill="#FF9DB0"/>
<path d="M55.0052 13.5345C50.3742 14.0273 45.9978 15.8992 42.4428 18.9078C38.8878 21.9164 36.318 25.923 35.0662 30.4088C23.2074 72.133 49.5712 106.54 49.5712 106.54L123.272 36.4828C100.385 13.196 71.8918 11.7683 55.0052 13.5345Z" fill="#5C586F"/>
<path d="M61.0299 35.8122H60.9869C59.8339 35.8802 58.7346 36.3227 57.856 37.0725C56.9775 37.8222 56.3676 38.8382 56.119 39.9661C50.0696 67.6038 66.0455 90.5398 67.6393 92.7183L107.025 52.4342C92.1077 37.2337 73.498 35.0983 61.0299 35.8122Z" fill="#FF9DB0"/>
</svg>
