<svg width="52" height="60" viewBox="0 0 52 60" fill="none" xmlns="http://www.w3.org/2000/svg">
<path d="M16.8121 59.9781C15.4255 59.4585 14.9341 58.4413 14.9999 57.0016C15.0656 55.5618 15.0155 54.0407 15.0155 52.4757H12.906C11.1376 52.4757 10.233 51.5775 10.2299 49.8185C10.2299 34.0876 10.2299 18.3568 10.2299 2.62598C10.2299 0.898279 11.1376 0 12.8684 0H44.5335C46.2643 0 47.172 0.901408 47.1751 2.62285C47.1751 4.18779 47.1751 5.75274 47.1751 7.31768C47.1891 7.38503 47.209 7.45101 47.2346 7.51487C47.8011 7.51487 48.4021 7.55869 48.9936 7.51487C50.8027 7.35837 51.9983 8.36933 51.992 10.4664C51.9461 25.9802 51.9461 41.4961 51.992 57.0141C51.992 58.457 51.5633 59.4679 50.1924 60L16.8121 59.9781ZM45.8418 26.2379V2.87637C45.8418 1.62441 45.5946 1.35524 44.3489 1.35524H13.0218C11.8074 1.35524 11.5507 1.61502 11.5507 2.83568V49.6213C11.5507 50.8513 11.798 51.1017 13.0124 51.1017H44.3395C45.5914 51.1017 45.8418 50.8576 45.8418 49.5994V26.2379ZM47.1751 8.88889V43.3396C47.1751 45.5462 47.2064 47.7527 47.1564 49.9562C47.1344 50.5095 46.9717 51.0481 46.6838 51.5211C46.2143 52.2786 45.4099 52.4601 44.5398 52.4601C35.3859 52.4601 26.232 52.4601 17.0781 52.4601H16.3489V57.0955C16.3489 58.3474 16.593 58.6072 17.8449 58.6072H49.1157C50.4021 58.6072 50.6399 58.3631 50.6399 57.0423V10.4069C50.6504 10.1919 50.6452 9.97638 50.6243 9.76213C50.5523 9.29578 50.3113 8.92332 49.8136 8.90141C48.9654 8.86072 48.1079 8.88889 47.1751 8.88889Z" fill="#3F3F3F"/>
<path d="M0.386414 37.5743C0.386414 31.9154 0.386414 26.2556 0.386414 20.5946C0.388632 20.2087 0.462938 19.8265 0.605506 19.4679C1.45997 17.3333 2.32695 15.2018 3.23461 13.0892C3.30555 12.9424 3.40842 12.8134 3.53569 12.7116C3.66296 12.6098 3.81141 12.5377 3.97014 12.5007C4.1861 12.5007 4.53665 12.8137 4.64619 13.0735C5.60081 15.2957 6.52413 17.5305 7.42867 19.7683C7.50854 19.9857 7.54677 20.2161 7.54134 20.4475C7.54134 31.8278 7.54134 43.207 7.54134 54.5852C7.54134 56.2503 6.49909 57.2676 4.82147 57.2769H3.12194C1.39111 57.2769 0.386414 56.2785 0.386414 54.5571C0.386414 48.8961 0.386414 43.2352 0.386414 37.5743ZM6.13602 50.9733V20.8513H1.75418V50.9733H6.13602ZM1.75418 52.3943C1.75418 53.2582 1.71662 54.0938 1.75418 54.9233C1.76717 55.1917 1.88557 55.4442 2.08365 55.6259C2.28173 55.8076 2.5435 55.9037 2.81208 55.8935C3.58829 55.9186 4.37702 55.9154 5.14698 55.8935C5.38646 55.9044 5.62103 55.8232 5.8026 55.6667C5.98416 55.5101 6.09898 55.2901 6.1235 55.0516C6.19862 54.1721 6.14541 53.2832 6.14541 52.3974L1.75418 52.3943ZM3.95449 14.8638L2.07968 19.4053H5.83555L3.95449 14.8638Z" fill="#3F3F3F"/>
<path d="M14.2331 43.6776C14.2351 43.0944 14.352 42.5173 14.5771 41.9792C14.8022 41.4412 15.1311 40.9527 15.545 40.5417C15.9588 40.1308 16.4496 39.8054 16.9892 39.5841C17.5288 39.3628 18.1068 39.2499 18.69 39.252C19.2733 39.254 19.8504 39.371 20.3884 39.596C20.9265 39.8211 21.415 40.15 21.8259 40.5639C22.2369 40.9777 22.5623 41.4685 22.7836 42.0081C23.0049 42.5478 23.1177 43.1257 23.1157 43.7089C23.1115 44.8869 22.6396 46.0149 21.8038 46.8448C20.9679 47.6748 19.8366 48.1388 18.6587 48.1346C17.4808 48.1305 16.3528 47.6586 15.5228 46.8227C14.6929 45.9869 14.2289 44.8556 14.2331 43.6776ZM21.7448 43.7089C21.7528 43.0986 21.5795 42.4996 21.2468 41.9879C20.9141 41.4761 20.4369 41.0747 19.8758 40.8344C19.3147 40.5941 18.6949 40.5257 18.0949 40.638C17.4949 40.7504 16.9418 41.0382 16.5056 41.4652C16.0694 41.8922 15.7697 42.4391 15.6446 43.0365C15.5195 43.6339 15.5746 44.2551 15.8028 44.8212C16.0311 45.3873 16.4223 45.8729 16.9268 46.2165C17.4313 46.5601 18.0264 46.7462 18.6368 46.7512C19.0413 46.7578 19.443 46.6841 19.8188 46.5344C20.1946 46.3847 20.5369 46.1619 20.826 45.879C21.115 45.596 21.3451 45.2585 21.5028 44.886C21.6605 44.5135 21.7428 44.1134 21.7448 43.7089Z" fill="#3F3F3F"/>
<path d="M14.233 8.78872C14.2337 7.90951 14.4952 7.05027 14.9846 6.31985C15.474 5.58942 16.1691 5.02068 16.982 4.68566C17.7949 4.35064 18.6889 4.26442 19.5508 4.43793C20.4127 4.61143 21.2038 5.03686 21.8237 5.6603C22.4436 6.28375 22.8646 7.07717 23.0332 7.94005C23.2018 8.80293 23.1106 9.69645 22.771 10.5074C22.4314 11.3184 21.8587 12.0103 21.1255 12.4956C20.3923 12.9808 19.5316 13.2375 18.6524 13.2332C17.4788 13.2241 16.3562 12.7521 15.5286 11.9199C14.7011 11.0876 14.2355 9.96238 14.233 8.78872ZM18.6775 5.7183C18.0697 5.71706 17.4752 5.89603 16.9692 6.23259C16.4631 6.56915 16.0682 7.04819 15.8343 7.60915C15.6005 8.17011 15.5382 8.78781 15.6553 9.38418C15.7724 9.98054 16.0637 10.5288 16.4924 10.9596C16.921 11.3905 17.4678 11.6846 18.0636 11.8047C18.6593 11.9249 19.2773 11.8657 19.8395 11.6347C20.4016 11.4037 20.8827 11.0112 21.2218 10.5069C21.5609 10.0026 21.7429 9.40899 21.7448 8.80124C21.7468 8.39712 21.669 7.99658 21.5158 7.62263C21.3626 7.24868 21.137 6.90869 20.8519 6.62221C20.5669 6.33573 20.2281 6.10839 19.8549 5.95327C19.4817 5.79814 19.0816 5.71829 18.6775 5.7183Z" fill="#3F3F3F"/>
<path d="M18.6587 27.6244C19.5352 27.6244 20.392 27.8845 21.1205 28.3717C21.8491 28.8589 22.4168 29.5513 22.7516 30.3613C23.0864 31.1712 23.1734 32.0624 23.0015 32.9218C22.8296 33.7813 22.4065 34.5704 21.7859 35.1892C21.1653 35.8081 20.375 36.2289 19.515 36.3984C18.6551 36.5679 17.7642 36.4784 16.9552 36.1413C16.1462 35.8041 15.4554 35.2345 14.9702 34.5046C14.4851 33.7746 14.2275 32.9171 14.2299 32.0407C14.2374 30.8695 14.7067 29.7486 15.536 28.9217C16.3654 28.0947 17.4876 27.6285 18.6587 27.6244ZM21.7448 32.0626C21.7467 31.4528 21.5677 30.8562 21.2304 30.3482C20.8932 29.8402 20.413 29.4436 19.8503 29.2085C19.2877 28.9735 18.668 28.9105 18.0696 29.0277C17.4712 29.1448 16.921 29.4368 16.4886 29.8666C16.0561 30.2964 15.7608 30.8449 15.64 31.4425C15.5192 32.0402 15.5784 32.6603 15.81 33.2243C16.0416 33.7883 16.4353 34.271 16.9413 34.6113C17.4472 34.9516 18.0427 35.1343 18.6525 35.1361C19.4699 35.1378 20.2545 34.8151 20.8343 34.2389C21.414 33.6627 21.7415 32.88 21.7448 32.0626Z" fill="#3F3F3F"/>
<path d="M18.6681 24.8482C17.7905 24.8458 16.9334 24.583 16.2053 24.0932C15.4771 23.6034 14.9106 22.9085 14.5775 22.0967C14.2444 21.2848 14.1597 20.3923 14.334 19.5322C14.5083 18.6721 14.9339 17.8831 15.5568 17.265C16.1798 16.6469 16.9721 16.2275 17.8335 16.0598C18.6949 15.8922 19.5867 15.9839 20.3959 16.3233C21.2052 16.6627 21.8956 17.2345 22.3798 17.9665C22.8639 18.6984 23.12 19.5575 23.1157 20.4351C23.1136 21.017 22.9969 21.5927 22.7723 22.1295C22.5476 22.6662 22.2194 23.1534 21.8063 23.5633C21.3933 23.9731 20.9035 24.2975 20.3651 24.518C19.8266 24.7385 19.2499 24.8507 18.6681 24.8482ZM21.7448 20.432C21.7595 20.0192 21.6911 19.6076 21.5437 19.2218C21.3963 18.8359 21.1728 18.4836 20.8866 18.1858C20.6004 17.888 20.2573 17.6507 19.8776 17.4881C19.4979 17.3255 19.0894 17.2408 18.6763 17.2391C18.2633 17.2374 17.8541 17.3188 17.4731 17.4783C17.0921 17.6378 16.747 17.8723 16.4584 18.1678C16.1698 18.4633 15.9434 18.8138 15.7929 19.1984C15.6424 19.5831 15.5706 19.994 15.582 20.4069C15.5673 20.8197 15.6357 21.2313 15.7831 21.6171C15.9305 22.003 16.1539 22.3553 16.4402 22.6531C16.7264 22.9509 17.0695 23.1882 17.4492 23.3508C17.8289 23.5134 18.2374 23.5981 18.6505 23.5998C19.0635 23.6015 19.4727 23.5201 19.8537 23.3606C20.2347 23.201 20.5798 22.9666 20.8684 22.6711C21.157 22.3756 21.3833 22.0251 21.5339 21.6405C21.6844 21.2558 21.7561 20.8449 21.7448 20.432Z" fill="#3F3F3F"/>
<path d="M34.0954 5.52118C36.7662 5.52118 39.437 5.52118 42.1079 5.52118C42.3019 5.52118 42.5492 5.48362 42.6744 5.58378C42.9002 5.73654 43.0618 5.96722 43.1282 6.23167C43.1282 6.42572 42.881 6.68863 42.6807 6.82009C42.4815 6.89683 42.2658 6.92055 42.0547 6.88894H26.0922C25.9151 6.90396 25.7371 6.90291 25.5601 6.88581C25.194 6.8107 24.9091 6.57282 25.0062 6.20037C25.1239 5.93891 25.3195 5.72025 25.5664 5.57439C25.6822 5.48988 25.9044 5.54622 26.0797 5.54622L34.0954 5.52118Z" fill="#3F3F3F"/>
<path d="M34.0327 9.47415H26.136C25.9795 9.47415 25.823 9.47415 25.6665 9.47415C25.269 9.43659 24.9967 9.24567 24.9873 8.82C24.978 8.39433 25.2596 8.15959 25.6791 8.11577C25.7969 8.10949 25.9149 8.10949 26.0327 8.11577H42.1172C42.2737 8.11577 42.474 8.06883 42.5742 8.14707C42.7964 8.32235 43.1376 8.57587 43.1188 8.77305C43.1 9.02031 42.8058 9.2707 42.5586 9.45537C42.449 9.543 42.2205 9.48354 42.0453 9.48354L34.0327 9.47415Z" fill="#3F3F3F"/>
<path d="M34.0953 42.9953H42.0484C42.2424 42.9953 42.4928 42.939 42.618 43.036C42.8402 43.205 43.1063 43.4679 43.1219 43.7058C43.1376 43.9437 42.8402 44.1628 42.6243 44.3099C42.4897 44.4038 42.2487 44.3568 42.0546 44.3568H26.0922C25.8981 44.3568 25.6571 44.4069 25.5194 44.313C25.3066 44.1659 25.0155 43.9061 25.028 43.7089C25.1019 43.4319 25.2759 43.1921 25.5163 43.036C25.6415 42.9358 25.8919 42.9953 26.0859 42.9953H34.0953Z" fill="#3F3F3F"/>
<path d="M34.0484 18.5101H26.0515C25.8763 18.5101 25.6446 18.5696 25.5382 18.482C25.3223 18.3036 25.0531 18.0532 25.0343 17.8153C25.0155 17.5774 25.3035 17.349 25.5195 17.2112C25.6759 17.108 25.9357 17.158 26.1454 17.158H41.9827C42.1955 17.158 42.4615 17.1017 42.6087 17.205C42.834 17.3615 43.1282 17.64 43.1188 17.856C43.1094 18.072 42.8058 18.3224 42.5711 18.482C42.4553 18.5665 42.2331 18.5039 42.0578 18.5039L34.0484 18.5101Z" fill="#3F3F3F"/>
<path d="M34.0985 40.4132H42.0515C42.208 40.4132 42.4083 40.3568 42.5085 40.432C42.7526 40.6072 43.0656 40.8138 43.1345 41.0579C43.2315 41.4116 42.9529 41.6839 42.5711 41.734C42.398 41.7581 42.223 41.7665 42.0484 41.759H26.086C25.8919 41.759 25.6509 41.806 25.5132 41.7121C25.3004 41.565 25.0124 41.3052 25.0249 41.1111C25.0375 40.9171 25.3035 40.6166 25.5163 40.4351C25.6227 40.3475 25.8544 40.4069 26.0296 40.4069L34.0985 40.4132Z" fill="#3F3F3F"/>
<path d="M34.089 21.0892H26.0671C25.8919 21.0892 25.6634 21.1518 25.5507 21.0641C25.3285 20.8982 25.0249 20.6478 25.0218 20.4381C25.0186 20.2284 25.316 19.9655 25.5351 19.8122C25.6477 19.7214 25.8731 19.7715 26.0484 19.7715H42.0953C42.2706 19.7715 42.4991 19.7245 42.6086 19.8122C42.8277 19.9874 43.1282 20.2503 43.1219 20.4663C43.1156 20.6823 42.8089 20.9264 42.5711 21.0923C42.4552 21.1768 42.2299 21.1142 42.0546 21.1142L34.089 21.0892Z" fill="#3F3F3F"/>
<path d="M34.0609 30.1284H26.0515C25.8763 30.1284 25.6478 30.1878 25.5382 30.1002C25.3223 29.9249 25.05 29.6777 25.0312 29.4429C25.0124 29.2082 25.3035 28.9828 25.5163 28.8357C25.6509 28.7418 25.8951 28.8013 26.0891 28.8013H42.0766C42.1361 28.8013 42.1955 28.8013 42.2519 28.8013C42.7339 28.7762 43.1251 28.8983 43.1689 29.4586C43.2033 29.8842 42.8559 30.1315 42.2738 30.1315H34.0735L34.0609 30.1284Z" fill="#3F3F3F"/>
<path d="M34.0922 32.7136H26.0672C25.8731 32.7136 25.629 32.7731 25.4944 32.676C25.2847 32.5258 25.0187 32.2723 25.0187 32.0501C25.0187 31.8278 25.2691 31.5712 25.4756 31.4241C25.604 31.3271 25.8544 31.3834 26.0484 31.3834H42.0954C42.2519 31.3834 42.4584 31.3271 42.5523 31.4053C42.7839 31.5931 43.0938 31.831 43.1188 32.0751C43.1376 32.2629 42.8058 32.5258 42.5711 32.7011C42.4522 32.7856 42.2299 32.7261 42.0547 32.7261L34.0922 32.7136Z" fill="#3F3F3F"/>
<path d="M30.8277 46.9483C29.2315 46.9483 27.6321 46.9483 26.0359 46.9483C25.8606 46.9483 25.6321 46.9953 25.5225 46.9045C25.3066 46.7261 25.0155 46.4663 25.0218 46.2441C25.028 46.0219 25.3348 45.7746 25.5538 45.6181C25.6697 45.5336 25.895 45.5868 26.0703 45.5868H35.8887C36.3395 45.5868 36.6712 45.7903 36.6806 46.2598C36.69 46.7293 36.3676 46.9452 35.9138 46.9577C35.46 46.9703 35.0562 46.9577 34.6274 46.9577L30.8277 46.9483Z" fill="#3F3F3F"/>
<path d="M30.8152 12.0627H26.0233C25.8324 12.0627 25.582 12.1065 25.4568 12.0063C25.2353 11.849 25.0784 11.6165 25.0155 11.3522C25.0155 11.1581 25.2565 10.8952 25.4568 10.7638C25.6559 10.6866 25.8717 10.6628 26.0828 10.6949H35.6697C36.3457 10.6949 36.6963 10.939 36.6963 11.3835C36.6963 11.8279 36.352 12.0658 35.6697 12.0658L30.8152 12.0627Z" fill="#3F3F3F"/>
<path d="M30.8215 23.6776C29.1407 23.6776 27.4631 23.6776 25.7855 23.6776C25.1595 23.6776 24.7589 23.1956 25.0531 22.7574C25.1632 22.6349 25.2971 22.5361 25.4468 22.4672C25.5964 22.3983 25.7585 22.3607 25.9232 22.3568C27.9138 22.3224 29.9044 22.338 31.895 22.338C33.1846 22.338 34.4709 22.338 35.7605 22.338C36.2393 22.338 36.6337 22.4413 36.6994 22.9953C36.7401 23.4335 36.3864 23.6807 35.7605 23.6839L30.8215 23.6776Z" fill="#3F3F3F"/>
<path d="M30.8747 33.9624H35.9107C36.377 33.9624 36.6837 34.1815 36.6806 34.6478C36.6775 35.1142 36.3676 35.2957 35.9388 35.3051C35.7636 35.3051 35.5883 35.3051 35.413 35.3051H28.1517C27.388 35.3051 26.6274 35.3051 25.8668 35.3051C25.2597 35.3051 24.956 35.061 24.9842 34.6165C25.0218 34.0438 25.4193 33.953 25.8981 33.9561C27.557 33.9655 29.2158 33.9624 30.8747 33.9624Z" fill="#3F3F3F"/>
<path d="M18.1829 43.6964L19.5163 42.3162C19.8293 42.0032 20.2048 41.9061 20.5429 42.2442C20.8809 42.5822 20.7901 42.9515 20.4678 43.2739C19.8731 43.8655 19.2847 44.4601 18.69 45.0517C18.6231 45.1371 18.5371 45.2057 18.4391 45.2521C18.341 45.2984 18.2335 45.3213 18.125 45.3189C18.0166 45.3165 17.9102 45.2888 17.8143 45.2381C17.7184 45.1873 17.6356 45.1149 17.5726 45.0266C17.341 44.7888 17.1063 44.5572 16.8715 44.3224C16.5585 44.0094 16.4427 43.6495 16.7901 43.3021C17.1376 42.9547 17.4912 43.0486 17.8167 43.3615C17.9138 43.4554 18.0171 43.5431 18.1829 43.6964Z" fill="#3F3F3F"/>
<path d="M18.1955 8.81064C18.6368 8.34429 19.0656 7.89359 19.5007 7.44601C19.8137 7.13302 20.1767 7.0047 20.5241 7.34273C20.8716 7.68075 20.7808 8.07512 20.4428 8.41315C19.8606 8.98905 19.2847 9.57121 18.7057 10.1502C18.64 10.2365 18.5552 10.3065 18.458 10.3546C18.3609 10.4027 18.2539 10.4278 18.1454 10.4278C18.037 10.4278 17.93 10.4027 17.8328 10.3546C17.7356 10.3065 17.6509 10.2365 17.5852 10.1502C17.3379 9.90298 17.0875 9.65571 16.8434 9.40532C16.5304 9.09233 16.4616 8.75118 16.7745 8.42254C17.0875 8.0939 17.4662 8.14085 17.8011 8.45384L18.1955 8.81064Z" fill="#3F3F3F"/>
<path d="M18.208 32.1001L19.4193 30.7824C19.7323 30.4287 20.111 30.2503 20.5335 30.604C20.8716 30.8888 20.8121 31.2926 20.399 31.7151C19.8544 32.2691 19.3066 32.82 18.7495 33.3646C18.3051 33.7965 17.9921 33.7965 17.5508 33.3646C17.3098 33.1361 17.0813 32.8982 16.8497 32.6635C16.5367 32.3505 16.4553 32.0156 16.7683 31.687C17.0813 31.3583 17.4569 31.3928 17.7918 31.7057L18.208 32.1001Z" fill="#3F3F3F"/>
<path d="M18.2049 20.4507C18.643 19.9843 19.0624 19.5117 19.4944 19.0798C19.823 18.7387 20.2049 18.6322 20.5585 19.011C20.9122 19.3897 20.762 19.7183 20.449 20.0313C19.8731 20.6103 19.2972 21.1894 18.715 21.7653C18.6497 21.8516 18.5656 21.922 18.469 21.971C18.3725 22.0201 18.2661 22.0465 18.1578 22.0483C18.0495 22.0501 17.9423 22.0273 17.8441 21.9815C17.746 21.9357 17.6596 21.8682 17.5914 21.784C17.341 21.5368 17.0906 21.2926 16.8465 21.0423C16.5335 20.7293 16.4584 20.3505 16.8058 20.0156C17.1532 19.6808 17.4756 19.7809 17.7886 20.0751C17.9138 20.1847 18.0202 20.2848 18.2049 20.4507Z" fill="#3F3F3F"/>
</svg>
