<svg width="71" height="60" viewBox="0 0 71 60" fill="none" xmlns="http://www.w3.org/2000/svg">
<path d="M0.896484 15.4978C1.20456 15.2624 1.55031 15.081 1.91904 14.9612C2.48833 14.8669 2.84731 15.2295 2.91983 15.8242C2.93433 16.05 2.93433 16.2764 2.91983 16.5022V51.3778C2.91983 52.3749 2.91983 52.3749 3.87711 52.3749H47.0273V50.2428H6.6148C5.32029 50.2428 5.07009 49.9999 5.07009 48.7054V5.68568C5.07009 4.42743 5.32391 4.17361 6.57491 4.17361H64.7153C65.93 4.17361 66.1947 4.43831 66.1947 5.64216V32.7833C66.1947 33.7007 65.9409 34.056 65.2882 34.1068C65.1603 34.1261 65.0297 34.1191 64.9046 34.0862C64.7795 34.0532 64.6624 33.9951 64.5606 33.9153C64.4587 33.8355 64.3742 33.7358 64.3123 33.6222C64.2504 33.5086 64.2123 33.3835 64.2004 33.2547C64.172 33.0068 64.1635 32.757 64.175 32.5077V6.26947H7.14783V48.1651H47.0346V43.7123C46.7264 43.7123 46.4182 43.7123 46.1136 43.7123C44.6631 43.6107 43.7457 42.8057 43.8183 41.3916C43.8866 40.7804 43.8014 40.1619 43.5703 39.592C43.3392 39.0222 42.9695 38.519 42.4947 38.1281C41.4069 37.1418 41.494 35.8763 42.4947 34.7522C42.6061 34.6094 42.7353 34.4815 42.8791 34.3715C43.2435 34.1537 43.5287 33.8251 43.6931 33.4337C43.8575 33.0423 43.8925 32.6086 43.7929 32.1959C43.7766 32.038 43.7766 31.8788 43.7929 31.7209C43.8364 30.1653 44.6849 29.1826 46.2223 29.237C46.8088 29.2953 47.4005 29.2068 47.9442 28.9796C48.4879 28.7524 48.9666 28.3935 49.3371 27.9352C50.3307 26.8474 51.5926 26.9018 52.7166 27.8808C52.9571 28.0875 53.1769 28.317 53.373 28.5662C53.5493 28.8173 53.7942 29.0123 54.0784 29.1281C54.3626 29.2438 54.6741 29.2753 54.9757 29.2189C55.1778 29.1947 55.3814 29.185 55.5849 29.1899C57.3435 29.1899 58.3515 30.1254 58.2464 31.8768C58.1867 32.3747 58.2553 32.8796 58.4456 33.3435C58.636 33.8075 58.9419 34.215 59.3342 34.5274C60.6976 35.7313 60.6904 37.1745 59.3342 38.3856C58.9396 38.6951 58.6346 39.1042 58.4504 39.5706C58.2662 40.0371 58.2096 40.5442 58.2863 41.0399C58.464 42.9036 57.5611 43.7522 55.6791 43.7123C55.4797 43.7123 55.2766 43.7123 55.0264 43.7123V48.1433H64.1714V39.1615C64.1629 38.9366 64.1689 38.7113 64.1895 38.4871C64.1981 38.356 64.2338 38.2282 64.2943 38.1116C64.3548 37.9951 64.4388 37.8923 64.541 37.8098C64.6433 37.7274 64.7615 37.667 64.8882 37.6325C65.0149 37.5981 65.1474 37.5903 65.2773 37.6096C65.4031 37.6045 65.5285 37.6263 65.6452 37.6733C65.7619 37.7204 65.8673 37.7917 65.9543 37.8825C66.0414 37.9734 66.1082 38.0817 66.1503 38.2003C66.1923 38.3189 66.2087 38.4451 66.1984 38.5705C66.1984 39.5894 66.1984 40.6047 66.1984 41.6236C66.1984 44.0676 66.1984 46.5104 66.1984 48.9519C66.1984 49.9201 65.8611 50.2464 64.8857 50.2464H55.0083V52.3423C55.2368 52.3423 55.4507 52.3786 55.6683 52.3786H67.4747C68.3269 52.3786 68.345 52.3604 68.345 51.5011C68.345 35.3046 68.345 19.1082 68.345 2.91173C68.345 2.2119 68.1274 2.03785 67.4566 2.03785C46.2417 2.05719 25.0256 2.05719 3.80822 2.03785C2.91983 2.03785 2.91983 2.03785 2.9162 2.94799C2.9162 5.41372 2.9162 7.87945 2.9162 10.3452C2.9162 10.8891 2.89445 11.433 2.28889 11.6361C1.68334 11.8391 1.25909 11.6034 0.896484 11.1538V1.79128C1.47666 0.431502 2.51371 0 3.97139 0C25.1839 0.0290086 46.3988 0.0362607 67.6162 0.0217564C69.4945 0.0217564 70.3865 0.921022 70.3865 2.8102C70.3865 19.0743 70.3865 35.3348 70.3865 51.5917C70.3865 53.5099 69.4836 54.4092 67.5581 54.4128H54.9539V55.2287C54.9539 56.4253 54.9539 57.6255 54.9539 58.8221C54.9539 59.8229 54.2686 60.2508 53.3548 59.8519C52.5897 59.5183 51.8355 58.8801 51.0813 58.8837C50.3271 58.8874 49.5184 59.511 48.7316 59.8446C47.7743 60.2508 47.1252 59.8446 47.0962 58.775C47.0672 57.7053 47.0962 56.7371 47.0962 55.7218V54.4128H46.1208C32.0565 54.4128 17.9898 54.4128 3.92063 54.4128C2.4702 54.4128 1.42226 53.9487 0.910989 52.5309L0.896484 15.4978ZM50.9761 43.8754C51.1067 43.7848 51.1683 43.7522 51.2154 43.7086C51.305 43.6379 51.3854 43.5563 51.4548 43.4657C52.4265 42.0153 53.7537 41.3662 55.516 41.6889C56.2412 41.8195 56.3137 41.3662 56.2412 40.8223C56.1167 40.1394 56.1866 39.4353 56.4431 38.7903C56.6996 38.1453 57.1322 37.5854 57.6916 37.1745C58.4603 36.5617 58.4567 36.3985 57.6916 35.7821C57.1517 35.3848 56.7297 34.8486 56.4704 34.2305C56.2112 33.6124 56.1244 32.9355 56.2194 32.272C56.3282 31.2785 56.2375 31.1842 55.2476 31.2748C54.5723 31.3682 53.8844 31.2769 53.2568 31.0106C52.6292 30.7444 52.0854 30.3132 51.6832 29.7628C51.1067 29.0376 50.958 29.0376 50.3452 29.7918C49.9466 30.3298 49.4111 30.7512 48.7944 31.012C48.1778 31.2728 47.5024 31.3636 46.8388 31.2748C45.809 31.1769 45.751 31.235 45.838 32.2394C45.9303 32.9146 45.8397 33.6022 45.5757 34.2304C45.3116 34.8587 44.8838 35.4046 44.3368 35.8111C43.6116 36.4057 43.6116 36.5363 44.3368 37.1491C44.8657 37.5416 45.2827 38.0658 45.546 38.6696C45.8094 39.2733 45.9101 39.9355 45.838 40.5902C45.7401 41.7433 45.7945 41.7578 46.9766 41.678C47.1144 41.678 47.2485 41.649 47.3827 41.6454C47.8802 41.5955 48.3822 41.6736 48.841 41.8722C49.2998 42.0708 49.7003 42.3834 50.0043 42.7804C50.298 43.1502 50.6316 43.4838 50.9761 43.8754ZM52.8581 57.2919V44.9633C51.5889 46.2831 50.3742 46.1236 49.1595 44.9959V57.3245C49.8194 57.078 50.4213 56.6791 51.0233 56.6791C51.6252 56.6791 52.2307 57.078 52.8581 57.2919Z" fill="#3F3F3F"/>
<path d="M35.6342 18.8845H56.5893C56.8151 18.87 57.0416 18.87 57.2673 18.8845C57.5114 18.9061 57.7393 19.0159 57.9083 19.1933C58.0773 19.3707 58.1759 19.6036 58.1857 19.8484C58.1955 20.0933 58.1158 20.3333 57.9614 20.5236C57.8071 20.7139 57.5887 20.8415 57.3471 20.8825C57.124 20.9164 56.8977 20.9249 56.6727 20.9079H14.6284C14.4028 20.9279 14.1759 20.9279 13.9503 20.9079C13.8255 20.894 13.7046 20.8553 13.5949 20.7941C13.4852 20.7329 13.3889 20.6504 13.3115 20.5514C13.2342 20.4524 13.1774 20.339 13.1445 20.2178C13.1116 20.0965 13.1032 19.9699 13.12 19.8454C13.1161 19.7254 13.1359 19.6058 13.1783 19.4935C13.2207 19.3811 13.2848 19.2782 13.3669 19.1907C13.4491 19.1031 13.5477 19.0326 13.6572 18.9832C13.7666 18.9338 13.8847 18.9064 14.0047 18.9027C14.2294 18.8899 14.4545 18.8899 14.6792 18.9027L35.6342 18.8845Z" fill="#3F3F3F"/>
<path d="M31.573 14.7146C25.9454 14.7146 20.3177 14.7146 14.69 14.7146C14.4481 14.7212 14.206 14.7139 13.9648 14.6928C13.7324 14.6815 13.5137 14.5795 13.3557 14.4086C13.1977 14.2377 13.113 14.0117 13.12 13.779C13.082 13.5518 13.1327 13.3187 13.2615 13.1278C13.3904 12.9369 13.5876 12.8027 13.8125 12.7529C14.0773 12.6995 14.3477 12.6788 14.6175 12.6912H48.6554C48.9254 12.68 49.1958 12.702 49.4604 12.7565C49.6857 12.8047 49.8838 12.9378 50.0134 13.1283C50.1431 13.3187 50.1944 13.5518 50.1566 13.779C50.1667 14.009 50.0867 14.2338 49.9337 14.4058C49.7807 14.5777 49.5667 14.6833 49.3371 14.7001C49.0889 14.7237 48.8394 14.7309 48.5902 14.7218C42.919 14.7218 37.2466 14.7194 31.573 14.7146Z" fill="#3F3F3F"/>
<path d="M21.6485 41.2792C19.5236 43.114 18.2255 42.6607 16.717 39.5858C16.3544 40.699 16.039 41.7615 15.6945 42.8493C15.6254 43.0821 15.5267 43.3051 15.4008 43.5129C15.2591 43.7359 15.0384 43.8971 14.7829 43.9644C14.5274 44.0316 14.256 43.9998 14.0229 43.8755C13.508 43.6144 13.4101 43.2083 13.6022 42.6825C14.7535 39.5147 15.3854 36.1817 15.4733 32.8123C15.4748 32.6304 15.4967 32.4491 15.5386 32.272C15.5886 32.0368 15.7217 31.8274 15.9135 31.6822C16.1052 31.5371 16.3429 31.4658 16.5829 31.4816C16.6957 31.4684 16.8101 31.4789 16.9187 31.5124C17.0273 31.5458 17.1277 31.6015 17.2136 31.6758C17.2996 31.7501 17.3691 31.8415 17.4178 31.9442C17.4665 32.0468 17.4934 32.1585 17.4966 32.272C17.7541 33.9654 17.968 35.6697 18.2835 37.3485C18.4664 38.1845 18.7237 39.0024 19.0522 39.7925C19.3024 40.4379 19.6396 40.4778 20.0857 39.9339C20.3339 39.6142 20.541 39.2646 20.7021 38.8932C20.7832 38.6561 20.9418 38.4531 21.1522 38.3169C21.3627 38.1808 21.6128 38.1194 21.8624 38.1426C22.4172 38.1753 22.5876 38.556 22.7399 39.0238C23.0191 39.9847 23.4253 40.2639 24.6291 40.2711C26.6851 40.2711 28.7411 40.2711 30.7934 40.2711C30.9965 40.2711 31.1996 40.2711 31.4026 40.2711C31.534 40.269 31.6646 40.2928 31.7868 40.3411C31.9091 40.3894 32.0206 40.4613 32.1151 40.5527C32.2095 40.6441 32.285 40.7533 32.3373 40.8739C32.3896 40.9945 32.4176 41.1242 32.4197 41.2556C32.4219 41.387 32.3981 41.5176 32.3498 41.6399C32.3015 41.7621 32.2296 41.8736 32.1381 41.9681C32.0467 42.0625 31.9376 42.138 31.817 42.1903C31.6964 42.2426 31.5667 42.2706 31.4353 42.2727C30.3946 42.3126 29.3575 42.2945 28.3168 42.2981C27.0296 42.2981 25.7423 42.2981 24.4551 42.2981C23.4253 42.28 22.4245 42.1277 21.6485 41.2792Z" fill="#3F3F3F"/>
<path d="M26.395 25.0743H37.9259C38.1507 25.0743 38.3792 25.0743 38.6003 25.0743C38.7311 25.0742 38.8605 25.1004 38.981 25.1511C39.1014 25.2019 39.2105 25.2763 39.3018 25.3699C39.393 25.4636 39.4646 25.5745 39.5123 25.6962C39.56 25.818 39.5828 25.948 39.5794 26.0787C39.5828 26.2095 39.5603 26.3396 39.5132 26.4617C39.4661 26.5838 39.3954 26.6953 39.3051 26.79C39.2149 26.8847 39.1068 26.9606 38.987 27.0134C38.8673 27.0662 38.7384 27.0948 38.6076 27.0976C38.4276 27.1067 38.2473 27.1067 38.0673 27.0976H14.3129C13.5261 27.0722 13.1308 26.735 13.1127 26.1077C13.0946 25.4804 13.5007 25.067 14.3202 25.067C18.3451 25.067 22.3701 25.0694 26.395 25.0743Z" fill="#3F3F3F"/>
<path d="M51.0269 40.4561C50.2369 40.4561 49.4647 40.2215 48.8083 39.7821C48.1518 39.3427 47.6406 38.7182 47.3394 37.9879C47.0383 37.2576 46.9608 36.4543 47.1168 35.6799C47.2728 34.9055 47.6552 34.1948 48.2155 33.638C48.7759 33.0812 49.489 32.7034 50.2644 32.5523C51.0398 32.4013 51.8426 32.4839 52.5709 32.7897C53.2993 33.0955 53.9205 33.6107 54.3557 34.27C54.7909 34.9292 55.0206 35.7029 55.0155 36.4928C55.0032 37.5445 54.5782 38.5493 53.8321 39.2906C53.086 40.0319 52.0786 40.4505 51.0269 40.4561ZM51.0087 38.4146C51.3926 38.4182 51.7688 38.3079 52.0899 38.0975C52.4109 37.8872 52.6624 37.5863 52.8124 37.233C52.9625 36.8797 53.0043 36.4899 52.9327 36.1128C52.8611 35.7357 52.6792 35.3883 52.4101 35.1146C52.1409 34.8409 51.7967 34.6532 51.4209 34.5753C51.045 34.4973 50.6545 34.5326 50.2987 34.6766C49.943 34.8207 49.6379 35.0671 49.4222 35.3845C49.2065 35.702 49.0898 36.0764 49.0869 36.4602C49.0914 36.9715 49.2944 37.4611 49.6529 37.8257C50.0114 38.1904 50.4975 38.4015 51.0087 38.4146Z" fill="#3F3F3F"/>
</svg>
