<svg width="61" height="60" viewBox="0 0 61 60" fill="none" xmlns="http://www.w3.org/2000/svg">
<path d="M29.1404 45.4803H0.151733V6.80583H46.5023C46.6073 4.56809 47.4562 2.7443 49.202 1.40646C50.4896 0.401851 52.102 -0.0936004 53.7315 0.0146191C55.3337 0.121799 56.8459 0.7937 57.9993 1.91085C59.1527 3.028 59.8725 4.518 60.0308 6.11591C60.3307 8.8156 58.8309 12.5352 54.2594 13.5041V14.113C54.2594 20.0383 54.2594 25.9616 54.2594 31.8829C54.2557 32.0682 54.2949 32.2518 54.374 32.4194C54.4531 32.587 54.57 32.7339 54.7154 32.8488C59.4968 37.2763 61.2486 42.7027 59.3709 48.9509C57.5111 55.1332 53.1346 58.8288 46.7483 59.8217C38.1003 61.1685 30.0103 54.7223 29.2274 46.0233C29.2064 45.8553 29.1734 45.6993 29.1404 45.4803ZM27.2266 41.6108V30.0261H33.0099V34.1597C38.7572 28.5983 45.1585 27.5604 52.3007 31.019V13.621L49.142 12.3132C47.3932 14.065 45.5815 15.8978 43.7427 17.7126C43.6061 17.8211 43.5086 17.9711 43.4647 18.1399C43.4209 18.3087 43.4332 18.4872 43.4997 18.6485C43.8417 19.8483 43.4607 20.8382 42.5398 21.6241C42.1049 21.9913 41.5681 22.2167 41.0014 22.2704C40.4348 22.324 39.8653 22.2031 39.3692 21.9241C38.3043 21.3241 37.5694 20.3523 37.8873 19.2064C38.2053 18.0605 37.5874 17.5986 36.9875 16.9986C36.8348 16.8107 36.6595 16.6425 36.4655 16.4977C36.2607 16.3907 36.0337 16.3332 35.8026 16.3297C35.2477 16.3147 34.6747 16.4227 34.1438 16.3297C33.987 16.2828 33.8198 16.2834 33.6634 16.3315C33.507 16.3795 33.3683 16.4729 33.2649 16.5997C32.065 17.8206 30.8652 19.0384 29.6293 20.2293C29.1344 20.7092 28.6514 21.1292 29.0924 21.9001C29.1161 21.9767 29.1243 22.0572 29.1164 22.137C29.1445 22.7452 28.981 23.3467 28.6489 23.857C28.3169 24.3672 27.833 24.7602 27.2656 24.9807C26.8397 25.1469 26.3806 25.2097 25.9257 25.164C25.4709 25.1183 25.0334 24.9655 24.6491 24.718C24.2647 24.4705 23.9446 24.1354 23.7148 23.7403C23.485 23.3451 23.3522 22.9011 23.3273 22.4447C23.3023 21.9882 23.3859 21.5324 23.5712 21.1145C23.7566 20.6967 24.0383 20.3287 24.3933 20.0408C24.7484 19.7529 25.1666 19.5532 25.6138 19.4582C26.0609 19.3633 26.5242 19.3756 26.9656 19.4944C27.2656 19.5723 27.4846 19.6803 27.7725 19.3834C29.1734 17.9375 30.6162 16.5307 32.026 15.0909C32.136 14.911 32.1874 14.7013 32.173 14.4909C32.206 13.84 32.068 13.1441 32.26 12.5502C32.381 12.2002 32.5699 11.8775 32.8158 11.6007C33.0618 11.3239 33.3599 11.0983 33.6932 10.937C34.0265 10.7756 34.3884 10.6816 34.7581 10.6604C35.1278 10.6392 35.498 10.6912 35.8476 10.8134C36.5549 11.0444 37.1443 11.5422 37.4905 12.2009C37.8366 12.8596 37.9123 13.6273 37.7014 14.341C37.6379 14.4938 37.6276 14.6636 37.6722 14.823C37.7168 14.9824 37.8137 15.1222 37.9473 15.2199C38.3943 15.6278 38.7902 16.0868 39.2432 16.4857C39.4112 16.5917 39.6092 16.6401 39.8071 16.6237C40.3784 16.5847 40.9517 16.5847 41.5229 16.6237C41.669 16.6691 41.8249 16.672 41.9725 16.6322C42.1202 16.5923 42.2534 16.5114 42.3568 16.3987C44.0816 14.6469 45.8274 12.9161 47.5642 11.1763C47.6722 11.0683 47.7652 10.9453 47.8372 10.8764C47.5351 10.3808 47.2723 9.86223 47.0513 9.32554C46.8923 8.85159 46.6643 8.72561 46.1874 8.72561C31.6951 8.71761 17.2058 8.71361 2.71944 8.71361H2.08051V43.5096H29.1554L29.3713 41.6138L27.2266 41.6108ZM52.4807 50.1778C48.5451 55.4872 40.764 55.5142 36.7205 50.1778L33.3669 52.1186C36.3665 56.1411 40.2481 58.2199 45.1825 58.0219C49.649 57.8449 53.1466 55.7751 55.8073 52.1126L52.4807 50.1778ZM35.7696 48.483C34.5127 45.4293 34.5997 42.4837 36.2345 39.67C37.8694 36.8563 40.3831 35.3175 43.5897 34.8706V30.989C38.5623 31.589 34.7887 33.9887 32.491 38.4672C30.4962 42.3847 30.5742 46.3802 32.407 50.4148L35.7696 48.483ZM45.5875 34.8616C48.8091 35.3115 51.3168 36.8623 52.9516 39.661C54.5864 42.4597 54.6614 45.4563 53.4195 48.474L56.7192 50.3758C57.7694 48.276 58.2437 45.9351 58.0935 43.592C57.9433 41.249 57.174 38.9878 55.8643 37.0393C53.4045 33.4097 49.9609 31.433 45.5785 30.995L45.5875 34.8616ZM52.3277 44.5234C52.3306 42.9929 51.8795 41.4958 51.0314 40.2217C50.1833 38.9476 48.9763 37.9537 47.5631 37.3658C46.15 36.7779 44.5942 36.6224 43.0926 36.919C41.5911 37.2155 40.2112 37.9508 39.1277 39.0318C38.0442 40.1128 37.3057 41.491 37.0056 42.9918C36.7055 44.4927 36.8574 46.0489 37.4421 47.4634C38.0267 48.8779 39.0178 50.0872 40.2899 50.9383C41.562 51.7894 43.058 52.244 44.5886 52.2445C46.6365 52.2398 48.5995 51.4254 50.0494 49.979C51.4992 48.5325 52.3182 46.5714 52.3277 44.5234V44.5234ZM53.2726 11.6173C54.2288 11.6244 55.1656 11.3478 55.9646 10.8225C56.7636 10.2972 57.389 9.54686 57.7616 8.66622C58.1342 7.78559 58.2374 6.81425 58.058 5.87501C57.8787 4.93576 57.4249 4.07077 56.754 3.3894C56.0831 2.70803 55.2252 2.24087 54.2889 2.04698C53.3525 1.85308 52.3797 1.94117 51.4934 2.30008C50.6071 2.659 49.8471 3.27265 49.3095 4.06343C48.7719 4.85422 48.4809 5.78665 48.4731 6.74284C48.4659 8.02485 48.9669 9.25752 49.8664 10.1711C50.7658 11.0846 51.9906 11.6046 53.2726 11.6173V11.6173ZM29.1374 39.718C29.4373 39.655 29.8393 39.682 29.9083 39.547C30.3282 38.7071 30.9012 37.8522 30.9971 36.9583C31.1681 35.3145 31.0451 33.6407 31.0451 31.9729H29.1374V39.718ZM35.8836 13.561C35.8854 13.3705 35.8306 13.1837 35.7261 13.0243C35.6216 12.8649 35.4722 12.7401 35.2968 12.6657C35.1214 12.5912 34.9278 12.5705 34.7406 12.6062C34.5534 12.6418 34.381 12.7322 34.2452 12.8659C34.1094 12.9996 34.0163 13.1706 33.9778 13.3572C33.9392 13.5438 33.9569 13.7377 34.0286 13.9143C34.1003 14.0908 34.2227 14.2422 34.3805 14.3491C34.5382 14.456 34.7241 14.5137 34.9147 14.5149C35.1684 14.5127 35.4113 14.4119 35.592 14.2339C35.7728 14.0559 35.8774 13.8147 35.8836 13.561V13.561ZM41.6849 19.3864C41.6908 19.1959 41.64 19.008 41.539 18.8465C41.438 18.6849 41.2914 18.5569 41.1176 18.4787C40.9439 18.4005 40.7509 18.3756 40.563 18.4072C40.3751 18.4387 40.2007 18.5253 40.0621 18.656C39.9234 18.7867 39.8266 18.9556 39.784 19.1413C39.7414 19.327 39.7548 19.5212 39.8225 19.6992C39.8903 19.8773 40.0094 20.0313 40.1647 20.1416C40.32 20.252 40.5046 20.3138 40.695 20.3193C40.949 20.3234 41.1947 20.2282 41.3795 20.054C41.5644 19.8797 41.674 19.6402 41.6849 19.3864V19.3864ZM26.2187 23.2199C26.4091 23.2193 26.5951 23.1623 26.7531 23.056C26.9112 22.9497 27.0341 22.7989 27.1064 22.6227C27.1788 22.4466 27.1972 22.2529 27.1595 22.0662C27.1218 21.8796 27.0295 21.7083 26.8944 21.5741C26.7594 21.4398 26.5875 21.3486 26.4006 21.3121C26.2137 21.2755 26.0202 21.2952 25.8445 21.3686C25.6687 21.442 25.5187 21.5659 25.4134 21.7246C25.3081 21.8833 25.2522 22.0696 25.2528 22.26C25.256 22.5147 25.3589 22.7579 25.5395 22.9374C25.7202 23.1169 25.9641 23.2184 26.2187 23.2199V23.2199Z" fill="#3F3F3F"/>
<path d="M25.2078 41.5778H19.4785V26.1776H25.2078V41.5778ZM21.4223 28.0794V39.6101H23.2821V28.0884L21.4223 28.0794Z" fill="#3F3F3F"/>
<path d="M9.75064 31.9729V41.5718H4.01831V31.9729H9.75064ZM5.95009 33.8777V39.625H7.84587V33.8777H5.95009Z" fill="#3F3F3F"/>
<path d="M11.7334 41.5748V33.9106H17.4777V41.5808L11.7334 41.5748ZM15.537 39.64V35.8484H13.6502C13.6502 37.0483 13.6502 38.2241 13.6502 39.388C13.6556 39.4725 13.6656 39.5566 13.6802 39.64H15.537Z" fill="#3F3F3F"/>
<path d="M21.3503 10.6934V12.5561H7.88782V10.6934H21.3503Z" fill="#3F3F3F"/>
<path d="M21.3382 16.4287H7.8728V14.5659H21.3382V16.4287Z" fill="#3F3F3F"/>
<path d="M7.86682 20.2803V18.4205H21.3653V20.2803H7.86682Z" fill="#3F3F3F"/>
<path d="M7.86987 24.1528V22.287H21.3323V24.1528H7.86987Z" fill="#3F3F3F"/>
<path d="M5.8691 12.5741H4.01831V10.6934H5.8691V12.5741Z" fill="#3F3F3F"/>
<path d="M5.85106 16.4347H4.00928V14.554H5.85106V16.4347Z" fill="#3F3F3F"/>
<path d="M5.87806 18.4205V20.2803H4.00928V18.4205H5.87806Z" fill="#3F3F3F"/>
<path d="M5.87806 22.29V24.1498H4.00928V22.29H5.87806Z" fill="#3F3F3F"/>
<path d="M44.5645 50.3068C43.4172 50.3015 42.2971 49.956 41.3461 49.3141C40.3951 48.6722 39.6557 47.7627 39.2216 46.7006C38.7875 45.6385 38.678 44.4716 38.9071 43.3473C39.1362 42.223 39.6935 41.1919 40.5086 40.3843C41.3237 39.5768 42.3599 39.0291 43.4863 38.8105C44.6127 38.5919 45.7786 38.7122 46.8366 39.1562C47.8946 39.6002 48.7971 40.348 49.4302 41.3049C50.0632 42.2619 50.3982 43.3851 50.3929 44.5325C50.3802 46.0694 49.7604 47.5389 48.6685 48.6206C47.5767 49.7023 46.1015 50.3085 44.5645 50.3068ZM48.4641 44.5235C48.4676 43.7594 48.2447 43.0114 47.8234 42.3739C47.4022 41.7365 46.8015 41.2381 46.0972 40.9417C45.393 40.6454 44.6167 40.5644 43.8664 40.7089C43.1161 40.8533 42.4254 41.2169 41.8816 41.7536C41.3377 42.2904 40.9651 42.9762 40.8108 43.7245C40.6564 44.4728 40.7272 45.2501 41.0143 45.9582C41.3013 46.6663 41.7918 47.2735 42.4236 47.7031C43.0555 48.1327 43.8005 48.3655 44.5645 48.372C45.589 48.3744 46.5727 47.9708 47.3002 47.2495C48.0277 46.5282 48.4398 45.5479 48.4461 44.5235H48.4641Z" fill="#3F3F3F"/>
</svg>
