<svg width="81" height="60" viewBox="0 0 81 60" fill="none" xmlns="http://www.w3.org/2000/svg">
<path d="M80.4211 47.0161C80.0298 47.7987 79.388 47.9905 78.5545 47.9866C74.5983 47.9553 70.6421 47.9866 66.6859 47.9866H65.7467V48.8944C65.7467 51.9937 65.7467 55.0916 65.7467 58.1882C65.7467 59.5695 65.3124 59.9961 63.9193 60H16.9808C15.529 60 15.1103 59.5852 15.1103 58.1491V47.9748H2.26338C0.866376 47.9709 0.428101 47.5483 0.428101 46.1748C0.428101 43.8582 0.428101 41.5416 0.428101 39.2211C0.52593 30.9134 4.18474 24.7306 11.5219 20.7783L11.8506 20.5983C11.0915 19.4243 10.2149 18.3013 9.6084 17.0764C6.10611 9.87621 10.8293 1.1968 18.7574 0.128509C21.408 -0.235178 24.1045 0.287615 26.4272 1.61551C27.2098 2.04987 27.4759 2.74251 27.1472 3.43122C27.0681 3.60334 26.9527 3.75628 26.8088 3.8795C26.6649 4.00271 26.4961 4.09329 26.3138 4.14498C26.1316 4.19668 25.9403 4.20827 25.7532 4.17895C25.566 4.14963 25.3875 4.0801 25.2298 3.97515C23.3108 2.89608 21.0884 2.48325 18.91 2.8012C14.6212 3.43122 11.2676 7.25048 11.1032 11.7389C10.9467 16.0864 14.1516 20.2031 18.3622 21.0679C19.8198 21.3729 21.3266 21.3542 22.7762 21.0131C23.7545 20.7822 24.4628 21.1344 24.6467 21.9014C24.8463 22.731 24.361 23.3493 23.3554 23.588C20.5819 24.2993 17.6447 23.9824 15.0868 22.6958C14.7227 22.5383 14.3116 22.5285 13.9403 22.6684C7.25658 25.5719 3.63299 30.6943 3.16732 37.9571C3.00688 40.3637 3.14384 42.7899 3.14384 45.2591H15.2199C16.5347 35.9027 21.4418 29.1603 29.9256 24.9106C26.4898 21.1305 25.0811 16.7243 26.0828 11.688C26.7198 8.29691 28.5942 5.26351 31.3421 3.17687C37.3684 -1.46024 45.4882 -0.967179 50.7789 4.30386C53.5019 7.03348 55.0454 10.7224 55.0776 14.5779C55.1098 18.4334 53.6281 22.1476 50.951 24.9223C59.3878 29.1381 64.2832 35.921 65.6372 45.2708H77.6428C77.6702 45.2434 77.7328 45.2043 77.7328 45.1652C77.6623 41.3303 78.1906 37.4523 77.0127 33.6878C75.3653 28.4285 71.9843 24.7306 66.8855 22.6371C66.533 22.5143 66.147 22.5296 65.8054 22.6801C63.2278 23.9877 60.263 24.3145 57.4625 23.5997C56.5077 23.3649 56.0382 22.7662 56.2064 21.9562C56.3747 21.1461 57.083 20.8135 58.0495 21.0131C63.2932 22.1127 67.8951 19.4948 69.3977 14.5642C69.9104 12.8298 69.8998 10.9826 69.3673 9.2542C68.8348 7.52577 67.804 5.99294 66.4041 4.84779C63.344 2.39032 59.967 2.01466 56.3786 3.61906C56.0499 3.76384 55.7329 3.95168 55.3925 4.08081C55.0908 4.20992 54.7512 4.21859 54.4433 4.10506C54.1355 3.99153 53.8828 3.7644 53.7372 3.47036C53.6546 3.32815 53.6016 3.17066 53.5815 3.00741C53.5614 2.84416 53.5746 2.67853 53.6203 2.52053C53.6661 2.36253 53.7433 2.21543 53.8475 2.08813C53.9517 1.96083 54.0805 1.85596 54.2264 1.77987C55.2473 1.21431 56.3256 0.759124 57.443 0.421996C62.7336 -0.947613 67.9459 1.24376 70.7869 5.9513C73.4635 10.3888 72.8491 16.0825 69.2686 20.0661C69.1473 20.1992 69.0377 20.3439 68.9673 20.4261C70.3408 21.3457 71.7691 22.1518 73.0252 23.1653C75.0619 24.7769 76.7547 26.7806 78.0035 29.0578C79.2523 31.335 80.0318 33.8395 80.2959 36.4232C80.3313 36.624 80.3783 36.8226 80.4368 37.018L80.4211 47.0161ZM63.0858 57.2882C63.0858 54.1029 63.1836 51.0036 63.0662 47.8966C62.7023 38.1136 58.0456 31.1952 49.1705 27.0863C48.9817 26.9817 48.7666 26.9342 48.5512 26.9495C48.3359 26.9648 48.1296 27.0422 47.9575 27.1724C46.2164 28.2752 44.246 28.9645 42.1973 29.1877C38.9669 29.6081 35.6897 28.9137 32.9074 27.2194C32.6182 27.0353 32.2678 26.9734 31.933 27.0472C29.0158 28.1829 26.3791 29.9371 24.2045 32.1891C19.8335 36.7401 17.74 42.2107 17.7713 48.5227C17.7713 51.1758 17.7713 53.8289 17.7713 56.486V57.2999L63.0858 57.2882ZM40.4246 26.6598C42.7998 26.6598 45.1216 25.955 47.096 24.6347C49.0705 23.3144 50.6087 21.4379 51.5161 19.2428C52.4234 17.0477 52.659 14.6328 52.193 12.3037C51.7271 9.97465 50.5805 7.83622 48.8986 6.15917C47.2166 4.48211 45.0748 3.34185 42.7444 2.88275C40.4139 2.42364 37.9997 2.66635 35.8073 3.58013C33.6149 4.49391 31.7429 6.03768 30.4284 8.01597C29.1139 9.99427 28.4159 12.3181 28.4229 14.6933C28.4496 17.8649 29.7237 20.8984 31.9697 23.1378C34.2157 25.3772 37.253 26.6424 40.4246 26.6598Z" fill="#3F3F3F"/>
</svg>
