<svg width="66" height="60" viewBox="0 0 66 60" fill="none" xmlns="http://www.w3.org/2000/svg">
<path d="M65.8644 53.5458C65.7254 53.8562 65.501 54.1207 65.2174 54.3085C64.9337 54.4962 64.6026 54.5995 64.2625 54.6062C60.5974 54.9939 56.9386 55.4296 53.2735 55.8237C52.8538 55.8685 52.6936 55.9967 52.6327 56.41C52.5206 57.2109 52.3732 58.0119 52.2002 58.7968C51.9994 59.7281 51.426 60.1179 50.4798 59.9662C45.9944 59.2325 41.4931 58.4572 36.9886 57.7716C36.1492 57.6435 35.2553 57.8261 34.3903 57.919C28.1898 58.6067 21.9926 59.2945 15.7986 59.9822C14.7414 60.1008 14.1262 59.6266 14.0461 58.5501C13.9436 57.1917 13.8763 55.8269 13.8251 54.4653C13.8251 54.0392 13.7225 53.8437 13.242 53.7668C9.48071 53.1613 5.72586 52.5142 1.96459 51.8894C0.683073 51.678 0.266578 51.1237 0.497252 49.8102L6.90486 13.5848C7.46232 10.4386 8.01017 7.2925 8.57404 4.14957C8.77908 3.00581 9.36858 2.60213 10.5252 2.79436C15.9716 3.70424 21.4405 4.64295 26.9062 5.51439C27.7296 5.64574 28.601 5.49517 29.45 5.42468C34.355 5.021 39.2569 4.5949 44.1619 4.19763C44.3063 4.196 44.4469 4.15161 44.5661 4.07007C44.6853 3.98852 44.7776 3.87348 44.8315 3.73948C47.2567 -0.813119 53.2414 -1.3065 56.3491 2.79757C56.4369 2.92573 56.5609 3.02472 56.7054 3.08182C56.8498 3.13891 57.008 3.15149 57.1597 3.11795C58.579 2.98659 60.0015 2.85523 61.4272 2.76232C62.5901 2.68543 63.1284 3.17882 63.1925 4.33859C63.5449 10.7654 63.8962 17.1912 64.2465 23.6159C64.6267 30.897 65.0304 38.175 65.4575 45.4498C65.5633 47.3432 65.6562 49.2399 65.7779 51.1333C65.7779 51.4281 65.8548 51.7196 65.8965 52.0112L65.8644 53.5458ZM49.7589 57.0924C52.322 42.5343 54.885 27.9987 57.4705 13.3957C56.3523 13.2099 55.2887 13.0209 54.2186 12.8735C53.9871 12.8744 53.7597 12.9351 53.5586 13.0497C52.2728 13.6548 50.8178 13.7985 49.4385 13.4566C48.6472 13.2516 47.8879 12.9024 46.9332 12.5531C46.8405 12.7113 46.7332 12.8604 46.6128 12.9985C44.84 14.7841 43.063 16.5632 41.2817 18.336C41.0895 18.5376 40.8744 18.7161 40.6409 18.8678C40.418 19.0173 40.153 19.0914 39.8849 19.0793C39.6168 19.0671 39.3597 18.9695 39.1511 18.8006C38.924 18.6539 38.7528 18.4352 38.6651 18.1795C38.5773 17.9238 38.5781 17.6461 38.6674 17.3909C38.796 17.0546 38.9998 16.7521 39.2633 16.5066C40.8331 14.9047 42.4222 13.3381 44.0049 11.7554C44.1491 11.608 44.2836 11.435 44.4887 11.23L11.0346 5.65856L3.32301 49.3392L49.7589 57.0924ZM63.0803 51.9919C62.2153 36.4695 61.3599 21.0368 60.4981 5.55924L57.6146 5.82836C57.7748 7.61608 57.7492 7.73462 56.6855 10.4867L58.8161 10.8423C60.1456 11.0538 60.5621 11.6561 60.3283 12.9664C59.6021 16.969 58.8876 20.977 58.1849 24.9903C56.8863 32.342 55.5877 39.6968 54.2891 47.0549C53.9399 49.0348 53.5907 51.018 53.2254 53.1005L63.0803 51.9919ZM46.7858 6.84076C46.7891 7.37846 46.8984 7.91023 47.1072 8.40571C47.3161 8.90119 47.6205 9.35067 48.0031 9.7285C48.3857 10.1063 48.839 10.4051 49.337 10.6077C49.8351 10.8104 50.3682 10.913 50.9059 10.9096C53.0396 10.9096 54.9619 8.98731 54.9523 6.86639C54.9692 6.32066 54.8765 5.77707 54.6797 5.26777C54.483 4.75846 54.1861 4.29377 53.8066 3.90116C53.4272 3.50856 52.9729 3.19601 52.4706 2.98198C51.9683 2.76795 51.4282 2.6568 50.8822 2.65508C50.3362 2.65337 49.7954 2.76113 49.2918 2.972C48.7881 3.18287 48.3319 3.49257 47.95 3.88278C47.5681 4.273 47.2683 4.73582 47.0684 5.24388C46.8684 5.75194 46.7723 6.29493 46.7858 6.84076ZM26.2911 56.0672V55.939L16.5323 54.3179C16.5867 55.3015 16.638 56.1857 16.6893 57.1372L26.2911 56.0672ZM44.2324 8.41703C44.1619 7.8852 44.1042 7.45589 44.0369 6.94008L38.6994 7.38221V7.49114L44.2324 8.41703Z" fill="#3F3F3F"/>
</svg>
