<svg width="44" height="60" viewBox="0 0 44 60" fill="none" xmlns="http://www.w3.org/2000/svg">
<path d="M41.9798 4.37159H30.9272V1.17187C30.9272 0.524753 30.4024 0 29.7553 0H14.3884C13.7413 0 13.2166 0.524753 13.2166 1.17187V4.37159H2.16394C1.51682 4.37159 0.992065 4.89634 0.992065 5.54346V58.8281C0.992065 59.4752 1.51682 60 2.16394 60H41.9798C42.6269 60 43.1517 59.4752 43.1517 58.8281V5.54346C43.1517 4.89622 42.6269 4.37159 41.9798 4.37159ZM15.5603 2.34375H28.5834V9.09733H15.5603V2.34375ZM40.8079 57.6562H3.33582V6.71534H13.2166V10.2693C13.2166 10.9164 13.7413 11.4412 14.3884 11.4412H29.7553C30.4024 11.4412 30.9272 10.9164 30.9272 10.2693V6.71534H40.8079V57.6562Z" fill="#3F3F3F"/>
<path d="M8.3075 17.4668H26.3841C27.0312 17.4668 27.556 16.942 27.556 16.2949C27.556 15.6478 27.0312 15.123 26.3841 15.123H8.3075C7.66037 15.123 7.13562 15.6478 7.13562 16.2949C7.13562 16.942 7.66037 17.4668 8.3075 17.4668Z" fill="#3F3F3F"/>
<path d="M36.1905 21.1484H8.3075C7.66037 21.1484 7.13562 21.6732 7.13562 22.3203C7.13562 22.9674 7.66037 23.4922 8.3075 23.4922H36.1905C36.8376 23.4922 37.3624 22.9674 37.3624 22.3203C37.3624 21.6732 36.8376 21.1484 36.1905 21.1484Z" fill="#3F3F3F"/>
<path d="M36.1905 27.1743H8.3075C7.66037 27.1743 7.13562 27.6991 7.13562 28.3462C7.13562 28.9933 7.66037 29.5181 8.3075 29.5181H36.1905C36.8376 29.5181 37.3624 28.9933 37.3624 28.3462C37.3624 27.6991 36.8376 27.1743 36.1905 27.1743Z" fill="#3F3F3F"/>
<path d="M36.1905 32.8452H8.3075C7.66037 32.8452 7.13562 33.37 7.13562 34.0171C7.13562 34.6642 7.66037 35.189 8.3075 35.189H36.1905C36.8376 35.189 37.3624 34.6642 37.3624 34.0171C37.3624 33.37 36.8376 32.8452 36.1905 32.8452Z" fill="#3F3F3F"/>
<path d="M32.292 17.4667H36.1909C36.838 17.4667 37.3628 16.9419 37.3628 16.2948C37.3628 15.6477 36.838 15.1229 36.1909 15.1229H32.292C31.6449 15.1229 31.1201 15.6477 31.1201 16.2948C31.1201 16.9419 31.6449 17.4667 32.292 17.4667Z" fill="#3F3F3F"/>
<path d="M24.3451 46.1126C24.3451 45.7998 24.2199 45.4998 23.9975 45.2797L19.5287 40.8566C19.0861 40.4184 18.3777 40.403 17.9166 40.8219C16.369 42.2273 15.4813 44.2255 15.4813 46.3043C15.4813 48.2923 16.2628 50.1605 17.6817 51.5651C17.9101 51.791 18.2081 51.904 18.5061 51.904C18.8041 51.904 19.1022 51.7912 19.3305 51.5651L23.9976 46.9455C24.2201 46.7253 24.3451 46.4255 24.3451 46.1126ZM18.5995 48.9909C18.0951 48.1924 17.8252 47.2687 17.8252 46.3043C17.8252 45.2565 18.1564 44.2379 18.756 43.3893L21.5076 46.1126L18.5995 48.9909Z" fill="#3F3F3F"/>
<path d="M34.2164 41.0439V41.0438L34.2163 41.0436C32.8005 39.6423 30.9192 38.8706 28.9187 38.8706C27.0395 38.8706 25.2413 39.5636 23.8557 40.822C23.6175 41.0382 23.4788 41.3428 23.4718 41.6644C23.4649 41.9859 23.5905 42.2962 23.8192 42.5224L27.4464 46.1127L23.6208 49.8993C23.3984 50.1194 23.2733 50.4194 23.2733 50.7322C23.2733 51.045 23.3984 51.3449 23.6208 51.5651C25.0366 52.9664 26.9181 53.7381 28.9188 53.7381C33.0533 53.7381 36.4171 50.4033 36.4171 46.3044C36.4168 44.3165 35.6354 42.4484 34.2164 41.0439ZM26.4544 41.8332C27.204 41.4296 28.0484 41.2145 28.9185 41.2145C29.8912 41.2145 30.8228 41.4787 31.629 41.9727L29.1122 44.4639L26.4544 41.8332ZM28.9185 51.3944C27.9456 51.3944 27.0142 51.1301 26.2081 50.6361L30.8476 46.0438L33.2986 43.6178C33.8032 44.4164 34.0731 45.34 34.0731 46.3044C34.0731 49.1111 31.7608 51.3944 28.9185 51.3944Z" fill="#3F3F3F"/>
<path d="M22.658 4.21875H18.6736C18.0265 4.21875 17.5017 4.7435 17.5017 5.39062C17.5017 6.03775 18.0265 6.5625 18.6736 6.5625H22.658C23.3051 6.5625 23.8298 6.03775 23.8298 5.39062C23.8298 4.7435 23.3051 4.21875 22.658 4.21875Z" fill="#3F3F3F"/>
</svg>
