<svg width="61" height="60" viewBox="0 0 61 60" fill="none" xmlns="http://www.w3.org/2000/svg">
<path d="M0.110229 35.1594C0.271735 34.7053 0.460939 34.2615 0.676776 33.8306C0.960773 33.2903 1.37733 32.8311 1.88738 32.4959C2.39743 32.1607 2.98426 31.9606 3.59282 31.9143C5.03835 31.8102 5.98814 31.3311 6.37556 29.8064C6.53803 29.1815 6.63801 28.7608 6.19643 28.2484C5.81293 27.7803 5.47272 27.2784 5.17998 26.7487C4.77934 26.0704 4.60052 25.2838 4.66848 24.4989C4.73644 23.714 5.04779 22.9699 5.55907 22.3705C6.34759 21.4841 7.1922 20.6492 8.0877 19.871C8.69394 19.3529 9.44785 19.0387 10.2426 18.9729C11.0374 18.9071 11.8327 19.093 12.5159 19.5044C13.1699 19.896 13.7657 20.3709 14.4155 20.7542C14.5069 20.8082 14.6081 20.8434 14.7133 20.8577C14.8184 20.872 14.9254 20.8651 15.0279 20.8375C15.6692 20.6074 16.2977 20.3432 16.9108 20.046C17.0086 19.9968 17.0957 19.9287 17.1672 19.8458C17.2387 19.7629 17.2931 19.6667 17.3274 19.5628C17.4774 18.9379 17.5482 18.2922 17.6857 17.6632C17.7497 17.2693 17.9677 16.917 18.2915 16.6838C18.6153 16.4506 19.0185 16.3556 19.4124 16.4197C19.8062 16.4838 20.1585 16.7017 20.3917 17.0255C20.6249 17.3493 20.7199 17.7525 20.6559 18.1464C20.5059 19.2295 20.3059 20.3043 20.106 21.379C20.05 21.6706 19.9151 21.9413 19.7161 22.1616C19.5171 22.3819 19.2615 22.5435 18.977 22.6288C17.7815 23.1037 16.5942 23.5911 15.4195 24.1035C15.1419 24.249 14.829 24.3132 14.5165 24.2889C14.2041 24.2646 13.9049 24.1527 13.6532 23.966C12.8742 23.4161 12.091 22.8621 11.3037 22.3205C10.6705 21.9039 10.2914 21.9039 9.74984 22.4496C9.20829 22.9954 8.6959 23.4953 8.17518 24.0243C7.65446 24.5534 7.59197 24.9408 8.02938 25.574C8.5501 26.328 9.07082 27.0862 9.61654 27.8235C9.83717 28.1096 9.96766 28.455 9.99139 28.8155C10.0151 29.176 9.93105 29.5355 9.74984 29.8481C9.25702 30.8762 8.82036 31.9303 8.44179 33.0057C8.34459 33.3867 8.13257 33.7285 7.83449 33.9849C7.53641 34.2412 7.16668 34.3997 6.77548 34.4388C5.86734 34.5762 4.96753 34.7387 4.06772 34.9137C3.93419 34.9197 3.80342 34.9538 3.68391 35.0137C3.56439 35.0736 3.45879 35.1579 3.37395 35.2612C3.28911 35.3645 3.22693 35.4844 3.19144 35.6133C3.15594 35.7422 3.14793 35.8771 3.16791 36.0093C3.16791 36.8091 3.16791 37.6089 3.16791 38.4087C3.15354 38.5415 3.16657 38.6757 3.20621 38.8032C3.24584 38.9306 3.31123 39.0486 3.39833 39.1497C3.48542 39.2509 3.59237 39.3331 3.71253 39.3912C3.83269 39.4494 3.96351 39.4822 4.09688 39.4877C4.99669 39.6543 5.90066 39.8251 6.80464 39.9584C7.17478 39.9952 7.52519 40.1429 7.8099 40.3823C8.09462 40.6216 8.30035 40.9415 8.40013 41.2998C8.81671 42.4121 9.26245 43.5077 9.76234 44.5866C9.93563 44.8922 10.015 45.2421 9.99056 45.5925C9.96611 45.943 9.83891 46.2785 9.62487 46.557C9.06943 47.318 8.53066 48.0859 8.00855 48.8607C7.59197 49.4481 7.62946 49.823 8.10853 50.3187C8.66396 50.8964 9.23051 51.4629 9.80816 52.0184C9.88843 52.1254 9.99041 52.2143 10.1074 52.2793C10.2245 52.3442 10.3539 52.3836 10.4872 52.395C10.6205 52.4064 10.7548 52.3895 10.8811 52.3454C11.0075 52.3013 11.1231 52.2311 11.2204 52.1392C11.9952 51.6143 12.7659 51.0769 13.5199 50.5228C13.8012 50.3022 14.1414 50.1694 14.4979 50.1412C14.8543 50.1131 15.2111 50.1908 15.5236 50.3645C16.5984 50.8686 17.6982 51.3268 18.8104 51.7267C19.1701 51.8248 19.4914 52.0299 19.7318 52.3149C19.9721 52.5998 20.12 52.9512 20.156 53.3222C20.2851 54.2096 20.4559 55.0927 20.6184 55.9758C20.7475 56.6882 21.0349 56.9465 21.7681 56.9548C22.5013 56.9631 23.3303 56.9548 24.1093 56.9548C24.2415 56.9742 24.3763 56.9656 24.5049 56.9295C24.6336 56.8935 24.7532 56.8308 24.8561 56.7456C24.959 56.6604 25.0428 56.5545 25.1022 56.4348C25.1616 56.3151 25.1951 56.1843 25.2007 56.0508C25.3715 55.1885 25.5423 54.3262 25.6631 53.4597C25.6947 53.0303 25.8642 52.6226 26.1465 52.2975C26.4288 51.9724 26.8087 51.7474 27.2295 51.6559C28.2363 51.3449 29.2125 50.9419 30.1455 50.452C30.4997 50.2255 30.9173 50.119 31.3367 50.1483C31.7561 50.1775 32.1549 50.341 32.4742 50.6145C33.1532 51.1394 33.8697 51.6143 34.5571 52.1017C35.1986 52.5391 35.5444 52.5182 36.1067 51.9517C36.6691 51.3852 37.1898 50.8811 37.7189 50.3354C37.8298 50.2523 37.9219 50.1467 37.9891 50.0255C38.0563 49.9044 38.0972 49.7704 38.109 49.6323C38.1208 49.4942 38.1033 49.3552 38.0576 49.2244C38.0119 49.0936 37.9391 48.9739 37.8439 48.8732C37.3162 48.0984 36.7774 47.3319 36.2275 46.5737C36.0065 46.2876 35.8761 45.9419 35.8531 45.5812C35.8301 45.2204 35.9155 44.861 36.0984 44.5491C36.6027 43.4956 37.0518 42.4166 37.4439 41.3165C37.5376 40.9575 37.7385 40.6355 38.0199 40.3937C38.3012 40.1518 38.6496 40.0014 39.0186 39.9626C39.8309 39.8418 40.6349 39.6751 41.4389 39.546C41.6701 39.5032 41.9039 39.4768 42.1388 39.4669C42.5124 39.4486 42.8794 39.5707 43.1677 39.8092C43.4559 40.0476 43.6447 40.3852 43.6968 40.7556C43.749 41.126 43.6609 41.5026 43.4497 41.8114C43.2385 42.1202 42.9195 42.3389 42.5554 42.4246C41.9097 42.5829 41.2431 42.6412 40.6016 42.8036C40.3668 42.8892 40.1693 43.0543 40.0434 43.2702C39.8559 43.5826 39.8143 43.9909 39.6268 44.2867C39.0728 45.0948 39.2519 45.7405 39.8518 46.4487C40.5558 47.2819 41.1307 48.215 41.1557 49.3647C41.1834 49.8734 41.1096 50.3825 40.9387 50.8624C40.7677 51.3423 40.5031 51.7834 40.16 52.16C39.4394 52.9265 38.7103 53.693 37.9188 54.3887C37.2811 54.9915 36.4558 55.3573 35.5808 55.4247C34.7058 55.4922 33.8342 55.2574 33.1115 54.7594C32.5492 54.4095 32.0284 53.9846 31.4452 53.6472C31.2211 53.5385 30.9655 53.5134 30.7245 53.5764C30.3705 53.668 30.058 53.9388 29.7039 53.9929C28.7333 54.1679 28.4542 54.7761 28.3167 55.6842C28.1941 56.553 27.9339 57.3967 27.5461 58.1837C27.0337 59.221 25.9964 59.6626 24.9383 60H20.8516C20.7723 59.9509 20.6886 59.9091 20.6017 59.875C19.8574 59.6947 19.1823 59.3004 18.6596 58.7407C18.137 58.181 17.7897 57.4805 17.6607 56.7257C17.5315 56.1133 17.469 55.4759 17.3107 54.8886C17.2379 54.646 17.0736 54.4414 16.8525 54.3179C16.2984 54.0388 15.7027 53.8471 15.1404 53.5805C15.0183 53.5058 14.8754 53.4723 14.7329 53.4851C14.5904 53.4978 14.4557 53.5561 14.3489 53.6513C13.7433 54.1113 13.1133 54.5382 12.4618 54.9302C11.774 55.3317 10.9777 55.5075 10.1848 55.4328C9.39196 55.358 8.64249 55.0366 8.04187 54.5137C7.16731 53.7313 6.34097 52.8966 5.5674 52.0142C5.19318 51.586 4.92321 51.0769 4.77866 50.5269C4.63411 49.9769 4.61891 49.4009 4.73425 48.844C4.90504 47.7943 5.52158 46.9778 6.15478 46.1946C6.62967 45.6114 6.52136 45.1573 6.3339 44.4783C5.94232 43.0744 5.10917 42.5954 3.73446 42.4912C3.10552 42.4542 2.49626 42.2582 1.96368 41.9216C1.43111 41.585 0.992626 41.1188 0.689273 40.5666C0.469834 40.1442 0.276458 39.7088 0.110229 39.2627L0.110229 35.1594Z" fill="#21B95C"/>
<path d="M32.1867 3.61617C33.1782 3.57034 33.9863 4.15772 34.8028 4.73676C35.0153 4.8909 35.3069 5.15334 35.4902 5.08252C36.0369 4.94632 36.5537 4.71049 37.0149 4.38684C37.2273 4.22021 37.2023 3.73697 37.2565 3.39122C37.6272 1.06671 38.8728 0.000270317 41.2431 0.000270317C41.768 0.000270317 42.2971 0.000270317 42.8261 0.000270317C43.6571 -0.01011 44.464 0.278772 45.0996 0.814152C45.7352 1.34953 46.157 2.09568 46.2879 2.91632C46.3444 3.16337 46.3848 3.41385 46.4087 3.66616C46.4379 4.2577 46.7461 4.5368 47.2835 4.79508C47.5716 4.95713 47.9038 5.02309 48.232 4.98338C48.5601 4.94368 48.867 4.80037 49.1081 4.5743C51.0994 3.11627 52.6574 3.27874 54.407 5.02837C54.7528 5.37413 55.1027 5.71572 55.4401 6.06565C56.0484 6.64502 56.4259 7.42539 56.5025 8.26195C56.5791 9.09851 56.3496 9.93446 55.8567 10.6147C55.7979 10.7178 55.728 10.8141 55.6484 10.9021C54.9735 11.5436 54.9652 12.2185 55.411 13.0183C55.474 13.1952 55.5856 13.3508 55.7329 13.4672C55.8803 13.5836 56.0574 13.6561 56.2441 13.6765C56.6908 13.7252 57.1326 13.8116 57.5647 13.9348C58.2692 14.1164 58.8963 14.5206 59.3527 15.0873C59.809 15.654 60.0702 16.3529 60.0975 17.08C60.1308 17.8798 60.1308 18.6796 60.0975 19.4795C60.0773 20.2279 59.8121 20.9491 59.3425 21.5323C58.8729 22.1155 58.225 22.5285 57.498 22.7079C57.1236 22.8187 56.7379 22.8871 56.3483 22.9121C55.7775 22.9121 55.6026 23.2703 55.3568 23.7077C54.9402 24.4492 55.0944 24.9866 55.5734 25.6365C56.9898 27.5694 56.8232 29.1482 55.1318 30.8437C54.6903 31.2853 54.257 31.7435 53.7905 32.1518C53.2625 32.6252 52.5988 32.9202 51.8936 32.995C51.1885 33.0698 50.4776 32.9205 49.8621 32.5683C49.5821 32.4296 49.3216 32.2545 49.0873 32.0476C48.5166 31.4894 47.9667 31.5227 47.2585 31.8393C47.0226 31.9302 46.8165 32.0845 46.6628 32.2852C46.5092 32.4859 46.414 32.7252 46.3879 32.9766C46.2588 33.7187 46.0201 34.4375 45.6797 35.1095C45.4181 35.5618 45.0412 35.9366 44.5875 36.1956C44.1337 36.4547 43.6194 36.5888 43.0969 36.5841C42.2638 36.6175 41.4306 36.6216 40.5974 36.5841C39.8499 36.5617 39.131 36.2913 38.5541 35.8154C37.9771 35.3395 37.5748 34.6852 37.4106 33.9555C37.3355 33.6916 37.2867 33.4209 37.2648 33.1474C37.2315 32.4267 36.8482 32.0809 36.2109 31.756C35.4235 31.3686 34.982 31.756 34.4404 32.1226C32.5325 33.4432 30.937 33.3015 29.2998 31.6602C28.8541 31.202 28.35 30.7437 27.921 30.2397C27.4657 29.7097 27.1866 29.0513 27.1224 28.3556C27.0582 27.6599 27.2121 26.9615 27.5627 26.3572C27.6755 26.1301 27.8154 25.9174 27.9793 25.724C28.271 25.4692 28.4583 25.1156 28.5053 24.7312C28.5522 24.3467 28.4553 23.9585 28.2334 23.6411C28.1619 23.4443 28.0365 23.2716 27.8715 23.1427C27.7064 23.0138 27.5085 22.9338 27.3003 22.9121C26.2505 22.7871 25.2174 22.5621 24.455 21.7123C23.9115 21.1499 23.5891 20.4104 23.5469 19.6294C23.5177 18.7963 23.5052 17.9881 23.5469 17.1716C23.5494 16.3814 23.8267 15.6166 24.3314 15.0085C24.8361 14.4005 25.5367 13.987 26.313 13.839C26.5583 13.7731 26.8094 13.7313 27.0628 13.714C27.7252 13.714 28.0251 13.3599 28.3376 12.7726C28.7541 11.9686 28.4209 11.4853 28.0001 10.8938C26.6837 9.04834 26.8295 7.41119 28.4167 5.8157C28.8708 5.36163 29.3207 4.89506 29.7997 4.46599C30.1209 4.17247 30.4976 3.9461 30.9075 3.80016C31.3174 3.65423 31.7523 3.59167 32.1867 3.61617ZM32.0743 29.9939C32.2659 29.8897 32.4242 29.8148 32.5658 29.7189C33.1115 29.3399 33.6573 28.9649 34.1946 28.5734C34.4619 28.3582 34.7868 28.2269 35.1284 28.1958C35.4701 28.1646 35.8133 28.2351 36.1151 28.3984C36.9482 28.79 37.8091 29.1468 38.6978 29.469C39.0337 29.5748 39.3311 29.7769 39.5533 30.0501C39.7754 30.3234 39.9125 30.6558 39.9476 31.0062C40.0434 31.6602 40.1892 32.3059 40.285 32.9641C40.2833 33.052 40.3009 33.1391 40.3365 33.2195C40.3722 33.2998 40.4251 33.3713 40.4915 33.4289C40.5578 33.4866 40.6361 33.5289 40.7206 33.5529C40.8051 33.577 40.8939 33.5822 40.9807 33.5681C41.5264 33.5681 42.0721 33.5473 42.6178 33.5681C42.7049 33.5819 42.7938 33.5768 42.8787 33.553C42.9635 33.5293 43.0423 33.4875 43.1095 33.4306C43.1767 33.3736 43.2309 33.3028 43.2682 33.2231C43.3056 33.1433 43.3253 33.0564 43.326 32.9683C43.4385 32.2976 43.5801 31.6269 43.676 30.952C43.7103 30.6113 43.845 30.2885 44.063 30.0245C44.2811 29.7604 44.5726 29.5671 44.9007 29.469C45.7755 29.1357 46.642 28.7858 47.4876 28.3942C47.7888 28.2299 48.1319 28.1583 48.4737 28.1887C48.8155 28.2191 49.1406 28.3501 49.4081 28.565C49.9579 28.9816 50.537 29.3399 51.0744 29.7439C51.1406 29.809 51.2203 29.8589 51.3078 29.8899C51.3953 29.921 51.4885 29.9326 51.581 29.9239C51.6735 29.9151 51.7629 29.8863 51.843 29.8394C51.9232 29.7925 51.9921 29.7286 52.045 29.6523C52.3866 29.2774 52.7449 28.9191 53.1198 28.5775C53.2009 28.5225 53.2686 28.4498 53.3177 28.365C53.3667 28.2801 53.396 28.1852 53.4032 28.0874C53.4104 27.9897 53.3954 27.8915 53.3593 27.8004C53.3232 27.7092 53.267 27.6274 53.1948 27.5611C52.8073 27.0487 52.4699 26.4988 52.0783 25.9822C51.8476 25.7032 51.7067 25.361 51.674 25.0004C51.6413 24.6398 51.7183 24.2778 51.895 23.9618C52.2866 23.1287 52.6324 22.2955 52.9448 21.429C53.0485 21.0927 53.2493 20.7945 53.5221 20.5721C53.7949 20.3497 54.1275 20.213 54.4778 20.1793C55.1318 20.0835 55.7817 19.9335 56.4357 19.846C56.5288 19.8467 56.6207 19.8265 56.705 19.7871C56.7892 19.7477 56.8636 19.6899 56.9227 19.618C56.9818 19.5462 57.0241 19.4621 57.0465 19.3718C57.0689 19.2815 57.0709 19.1873 57.0523 19.0962C57.0523 18.5921 57.0231 18.0798 57.0523 17.5757C57.0709 17.4794 57.0678 17.3802 57.0432 17.2853C57.0185 17.1904 56.973 17.1022 56.91 17.0271C56.8469 16.9521 56.7678 16.8921 56.6786 16.8515C56.5893 16.8109 56.4921 16.7907 56.3941 16.7925C55.7192 16.6926 55.0527 16.5467 54.3778 16.4468C54.0475 16.4054 53.7365 16.2681 53.4833 16.0519C53.2301 15.8358 53.0458 15.5501 52.9531 15.2304C52.624 14.3555 52.2741 13.4891 51.8784 12.6434C51.7128 12.3433 51.6395 12.0009 51.6677 11.6593C51.6958 11.3177 51.8242 10.992 52.0367 10.723C52.4532 10.1689 52.8115 9.59406 53.2198 9.05668C53.2862 8.99153 53.3372 8.91238 53.3691 8.825C53.401 8.73762 53.413 8.64422 53.4043 8.5516C53.3955 8.45899 53.3661 8.36951 53.3183 8.28969C53.2706 8.20986 53.2056 8.14172 53.1281 8.09021C52.7407 7.73196 52.3699 7.35704 52.0117 6.97379C51.9609 6.90185 51.8951 6.84187 51.8188 6.79805C51.7425 6.75422 51.6575 6.72761 51.5698 6.72007C51.4821 6.71253 51.3938 6.72425 51.3111 6.7544C51.2284 6.78455 51.1533 6.83242 51.091 6.89464C50.5078 7.31121 49.908 7.72779 49.3164 8.14437C49.0647 8.33105 48.7655 8.44298 48.4531 8.46729C48.1406 8.49161 47.8277 8.42733 47.5501 8.28184C46.6462 7.86526 45.7255 7.49867 44.8007 7.14458C44.5033 7.04514 44.2399 6.86377 44.0409 6.62132C43.8419 6.37887 43.7154 6.08519 43.676 5.77404C43.5676 5.10335 43.4343 4.43266 43.3302 3.7578C43.2635 3.30373 43.0719 3.04962 42.5679 3.07878C42.0638 3.10794 41.5139 3.07878 40.989 3.07878C40.9021 3.06357 40.813 3.06758 40.7278 3.09051C40.6427 3.11344 40.5635 3.15475 40.496 3.21153C40.4286 3.2683 40.3743 3.33917 40.3371 3.41915C40.2999 3.49913 40.2807 3.58629 40.2808 3.67449C40.185 4.34934 40.0392 5.02003 39.9351 5.69489C39.8952 6.03741 39.7554 6.36063 39.5332 6.62433C39.311 6.88802 39.0161 7.08053 38.6853 7.17791C37.7939 7.51117 36.9066 7.87359 36.0442 8.26934C35.7615 8.41013 35.4445 8.46765 35.1303 8.4352C34.8161 8.40275 34.5176 8.28166 34.2696 8.08605C33.6947 7.66947 33.1074 7.29038 32.5492 6.86964C32.4833 6.80387 32.4037 6.75344 32.3161 6.72194C32.2285 6.69044 32.135 6.67865 32.0423 6.6874C31.9496 6.69615 31.86 6.72523 31.7798 6.77257C31.6997 6.81991 31.6309 6.88435 31.5785 6.96129C31.2203 7.34871 30.8453 7.71946 30.4621 8.08188C30.3909 8.13358 30.3317 8.19989 30.2883 8.27639C30.2449 8.35288 30.2183 8.43777 30.2104 8.52536C30.2025 8.61296 30.2135 8.70123 30.2425 8.78425C30.2715 8.86726 30.318 8.94311 30.3788 9.00669C30.7954 9.5899 31.2119 10.1856 31.6285 10.7813C31.8159 11.0326 31.9285 11.3316 31.9536 11.6441C31.9786 11.9565 31.9151 12.2697 31.7702 12.5476C31.3536 13.4307 30.9953 14.3306 30.6496 15.2387C30.5541 15.5473 30.3724 15.8223 30.1259 16.0312C29.8794 16.24 29.5783 16.3741 29.2582 16.4176C28.5667 16.5301 27.8751 16.6634 27.1753 16.7759C26.7587 16.8425 26.5504 17.0258 26.5671 17.4757C26.5671 18.0214 26.5671 18.5672 26.5671 19.1129C26.5512 19.1995 26.5546 19.2886 26.577 19.3738C26.5994 19.4589 26.6402 19.5381 26.6967 19.6057C26.7532 19.6733 26.8238 19.7277 26.9037 19.7649C26.9835 19.8021 27.0706 19.8213 27.1586 19.8211C27.8335 19.9169 28.5 20.0627 29.1749 20.1668C29.5178 20.207 29.8414 20.3468 30.1057 20.5689C30.37 20.791 30.5634 21.0857 30.6621 21.4165C30.9953 22.308 31.3619 23.1912 31.7577 24.0576C31.908 24.3438 31.973 24.667 31.945 24.989C31.9169 25.311 31.7969 25.6182 31.5994 25.8739C31.1828 26.4488 30.8037 27.032 30.3871 27.5944C30.3222 27.6609 30.2727 27.7408 30.2419 27.8285C30.2112 27.9162 30.2 28.0095 30.2091 28.102C30.2183 28.1945 30.2475 28.2838 30.2948 28.3638C30.3421 28.4438 30.4063 28.5125 30.4829 28.565C30.8703 28.9233 31.2244 29.3149 31.6077 29.6773C31.7546 29.795 31.9106 29.9008 32.0743 29.9939Z" fill="#21B95C"/>
<path d="M22.8888 47.3985C20.1852 47.4106 17.5876 46.3483 15.6673 44.4452C13.7471 42.5421 12.6614 39.9542 12.6493 37.2506C12.6371 34.5471 13.6994 31.9495 15.6025 30.0292C17.5056 28.1089 20.0936 27.0233 22.7971 27.0111C23.2008 26.9901 23.5968 27.1264 23.9021 27.3913C24.2074 27.6562 24.3982 28.0291 24.4343 28.4317C24.4478 28.6318 24.4209 28.8327 24.3552 29.0222C24.2895 29.2118 24.1864 29.3862 24.0519 29.535C23.9174 29.6839 23.7543 29.8042 23.5724 29.8887C23.3905 29.9733 23.1934 30.0204 22.9929 30.0272C21.2606 30.0507 19.5899 30.6734 18.2647 31.7893C17.3766 32.5544 16.6909 33.5266 16.2683 34.62C15.8457 35.7134 15.6993 36.8942 15.8421 38.0577C15.9848 39.2212 16.4123 40.3315 17.0867 41.2903C17.7611 42.2491 18.6616 43.0267 19.7083 43.5544C20.7551 44.082 21.9158 44.3433 23.0877 44.3152C24.2596 44.2871 25.4064 43.9703 26.4267 43.3931C27.4469 42.8158 28.309 41.9959 28.9366 41.0058C29.5642 40.0158 29.938 38.8862 30.0247 37.7172C30.0664 37.1507 30.0664 36.5758 30.508 36.1342C30.7138 35.923 30.9772 35.7772 31.2655 35.715C31.5537 35.6527 31.8539 35.6768 32.1285 35.7843C32.4213 35.9002 32.6719 36.1027 32.8468 36.3647C33.0217 36.6266 33.1126 36.9357 33.1074 37.2506C33.1907 42.0829 29.3207 46.582 24.5176 47.2485C23.976 47.311 23.4386 47.3485 22.8888 47.3985Z" fill="#21B95C"/>
<path d="M41.793 25.5698C40.3539 25.5657 38.9484 25.1348 37.7543 24.3316C36.5602 23.5284 35.6312 22.389 35.0849 21.0576C34.5386 19.7263 34.3995 18.2628 34.6852 16.8524C34.9709 15.4419 35.6686 14.148 36.69 13.1342C37.7113 12.1204 39.0105 11.4324 40.423 11.1572C41.8355 10.882 43.2979 11.032 44.6252 11.5882C45.9524 12.1445 47.0848 13.0819 47.8791 14.2819C48.6734 15.482 49.0938 16.8906 49.0872 18.3297C49.0851 19.2844 48.8945 20.2294 48.5265 21.1103C48.1585 21.9913 47.6202 22.791 46.9426 23.4635C46.265 24.1361 45.4614 24.6684 44.5777 25.0298C43.694 25.3913 42.7477 25.5748 41.793 25.5698ZM41.8304 22.5205C42.6671 22.5196 43.4847 22.2703 44.1795 21.8042C44.8743 21.338 45.415 20.6761 45.7331 19.9022C46.0512 19.1283 46.1323 18.2774 45.9661 17.4574C45.7999 16.6374 45.394 15.8852 44.7997 15.2962C44.2055 14.7072 43.4497 14.308 42.6282 14.1491C41.8067 13.9903 40.9566 14.0789 40.1856 14.4039C39.4146 14.7288 38.7575 15.2754 38.2975 15.9743C37.8376 16.6733 37.5956 17.493 37.6022 18.3297C37.6153 19.4436 38.0662 20.5076 38.8574 21.2917C39.6485 22.0759 40.7165 22.5173 41.8304 22.5205Z" fill="#21B95C"/>
</svg>
