<svg width="74" height="60" viewBox="0 0 74 60" fill="none" xmlns="http://www.w3.org/2000/svg">
<path d="M73.4281 19.9854C73.0236 20.2959 72.5906 20.5673 72.1348 20.7958C68.8432 22.068 65.5431 23.3249 62.2342 24.5664C62.0298 24.612 61.8503 24.7335 61.7319 24.9063C61.6135 25.0791 61.565 25.2904 61.5962 25.4975C61.6135 30.7797 61.5962 36.0591 61.6192 41.3413C61.6192 42.1862 61.3836 42.7955 60.6536 43.264C59.2856 44.1261 57.9665 45.086 56.6071 45.9712C56.4406 46.0539 56.3022 46.1839 56.2091 46.3449C56.1161 46.506 56.0726 46.6908 56.0841 46.8764C56.1148 48.3326 56.1148 49.7906 56.0841 51.2505C56.0611 51.4357 56.107 51.6229 56.213 51.7766C56.3189 51.9302 56.4776 52.0396 56.6589 52.0839C57.5375 52.4541 58.2597 53.1188 58.7014 53.9637C59.143 54.8087 59.2764 55.7811 59.0787 56.7138C58.8835 57.6415 58.3756 58.4741 57.6401 59.0723C56.9045 59.6705 55.9859 59.998 55.0378 60C54.0897 60.002 53.1697 59.6784 52.4316 59.0834C51.6935 58.4884 51.1821 57.658 50.9829 56.731C50.778 55.8004 50.9051 54.8274 51.3424 53.9807C51.7796 53.134 52.4994 52.4671 53.3769 52.0954C53.5671 52.0433 53.7312 51.9225 53.8374 51.7563C53.9436 51.5901 53.9843 51.3904 53.9517 51.1959C53.9201 49.986 53.9517 48.7761 53.9517 47.4886C52.9228 47.9197 51.9917 48.3278 51.0433 48.7042C45.3407 50.9881 39.1705 51.8596 33.0584 51.2448C25.5437 50.5478 18.395 47.6756 12.4871 42.9794C12.1238 42.6522 11.9048 42.1945 11.8778 41.7063C11.8232 38.887 11.8433 36.0677 11.8548 33.2484C11.8548 32.3862 12.2572 31.9092 12.9095 31.8891C13.5619 31.8689 14.0361 32.369 14.039 33.2513C14.0534 35.7832 14.0562 38.318 14.039 40.8499C14.0261 41.0476 14.0668 41.2452 14.1568 41.4217C14.2469 41.5983 14.3829 41.7472 14.5505 41.8529C19.2858 45.418 24.8135 47.7845 30.6616 48.7502C38.6625 50.0751 46.3042 48.8594 53.5493 45.2038C53.654 45.1441 53.7436 45.0613 53.8113 44.9617C53.8791 44.8621 53.9231 44.7483 53.9402 44.6291C53.9402 39.0594 53.9402 33.4927 53.9402 27.9231C53.9269 27.877 53.9106 27.8319 53.8913 27.788C53.0033 28.1214 52.1124 28.449 51.2272 28.7881C46.7008 30.5125 42.1744 32.2368 37.6567 33.9611C37.3725 34.0793 37.0678 34.14 36.76 34.14C36.4523 34.14 36.1475 34.0793 35.8634 33.9611C28.8683 31.2788 21.8694 28.608 14.8667 25.9487C14.6281 25.8568 14.3867 25.7705 14.0534 25.6613C14.0534 26.6442 14.0735 27.5236 14.0534 28.403C14.0332 29.1704 13.651 29.6129 13.0389 29.6589C12.4267 29.7049 11.9094 29.2623 11.8893 28.4892C11.852 27.4891 11.8462 26.4775 11.8893 25.4803C11.9094 24.9601 11.7198 24.7359 11.2398 24.5578C7.83424 23.3105 4.49477 22.023 1.14956 20.747C0.137947 20.359 0 20.1722 0 19.1203C0 17.7581 0 16.3959 0 15.0337C0 13.9933 0.158064 13.772 1.14956 13.3955L30.4978 2.20171C32.3256 1.50335 34.1448 0.779128 35.9898 0.126753C36.4315 -0.0306661 36.9122 -0.0417501 37.3607 0.0951405C40.0046 1.0579 42.6285 2.081 45.2581 3.08399C45.7524 3.27367 46.1577 3.54094 46.1921 4.13584C46.2069 4.29126 46.1861 4.448 46.1314 4.59419C46.0766 4.74039 45.9893 4.8722 45.876 4.97965C45.7627 5.08709 45.6265 5.16736 45.4776 5.21435C45.3288 5.26135 45.1711 5.27385 45.0167 5.25091C44.7343 5.20843 44.4582 5.13121 44.1948 5.021C41.8756 4.13871 39.5621 3.23918 37.2371 2.37701C36.909 2.26641 36.5536 2.26641 36.2255 2.37701C25.7626 6.34874 15.3054 10.3272 4.85401 14.3123C4.6787 14.3784 4.51202 14.4646 4.25049 14.5997C4.53788 14.7233 4.74193 14.8181 4.94885 14.8871C15.337 18.8435 25.7281 22.7961 36.122 26.7448C36.5105 26.8771 36.9319 26.8771 37.3204 26.7448C42.0365 24.9745 46.7382 23.1754 51.4428 21.3821C51.6411 21.3074 51.8279 21.2097 52.1181 21.0775L49.454 19.8589C45.239 17.943 41.0239 16.0319 36.8089 14.1255C36.5431 14.0199 36.2905 13.8839 36.0559 13.7203C35.8709 13.5697 35.7419 13.3614 35.6896 13.1287C35.6373 12.896 35.6648 12.6524 35.7676 12.4372C35.8704 12.222 36.0425 12.0476 36.2564 11.942C36.4703 11.8364 36.7135 11.8058 36.9468 11.8551C37.2227 11.9322 37.4902 12.0361 37.7458 12.1655C43.3326 14.6926 48.9214 17.2178 54.5121 19.7411C54.7767 19.8805 55.0816 19.9231 55.3742 19.8618C59.9524 18.1375 64.5219 16.4131 69.2408 14.6026C68.8988 14.4531 68.6833 14.3468 68.4591 14.2606L49.2528 6.94364L48.9856 6.84018C48.2039 6.51543 47.882 5.97801 48.1062 5.36587C48.3303 4.75373 48.9683 4.5037 49.7845 4.81121C55.2047 6.87466 60.622 8.941 66.0364 11.0102C68.1315 11.8091 70.2352 12.588 72.3159 13.4214C72.7297 13.5881 73.0602 13.9674 73.4281 14.2491V19.9854ZM35.6162 31.5471C35.6162 30.8372 35.576 30.2624 35.6162 29.6992C35.6564 29.1359 35.4495 28.837 34.8862 28.6157C24.2356 24.5731 13.5849 20.5171 2.93425 16.4476C2.71871 16.3643 2.49454 16.3039 2.17267 16.2005C2.20469 16.792 2.20469 17.3849 2.17267 17.9765C2.10657 18.6059 2.33935 18.8847 2.93137 19.1088C11.852 22.4866 20.7677 25.8797 29.6787 29.2882C31.6129 30.0268 33.5355 30.751 35.6162 31.5471ZM59.4121 25.6613C58.4349 26.0321 57.5843 26.397 56.7049 26.6758C56.1962 26.8368 56.0841 27.1098 56.087 27.607C56.1042 32.7369 56.087 37.8668 56.087 42.9996V43.7928C57.0497 43.1318 57.8515 42.5455 58.6879 42.0167C58.9324 41.8809 59.132 41.6767 59.2622 41.4291C59.3924 41.1815 59.4475 40.9013 59.4207 40.6228C59.3862 36.6626 59.4035 32.6995 59.4035 28.7393L59.4121 25.6613ZM53.9229 22.8765C53.8276 22.8633 53.7309 22.8633 53.6355 22.8765C48.4855 24.8346 43.3384 26.7965 38.1941 28.7623C38.0446 28.8197 37.8377 28.9979 37.832 29.1244C37.7975 29.8946 37.8147 30.6677 37.8147 31.4063C37.9556 31.4407 37.9843 31.4551 38.0015 31.4494C43.1975 29.4817 48.3907 27.5092 53.5809 25.532C53.66 25.4957 53.7298 25.4419 53.7851 25.3747C53.8403 25.3075 53.8796 25.2286 53.8999 25.144C53.9402 24.3939 53.9229 23.6381 53.9229 22.8765ZM56.0956 24.4859C56.1815 24.4963 56.2683 24.4963 56.3542 24.4859C61.2111 22.6409 66.0671 20.791 70.922 18.9364C71.0011 18.9001 71.0709 18.8463 71.1262 18.7791C71.1814 18.7119 71.2207 18.633 71.241 18.5484C71.2726 17.7983 71.2554 17.0454 71.2554 16.3068C71.1146 16.3068 71.0629 16.2666 71.0226 16.2838C66.1657 18.1269 61.3117 19.9777 56.4606 21.8362C56.3672 21.889 56.2873 21.9626 56.227 22.0514C56.1667 22.1401 56.1276 22.2415 56.1128 22.3477C56.0726 23.0432 56.0956 23.7588 56.0956 24.4859ZM56.9578 55.8947C56.9711 55.6335 56.9317 55.3722 56.8419 55.1265C56.7521 54.8808 56.6138 54.6557 56.4352 54.4646C56.2565 54.2735 56.0412 54.1204 55.8021 54.0143C55.563 53.9082 55.305 53.8513 55.0434 53.8471C54.7819 53.8428 54.5221 53.8913 54.2797 53.9896C54.0373 54.0879 53.8171 54.2339 53.6324 54.4191C53.4476 54.6043 53.3021 54.8248 53.2043 55.0675C53.1066 55.3101 53.0588 55.57 53.0636 55.8315C53.0503 56.0928 53.0897 56.354 53.1795 56.5997C53.2693 56.8454 53.4076 57.0705 53.5862 57.2616C53.7649 57.4527 53.9802 57.6059 54.2193 57.7119C54.4584 57.8181 54.7164 57.8749 54.978 57.8792C55.2395 57.8834 55.4993 57.8349 55.7417 57.7367C55.9841 57.6384 56.2043 57.4923 56.389 57.3071C56.5738 57.1219 56.7193 56.9014 56.8171 56.6588C56.9148 56.4161 56.9626 56.1563 56.9578 55.8947Z" fill="#21B95C"/>
</svg>
