<svg width="965" height="628" viewBox="0 0 965 628" fill="none" xmlns="http://www.w3.org/2000/svg">
<path d="M734.543 455.54C734.543 455.54 688.738 449.031 691.623 402.514C691.623 402.514 668.377 380.846 672.413 371.933C676.449 363.02 699.043 363.124 699.043 363.124C699.043 363.124 693.181 356.591 704.838 351.088C716.494 345.584 716.192 402.514 754.305 411.55C780.1 417.73 764.854 458.09 734.543 455.54Z" fill="#FFE0C2"/>
<path d="M916.852 586.597L913.841 618.595L927.01 627.569H885.99L873.196 579.075" fill="#FFE0C2"/>
<path d="M759.875 586.597L762.886 618.595L749.716 627.569H790.736L803.542 579.075" fill="#FFE0C2"/>
<path d="M739.429 541.055C739.429 541.055 745.604 602.402 786.295 599.391C826.986 596.38 840.273 610.686 876.629 610.686C912.985 610.686 957.836 605.038 940.379 541.055C922.921 477.071 823.507 497.446 823.507 497.446" fill="#75B1C9"/>
<path d="M757.097 411.623L739.159 482.016C739.159 482.016 735.352 502.707 739.159 544.113C739.159 544.113 828.802 517.013 940.062 544.113C940.062 544.113 949.939 431.963 910.654 383.773C871.368 335.583 757.097 411.623 757.097 411.623Z" fill="#75B1C9"/>
<path d="M757.449 411.435C753.934 412.607 741.046 475.876 741.046 475.876C921.597 457.88 895.797 404.886 895.797 404.886C895.797 404.886 760.964 410.264 757.449 411.435Z" fill="#FFD3AE"/>
<path d="M961.269 455.267C961.269 455.267 968.475 500.961 923.167 511.846C923.167 511.846 909.271 540.422 899.558 539.18C889.845 537.938 883.319 516.321 883.319 516.321C883.319 516.321 878.761 523.796 870.126 514.248C861.491 504.699 921.855 464.628 925.78 431.74C929.705 398.852 956.196 419.988 961.269 455.267Z" fill="#FFE0C2"/>
<path d="M744.161 331.579C754.133 327.449 758.868 316.017 754.738 306.045C750.608 296.073 739.175 291.338 729.204 295.468C719.232 299.599 714.497 311.031 718.627 321.003C722.757 330.974 734.19 335.71 744.161 331.579Z" fill="#FFE0C2"/>
<path d="M755.788 317.114C757.778 308.681 752.555 300.232 744.123 298.241C735.69 296.251 727.24 301.474 725.25 309.907C723.26 318.339 728.482 326.789 736.915 328.779C745.348 330.77 753.797 325.547 755.788 317.114Z" fill="#FFD3AE"/>
<path d="M946.944 331.574C956.916 327.443 961.651 316.011 957.521 306.039C953.39 296.068 941.958 291.332 931.987 295.463C922.015 299.593 917.28 311.025 921.41 320.997C925.54 330.969 936.973 335.704 946.944 331.574Z" fill="#FFE0C2"/>
<path d="M946.703 324.615C952.83 318.488 952.83 308.555 946.703 302.428C940.576 296.302 930.643 296.302 924.516 302.428C918.39 308.555 918.39 318.488 924.516 324.615C930.643 330.742 940.576 330.742 946.703 324.615Z" fill="#FFD3AE"/>
<path d="M736.676 327.78C736.676 327.78 720.495 237.563 829.107 237.563C937.719 237.563 942.347 327.78 942.347 327.78C942.347 327.78 949.588 389.491 839.089 389.491C728.591 389.491 736.676 327.78 736.676 327.78Z" fill="#FFE0C2"/>
<path d="M782.557 301.382C786.775 301.381 790.936 302.364 794.707 304.253C795.278 301.83 795.561 299.349 795.551 296.86C795.551 287.662 791.93 280.199 787.466 280.199C783.002 280.199 779.382 287.721 779.382 296.86C779.381 298.428 779.491 299.994 779.71 301.547C780.647 301.441 781.597 301.382 782.557 301.382Z" fill="#634E42"/>
<path d="M890.302 301.382C886.084 301.381 881.924 302.364 878.152 304.253C877.581 301.83 877.298 299.349 877.309 296.86C877.309 287.662 880.929 280.199 885.393 280.199C889.857 280.199 893.477 287.662 893.477 296.86C893.479 298.428 893.369 299.994 893.149 301.547C892.212 301.441 891.263 301.382 890.302 301.382Z" fill="#634E42"/>
<path d="M735.82 290.404C735.82 290.404 735.516 300.516 742.452 299.648C749.388 298.781 750.829 288.67 750.829 288.67C750.829 288.67 758.621 286.655 758.621 278.852C758.621 278.852 772.786 258.055 748.802 257.188C748.802 257.188 728.006 249.385 731.474 273.65C731.438 273.661 716.769 286.069 735.82 290.404Z" fill="#EFEFEF"/>
<path d="M936.477 290.404C936.477 290.404 936.77 300.516 929.845 299.648C922.921 298.781 921.468 288.67 921.468 288.67C921.468 288.67 913.665 286.655 913.665 278.852C913.665 278.852 899.511 258.055 923.483 257.188C923.483 257.188 944.28 249.385 940.824 273.65C940.8 273.661 955.504 286.069 936.477 290.404Z" fill="#EFEFEF"/>
<path d="M839.851 318.805V462.039L837.508 462.472L835.235 462.039C824.221 459.754 797.004 452.478 795.504 435.911C795.504 435.911 753.957 431.67 752.422 410.873C752.422 410.873 711.591 389.291 729.692 358.149C729.692 358.149 728.146 298.453 740.472 288.049L742.018 294.024C742.018 294.024 763.249 308.811 760.167 325.741C760.167 325.741 783.272 321.511 791.802 337.692C791.802 337.692 812.598 315.161 826.846 315.829C830.469 315.88 834.076 316.327 837.601 317.165C840.273 317.973 839.851 318.805 839.851 318.805Z" fill="#EFEFEF"/>
<path d="M922.663 410.873C921.128 431.67 879.57 435.911 879.57 435.911C878.07 452.478 850.853 459.754 839.851 462.039L837.508 462.472L835.235 462.039V318.805C835.235 318.805 834.801 317.973 837.508 317.165C841.053 316.327 844.68 315.883 848.322 315.841C862.569 315.173 883.378 337.704 883.378 337.704C891.849 321.523 914.954 325.753 914.954 325.753C911.872 308.811 933.056 293.978 933.056 293.978L934.614 288.002C946.928 298.406 945.393 358.102 945.393 358.102C963.483 389.291 922.663 410.873 922.663 410.873Z" fill="#EFEFEF"/>
<path d="M858.726 307.311C857.909 307.308 857.094 307.379 856.289 307.522C853.044 303.796 846.916 301.289 839.886 301.289C832.856 301.289 826.682 303.796 823.483 307.522C822.679 307.38 821.863 307.309 821.046 307.311C815.75 307.311 811.462 310.088 811.462 313.521C811.462 316.954 815.75 319.731 821.046 319.731C821.863 319.727 822.678 319.656 823.483 319.52C826.717 323.234 832.856 325.741 839.886 325.741C846.916 325.741 853.079 323.234 856.289 319.52C857.094 319.657 857.909 319.727 858.726 319.731C864.01 319.731 868.299 316.942 868.299 313.521C868.299 310.1 864.01 307.311 858.726 307.311Z" fill="#FFD3AE"/>
<path d="M868.627 258.43C868.627 258.43 863.237 241.324 881.304 236.544C899.371 231.763 903.753 251.775 903.753 251.775C903.753 251.775 891.345 243.152 883.565 245.214C875.786 247.276 873.559 249.139 868.627 258.43Z" fill="#EFEFEF"/>
<path d="M767.9 250.228C767.9 250.228 769.951 232.349 788.404 235.337C806.857 238.324 802.698 258.43 802.698 258.43C802.698 258.43 794.883 245.542 786.939 244.218C778.996 242.894 776.172 243.726 767.9 250.228Z" fill="#EFEFEF"/>
<path d="M527.32 237.674C523.444 258.553 517.666 279.978 509.986 301.951C502.654 323.988 492.688 343.736 480.087 361.195C467.898 378.371 452.67 391.562 434.401 400.769C416.481 410.041 394.993 412.351 369.939 407.699C344.884 403.047 325.484 393.145 311.738 377.994C298.341 362.907 288.863 345.128 283.304 324.657C278.158 303.903 276.119 281.926 277.187 258.725C278.255 235.525 280.728 213.486 284.604 192.607C288.481 171.728 294.085 150.27 301.417 128.233C308.748 106.196 318.509 86.5894 330.697 69.4137C343.298 51.9547 358.559 38.5894 376.48 29.3176C394.748 20.1105 416.41 17.8329 441.464 22.485C466.519 27.1371 485.745 37.0066 499.143 52.0934C512.888 67.2448 522.334 85.1977 527.48 105.952C533.038 126.423 535.283 148.258 534.215 171.458C533.495 194.723 531.197 216.795 527.32 237.674ZM443.805 222.167C446.067 209.988 447.968 196.842 449.508 182.728C451.397 168.68 452.047 155.482 451.46 143.134C450.873 130.785 448.855 120.331 445.404 111.771C442.019 102.863 436.15 97.6335 427.799 96.0828C419.447 94.5321 412.093 97.3062 405.735 104.405C399.442 111.156 393.805 120.189 388.824 131.503C383.843 142.818 379.539 155.338 375.91 169.063C372.63 182.853 369.859 195.838 367.598 208.017C365.272 220.544 363.164 233.832 361.276 247.88C359.735 261.994 359.258 275.224 359.845 287.572C360.497 299.573 362.516 310.027 365.901 318.935C369.352 327.495 375.253 332.55 383.604 334.101C391.956 335.652 399.278 333.052 405.571 326.301C411.929 319.202 417.566 310.169 422.482 299.203C427.463 287.888 431.593 275.336 434.874 261.546C438.502 247.821 441.479 234.694 443.805 222.167Z" fill="#F4C222"/>
<path d="M287.225 338.234L312.964 403.595L247.583 429.342L221.844 363.981L102.594 410.941L77.9421 348.342L95.3084 112.886L184.631 77.7109L263.298 277.476L296.449 264.421L320.376 325.179L287.225 338.234ZM148.909 174.719L147.988 175.081L142.667 324.981L199.299 302.679L148.909 174.719Z" fill="#1771B9"/>
<path d="M660.268 380.66L637.55 447.132L571.058 424.407L593.776 357.935L472.5 316.487L494.258 252.824L659.979 84.6646L750.82 115.711L681.386 318.87L715.1 330.392L693.982 392.183L660.268 380.66ZM660.775 166.491L659.839 166.171L558.705 276.941L616.299 296.625L660.775 166.491Z" fill="#21B95C"/>
<path d="M702.948 352.412C708.997 348.675 712.837 357.472 714 362.338L702.948 370.512C701.978 368.76 699.69 364.907 698.294 363.506C696.549 361.754 695.385 357.083 702.948 352.412Z" fill="#FFE0C2"/>
</svg>
