<svg width="379" height="769" viewBox="0 0 379 769" fill="none" xmlns="http://www.w3.org/2000/svg">
<path d="M94.3328 23.5189C94.3328 31.8443 86.3822 40.0377 74.6781 40.0377C62.9741 40.0377 55.0234 31.8443 55.0234 23.5189C55.0234 15.1934 62.9741 7 74.6781 7C86.3822 7 94.3328 15.1934 94.3328 23.5189Z" fill="#3F3F3F" stroke="#3F3F3F" stroke-width="14"/>
<path d="M69.1371 13.5885C102.178 120.69 -38.1177 143.791 -53.3672 60.3144" stroke="#3F3F3F" stroke-width="14" stroke-linecap="round" stroke-linejoin="round"/>
<path d="M195.551 55.4006C195.551 59.5811 199.496 64.0798 205.798 64.0798C212.1 64.0798 216.045 59.5811 216.045 55.4006C216.045 51.22 212.1 46.7213 205.798 46.7213C199.496 46.7213 195.551 51.22 195.551 55.4006Z" fill="#3F3F3F" stroke="#3F3F3F" stroke-width="14"/>
<path d="M82.2305 13.5885C49.7316 120.69 187.727 143.791 202.727 60.3144" stroke="#3F3F3F" stroke-width="14" stroke-linecap="round" stroke-linejoin="round"/>
<path d="M367.454 295.645C356.291 341.777 336.355 386.014 307.281 423.537C301.828 411.323 293.124 400.914 285.078 390.225C265.673 364.421 249.673 336.228 237.473 306.341C235.474 301.446 233.584 295.882 235.678 291.025C236.802 288.434 238.935 286.431 241.061 284.574C265.966 262.787 304.848 253.272 318.641 223.184C331.809 194.467 320.768 141.762 313.954 110.231C314.267 111.667 367.594 139.746 371.196 142.305C374.235 144.474 377.581 157.85 378.15 167.275C379.775 194.613 378.983 222.041 375.781 249.239C373.918 264.858 371.137 280.353 367.454 295.645Z" fill="#3F3F3F"/>
<path d="M314.683 186.764C327.954 166.316 347.404 149.248 370.707 142.01C353.514 129.702 336.034 117.799 318.267 106.302C316.826 105.246 315.206 104.458 313.484 103.978C311.233 103.494 308.905 104.074 306.699 104.736C273.161 114.794 248.615 142.812 226.512 169.932C221.282 176.349 216.008 182.919 212.992 190.622C212.148 192.488 211.744 194.522 211.812 196.568C212.016 198.987 213.304 201.171 214.618 203.221C229.139 225.834 250.547 243.232 273.218 257.696C291.629 269.436 290.736 246.135 294.065 234.186C298.708 217.538 305.277 201.311 314.683 186.764Z" fill="#5E6366"/>
<path d="M171.058 103.003C170.281 95.8063 167.101 88.5082 161.099 84.4494C157.754 82.1882 153.791 81.0512 149.885 80.0349C126.76 74.0277 102.978 70.9 79.0818 70.7233C55.1856 70.9 31.4034 74.0277 8.27878 80.0349C4.37289 81.0512 0.409655 82.1882 -2.93552 84.4812C-8.93772 88.5082 -12.1172 95.8063 -12.901 103.003C-14.685 119.517 -8.74657 138.065 -6.52919 154.452C-4.26722 171.233 12.9174 165.072 24.3802 159.451C25.1958 159.051 26.0624 158.568 26.4001 157.73C26.8142 156.701 26.279 155.551 25.7629 154.585C21.8379 147.554 17.0145 141.031 13.4399 133.815C9.86535 126.6 7.56514 118.387 9.18994 110.504C9.7188 107.913 10.7638 105.277 12.8346 103.619C14.3702 102.387 16.3199 101.809 18.2251 101.32C38.0222 96.2383 120.173 96.2383 139.989 101.32C141.901 101.809 143.844 102.387 145.38 103.619C147.451 105.277 148.489 107.913 149.025 110.504C150.643 118.387 148.349 126.606 144.775 133.815C141.2 141.024 136.377 147.554 132.452 154.585C131.91 155.551 131.375 156.701 131.814 157.73C132.152 158.568 133.019 159.051 133.834 159.451C145.303 165.072 162.507 171.233 164.744 154.452C166.91 138.052 172.849 119.498 171.058 103.003Z" fill="#F1F3F4"/>
<path d="M333.317 361.8C313.569 125.85 78.615 125.85 78.615 125.85C78.615 125.85 -156.339 125.85 -176.087 361.8C-182.48 438.224 -183.22 617.937 -183.157 709.534C-183.132 740.354 -158.132 765.324 -127.301 765.324H284.531C315.362 765.324 340.362 740.354 340.387 709.534C340.451 617.937 339.71 438.224 333.317 361.8Z" fill="#5E6366"/>
<path d="M333.32 361.645C313.572 125.85 78.6182 125.85 78.6182 125.85C78.6182 125.85 -156.336 125.85 -176.084 361.645C-182.477 438.019 -183.217 617.613 -183.153 709.151C-183.155 726.494 -175.066 742.846 -161.274 753.38C-161.274 656.1 -160.432 481.63 -154.792 405.772C-136.696 162.342 77.9943 149.912 77.9943 149.912C77.9943 149.912 293.932 162.342 312.028 405.772C317.668 481.623 318.511 656.1 318.511 753.38C332.302 742.846 340.391 726.494 340.39 709.151C340.454 617.613 339.714 438.019 333.32 361.645Z" fill="#3F3F3F"/>
<path d="M284.533 738.277H-127.309C-157.994 738.278 -182.932 713.432 -183.16 682.634C-183.16 693.522 -183.16 703.705 -183.16 712.979C-183.136 743.926 -158.134 769 -127.303 769H284.533C315.365 769 340.366 743.926 340.39 712.979C340.39 703.705 340.39 693.522 340.39 682.634C340.166 713.436 315.221 738.285 284.533 738.277Z" fill="#5E6366"/>
<path d="M312.49 396.916C311.35 396.916 310.404 396.036 310.32 394.899C301.049 269.983 238.663 210.935 187.96 183.4C132.995 153.547 79.5873 153.203 79.0832 153.203C78.5791 153.203 25.0117 153.573 -29.9596 183.489C-80.5728 211.038 -142.895 270.104 -152.16 394.899C-152.262 396.096 -153.304 396.99 -154.502 396.91C-155.701 396.818 -156.6 395.773 -156.512 394.574C-152.358 338.609 -137.369 290.85 -112.05 252.632C-91.7393 222.001 -64.7673 197.426 -31.8803 179.564C24.0737 149.189 78.5409 148.857 79.0832 148.857C79.6256 148.857 134.112 149.208 190.047 179.584C222.934 197.452 249.899 222.026 270.21 252.651C295.561 290.869 310.518 338.628 314.672 394.593C314.76 395.793 313.861 396.837 312.662 396.929L312.49 396.916Z" fill="#3F3F3F"/>
<path fill-rule="evenodd" clip-rule="evenodd" d="M85.0156 152.386L79.3201 199.897C79.1035 201.645 78.1438 203.215 76.6941 204.194C75.2445 205.173 73.4504 205.462 71.7853 204.985L63.7375 202.677C62.1692 202.229 60.8588 201.142 60.1161 199.673C59.3733 198.204 59.2642 196.484 59.8144 194.918C60.0434 194.269 60.2871 193.578 60.5435 192.851C65.5542 178.644 75.4119 150.694 75.6376 150.365L85.0156 152.386ZM76.1818 161.637L69.3434 182.485L77.276 184.759L79.5381 162.6L76.1818 161.637Z" fill="#3F3F3F"/>
<path fill-rule="evenodd" clip-rule="evenodd" d="M99.3106 151.662C100.617 152.913 118.061 195.463 118.061 195.463C118.752 197.08 118.708 198.92 117.94 200.494C117.172 202.068 115.758 203.218 114.071 203.639L105.947 205.667C104.364 206.06 102.687 205.774 101.312 204.878C99.9375 203.981 98.9863 202.552 98.6831 200.929C96.1029 187.089 90.1509 155.047 90.1784 154.629C90.1784 154.629 98.0041 150.41 99.3106 151.662ZM96.2631 164.03L100.732 185.417L108.739 183.415L99.6542 163.185L96.2631 164.03Z" fill="#3F3F3F"/>
<path d="M208.555 316.948C172.91 259.472 89.5898 250.9 78.3382 249.981V249.886L77.6997 249.93L77.0611 249.886V249.981C65.8096 250.887 -17.517 259.459 -53.1554 316.948C-97.6252 388.648 -106.846 592.068 -108.749 668.13C-108.94 675.809 -106.019 683.241 -100.647 688.739C-95.2757 694.237 -87.9092 697.336 -80.2178 697.334H235.617C243.308 697.334 250.673 694.235 256.045 688.737C261.416 683.239 264.338 675.809 264.148 668.13C262.245 592.068 253.024 388.648 208.555 316.948Z" fill="#5E6366"/>
</svg>
