<svg width="378" height="769" viewBox="0 0 378 769" fill="none" xmlns="http://www.w3.org/2000/svg">
<path d="M326.688 23.5189C326.688 31.8443 318.738 40.0377 307.034 40.0377C295.33 40.0377 287.379 31.8443 287.379 23.5189C287.379 15.1934 295.33 7 307.034 7C318.738 7 326.688 15.1934 326.688 23.5189Z" fill="#3F3F3F" stroke="#3F3F3F" stroke-width="14"/>
<path d="M186.621 55.4006C186.621 59.5811 182.676 64.0798 176.374 64.0798C170.072 64.0798 166.127 59.5811 166.127 55.4006C166.127 51.22 170.072 46.7213 176.374 46.7213C182.676 46.7213 186.621 51.22 186.621 55.4006Z" fill="#3F3F3F" stroke="#3F3F3F" stroke-width="14"/>
<path d="M301.493 13.5885C334.533 120.69 194.238 143.791 178.988 60.3144" stroke="#3F3F3F" stroke-width="14" stroke-linecap="round" stroke-linejoin="round"/>
<path d="M314.586 13.5885C282.087 120.69 420.083 143.791 435.082 60.3144" stroke="#3F3F3F" stroke-width="14" stroke-linecap="round" stroke-linejoin="round"/>
<path d="M11.5033 295.638C22.6665 341.772 42.6046 386.011 71.6814 423.537C77.1354 411.322 85.8399 400.913 93.8802 390.223C113.291 364.418 129.297 336.223 141.503 306.334C143.495 301.439 145.386 295.874 143.291 291.017C142.167 288.426 140.034 286.422 137.907 284.565C112.975 262.79 74.0891 253.275 60.3266 223.191C47.158 194.472 58.1999 141.764 65.0141 110.231C64.7012 111.667 11.3691 139.748 7.76726 142.307C4.72738 144.476 1.38095 157.853 0.812571 167.279C-0.805373 194.61 -0.00611157 222.031 3.20105 249.222C5.05875 264.843 7.83091 280.341 11.5033 295.638Z" fill="#3F3F3F"/>
<path d="M63.3714 186.764C50.1004 166.316 30.6499 149.248 7.34766 142.01C24.5363 129.702 42.0162 117.799 59.7874 106.302C61.2281 105.246 62.8485 104.458 64.5703 103.978C66.8214 103.494 69.1491 104.074 71.3556 104.736C104.893 114.794 129.439 142.812 151.543 169.932C156.772 176.349 162.046 182.919 165.062 190.622C165.908 192.487 166.312 194.522 166.242 196.568C166.038 198.987 164.75 201.171 163.436 203.221C148.915 225.834 127.507 243.232 104.836 257.696C86.4249 269.436 87.3177 246.135 83.9888 234.186C79.3462 217.538 72.8096 201.311 63.3714 186.764Z" fill="#5E6366"/>
<path d="M401.058 103.003C400.281 95.8063 397.101 88.5082 391.099 84.4494C387.754 82.1882 383.791 81.0512 379.885 80.0349C356.76 74.0277 332.978 70.9 309.082 70.7233C285.186 70.9 261.403 74.0277 238.279 80.0349C234.373 81.0512 230.41 82.1882 227.064 84.4812C221.062 88.5082 217.883 95.8063 217.099 103.003C215.315 119.517 221.253 138.065 223.471 154.452C225.733 171.233 242.917 165.072 254.38 159.451C255.196 159.051 256.062 158.568 256.4 157.73C256.814 156.701 256.279 155.551 255.763 154.585C251.838 147.554 247.014 141.031 243.44 133.815C239.865 126.6 237.565 118.387 239.19 110.504C239.719 107.913 240.764 105.277 242.835 103.619C244.37 102.387 246.32 101.809 248.225 101.32C268.022 96.2383 350.173 96.2383 369.989 101.32C371.901 101.809 373.844 102.387 375.38 103.619C377.451 105.277 378.489 107.913 379.025 110.504C380.643 118.387 378.349 126.606 374.775 133.815C371.2 141.024 366.377 147.554 362.452 154.585C361.91 155.551 361.375 156.701 361.814 157.73C362.152 158.568 363.019 159.051 363.834 159.451C375.303 165.072 392.507 171.233 394.744 154.452C396.91 138.052 402.849 119.498 401.058 103.003Z" fill="#F1F3F4"/>
<path d="M563.317 361.8C543.569 125.85 308.615 125.85 308.615 125.85C308.615 125.85 73.6612 125.85 53.9131 361.8C47.5197 438.224 46.7796 617.937 46.8434 709.534C46.868 740.354 71.8684 765.324 102.699 765.324H514.531C545.362 765.324 570.362 740.354 570.387 709.534C570.451 617.937 569.71 438.224 563.317 361.8Z" fill="#5E6366"/>
<path d="M563.32 361.645C543.572 125.85 308.618 125.85 308.618 125.85C308.618 125.85 73.6643 125.85 53.9163 361.645C47.5229 438.019 46.7828 617.613 46.8466 709.151C46.8451 726.494 54.9344 742.846 68.7257 753.38C68.7257 656.1 69.568 481.63 75.2085 405.772C93.3039 162.342 307.994 149.912 307.994 149.912C307.994 149.912 523.932 162.342 542.028 405.772C547.668 481.623 548.511 656.1 548.511 753.38C562.302 742.846 570.391 726.494 570.39 709.151C570.454 617.613 569.714 438.019 563.32 361.645Z" fill="#3F3F3F"/>
<path d="M514.533 738.277H102.691C72.0065 738.278 47.0677 713.432 46.8398 682.634C46.8398 693.522 46.8398 703.705 46.8398 712.979C46.8645 743.926 71.8655 769 102.697 769H514.533C545.365 769 570.366 743.926 570.39 712.979C570.39 703.705 570.39 693.522 570.39 682.634C570.166 713.436 545.221 738.285 514.533 738.277Z" fill="#5E6366"/>
<path d="M542.49 396.916C541.35 396.916 540.404 396.036 540.32 394.899C531.049 269.983 468.663 210.935 417.96 183.4C362.995 153.547 309.587 153.203 309.083 153.203C308.579 153.203 255.012 153.573 200.04 183.489C149.427 211.038 87.1052 270.104 77.8401 394.899C77.7384 396.096 76.6965 396.99 75.4983 396.91C74.2993 396.818 73.4005 395.773 73.4884 394.574C77.6423 338.609 92.631 290.85 117.95 252.632C138.261 222.001 165.233 197.426 198.12 179.564C254.074 149.189 308.541 148.857 309.083 148.857C309.626 148.857 364.112 149.208 420.047 179.584C452.934 197.452 479.899 222.026 500.21 252.651C525.561 290.869 540.518 338.628 544.672 394.593C544.76 395.793 543.861 396.837 542.662 396.929L542.49 396.916Z" fill="#3F3F3F"/>
<path fill-rule="evenodd" clip-rule="evenodd" d="M315.02 152.386L309.324 199.897C309.107 201.645 308.148 203.215 306.698 204.194C305.248 205.173 303.454 205.462 301.789 204.985L293.741 202.678C292.173 202.229 290.863 201.142 290.12 199.673C289.377 198.204 289.268 196.484 289.818 194.919C290.047 194.269 290.291 193.578 290.547 192.851C295.558 178.645 305.416 150.694 305.641 150.365L315.02 152.386ZM306.189 161.637L299.35 182.485L307.283 184.759L309.545 162.6L306.189 161.637Z" fill="#3F3F3F"/>
<path fill-rule="evenodd" clip-rule="evenodd" d="M329.314 151.661C330.621 152.913 348.065 195.463 348.065 195.463C348.756 197.08 348.712 198.919 347.944 200.493C347.176 202.067 345.762 203.217 344.075 203.639L335.951 205.666C334.368 206.059 332.691 205.774 331.316 204.877C329.941 203.98 328.99 202.552 328.687 200.928C326.107 187.088 320.155 155.046 320.182 154.629C320.182 154.629 328.008 150.41 329.314 151.661ZM326.267 164.03L330.736 185.418L338.743 183.415L329.658 163.185L326.267 164.03Z" fill="#3F3F3F"/>
<path d="M438.555 316.948C402.91 259.472 319.59 250.9 308.338 249.981V249.886L307.7 249.93L307.061 249.886V249.981C295.81 250.887 212.483 259.459 176.845 316.948C132.375 388.648 123.154 592.068 121.251 668.13C121.06 675.809 123.981 683.241 129.353 688.739C134.724 694.237 142.091 697.336 149.782 697.334H465.617C473.308 697.334 480.673 694.235 486.045 688.737C491.416 683.239 494.338 675.809 494.148 668.13C492.245 592.068 483.024 388.648 438.555 316.948Z" fill="#5E6366"/>
</svg>
