<svg width="171" height="127" viewBox="0 0 171 127" fill="none" xmlns="http://www.w3.org/2000/svg">
<path d="M114.349 99.5966H93.984L89.4102 112.297H82.7998L101.362 63.6354H106.971L125.567 112.297H118.99L114.349 99.5966ZM95.9204 94.3161H112.446L104.167 71.5562L95.9204 94.3161Z" fill="#F4C222" stroke="#F4C222" stroke-width="5"/>
<path d="M40.3912 53.5582C39.7903 58.7051 37.8873 62.6822 34.6822 65.4896C31.4995 68.2747 27.2595 69.6672 21.9623 69.6672C16.2199 69.6672 11.6127 67.6063 8.1406 63.4843C4.69075 59.3624 2.96582 53.8479 2.96582 46.9408V42.2618C2.96582 37.7388 3.76708 33.7617 5.36959 30.3304C6.99436 26.8992 9.28685 24.2701 12.247 22.443C15.2072 20.5937 18.6348 19.6691 22.5298 19.6691C27.6935 19.6691 31.8333 21.1173 34.9493 24.0138C38.0653 26.8881 39.8793 30.8763 40.3912 35.9786H33.9478C33.3913 32.1018 32.1783 29.2944 30.3087 27.5565C28.4614 25.8186 25.8684 24.9496 22.5298 24.9496C18.4345 24.9496 15.2184 26.4647 12.8814 29.4949C10.5666 32.5251 9.40926 36.8364 9.40926 42.4289V47.1413C9.40926 52.4219 10.511 56.6218 12.7144 59.7411C14.9179 62.8604 18.0005 64.4201 21.9623 64.4201C25.5234 64.4201 28.2499 63.618 30.1418 62.0138C32.0559 60.3873 33.3246 57.5687 33.9478 53.5582H40.3912Z" fill="#CE2489" stroke="#CE2489" stroke-width="5"/>
<path d="M132.893 65.1556L88.2041 52.8248L88.0853 53.2562L132.774 65.587L132.893 65.1556Z" fill="#CCD4D2"/>
<path d="M132.299 67.3381L87.6104 55.0073L87.4916 55.4387L132.18 67.7695L132.299 67.3381Z" fill="#CCD4D2"/>
<path d="M131.688 69.5488L86.999 57.218L86.8802 57.6494L131.569 69.9802L131.688 69.5488Z" fill="#CCD4D2"/>
<path d="M131.387 70.6561L86.6982 58.3253L86.5795 58.7567L131.268 71.0875L131.387 70.6561Z" fill="#CCD4D2"/>
<path d="M131.091 71.7473L86.4023 59.4165L86.2836 59.8479L130.972 72.1787L131.091 71.7473Z" fill="#CCD4D2"/>
<path d="M131.984 68.441L87.2949 56.1102L87.1761 56.5416L131.865 68.8724L131.984 68.441Z" fill="#CCD4D2"/>
<path d="M132.596 66.2468L87.9072 53.916L87.7884 54.3474L132.477 66.6782L132.596 66.2468Z" fill="#CCD4D2"/>
<path d="M132.807 63.9879L93.0743 52.9999C91.8968 52.725 90.6587 52.9164 89.6189 53.5341C88.5791 54.1519 87.8181 55.1481 87.4951 56.3145C87.3272 56.8957 87.2769 57.5045 87.3473 58.1053C87.4176 58.7061 87.6072 59.2868 87.9049 59.8133C88.2025 60.3397 88.6022 60.8013 89.0806 61.171C89.5589 61.5407 90.1062 61.811 90.6903 61.966C90.9883 61.966 91.3194 62.1648 91.6174 62.2311L130.324 72.9207C128.404 71.9264 128.106 69.8713 128.668 67.6837C129.231 65.496 130.639 63.7558 132.807 63.9879Z" fill="white"/>
<path d="M145.226 10.5566L107.579 0.181885H107.43L92.6787 53.8123H92.8443L130.442 64.187C130.863 64.3077 131.305 64.3432 131.741 64.2916C132.176 64.24 132.597 64.1023 132.979 63.8864C133.361 63.6706 133.697 63.3808 133.966 63.0341C134.235 62.6874 134.433 62.2906 134.547 61.8668L147.56 14.5673C147.773 13.7259 147.648 12.8345 147.211 12.0846C146.775 11.3347 146.062 10.7861 145.226 10.5566Z" fill="#26B824"/>
<path d="M90.8722 61.9827H90.7067C91.1347 60.6343 91.4829 59.2619 91.7497 57.8726C92.3788 55.6186 93.2231 54.0276 92.9748 53.9282L93.2231 54.0276L105.375 9.28039H105.524L107.991 0.314373H107.742C106.616 -0.0929056 105.384 -0.104788 104.25 0.280674C103.116 0.666136 102.147 1.42605 101.501 2.43572C101.271 3.04492 101.088 3.67104 100.954 4.30848C100.954 4.30848 86.5347 56.2318 86.4685 56.4473C86.4139 56.6595 86.3751 56.8756 86.3526 57.0936V57.2428C86.2837 58.5287 86.6689 59.7979 87.4407 60.828C88.2125 61.8582 89.3218 62.5838 90.5742 62.8776H90.6901L90.8722 61.9827Z" fill="#3E992E"/>
<path d="M132.907 64.7171C132.907 64.7171 128.123 68.4129 130.838 73.0037L87.7939 61.1539L90.0289 52.2211L132.907 64.7171Z" fill="#E7E5E5"/>
<path d="M88.5879 57.8062C89.2832 57.5245 97.3457 54.3093 131.632 65.9601C131.918 65.4022 132.385 64.9581 132.956 64.7006L90.7898 52.0222L88.5879 57.8062Z" fill="#CECECD"/>
<path d="M89.6974 56.033L90.012 54.8894C90.5749 52.8344 92.1145 53.431 92.1145 53.431L133.785 64.9327L134.43 62.5628L92.3297 50.9616C91.6398 50.7299 90.8875 50.7714 90.2272 51.0776H90.0948H90.012C88.9855 51.7074 84.8467 54.7071 86.8995 61.1209C87.0154 61.6172 87.2726 62.0693 87.6399 62.4223C88.0072 62.7753 88.4689 63.014 88.969 63.1097L131.069 74.7108L131.715 72.3409L90.0285 61.0049C90.0285 61.0049 88.373 60.7397 88.969 58.6847L89.2835 57.5246L89.6974 56.033Z" fill="#26B824"/>
<path d="M90.0293 61.0049C90.0293 61.0049 88.3738 60.7398 88.9698 58.6847L89.2843 57.5246L89.6982 56.033L90.0128 54.8895C90.5756 52.8344 92.1153 53.4311 92.1153 53.4311L99.3004 55.4695L99.9626 53.1162L92.2643 50.9948C91.5744 50.7631 90.822 50.8046 90.1618 51.1108H90.0293H89.9465C88.9201 51.7406 84.7812 54.7403 86.8341 61.1541C86.95 61.6504 87.2071 62.1025 87.5744 62.4555C87.9417 62.8085 88.4034 63.0472 88.9035 63.1429L96.6349 65.4134L97.2971 63.06L90.0293 61.0049Z" fill="#3E992E"/>
<path d="M101.188 60.0768C100.073 59.5766 98.9071 59.1987 97.7109 58.9498C98.2681 59.7102 98.6317 60.5951 98.7701 61.5279C98.9086 62.4607 98.8178 63.4132 98.5056 64.3029L100.807 62.5296L102.711 64.7835C102.711 64.7835 102.876 61.3198 101.188 60.0768Z" fill="#EA5645"/>
<path d="M107.627 0.185737L93.5537 51.2969L100.034 53.0848L114.107 1.9737L107.627 0.185737Z" fill="#3E992E"/>
<path d="M115.558 29.0852L109.68 27.4279L107.18 32.549L102.214 31.19L115.177 7.75574L120.955 9.41304L120.094 36.1951L115.127 34.8029L115.558 29.0852ZM115.905 24.5442L116.849 12.9431L111.667 23.4504L115.905 24.5442Z" fill="#CE2489"/>
<path d="M119.614 22.5715L111.282 52.8324L130.642 58.1743L138.974 27.9134L119.614 22.5715Z" fill="#F4C222"/>
<path d="M130.871 45.9234C129.579 50.6136 126.186 51.0942 122.047 49.9507L116.732 48.4757L122.477 27.892L127.129 29.1681C131.55 30.3945 133.884 32.4827 132.824 36.4105C132.632 37.4017 132.107 38.2973 131.336 38.9484C130.565 39.5996 129.595 39.9672 128.586 39.9903C129.65 40.5022 130.479 41.4011 130.903 42.5036C131.328 43.6061 131.316 44.8292 130.871 45.9234ZM125.358 32.4164L124.033 37.1894L125.49 37.6038C125.816 37.7425 126.169 37.8036 126.522 37.7824C126.875 37.7611 127.219 37.658 127.525 37.4813C127.832 37.3045 128.093 37.0589 128.289 36.7638C128.484 36.4687 128.609 36.1322 128.652 35.7807C129.132 34.1234 128.371 33.2451 126.5 32.7313L125.358 32.4164ZM126.931 44.5479C127.09 44.1745 127.161 43.7695 127.138 43.3642C127.115 42.9589 126.999 42.5645 126.798 42.2115C126.598 41.8586 126.319 41.5568 125.983 41.3296C125.647 41.1024 125.263 40.956 124.861 40.9018L123.206 40.4378L121.666 46.0229L123.09 46.4206C124.878 46.9178 126.301 46.8018 126.931 44.5479Z" fill="#22B1B6"/>
<path d="M71.9438 53.5174L33.6022 64.2629C30.7406 65.0648 29.0703 68.0372 29.8714 70.9018L43.9975 121.413C44.7986 124.278 47.7678 125.95 50.6294 125.148L88.971 114.403C91.8325 113.601 93.5028 110.628 92.7017 107.764L78.5757 57.2522C77.7745 54.3876 74.8054 52.7155 71.9438 53.5174Z" fill="#A685E2"/>
<g style="mix-blend-mode:multiply" opacity="0.52">
<path d="M71.2156 55.7441L36.3973 65.5021C34.7772 65.9561 33.8315 67.6389 34.2851 69.2608L47.8756 117.857C48.3291 119.479 50.0101 120.426 51.6302 119.972L86.4485 110.214C88.0686 109.76 89.0143 108.077 88.5607 106.455L74.9702 57.8585C74.5167 56.2367 72.8357 55.29 71.2156 55.7441Z" fill="#FE487C"/>
</g>
<path d="M67.3884 59.441L40.5572 66.9606C37.995 67.6786 36.4995 70.34 37.2168 72.9049L48.473 113.155C49.1903 115.72 51.8488 117.217 54.411 116.499L81.2422 108.979C83.8044 108.261 85.2999 105.6 84.5826 103.035L73.3264 62.785C72.6091 60.2201 69.9505 58.7229 67.3884 59.441Z" fill="white"/>
<path d="M62.1063 53.2399L41.8594 58.9142L44.216 67.3408L64.4629 61.6664L62.1063 53.2399Z" fill="#0F0B49"/>
<g opacity="0.33">
<path opacity="0.33" d="M45.5568 72.5116C47.0029 72.2293 48.4708 72.074 49.944 72.0475C50.8413 71.95 51.7245 71.7499 52.5763 71.4509C53.2265 71.2177 53.8485 70.9119 54.4305 70.5394C54.9106 70.241 55.7384 69.2632 56.3509 69.0312C57.2856 68.8422 58.2525 68.8878 59.1653 69.1638C60.0416 69.1713 60.9153 69.0654 61.7645 68.8489C62.6869 68.6397 63.5815 68.3226 64.4299 67.9042C65.1471 67.5029 65.8187 67.025 66.4331 66.479C67.8569 66.6613 69.7442 65.2691 68.3701 65.0868C65.1749 64.6725 63.4035 67.6557 60.5063 67.7054C59.3971 67.7054 59.1488 67.2413 57.725 67.4236C56.738 67.5415 55.7795 67.8333 54.894 68.2854C53.7848 68.8655 53.5034 69.5284 52.4935 70.0753C50.6393 71.0531 48.8016 70.6057 47.0468 70.8543C44.6131 71.2023 42.2457 72.4121 42.5106 73.3568C42.7755 74.3014 45.8217 73.2242 45.5568 72.5116Z" fill="#0F0B49"/>
</g>
<g opacity="0.33">
<path opacity="0.33" d="M46.5163 75.8923C47.9628 75.6147 49.4308 75.4649 50.9035 75.4448C51.7951 75.3454 52.6726 75.1453 53.5192 74.8482C54.1681 74.6115 54.7897 74.306 55.3734 73.9367C55.8701 73.6218 56.6813 72.644 57.3104 72.412C58.3865 72.0142 59.3633 72.528 60.1083 72.5446C60.9836 72.551 61.8564 72.4508 62.7075 72.2462C63.6277 72.0295 64.5215 71.7127 65.3729 71.3016C66.0938 70.8997 66.766 70.4159 67.3761 69.8597C68.8164 70.0586 70.6872 68.6665 69.3131 68.4842C66.1345 68.0698 64.3465 71.053 61.4493 71.1027C60.3401 71.1027 60.1083 70.6221 58.668 70.8044C57.681 70.9328 56.7235 71.2299 55.837 71.6828C54.7278 72.2462 54.4463 72.9092 53.4365 73.4561C51.5822 74.4505 49.7446 73.9864 47.9897 74.2516C45.5561 74.5996 43.1887 75.8094 43.4701 76.7541C43.7515 77.6988 46.7812 76.605 46.5163 75.8923Z" fill="#0F0B49"/>
</g>
<g opacity="0.33">
<path opacity="0.33" d="M47.3614 79.1407C48.8076 78.8584 50.2755 78.7032 51.7486 78.6767C52.646 78.5792 53.5292 78.379 54.3809 78.08C55.0312 77.8468 55.6532 77.541 56.2352 77.1685C56.7153 76.8702 57.543 75.8924 58.1556 75.6604C59.0903 75.4714 60.0572 75.5169 60.97 75.793C61.8463 75.8004 62.72 75.6946 63.5692 75.4781C64.4916 75.2688 65.3862 74.9517 66.2346 74.5334C66.9518 74.132 67.6234 73.6541 68.2378 73.1081C69.6616 73.2904 71.5489 71.8983 70.1748 71.716C66.9796 71.3017 65.2082 74.2848 62.311 74.3345C61.2018 74.3345 60.9534 73.8705 59.5297 74.0528C58.5426 74.1706 57.5842 74.4624 56.6987 74.9146C55.5895 75.4946 55.3081 76.1576 54.2982 76.6879C52.444 77.6823 50.6063 77.2348 48.8514 77.4834C46.4178 77.8314 44.0504 79.0413 44.3153 79.9859C44.5801 80.9306 47.6263 79.8533 47.3614 79.1407Z" fill="#0F0B49"/>
</g>
<g opacity="0.33">
<path opacity="0.33" d="M48.7026 82.4719C50.1491 82.1943 51.6171 82.0445 53.0898 82.0244C53.959 81.9201 54.814 81.7201 55.6394 81.4278C56.2882 81.1911 56.9098 80.8855 57.4936 80.5163C58.0967 79.9562 58.7446 79.4463 59.4305 78.9916C60.5066 78.5938 61.5 79.1076 62.2284 79.1242C63.1045 79.1471 63.9795 79.0467 64.8276 78.8258C65.7478 78.6091 66.6416 78.2923 67.493 77.8812C68.214 77.4777 68.8909 77 69.5128 76.4559C70.9366 76.6382 72.8239 75.2461 71.4332 75.0638C68.2546 74.6494 66.4666 77.6326 63.5694 77.6823C62.4602 77.6823 62.2284 77.2017 60.7881 77.384C59.8028 77.52 58.8465 77.8168 57.9571 78.2624C56.8479 78.8258 56.5665 79.5053 55.5566 80.0357C53.7024 81.0301 51.8647 80.5826 50.1264 80.8312C47.6762 81.1792 45.3088 82.389 45.5902 83.3337C45.8717 84.2784 48.9013 83.1846 48.6364 82.4719H48.7026Z" fill="#0F0B49"/>
</g>
<g opacity="0.33">
<path opacity="0.33" d="M49.6461 85.8693C51.075 85.5865 52.5271 85.4367 53.9836 85.4219C54.8755 85.3243 55.7533 85.1241 56.5994 84.8252C57.257 84.5899 57.8848 84.2785 58.4701 83.8971C58.9502 83.5988 59.7615 82.621 60.3906 82.389C61.4667 81.9912 62.46 82.505 63.1884 82.5216C64.0703 82.5301 64.9495 82.4243 65.8042 82.2067C66.7231 81.9932 67.6167 81.6821 68.4696 81.2786C69.2072 80.8706 69.9007 80.3874 70.539 79.8368C71.9628 80.0191 73.8501 78.6269 72.476 78.4446C69.2808 78.0303 67.5094 81.0134 64.6122 81.0797C63.4864 81.0797 63.2547 80.5991 61.8143 80.7814C60.8283 80.9039 59.8706 81.1955 58.9833 81.6432C57.8741 82.2233 57.6093 82.8862 56.5828 83.4331C54.7286 84.4109 52.891 83.9634 51.1526 84.212C48.719 84.5601 46.335 85.7865 46.6164 86.7146C46.8979 87.6427 49.9275 86.582 49.6626 85.8693H49.6461Z" fill="#0F0B49"/>
</g>
<g opacity="0.33">
<path opacity="0.33" d="M50.5563 89.1009C52.0028 88.8233 53.4709 88.6736 54.9435 88.6535C55.8351 88.554 56.7127 88.3539 57.5593 88.0568C58.2081 87.8202 58.8297 87.5146 59.4135 87.1453C60.0167 86.5852 60.6645 86.0753 61.3505 85.6206C62.4266 85.2228 63.4199 85.7366 64.1483 85.7532C65.0244 85.7761 65.8994 85.6757 66.7475 85.4549C67.6677 85.2381 68.5615 84.9213 69.413 84.5102C70.1339 84.1067 70.8109 83.6291 71.4327 83.0849C72.8565 83.2672 74.7438 81.8751 73.3532 81.6928C70.1745 81.2785 68.3865 84.2616 65.4893 84.3113C64.3801 84.3113 64.1483 83.8307 62.708 84.013C61.7228 84.1491 60.7664 84.4458 59.877 84.8914C58.7678 85.4549 58.4864 86.1178 57.4765 86.6647C55.6223 87.6591 53.7846 87.2116 52.0463 87.4602C49.5961 87.8082 47.2287 89.0181 47.5101 89.9627C47.7916 90.9074 50.8212 89.8136 50.5563 89.1009Z" fill="#0F0B49"/>
</g>
<g opacity="0.33">
<path opacity="0.33" d="M51.482 92.3493C52.9284 92.0717 54.3965 91.922 55.8692 91.9019C56.7611 91.8043 57.6388 91.6041 58.4849 91.3052C59.1387 91.0678 59.7657 90.7623 60.3557 90.3937C60.8358 90.0788 61.647 89.101 62.2761 88.869C63.3522 88.4713 64.3455 88.985 65.074 89.0016C65.9547 89.0081 66.833 88.9079 67.6897 88.7033C68.6091 88.4838 69.5026 88.1671 70.3552 87.7586C71.0734 87.3525 71.7451 86.869 72.3584 86.3168C73.7821 86.5156 75.6695 85.1235 74.2954 84.9412C71.1002 84.5269 69.3287 87.51 66.4315 87.5597C65.3058 87.5597 65.074 87.0791 63.6337 87.2614C62.6467 87.3898 61.6891 87.6869 60.8027 88.1398C59.6935 88.7033 59.4286 89.3662 58.4021 89.9131C56.5479 90.9075 54.7103 90.46 52.972 90.7086C50.5383 91.0566 48.1543 92.2665 48.4358 93.2111C48.7172 94.1558 51.7469 93.062 51.482 92.3493Z" fill="#0F0B49"/>
</g>
<g opacity="0.33">
<path opacity="0.33" d="M52.4259 95.7468C53.872 95.4645 55.34 95.3092 56.8131 95.2827C57.7104 95.1853 58.5936 94.9851 59.4454 94.6861C60.0985 94.4597 60.7213 94.1536 61.2996 93.7746C61.7797 93.4763 62.5909 92.4985 63.22 92.2664C64.1492 92.0768 65.1109 92.1224 66.0179 92.399C66.8997 92.4075 67.779 92.3017 68.6337 92.0841C69.556 91.8749 70.4507 91.5578 71.2991 91.1395C72.0162 90.7381 72.6879 90.2602 73.3023 89.7142C74.7261 89.8965 76.6134 88.5044 75.2393 88.3221C72.0441 87.9077 70.2727 90.8909 67.3755 90.9406C66.2662 90.9406 66.0179 90.4766 64.5942 90.6589C63.6071 90.7767 62.6487 91.0685 61.7632 91.5207C60.6374 92.1007 60.3725 92.7636 59.3626 93.3105C57.5084 94.2884 55.6708 93.8409 53.9159 94.0895C51.4822 94.4375 49.1148 95.6639 49.3797 96.592C49.6446 97.5201 52.6908 96.4594 52.4259 95.7468Z" fill="#0F0B49"/>
</g>
<g opacity="0.33">
<path opacity="0.33" d="M53.3384 98.9786C54.7848 98.701 56.2529 98.5513 57.7256 98.5312C58.6175 98.4336 59.4952 98.2334 60.3413 97.9345C61.0122 97.7003 61.656 97.3947 62.2618 97.023C62.7419 96.7081 63.5531 95.7303 64.1822 95.4983C65.2583 95.1005 66.2516 95.6143 66.9801 95.6309C67.8608 95.6373 68.7391 95.5372 69.5958 95.3326C70.4926 95.1086 71.3636 94.792 72.195 94.3879C72.9132 93.9818 73.5849 93.4983 74.1982 92.946C75.622 93.1449 77.5093 91.7528 76.1352 91.5705C72.94 91.1561 71.1686 94.1393 68.2714 94.189C67.1456 94.189 66.9138 93.7084 65.4735 93.8907C64.4866 94.0191 63.529 94.3162 62.6425 94.7691C61.5333 95.3326 61.2684 95.9955 60.242 96.5424C58.3878 97.5368 56.5501 97.0893 54.8118 97.3379C52.3782 97.6859 49.9942 98.8958 50.2756 99.8404C50.5571 100.785 53.5867 99.6913 53.3218 98.9786H53.3384Z" fill="#0F0B49"/>
</g>
<g opacity="0.33">
<path opacity="0.33" d="M54.6115 102.326C56.0407 102.045 57.4926 101.895 58.949 101.879C59.8463 101.781 60.7296 101.581 61.5813 101.282C62.2323 101.044 62.8543 100.732 63.4355 100.354C63.9322 100.056 64.7434 99.0779 65.356 98.8459C66.2918 98.673 67.2549 98.7184 68.1704 98.9785C69.0467 98.986 69.9203 98.8801 70.7696 98.6636C71.6891 98.4523 72.5829 98.1411 73.435 97.7355C74.1751 97.3317 74.8691 96.8482 75.5044 96.2937C76.9447 96.476 78.8155 95.0838 77.4414 94.9015C74.2462 94.4872 72.4748 97.4703 69.5776 97.5366C68.4684 97.5366 68.2366 97.056 66.7963 97.2383C65.8092 97.3562 64.8508 97.648 63.9653 98.1001C62.8561 98.6802 62.5746 99.3431 61.5648 99.89C59.7106 100.868 57.8729 100.42 56.118 100.669C53.6844 101.017 51.317 102.243 51.5819 103.171C51.8467 104.1 54.8929 103.039 54.628 102.326H54.6115Z" fill="#0F0B49"/>
</g>
<g opacity="0.33">
<path opacity="0.33" d="M55.6384 105.707C57.0848 105.429 58.5529 105.28 60.0255 105.26C60.9172 105.16 61.7947 104.96 62.6413 104.663C63.2901 104.426 63.9117 104.121 64.4955 103.752C65.0987 103.191 65.7465 102.681 66.4325 102.227C67.5086 101.829 68.5019 102.343 69.2303 102.359C70.1064 102.382 70.9814 102.282 71.8295 102.061C72.7497 101.844 73.6435 101.528 74.495 101.116C75.2133 100.709 75.8898 100.231 76.5147 99.6911C77.9385 99.8734 79.8258 98.4813 78.4352 98.299C75.2565 97.8847 73.4685 100.868 70.5713 100.918C69.4621 100.918 69.2303 100.437 67.79 100.619C66.8048 100.755 65.8485 101.052 64.959 101.498C63.8498 102.061 63.5684 102.741 62.5585 103.271C60.7043 104.265 58.8667 103.818 57.1283 104.066C54.6781 104.414 52.3107 105.624 52.5922 106.569C52.8736 107.514 55.9032 106.42 55.6384 105.707Z" fill="#0F0B49"/>
</g>
<g opacity="0.33">
<path opacity="0.33" d="M56.4659 108.955C57.9115 108.671 59.3801 108.522 60.8531 108.508C61.7505 108.41 62.6337 108.21 63.4854 107.911C64.1364 107.673 64.7584 107.361 65.3396 106.983C65.8198 106.685 66.6475 105.707 67.2601 105.475C68.1959 105.302 69.159 105.348 70.0745 105.608C70.9508 105.615 71.8244 105.509 72.6737 105.293C73.5933 105.081 74.487 104.77 75.3391 104.365C76.0562 103.957 76.7278 103.473 77.3423 102.923C78.7661 103.105 80.6534 101.713 79.2793 101.531C76.0841 101.116 74.3127 104.099 71.4155 104.166C70.3063 104.166 70.0745 103.685 68.6342 103.867C67.6471 103.985 66.6887 104.277 65.8032 104.729C64.694 105.309 64.4125 105.972 63.4027 106.519C61.5485 107.497 59.7108 107.049 57.9559 107.298C55.5223 107.646 53.1549 108.873 53.4197 109.801C53.6846 110.729 56.7308 109.668 56.4659 108.955Z" fill="#0F0B49"/>
</g>
<path d="M134.865 97.2557V48.5944H150.757C156.032 48.5944 159.994 49.6861 162.642 51.8696C165.313 54.0532 166.648 57.2839 166.648 61.5618C166.648 63.8344 166.003 65.8509 164.712 67.611C163.421 69.349 161.663 70.6969 159.437 71.655C162.063 72.3903 164.133 73.794 165.647 75.8661C167.183 77.9159 167.951 80.3668 167.951 83.2188C167.951 87.5858 166.537 91.0171 163.711 93.5125C160.884 96.008 156.889 97.2557 151.725 97.2557H134.865ZM141.275 74.4958V92.0085H151.859C154.841 92.0085 157.189 91.2399 158.903 89.7025C160.639 88.1428 161.507 86.0039 161.507 83.2856C161.507 77.4257 158.324 74.4958 151.959 74.4958H141.275ZM141.275 69.3489H150.957C153.762 69.3489 155.998 68.6471 157.668 67.2434C159.359 65.8397 160.205 63.9347 160.205 61.5284C160.205 58.8547 159.426 56.9162 157.868 55.7131C156.31 54.4876 153.94 53.8749 150.757 53.8749H141.275V69.3489Z" fill="#1771B9" stroke="#1771B9" stroke-width="5"/>
</svg>
