<svg width="217" height="147" viewBox="0 0 217 147" fill="none" xmlns="http://www.w3.org/2000/svg">
<path opacity="0.5" d="M19.0511 79.8213C19.0511 79.8213 25.341 88.4377 31.0063 88.4854C36.6716 88.5332 45.2377 84.2693 45.2377 84.2693C45.2377 84.2693 50.2887 72.6097 46.7029 68.1207C46.7029 68.1207 43.1429 66.6167 39.4792 69.404C38.7777 69.9463 38.1434 70.5702 37.5895 71.2625C36.8376 72.2292 35.8105 72.9453 34.6435 73.3165C30.6157 74.5904 25.7821 71.7824 24.0227 74.5833C23.1614 75.9566 22.1272 77.2135 20.9454 78.3231C20.3577 78.8754 19.7239 79.3766 19.0511 79.8213Z" fill="#AEC3FF"/>
<path opacity="0.5" d="M100.412 141.518C100.412 141.518 77.8879 88.8855 38.5668 88.3873C38.5668 88.3873 2.33433 92.8887 0.965719 142.807L100.412 141.518Z" fill="#AEC3FF"/>
<path d="M49.3581 89.8646C49.3581 89.8646 33.6466 93.5769 28.7598 91.5766C28.7598 91.5766 27.9377 84.9976 34.586 85.8364C39.1355 86.4153 42.0665 84.1892 43.8026 83.28C46.2387 81.995 49.9761 87.0976 49.3581 89.8646Z" fill="#8C9DF4"/>
<path opacity="0.5" d="M35.5162 80.1115C36.5242 80.8544 39.4792 69.4038 39.4792 69.4038C38.7777 69.946 38.1434 70.5699 37.5895 71.2623C36.8376 72.2289 35.8105 72.945 34.6435 73.3163C34.6351 73.6513 34.5276 79.3875 35.5162 80.1115Z" fill="#AEC3FF"/>
<path opacity="0.5" d="M20.9444 78.3227C21.1694 78.4505 28.5129 82.7218 29.5015 82.709C30.4901 82.6962 24.0217 74.5829 24.0217 74.5829C23.1605 75.9562 22.1262 77.2131 20.9444 78.3227Z" fill="#AEC3FF"/>
<path opacity="0.5" d="M78.8868 127.013C79.2873 126.66 63.1301 103.864 58.7589 103.751C54.3877 103.639 44.6458 108.974 37.5494 109.739C30.4529 110.504 23.5385 108.578 22.2505 112.808C20.9626 117.038 17.4594 131.963 19.7577 134.315C22.0559 136.668 70.2614 134.573 78.8868 127.013Z" fill="#AEC3FF"/>
<path d="M179.564 35.0644C185.245 38.9029 192.962 37.4092 196.801 31.7281C200.639 26.047 199.145 18.3298 193.464 14.4913C187.783 10.6528 180.066 12.1466 176.228 17.8277C172.389 23.5088 173.883 31.2259 179.564 35.0644Z" fill="#E2810E"/>
<path d="M183.885 36.9091C183.708 36.8869 183.529 36.8604 183.351 36.8301C183.291 36.8201 183.231 36.8088 183.172 36.7981C183.035 36.7726 182.9 36.7455 182.766 36.7165C179.728 36.0442 177.053 34.2555 175.271 31.7046C173.489 29.1538 172.73 26.0268 173.144 22.9428C173.558 19.8588 175.114 17.0427 177.506 15.0521C179.898 13.0614 182.95 12.0415 186.058 12.1941C186.557 12.2194 187.054 12.2744 187.547 12.3588C187.727 12.3891 187.904 12.4236 188.08 12.4621C188.251 12.4988 188.421 12.5399 188.588 12.5832C189.841 12.9094 191.034 13.4296 192.126 14.1247C194.503 15.6418 196.293 17.923 197.201 20.5929C198.11 23.2628 198.082 26.1625 197.123 28.8145C196.164 31.4666 194.33 33.7131 191.924 35.1843C189.518 36.6556 186.683 37.2639 183.885 36.9091Z" fill="#FFB93E"/>
<path d="M178.495 33.4469C177.674 32.7901 176.949 32.0208 176.343 31.1616C174.736 28.8758 174.055 26.066 174.436 23.298C174.818 20.5299 176.234 18.0092 178.399 16.2434C180.565 14.4776 183.319 13.5979 186.107 13.7814C188.895 13.9648 191.511 15.1979 193.426 17.2322C195.342 19.2665 196.415 21.9511 196.431 24.7452C196.446 27.5394 195.402 30.2357 193.51 32.2912C191.617 34.3467 189.016 35.6087 186.23 35.8231C183.444 36.0376 180.68 35.1885 178.495 33.4469ZM192.16 16.2691C190.303 14.7927 188.012 13.9672 185.641 13.9198C183.269 13.8724 180.947 14.6057 179.033 16.0068C177.119 17.4078 175.718 19.3991 175.046 21.6742C174.374 23.9493 174.468 26.3821 175.314 28.5983C176.16 30.8146 177.711 32.6915 179.728 33.9402C181.745 35.1889 184.117 35.7402 186.477 35.5094C188.838 35.2786 191.058 34.2783 192.795 32.6626C194.532 31.0469 195.69 28.9052 196.091 26.5671C196.425 24.6556 196.236 22.6895 195.544 20.8766C194.852 19.0638 193.682 17.4718 192.16 16.2691Z" fill="#FFA412"/>
<path d="M189.028 28.9984C189.047 28.9355 189.064 28.8729 189.08 28.8109C189.196 28.3843 189.223 27.9385 189.161 27.5008C189.088 27.0433 188.921 26.606 188.671 26.2165C188.391 25.786 188.054 25.3954 187.67 25.0552C187.258 24.6833 186.792 24.3012 186.271 23.9088C185.993 23.7045 185.728 23.4838 185.477 23.248C185.293 23.079 185.135 22.8845 185.007 22.6703C184.907 22.4997 184.847 22.3081 184.833 22.1105C184.824 21.9109 184.85 21.7113 184.91 21.5206C184.967 21.3229 185.055 21.1358 185.172 20.9669C185.281 20.8091 185.424 20.6778 185.591 20.5825C185.769 20.485 185.966 20.4285 186.169 20.4171C186.418 20.4024 186.667 20.4342 186.904 20.5107C187.406 20.6591 187.757 20.9444 187.957 21.3665C188.157 21.7887 188.155 22.336 187.952 23.0085L190.569 23.7831C190.73 23.2684 190.801 22.7299 190.78 22.1911C190.761 21.7167 190.647 21.251 190.445 20.8214C190.243 20.3919 189.957 20.0073 189.604 19.6903C189.222 19.3446 188.786 19.0642 188.314 18.8605L188.855 17.0354L187.406 16.6063L186.873 18.4062C186.355 18.2981 185.824 18.2688 185.298 18.3194C184.833 18.3644 184.38 18.4921 183.96 18.6965C183.564 18.8917 183.214 19.1682 182.932 19.508C182.323 20.2817 182.044 21.2646 182.156 22.2429C182.229 22.6994 182.397 23.1355 182.649 23.5232C182.931 23.9521 183.27 24.3403 183.657 24.6768C184.11 25.0777 184.582 25.4551 185.074 25.8076C185.344 25.9955 185.601 26.2028 185.841 26.428C186.023 26.597 186.179 26.7913 186.305 27.005C186.409 27.1836 186.471 27.3834 186.487 27.5894C186.496 27.8094 186.467 28.0292 186.399 28.2389C186.343 28.4368 186.248 28.6216 186.12 28.7826C185.996 28.9374 185.838 29.0613 185.658 29.1446C185.461 29.2344 185.247 29.2833 185.029 29.2885C184.765 29.2937 184.502 29.2558 184.25 29.1762C184.004 29.1034 183.769 28.9984 183.55 28.8639C183.333 28.7311 183.149 28.5514 183.011 28.3381C182.865 28.105 182.777 27.8404 182.753 27.5663C182.726 27.2124 182.769 26.8567 182.88 26.5197L180.264 25.7445C180.064 26.4171 180.001 27.0269 180.076 27.5739C180.139 28.0902 180.314 28.5865 180.589 29.0282C180.859 29.4556 181.209 29.8276 181.618 30.1242C182.037 30.4321 182.493 30.6871 182.975 30.8833L182.481 32.5486L183.924 32.9772L184.419 31.3037C184.94 31.4115 185.474 31.4452 186.004 31.4037C186.436 31.3713 186.859 31.2663 187.256 31.0932C187.286 31.0793 187.316 31.0654 187.344 31.0523C187.74 30.8609 188.092 30.5877 188.375 30.2505C188.677 29.8832 188.9 29.4567 189.028 28.9984Z" fill="#FFA412"/>
<path d="M152.566 37.0491L148.492 35.9573C147.399 35.6645 146.276 36.3129 145.984 37.4054L144.46 43.0911C144.167 44.1836 144.816 45.3065 145.908 45.5993L149.983 46.6911C151.075 46.9838 152.198 46.3355 152.491 45.243L154.014 39.5572C154.307 38.4647 153.659 37.3418 152.566 37.0491Z" fill="#22BAAF"/>
<path d="M152.566 37.0491L148.492 35.9573C147.399 35.6645 146.276 36.3129 145.984 37.4054L145.135 40.5735C144.842 41.666 145.49 42.789 146.583 43.0817L150.657 44.1735C151.75 44.4662 152.873 43.8179 153.166 42.7254L154.014 39.5572C154.307 38.4647 153.659 37.3418 152.566 37.0491Z" fill="#45E0D5"/>
<path d="M198.386 54.4925C197.632 57.3156 196.316 59.9572 194.516 62.2587C189.266 68.9833 180.289 72.3162 171.564 69.9782L165.516 68.3576C157.795 66.2888 152.128 60.2779 150.102 53.0689C149.176 49.7795 149.038 46.3186 149.698 42.9658C150.358 39.613 151.797 36.4626 153.9 33.7693C159.155 27.0477 168.128 23.7074 176.853 26.0454L182.902 27.666C190.836 29.792 196.601 36.0832 198.475 43.5599C199.378 47.1519 199.348 50.9155 198.386 54.4925Z" fill="#22BAAF"/>
<path d="M177.549 61.959L172.142 74.2418C172.019 74.457 171.947 74.6977 171.931 74.9453C171.916 75.1928 171.957 75.4406 172.053 75.6695C172.148 75.8985 172.294 76.1026 172.481 76.266C172.668 76.4294 172.889 76.5478 173.129 76.6122L178.314 78.0017C178.86 78.1477 179.434 78.1409 179.976 77.982C180.517 77.823 181.005 77.5181 181.384 77.1006L193.752 63.1825L177.549 61.959Z" fill="#22BAAF"/>
<path d="M165.683 59.013L163.892 72.0296C163.891 72.2776 163.833 72.5221 163.723 72.7442C163.613 72.9663 163.453 73.1602 163.256 73.3108C163.059 73.4615 162.83 73.5649 162.587 73.6131C162.343 73.6614 162.092 73.6532 161.853 73.5891L156.667 72.1996C156.123 72.0525 155.631 71.759 155.243 71.351C154.854 70.9431 154.586 70.4364 154.466 69.8862L150.102 53.0688L165.683 59.013Z" fill="#22BAAF"/>
<path d="M201.885 61.5929C201.764 61.5608 201.648 61.5128 201.539 61.4501C200.686 60.9628 200.454 59.7238 200.934 58.2182C201.406 56.7417 202.454 55.3348 203.812 54.3465C204.41 53.9127 205.064 53.5633 205.756 53.3082C205.591 52.7386 205.318 52.2062 204.951 51.7402C204.274 50.877 203.447 50.4596 202.424 50.4629C199.675 50.4721 196.52 53.5553 196.233 53.9187C196.159 54 196.058 54.0517 195.949 54.0641C195.84 54.0766 195.73 54.049 195.639 53.9865C195.549 53.924 195.484 53.8308 195.457 53.7242C195.43 53.6176 195.443 53.5049 195.493 53.4069C195.63 53.1992 196.556 52.2815 197.734 51.4297C199.783 49.9559 201.32 49.5999 202.249 49.5619C203.625 49.5061 204.773 50.0501 205.659 51.1793C206.094 51.7312 206.419 52.3609 206.618 53.0345C207.67 52.7762 208.759 52.7028 209.837 52.8173C209.942 52.8432 210.035 52.9062 210.099 52.9949C210.162 53.0835 210.191 53.1919 210.181 53.3003C210.171 53.4087 210.122 53.5099 210.044 53.5854C209.965 53.661 209.862 53.7058 209.754 53.7118C208.768 53.6061 207.771 53.6753 206.809 53.9163C206.894 54.6076 206.872 55.3077 206.744 55.9922C206.461 57.518 205.783 58.9431 204.779 60.1259C203.773 61.2935 202.721 61.8169 201.885 61.5929ZM205.928 54.2066C205.363 54.4287 204.829 54.7209 204.338 55.0764C203.132 55.9505 202.203 57.1964 201.789 58.4943C201.46 59.5234 201.539 60.4206 201.988 60.6756C202.437 60.9306 203.306 60.4694 204.102 59.548C204.998 58.4861 205.604 57.2105 205.862 55.8452C205.958 55.3045 205.98 54.7533 205.928 54.2066ZM196.24 53.9125L196.238 53.9199C196.238 53.9199 196.238 53.9107 196.24 53.9096L196.24 53.9125Z" fill="#22BAAF"/>
<path d="M198.473 43.5642C198.323 46.1376 196.993 49.5202 195.855 51.1944C188.296 62.3314 177.669 61.8564 167.159 60.0417C159.695 58.753 150.102 53.0689 150.102 53.0689C149.176 49.7795 149.038 46.3186 149.698 42.9658C150.358 39.613 151.797 36.4626 153.9 33.7693C159.155 27.0477 168.128 23.7074 176.853 26.0454L182.902 27.666C190.836 29.792 196.6 36.0876 198.473 43.5642Z" fill="#45E0D5"/>
<path d="M172.938 30.6814L164.617 28.4519C163.778 28.2271 163.235 27.5361 163.403 26.9075L166.447 15.5476C166.497 15.3602 166.605 15.193 166.754 15.0689C167.317 14.593 168.453 14.6293 169.128 15.2946C171.808 17.9307 175.94 23.2089 174.781 29.8731C174.661 30.5463 173.816 30.9168 172.938 30.6814Z" fill="#45E0D5"/>
<path d="M164.956 28.5427L164.617 28.4518C163.778 28.2269 163.234 27.536 163.403 26.9073L166.447 15.5474C166.497 15.36 166.604 15.1928 166.754 15.0687C166.782 15.1093 166.807 15.1517 166.829 15.1955C168.097 17.6915 169.643 22.3429 167.426 27.6829C167.103 28.4598 166.035 28.8318 164.956 28.5427Z" fill="#22BAAF"/>
<path d="M158.535 34.9612C158.601 34.716 158.738 34.4958 158.928 34.3284C159.119 34.161 159.356 34.054 159.607 34.0209C159.859 33.9877 160.115 34.03 160.342 34.1423C160.57 34.2545 160.759 34.4318 160.886 34.6517C161.013 34.8715 161.072 35.1241 161.056 35.3774C161.039 35.6307 160.948 35.8734 160.793 36.0748C160.639 36.2762 160.428 36.4272 160.187 36.5088C159.947 36.5904 159.688 36.5989 159.443 36.5332C159.114 36.4451 158.833 36.23 158.663 35.9352C158.493 35.6404 158.447 35.29 158.535 34.9612Z" fill="#2B478B"/>
<path d="M183.213 142.608L110.859 130.291L110.681 131.336L183.035 143.653L183.213 142.608Z" fill="#CCE7FF"/>
<path d="M183.777 143.781L109.94 131.211L109.763 132.257L183.599 144.826L183.777 143.781Z" fill="#4D98D3"/>
<path d="M184.616 144.999L108.743 132.083L108.565 133.128L184.438 146.044L184.616 144.999Z" fill="#4EA3E7"/>
<path d="M187.019 102.122L119.353 90.6031L112.547 130.58L180.213 142.099L187.019 102.122Z" fill="#4EA3E7"/>
<path d="M191.483 103.666L115.209 90.6816L157.391 77.6104L191.483 103.666Z" fill="#CCE7FF"/>
<path d="M127.234 90.0259L180.371 98.9565L156.771 81.0841L127.234 90.0259Z" fill="#1771B9"/>
<path d="M189.863 103.39L117.199 91.0203L116.912 92.705L189.576 105.075L189.863 103.39Z" fill="#4EA3E7"/>
<path d="M129.882 92.3957L122.725 91.1772L122.285 93.7603L129.442 94.9787L129.882 92.3957Z" fill="#CCE7FF"/>
<path d="M127.837 94.7053L123.892 94.0337L117.526 131.427L121.471 132.099L127.837 94.7053Z" fill="#CCE7FF"/>
<path d="M145.348 95.0286L138.19 93.8102L137.751 96.3932L144.908 97.6117L145.348 95.0286Z" fill="#CCE7FF"/>
<path d="M143.301 97.3381L139.356 96.6665L132.991 134.06L136.936 134.732L143.301 97.3381Z" fill="#CCE7FF"/>
<path d="M169.66 99.1674L162.503 97.949L162.063 100.532L169.221 101.75L169.66 99.1674Z" fill="#CCE7FF"/>
<path d="M167.614 101.477L163.669 100.805L157.303 138.199L161.248 138.87L167.614 101.477Z" fill="#CCE7FF"/>
<path d="M184.223 101.646L177.065 100.428L176.626 103.011L183.783 104.229L184.223 101.646Z" fill="#CCE7FF"/>
<path d="M182.176 103.956L178.231 103.284L171.866 140.678L175.811 141.35L182.176 103.956Z" fill="#CCE7FF"/>
<path d="M156.182 89.7712C156.205 89.664 156.208 89.5535 156.192 89.4452C156.173 89.3443 156.132 89.2489 156.072 89.166C156 89.0673 155.914 88.9797 155.817 88.9057C155.685 88.8067 155.545 88.7175 155.4 88.6389C155.139 88.491 154.886 88.3296 154.642 88.1553C154.433 88.0095 154.245 87.8356 154.084 87.6385C153.939 87.4597 153.834 87.2528 153.774 87.0309C153.667 86.5541 153.752 86.0544 154.011 85.6398C154.134 85.4595 154.294 85.3068 154.479 85.1915C154.676 85.0688 154.894 84.9822 155.121 84.9358C155.378 84.8832 155.641 84.87 155.902 84.8968L156.073 83.9807L156.811 84.1168L156.638 85.0461C156.882 85.1186 157.113 85.23 157.321 85.3762C157.512 85.5143 157.674 85.6896 157.796 85.8915C157.918 86.0935 157.998 86.318 158.032 86.5516C158.07 86.8164 158.063 87.0858 158.01 87.3481L156.678 87.1004C156.751 86.8289 156.72 86.5399 156.591 86.2899C156.53 86.1907 156.448 86.1061 156.35 86.0425C156.253 85.9788 156.142 85.9375 156.027 85.9217C155.906 85.8956 155.781 85.8927 155.659 85.9129C155.56 85.9293 155.466 85.968 155.384 86.0261C155.307 86.0812 155.243 86.1533 155.199 86.2369C155.15 86.325 155.117 86.4202 155.098 86.5189C155.078 86.617 155.075 86.7179 155.091 86.8168C155.108 86.9138 155.147 87.0055 155.205 87.0846C155.28 87.1837 155.368 87.2713 155.468 87.3446C155.604 87.4484 155.747 87.5441 155.895 87.6312C156.166 87.7955 156.422 87.9617 156.644 88.1237C156.852 88.2715 157.039 88.4473 157.2 88.6461C157.343 88.8257 157.449 89.033 157.509 89.2551C157.615 89.7354 157.527 90.2384 157.263 90.6537C157.142 90.8414 156.981 91.0004 156.792 91.1194C156.595 91.2391 156.379 91.3218 156.152 91.3635C155.893 91.4113 155.629 91.4222 155.367 91.3959L155.209 92.2484L154.475 92.1115L154.633 91.2634C154.385 91.1918 154.147 91.0899 153.923 90.9601C153.706 90.8341 153.514 90.6685 153.357 90.4719C153.198 90.2673 153.086 90.0308 153.027 89.7784C152.961 89.4778 152.96 89.1666 153.024 88.8655L154.358 89.1121C154.321 89.2842 154.317 89.4619 154.348 89.6354C154.375 89.7666 154.432 89.8899 154.514 89.9957C154.593 90.0941 154.693 90.1735 154.806 90.228C154.922 90.2831 155.044 90.3225 155.169 90.3451C155.298 90.3715 155.43 90.3768 155.56 90.3607C155.666 90.3483 155.768 90.3149 155.861 90.2624C155.946 90.2124 156.017 90.1431 156.07 90.0602C156.127 89.9726 156.165 89.8742 156.182 89.7712Z" fill="#CCE7FF"/>
<path d="M148.669 120.948L149.541 121.096C150.692 121.292 151.718 121.938 152.393 122.89C153.068 123.843 153.337 125.024 153.141 126.175L151.269 137.17L141.452 135.499L143.278 124.77C143.486 123.548 144.171 122.459 145.182 121.742C146.193 121.026 147.447 120.74 148.669 120.948Z" fill="#1771B9"/>
<path d="M145.841 104.917L146.254 104.987C146.524 105.032 146.783 105.129 147.015 105.274C147.247 105.419 147.448 105.608 147.607 105.831C147.766 106.054 147.879 106.306 147.941 106.573C148.002 106.84 148.01 107.116 147.964 107.386L147.08 112.576L142.442 111.787L143.304 106.723C143.403 106.148 143.725 105.636 144.201 105.297C144.676 104.959 145.266 104.823 145.841 104.917Z" fill="#1771B9"/>
<path d="M132.271 102.607L132.684 102.677C133.227 102.77 133.711 103.074 134.03 103.524C134.349 103.973 134.476 104.531 134.384 105.074L133.5 110.265L128.864 109.476L129.726 104.411C129.826 103.835 130.15 103.322 130.627 102.984C131.103 102.646 131.695 102.51 132.271 102.607Z" fill="#1771B9"/>
<path d="M129.626 118.147L130.039 118.217C130.582 118.31 131.066 118.614 131.385 119.064C131.703 119.513 131.83 120.071 131.738 120.614L130.854 125.805L126.219 125.016L127.081 119.952C127.181 119.376 127.504 118.862 127.981 118.524C128.458 118.186 129.049 118.051 129.626 118.147Z" fill="#1771B9"/>
<path d="M171.597 109.301L172.006 109.371C172.549 109.463 173.033 109.768 173.352 110.217C173.671 110.667 173.798 111.225 173.705 111.768L172.822 116.959L168.191 116.17L169.053 111.106C169.152 110.53 169.476 110.017 169.953 109.679C170.43 109.34 171.021 109.205 171.597 109.301Z" fill="#1771B9"/>
<path d="M168.952 124.842L169.36 124.911C169.904 125.004 170.388 125.308 170.706 125.758C171.025 126.207 171.152 126.765 171.06 127.308L170.176 132.499L165.545 131.71L166.407 126.646C166.507 126.07 166.83 125.557 167.307 125.219C167.784 124.881 168.375 124.745 168.952 124.842Z" fill="#1771B9"/>
<path d="M157.57 106.914L157.983 106.984C158.526 107.076 159.01 107.381 159.329 107.83C159.648 108.28 159.775 108.837 159.682 109.381L158.799 114.571L154.163 113.782L155.025 108.718C155.125 108.142 155.449 107.629 155.925 107.291C156.402 106.953 156.994 106.817 157.57 106.914Z" fill="#1771B9"/>
<path d="M99.5235 6.70518C99.5235 6.70518 98.1346 10.1844 96.2124 10.6938C94.2903 11.2031 91.0029 10.5016 91.0029 10.5016C91.0029 10.5016 88.2703 6.97811 89.098 5.13782C89.098 5.13782 90.1774 4.31793 91.6649 4.94516C91.9529 5.06737 92.2251 5.22391 92.4756 5.41137C92.816 5.67426 93.2278 5.82827 93.6572 5.85323C95.1374 5.93804 96.5348 4.55403 97.3774 5.35858C97.7899 5.75063 98.2511 6.08806 98.7497 6.36258C98.9975 6.49842 99.2564 6.61304 99.5235 6.70518Z" fill="#FFEDDC"/>
<path d="M77.2341 34.7726C77.2341 34.7726 80.3059 14.9109 93.633 11.3192C93.633 11.3192 106.346 9.69324 111.159 26.546L77.2341 34.7726Z" fill="#FFEDDC"/>
<path d="M90.0932 12.762C90.0932 12.762 95.7574 12.6541 97.2463 11.5493C97.2463 11.5493 96.9515 9.24025 94.7638 10.1043C93.2677 10.6959 92.0779 10.1974 91.4114 10.0381C90.466 9.81104 89.641 11.8753 90.0932 12.762Z" fill="#DB6A1D"/>
<path d="M93.949 8.23957C93.6689 8.58655 91.668 4.94421 91.668 4.94421C91.956 5.06643 92.2282 5.22296 92.4787 5.41042C92.8191 5.67332 93.2309 5.82733 93.6603 5.85229C93.6839 5.96099 94.2214 7.90699 93.949 8.23957Z" fill="#E5C1A1"/>
<path d="M98.748 6.36284C98.6821 6.42487 96.5577 8.51681 96.2203 8.59862C95.8829 8.68043 97.3756 5.35884 97.3756 5.35884C97.7882 5.7509 98.2494 6.08833 98.748 6.36284Z" fill="#E5C1A1"/>
<path d="M83.2894 27.9652C83.1225 27.8815 86.6294 18.7216 88.1059 18.3022C89.5823 17.8827 93.358 18.8426 95.8388 18.4908C98.3196 18.139 100.501 16.8746 101.307 18.196C102.113 19.5173 104.606 24.2906 104.029 25.2913C103.453 26.2921 86.88 29.7848 83.2894 27.9652Z" fill="#F9DDBF"/>
<path d="M123.532 61.7027L124.02 63.7151C124.056 63.8737 124.037 64.0401 123.965 64.186C123.885 64.3496 123.759 64.4867 123.603 64.5808C123.552 64.6125 123.499 64.6399 123.444 64.6626C123.392 64.6836 123.338 64.7008 123.284 64.714L85.1347 73.9649C84.6734 74.0767 84.2189 73.8827 84.0603 73.5277C84.0501 73.5034 84.0413 73.4785 84.0338 73.4532C84.0306 73.44 84.0274 73.4268 84.0242 73.4137L83.5362 71.4012C83.533 71.3881 83.5302 71.3762 83.527 71.363C83.522 71.3371 83.5185 71.311 83.5163 71.2847C83.4948 70.8964 83.8099 70.5158 84.2712 70.4039L122.42 61.1531C122.475 61.1392 122.53 61.1299 122.586 61.1253C122.646 61.1198 122.705 61.1193 122.765 61.124C122.947 61.1362 123.121 61.2004 123.267 61.3091C123.398 61.4059 123.492 61.5449 123.532 61.7027Z" fill="#FFB93E"/>
<path d="M105.474 69.0329L85.0361 73.9889C84.8605 74.0336 84.6752 74.0205 84.5077 73.9515C84.3401 73.8826 84.1993 73.7614 84.1061 73.606C84.0899 73.5808 84.0756 73.5544 84.0632 73.5271C84.0531 73.5028 84.0442 73.4779 84.0368 73.4526C84.0336 73.4394 84.0304 73.4262 84.0272 73.413L83.5392 71.4006C83.536 71.3874 83.5331 71.3756 83.5299 71.3624C83.525 71.3365 83.5214 71.3103 83.5193 71.2841C83.5177 71.2537 83.5182 71.2232 83.5209 71.193C83.5327 71.0123 83.6025 70.8402 83.7199 70.7024C83.8373 70.5645 83.9961 70.4683 84.1726 70.4279L102.096 66.0817C102.831 67.4393 104.03 68.487 105.474 69.0329Z" fill="#FFA412"/>
<path d="M118.701 62.0549L118.268 62.16L119.131 65.721L119.565 65.6158L118.701 62.0549Z" fill="#FFA412"/>
<path d="M117.232 62.4108L116.799 62.516L117.662 66.0769L118.096 65.9718L117.232 62.4108Z" fill="#FFA412"/>
<path d="M115.474 62.8375L115.04 62.9426L115.904 66.5036L116.337 66.3984L115.474 62.8375Z" fill="#FFA412"/>
<path d="M112.775 63.4915L112.342 63.5967L113.205 67.1576L113.639 67.0525L112.775 63.4915Z" fill="#FFA412"/>
<path d="M109.923 64.1836L109.489 64.2887L110.353 67.8496L110.786 67.7445L109.923 64.1836Z" fill="#FFA412"/>
<path d="M105.55 65.2441L105.116 65.3492L105.98 68.9102L106.413 68.805L105.55 65.2441Z" fill="#FFA412"/>
<path d="M101.454 66.2368L101.021 66.3419L101.884 69.9029L102.318 69.7977L101.454 66.2368Z" fill="#FFA412"/>
<path d="M97.7978 67.1239L97.3643 67.229L98.2278 70.7899L98.6613 70.6848L97.7978 67.1239Z" fill="#FFA412"/>
<path d="M120.099 61.7161L119.665 61.8213L120.529 65.3822L120.962 65.2771L120.099 61.7161Z" fill="#FFA412"/>
<path d="M121.021 61.492L120.588 61.5972L121.451 65.1581L121.885 65.053L121.021 61.492Z" fill="#FFA412"/>
<path d="M121.912 61.2761L121.479 61.3812L122.342 64.9422L122.776 64.837L121.912 61.2761Z" fill="#FFA412"/>
<path d="M122.586 61.1253L123.444 64.6612C123.392 64.6833 123.338 64.701 123.283 64.714L123.013 64.7795L122.15 61.2212L122.421 61.1557C122.475 61.1416 122.53 61.1314 122.586 61.1253Z" fill="#FFA412"/>
<path d="M123.266 61.3089L123.964 64.1859C123.884 64.35 123.759 64.4872 123.602 64.5806L122.764 61.1238C122.945 61.136 123.12 61.2002 123.266 61.3089Z" fill="#FFA412"/>
<path d="M118.588 59.1312L119.076 61.1422C119.113 61.3007 119.095 61.4672 119.024 61.6139C118.945 61.7788 118.818 61.9164 118.661 62.0089C118.609 62.0399 118.556 62.0669 118.5 62.0897C118.449 62.1112 118.395 62.1287 118.341 62.1422L80.191 71.3933C79.731 71.5049 79.2762 71.3096 79.1192 70.9555C79.1088 70.9317 79.0996 70.9074 79.0917 70.8827C79.0885 70.8695 79.0854 70.8563 79.0818 70.8418L78.5938 68.8294C78.5906 68.8162 78.5875 68.803 78.5843 68.7898C78.5799 68.7642 78.5769 68.7384 78.5753 68.7125C78.5524 68.3246 78.8675 67.9439 79.3275 67.8324L117.478 58.5813L117.552 58.5634L117.577 58.5573L117.611 58.549L117.635 58.5432C117.694 58.5368 117.754 58.5362 117.814 58.5415C117.848 58.5442 117.882 58.5486 117.915 58.5547L117.981 58.568L118.02 58.5795L118.055 58.5906C118.101 58.6043 118.145 58.623 118.187 58.6465L118.227 58.6675L118.25 58.6814C118.25 58.6814 118.258 58.6795 118.262 58.6898L118.273 58.6954C118.288 58.7047 118.303 58.7151 118.317 58.7267C118.452 58.8252 118.548 58.9685 118.588 59.1312Z" fill="#FFB93E"/>
<path d="M100.531 66.461L80.0921 71.4173C79.9163 71.462 79.7308 71.4487 79.5632 71.3795C79.3956 71.3103 79.2548 71.1888 79.1617 71.0331C79.1471 71.0074 79.1325 70.9816 79.1202 70.9539C79.1098 70.9301 79.1006 70.9058 79.0927 70.881C79.0895 70.8678 79.0863 70.8547 79.0828 70.8402L78.5952 68.8291C78.592 68.8159 78.5888 68.8027 78.5856 68.7895C78.5812 68.7639 78.5782 68.7381 78.5766 68.7122C78.5695 68.6832 78.5757 68.651 78.5769 68.6214C78.5884 68.4405 78.658 68.2682 78.7754 68.1301C78.8927 67.992 79.0516 67.8955 79.2283 67.855L97.1516 63.5088C97.1665 63.5359 97.1815 63.5629 97.1981 63.591C97.9359 64.9108 99.1165 65.9274 100.531 66.461Z" fill="#FFA412"/>
<path d="M113.758 59.4817L113.324 59.5868L114.188 63.1477L114.621 63.0426L113.758 59.4817Z" fill="#FFA412"/>
<path d="M112.29 59.8379L111.856 59.943L112.72 63.5039L113.154 63.3988L112.29 59.8379Z" fill="#FFA412"/>
<path d="M110.531 60.2644L110.098 60.3695L110.961 63.9304L111.395 63.8253L110.531 60.2644Z" fill="#FFA412"/>
<path d="M107.833 60.9187L107.399 61.0238L108.263 64.5847L108.697 64.4796L107.833 60.9187Z" fill="#FFA412"/>
<path d="M104.98 61.6104L104.547 61.7156L105.41 65.2765L105.844 65.1714L104.98 61.6104Z" fill="#FFA412"/>
<path d="M100.606 62.6709L100.173 62.776L101.036 66.3369L101.47 66.2318L100.606 62.6709Z" fill="#FFA412"/>
<path d="M96.5117 63.6638L96.0781 63.7689L96.9416 67.3299L97.3752 67.2247L96.5117 63.6638Z" fill="#FFA412"/>
<path d="M92.8555 64.5505L92.4219 64.6556L93.2854 68.2166L93.719 68.1114L92.8555 64.5505Z" fill="#FFA412"/>
<path d="M115.154 59.143L114.721 59.2482L115.584 62.8091L116.018 62.704L115.154 59.143Z" fill="#FFA412"/>
<path d="M116.078 58.9189L115.645 59.024L116.508 62.585L116.942 62.4798L116.078 58.9189Z" fill="#FFA412"/>
<path d="M116.97 58.703L116.536 58.8081L117.4 62.369L117.833 62.2639L116.97 58.703Z" fill="#FFA412"/>
<path d="M117.643 58.5522L118.501 62.0894C118.448 62.1105 118.395 62.1277 118.34 62.1409L118.07 62.2064L117.207 58.6481L117.477 58.5826C117.532 58.5684 117.587 58.5583 117.643 58.5522Z" fill="#FFA412"/>
<path d="M118.324 58.7318L119.021 61.6088C118.941 61.7724 118.815 61.9094 118.659 62.0036L117.822 58.552C118.003 58.562 118.177 58.6245 118.324 58.7318Z" fill="#FFA412"/>
<path d="M119.718 55.1844L120.206 57.1968C120.243 57.3551 120.225 57.5214 120.153 57.6674C120.072 57.8313 119.946 57.9685 119.79 58.0625C119.692 58.124 119.584 58.1689 119.472 58.1954L81.3214 67.4466C81.1749 67.482 81.0228 67.4871 80.8743 67.4615C80.7424 67.4427 80.617 67.3924 80.5087 67.315C80.4003 67.2376 80.3121 67.1353 80.2515 67.0167C80.2474 66.9996 80.2435 66.9837 80.2328 66.9682C80.2293 66.957 80.2265 66.9455 80.2245 66.9339C80.2213 66.9208 80.2181 66.9076 80.2149 66.8944L79.7269 64.882C79.7231 64.8694 79.72 64.8567 79.7176 64.8438C79.7128 64.8183 79.7093 64.7926 79.7073 64.7667C79.6854 64.3771 80.0009 63.9978 80.4608 63.8863L118.608 54.6358C118.663 54.6219 118.718 54.6127 118.773 54.6084C118.833 54.6022 118.892 54.6013 118.951 54.6057C119.134 54.619 119.308 54.6835 119.456 54.7918C119.586 54.8885 119.679 55.0272 119.718 55.1844Z" fill="#FFB93E"/>
<path d="M101.66 62.5088L81.2206 67.4651C81.089 67.4969 80.9518 67.4982 80.8196 67.4689C80.6955 67.4424 80.5793 67.3872 80.4803 67.3077C80.3813 67.2282 80.3023 67.1267 80.2496 67.0113C80.2454 66.9941 80.2416 66.9783 80.2308 66.9628C80.2274 66.9516 80.2246 66.9401 80.2225 66.9285C80.2193 66.9154 80.2161 66.9022 80.2129 66.889L79.7262 64.8818C79.7225 64.8693 79.7194 64.8565 79.717 64.8436C79.7121 64.8182 79.7087 64.7924 79.7067 64.7666C79.7051 64.7371 79.7059 64.7075 79.7089 64.6781C79.7192 64.4967 79.7882 64.3235 79.9056 64.1847C80.023 64.046 80.1824 63.9493 80.3597 63.9091L98.283 59.5629C98.9917 60.8719 100.132 61.8947 101.51 62.4571C101.56 62.4703 101.609 62.4903 101.66 62.5088Z" fill="#FFA412"/>
<path d="M114.887 55.5296L114.453 55.6348L115.317 59.1957L115.75 59.0906L114.887 55.5296Z" fill="#FFA412"/>
<path d="M113.419 55.8857L112.985 55.9908L113.849 59.5518L114.282 59.4466L113.419 55.8857Z" fill="#FFA412"/>
<path d="M111.66 56.3123L111.227 56.4175L112.09 59.9784L112.524 59.8733L111.66 56.3123Z" fill="#FFA412"/>
<path d="M108.963 56.9665L108.529 57.0717L109.393 60.6326L109.826 60.5275L108.963 56.9665Z" fill="#FFA412"/>
<path d="M106.109 57.6585L105.676 57.7637L106.539 61.3246L106.973 61.2195L106.109 57.6585Z" fill="#FFA412"/>
<path d="M101.734 58.7191L101.301 58.8242L102.164 62.3852L102.598 62.28L101.734 58.7191Z" fill="#FFA412"/>
<path d="M97.6406 59.712L97.207 59.8171L98.0705 63.3781L98.5041 63.2729L97.6406 59.712Z" fill="#FFA412"/>
<path d="M93.9844 60.5985L93.5508 60.7036L94.4143 64.2646L94.8479 64.1594L93.9844 60.5985Z" fill="#FFA412"/>
<path d="M116.284 55.191L115.851 55.2961L116.714 58.8571L117.148 58.7519L116.284 55.191Z" fill="#FFA412"/>
<path d="M117.207 54.9672L116.773 55.0724L117.637 58.6333L118.071 58.5282L117.207 54.9672Z" fill="#FFA412"/>
<path d="M118.1 54.7509L117.666 54.8561L118.53 58.417L118.963 58.3119L118.1 54.7509Z" fill="#FFA412"/>
<path d="M118.771 54.6017L119.628 58.1363C119.577 58.1577 119.524 58.1752 119.469 58.1887L119.198 58.2546L118.335 54.6963L118.606 54.6304C118.66 54.6161 118.716 54.6065 118.771 54.6017Z" fill="#FFA412"/>
<path d="M119.454 54.7851L120.152 57.6621C120.071 57.826 119.945 57.9632 119.788 58.0572L118.95 54.6003C119.133 54.6115 119.308 54.6757 119.454 54.7851Z" fill="#FFA412"/>
<path d="M119.768 51.3964L120.256 53.4075C120.293 53.5661 120.273 53.7325 120.201 53.8784C120.192 53.8982 120.183 53.9173 120.172 53.9358C120.116 54.034 120.042 54.1209 119.955 54.1921C119.917 54.2222 119.877 54.25 119.835 54.2755C119.784 54.3061 119.731 54.333 119.676 54.3559L119.598 54.3846L119.515 54.4048L81.37 63.6546C80.9088 63.7665 80.454 63.5712 80.2956 63.2175C80.2857 63.1936 80.2769 63.1691 80.2695 63.1443L79.763 61.0554C79.695 60.6714 79.9684 60.28 80.3978 60.1285C80.4347 60.1195 80.4716 60.1106 80.5085 60.1016L118.657 50.8508L118.74 50.8307C118.768 50.8263 118.796 50.8233 118.823 50.8217C119.065 50.7983 119.307 50.8631 119.504 51.0041C119.634 51.1007 119.728 51.2392 119.768 51.3964Z" fill="#FFB93E"/>
<path d="M101.709 58.7263L81.2715 63.6824C81.0957 63.7268 80.9103 63.7135 80.7427 63.6443C80.5751 63.5751 80.4343 63.4537 80.3411 63.2982C80.3249 63.2729 80.3106 63.2466 80.2982 63.2193C80.2883 63.1953 80.2795 63.1709 80.2721 63.1461L79.7649 61.0546C79.7357 60.8633 79.7745 60.6679 79.8746 60.5023C79.9747 60.3368 80.1298 60.2116 80.3127 60.1487C80.3457 60.1407 80.3773 60.133 80.4116 60.1247L98.3349 55.7785C99.0698 57.1339 100.267 58.1801 101.709 58.7263Z" fill="#FFA412"/>
<path d="M114.937 51.7473L114.504 51.8524L115.367 55.4134L115.801 55.3082L114.937 51.7473Z" fill="#FFA412"/>
<path d="M113.47 52.1029L113.036 52.208L113.9 55.7689L114.333 55.6638L113.47 52.1029Z" fill="#FFA412"/>
<path d="M111.709 52.5299L111.275 52.635L112.139 56.1959L112.572 56.0908L111.709 52.5299Z" fill="#FFA412"/>
<path d="M109.013 53.184L108.579 53.2892L109.443 56.8501L109.876 56.745L109.013 53.184Z" fill="#FFA412"/>
<path d="M106.159 53.8761L105.726 53.9812L106.589 57.5421L107.023 57.437L106.159 53.8761Z" fill="#FFA412"/>
<path d="M101.786 54.9365L101.353 55.0416L102.216 58.6026L102.65 58.4974L101.786 54.9365Z" fill="#FFA412"/>
<path d="M97.6914 55.9293L97.2578 56.0344L98.1213 59.5954L98.5549 59.4902L97.6914 55.9293Z" fill="#FFA412"/>
<path d="M94.0342 56.8161L93.6006 56.9213L94.4641 60.4822L94.8977 60.3771L94.0342 56.8161Z" fill="#FFA412"/>
<path d="M116.335 51.4087L115.901 51.5138L116.765 55.0747L117.198 54.9696L116.335 51.4087Z" fill="#FFA412"/>
<path d="M117.259 51.1844L116.825 51.2896L117.689 54.8505L118.122 54.7453L117.259 51.1844Z" fill="#FFA412"/>
<path d="M118.149 50.9686L117.716 51.0737L118.579 54.6347L119.013 54.5295L118.149 50.9686Z" fill="#FFA412"/>
<path d="M118.823 50.8177L119.681 54.3562C119.628 54.3773 119.575 54.3945 119.52 54.4077L119.256 54.4716L118.394 50.9133L118.657 50.8494C118.711 50.8348 118.767 50.8242 118.823 50.8177Z" fill="#FFA412"/>
<path d="M119.504 51.0023L120.202 53.8779C120.121 54.0418 119.995 54.179 119.838 54.273L119 50.8162C119.182 50.8283 119.358 50.893 119.504 51.0023Z" fill="#FFA412"/>
<path d="M116.104 48.526L116.591 50.5358C116.628 50.6943 116.61 50.8608 116.539 51.0074C116.459 51.1719 116.332 51.3093 116.175 51.4028C116.125 51.4346 116.072 51.4614 116.017 51.4829C116 51.4912 115.983 51.4982 115.965 51.504L115.958 51.5055L115.929 51.5126L77.7103 60.7803C77.2174 60.8999 76.7336 60.6711 76.6095 60.2687C76.6063 60.2555 76.6031 60.2423 76.5996 60.2278L76.1135 58.2233C76.1103 58.2101 76.1068 58.1956 76.1036 58.1824C76.1004 58.1721 76.0978 58.1615 76.0959 58.1508C76.0849 57.9724 76.1298 57.795 76.2243 57.6433C76.3188 57.4916 76.4582 57.3731 76.6232 57.3043L76.6509 57.2976C76.7138 57.2689 76.7793 57.246 76.8464 57.2293L114.994 47.9788C115.021 47.9708 115.048 47.9642 115.076 47.9589L115.111 47.9503L115.155 47.9398C115.214 47.935 115.273 47.9346 115.332 47.9387C115.515 47.9505 115.69 48.0151 115.837 48.1245C115.97 48.2231 116.064 48.3652 116.104 48.526Z" fill="#FFB93E"/>
<path d="M98.0412 55.8498L77.6047 60.8055C77.4009 60.8604 77.1838 60.8355 76.9976 60.736C76.8115 60.6365 76.6703 60.4698 76.6027 60.2699C76.5995 60.2567 76.5963 60.2435 76.5928 60.229L76.1067 58.2245C76.1035 58.2113 76.1 58.1968 76.0968 58.1836C76.0936 58.1733 76.091 58.1627 76.0891 58.152C76.0687 57.9802 76.1036 57.8063 76.1888 57.6556C76.274 57.505 76.405 57.3854 76.5627 57.3143C76.5733 57.3075 76.5846 57.302 76.5964 57.2978C76.6427 57.2777 76.6905 57.2614 76.7395 57.2491L94.6628 52.9029C94.6676 52.9109 94.6719 52.9192 94.6758 52.9276C95.4094 54.2702 96.5974 55.3075 98.0267 55.8533C98.0267 55.8533 98.0393 55.8475 98.0412 55.8498Z" fill="#FFA412"/>
<path d="M111.27 48.8717L110.837 48.9768L111.7 52.5377L112.134 52.4326L111.27 48.8717Z" fill="#FFA412"/>
<path d="M109.803 49.2277L109.369 49.3329L110.233 52.8938L110.666 52.7887L109.803 49.2277Z" fill="#FFA412"/>
<path d="M108.043 49.6544L107.609 49.7595L108.473 53.3205L108.906 53.2153L108.043 49.6544Z" fill="#FFA412"/>
<path d="M105.346 50.3086L104.912 50.4137L105.776 53.9746L106.209 53.8695L105.346 50.3086Z" fill="#FFA412"/>
<path d="M102.492 51.0003L102.059 51.1055L102.922 54.6664L103.356 54.5613L102.492 51.0003Z" fill="#FFA412"/>
<path d="M98.1201 52.0609L97.6865 52.166L98.55 55.727L98.9836 55.6218L98.1201 52.0609Z" fill="#FFA412"/>
<path d="M94.0234 53.0539L93.5898 53.1591L94.4533 56.72L94.8869 56.6149L94.0234 53.0539Z" fill="#FFA412"/>
<path d="M90.3662 53.9406L89.9326 54.0458L90.7961 57.6067L91.2297 57.5016L90.3662 53.9406Z" fill="#FFA412"/>
<path d="M112.668 48.5329L112.234 48.6381L113.098 52.199L113.531 52.0939L112.668 48.5329Z" fill="#FFA412"/>
<path d="M113.591 48.3092L113.157 48.4143L114.021 51.9752L114.454 51.8701L113.591 48.3092Z" fill="#FFA412"/>
<path d="M114.482 48.093L114.049 48.1981L114.912 51.7591L115.346 51.6539L114.482 48.093Z" fill="#FFA412"/>
<path d="M115.154 47.9424L116.011 51.4783C115.96 51.4993 115.906 51.5164 115.852 51.5295L115.581 51.5953L114.718 48.037L114.991 47.9709C115.044 47.9574 115.099 47.9479 115.154 47.9424Z" fill="#FFA412"/>
<path d="M115.837 48.1257L116.534 51.0026C116.455 51.1668 116.329 51.304 116.172 51.3974L115.334 47.9406C115.516 47.9527 115.69 48.017 115.837 48.1257Z" fill="#FFA412"/>
<path d="M115.163 45.0046L115.65 47.0144C115.687 47.1729 115.669 47.3394 115.598 47.486C115.579 47.5249 115.557 47.5628 115.534 47.5993C115.455 47.7134 115.354 47.8095 115.235 47.8811C115.195 47.9056 115.154 47.9277 115.112 47.9473L115.076 47.9559C115.025 47.9781 114.971 47.9956 114.917 48.0084L76.7641 57.2602C76.7259 57.2695 76.6851 57.2794 76.6455 57.289L76.5991 57.2932C76.196 57.3282 75.8243 57.1365 75.6895 56.8161C75.6801 56.7949 75.6721 56.7731 75.6653 56.7508C75.6617 56.7363 75.6585 56.7232 75.6553 56.71L75.1686 54.7028C75.1651 54.6883 75.1619 54.6752 75.1587 54.662C75.1544 54.6364 75.1514 54.6105 75.1497 54.5846C75.1268 54.1967 75.442 53.8161 75.9019 53.7045L114.052 44.4534L114.126 44.4355L114.156 44.4281L114.191 44.4198C114.198 44.4165 114.206 44.4146 114.214 44.4141C114.274 44.4083 114.334 44.4077 114.394 44.4124C114.428 44.415 114.461 44.4195 114.495 44.4256C114.622 44.4479 114.744 44.4958 114.853 44.5663L114.897 44.5975C115.03 44.6977 115.124 44.8419 115.163 45.0046Z" fill="#FFB93E"/>
<path d="M97.1058 52.3331L76.6192 57.3009L76.5665 57.3137C76.3878 57.3388 76.2058 57.3049 76.0481 57.2173C75.8904 57.1296 75.7655 56.9929 75.6924 56.828C75.6831 56.8067 75.675 56.7849 75.6682 56.7627C75.6647 56.7482 75.6615 56.735 75.6583 56.7218L75.1687 54.7028C75.1652 54.6883 75.162 54.6751 75.1588 54.6619C75.1545 54.6363 75.1515 54.6105 75.1498 54.5846C75.1428 54.5556 75.1493 54.5247 75.1504 54.4951C75.1618 54.3141 75.2314 54.1416 75.3487 54.0033C75.466 53.865 75.6248 53.7683 75.8015 53.7275L93.7248 49.3812C93.7401 49.4096 93.755 49.4367 93.7713 49.4634C94.5038 50.7693 95.67 51.7779 97.0678 52.3144C97.077 52.3233 97.0917 52.3267 97.1058 52.3331Z" fill="#FFA412"/>
<path d="M110.333 45.3552L109.899 45.4603L110.763 49.0213L111.197 48.9161L110.333 45.3552Z" fill="#FFA412"/>
<path d="M108.865 45.7113L108.432 45.8164L109.295 49.3773L109.729 49.2722L108.865 45.7113Z" fill="#FFA412"/>
<path d="M107.105 46.1379L106.672 46.243L107.535 49.804L107.969 49.6988L107.105 46.1379Z" fill="#FFA412"/>
<path d="M104.407 46.7921L103.974 46.8972L104.837 50.4582L105.271 50.353L104.407 46.7921Z" fill="#FFA412"/>
<path d="M101.554 47.484L101.12 47.5891L101.984 51.1501L102.417 51.0449L101.554 47.484Z" fill="#FFA412"/>
<path d="M97.1816 48.5443L96.748 48.6494L97.6115 52.2104L98.0451 52.1052L97.1816 48.5443Z" fill="#FFA412"/>
<path d="M93.0869 49.5372L92.6533 49.6423L93.5168 53.2033L93.9504 53.0981L93.0869 49.5372Z" fill="#FFA412"/>
<path d="M89.4297 50.4242L88.9961 50.5293L89.8596 54.0902L90.2932 53.9851L89.4297 50.4242Z" fill="#FFA412"/>
<path d="M111.729 45.0164L111.296 45.1216L112.159 48.6825L112.593 48.5774L111.729 45.0164Z" fill="#FFA412"/>
<path d="M112.653 44.7924L112.22 44.8976L113.083 48.4585L113.517 48.3534L112.653 44.7924Z" fill="#FFA412"/>
<path d="M113.545 44.5764L113.111 44.6815L113.975 48.2425L114.408 48.1373L113.545 44.5764Z" fill="#FFA412"/>
<path d="M114.218 44.4257L115.076 47.9616C115.024 47.9837 114.97 48.0014 114.915 48.0144L114.645 48.0799L113.782 44.5216L114.052 44.4561C114.107 44.442 114.162 44.4318 114.218 44.4257Z" fill="#FFA412"/>
<path d="M114.899 44.6094L115.597 47.4864C115.517 47.6505 115.391 47.7878 115.235 47.8811L114.396 44.4243C114.578 44.4365 114.753 44.5008 114.899 44.6094Z" fill="#FFA412"/>
<path d="M116.291 41.0527L116.778 43.0598C116.815 43.2185 116.797 43.3853 116.725 43.5318C116.644 43.6952 116.518 43.8319 116.361 43.9255C116.311 43.9575 116.258 43.9845 116.202 44.006C116.151 44.028 116.098 44.0456 116.043 44.0584L77.8929 53.3096C77.7466 53.3456 77.5943 53.3506 77.4458 53.3245C77.3139 53.3059 77.1884 53.2557 77.08 53.1783C76.9716 53.1009 76.8835 52.9984 76.8231 52.8797C76.8192 52.8639 76.8151 52.8467 76.8043 52.8312C76.8009 52.82 76.7981 52.8085 76.796 52.7969C76.7928 52.7838 76.7896 52.7706 76.7864 52.7574L76.2997 50.7503C76.2965 50.7371 76.293 50.7226 76.2898 50.7094C76.2851 50.6839 76.2816 50.6582 76.2795 50.6324C76.2579 50.2441 76.5731 49.8635 77.033 49.752L115.181 40.5015C115.235 40.4886 115.29 40.4799 115.346 40.4753C115.405 40.4703 115.465 40.4698 115.524 40.474C115.707 40.485 115.882 40.5498 116.028 40.6601C116.159 40.7566 116.252 40.8954 116.291 41.0527Z" fill="#FFB93E"/>
<path d="M98.2346 48.3812L77.7954 53.3376C77.6638 53.37 77.5265 53.3713 77.3944 53.3413C77.27 53.3154 77.1536 53.2604 77.0545 53.1809C76.9554 53.1014 76.8766 52.9995 76.8244 52.8837C76.8205 52.8679 76.8164 52.8507 76.8056 52.8352C76.8022 52.824 76.7994 52.8125 76.7973 52.8009C76.7941 52.7878 76.7909 52.7746 76.7877 52.7614L76.3001 50.7503C76.2969 50.7371 76.2934 50.7226 76.2902 50.7095C76.2854 50.684 76.2819 50.6583 76.2798 50.6324C76.2786 50.6029 76.2794 50.5734 76.2821 50.544C76.2928 50.3626 76.362 50.1896 76.4793 50.051C76.5967 49.9123 76.7558 49.8155 76.9329 49.775L94.8562 45.4287C95.5644 46.7385 96.7052 47.762 98.084 48.3242C98.1348 48.344 98.184 48.3628 98.2346 48.3812Z" fill="#FFA412"/>
<path d="M111.462 41.4032L111.028 41.5083L111.892 45.0692L112.325 44.9641L111.462 41.4032Z" fill="#FFA412"/>
<path d="M109.994 41.7594L109.561 41.8645L110.424 45.4254L110.858 45.3203L109.994 41.7594Z" fill="#FFA412"/>
<path d="M108.235 42.1858L107.802 42.2909L108.665 45.8518L109.099 45.7467L108.235 42.1858Z" fill="#FFA412"/>
<path d="M105.536 42.84L105.103 42.9452L105.966 46.5061L106.4 46.401L105.536 42.84Z" fill="#FFA412"/>
<path d="M102.684 43.5319L102.25 43.6371L103.113 47.198L103.547 47.0929L102.684 43.5319Z" fill="#FFA412"/>
<path d="M98.3096 44.5926L97.876 44.6978L98.7395 48.2587L99.1731 48.1536L98.3096 44.5926Z" fill="#FFA412"/>
<path d="M94.2139 45.5855L93.7803 45.6907L94.6438 49.2516L95.0774 49.1465L94.2139 45.5855Z" fill="#FFA412"/>
<path d="M90.5586 46.4719L90.125 46.577L90.9885 50.138L91.4221 50.0328L90.5586 46.4719Z" fill="#FFA412"/>
<path d="M112.858 41.0644L112.425 41.1696L113.288 44.7305L113.722 44.6254L112.858 41.0644Z" fill="#FFA412"/>
<path d="M113.781 40.8408L113.348 40.9459L114.211 44.5069L114.645 44.4017L113.781 40.8408Z" fill="#FFA412"/>
<path d="M114.674 40.6244L114.24 40.7295L115.104 44.2904L115.537 44.1853L114.674 40.6244Z" fill="#FFA412"/>
<path d="M115.347 40.4765L116.205 44.0137C116.153 44.0347 116.1 44.0518 116.046 44.0649L115.774 44.1307L114.911 40.5724L115.183 40.5066C115.237 40.4925 115.292 40.4825 115.347 40.4765Z" fill="#FFA412"/>
<path d="M116.028 40.6575L116.726 43.5344C116.646 43.6987 116.52 43.836 116.363 43.9295L115.524 40.4727C115.707 40.4849 115.881 40.549 116.028 40.6575Z" fill="#FFA412"/>
<path d="M118.545 36.7343L119.033 38.7454C119.07 38.9038 119.051 39.0699 118.98 39.2161L118.95 39.2734C118.906 39.3509 118.85 39.4214 118.785 39.4824C118.751 39.5141 118.715 39.5433 118.677 39.5698C118.659 39.5843 118.639 39.5975 118.619 39.6092C118.568 39.6411 118.515 39.668 118.46 39.6896C118.408 39.7112 118.355 39.7283 118.3 39.7408L80.1474 48.9926C79.6874 49.1041 79.2329 48.9101 79.0743 48.5551C79.0635 48.531 79.0547 48.5061 79.0478 48.4806C79.0446 48.4674 79.0414 48.4542 79.0382 48.441L78.5512 46.4326C78.548 46.4194 78.5448 46.4062 78.5416 46.393C78.4729 46.012 78.7458 45.6179 79.1767 45.4674C79.2118 45.4538 79.2478 45.4427 79.2845 45.4343L117.435 36.1831C117.489 36.1706 117.544 36.1614 117.6 36.1557C117.659 36.1519 117.719 36.1519 117.778 36.1556C117.94 36.1654 118.096 36.2158 118.233 36.3022C118.251 36.3136 118.268 36.3261 118.285 36.3398C118.414 36.4376 118.506 36.5769 118.545 36.7343Z" fill="#FFB93E"/>
<path d="M100.487 44.063L80.0495 49.019C79.8737 49.0641 79.688 49.0511 79.5203 48.9818C79.3526 48.9125 79.2118 48.7908 79.1191 48.6348C79.104 48.6095 79.0903 48.5835 79.0778 48.5569C79.0671 48.5328 79.0582 48.5079 79.0514 48.4824C79.0482 48.4692 79.045 48.456 79.0418 48.4428L78.5541 46.4317C78.5509 46.4185 78.5477 46.4054 78.5446 46.3922C78.5148 46.2012 78.5533 46.0059 78.6533 45.8405C78.7533 45.6752 78.9084 45.5503 79.0913 45.4879C79.1229 45.4752 79.1554 45.4649 79.1886 45.4574L97.1119 41.1111C97.1126 41.1133 97.1131 41.1155 97.1135 41.1177C97.8478 42.4728 99.0454 43.5183 100.487 44.063Z" fill="#FFA412"/>
<path d="M113.714 37.0852L113.28 37.1903L114.144 40.7513L114.577 40.6461L113.714 37.0852Z" fill="#FFA412"/>
<path d="M112.249 37.4408L111.815 37.5459L112.679 41.1068L113.113 41.0017L112.249 37.4408Z" fill="#FFA412"/>
<path d="M110.487 37.8678L110.054 37.9729L110.917 41.5338L111.351 41.4287L110.487 37.8678Z" fill="#FFA412"/>
<path d="M107.79 38.5218L107.356 38.627L108.22 42.1879L108.654 42.0828L107.79 38.5218Z" fill="#FFA412"/>
<path d="M104.937 39.2136L104.504 39.3187L105.367 42.8797L105.801 42.7745L104.937 39.2136Z" fill="#FFA412"/>
<path d="M100.562 40.2744L100.129 40.3795L100.992 43.9405L101.426 43.8353L100.562 40.2744Z" fill="#FFA412"/>
<path d="M96.4697 41.2672L96.0361 41.3723L96.8996 44.9333L97.3332 44.8281L96.4697 41.2672Z" fill="#FFA412"/>
<path d="M92.8115 42.154L92.3779 42.2592L93.2414 45.8201L93.675 45.715L92.8115 42.154Z" fill="#FFA412"/>
<path d="M115.113 36.7461L114.68 36.8512L115.543 40.4121L115.977 40.307L115.113 36.7461Z" fill="#FFA412"/>
<path d="M116.035 36.5223L115.602 36.6274L116.465 40.1884L116.899 40.0832L116.035 36.5223Z" fill="#FFA412"/>
<path d="M116.927 36.3064L116.493 36.4115L117.357 39.9724L117.79 39.8673L116.927 36.3064Z" fill="#FFA412"/>
<path d="M117.602 36.1621L118.459 39.698C118.408 39.7194 118.355 39.7369 118.3 39.7505L118.029 39.8163L117.166 36.258L117.438 36.1922C117.491 36.1774 117.546 36.1673 117.602 36.1621Z" fill="#FFA412"/>
<path d="M118.282 36.3403L118.98 39.2173C118.899 39.3812 118.773 39.5183 118.617 39.6123L117.778 36.1555C117.961 36.1667 118.136 36.2309 118.282 36.3403Z" fill="#FFA412"/>
<path d="M112.676 34.3944L113.163 36.4015C113.2 36.5596 113.182 36.7257 113.111 36.8718C113.031 37.037 112.904 37.1749 112.747 37.2685C112.697 37.3003 112.644 37.3271 112.589 37.3487L112.536 37.3684L112.53 37.3699L112.494 37.3786L74.2753 46.6463C74.1248 46.6877 73.9667 46.6931 73.8138 46.6621C73.6608 46.631 73.5173 46.5645 73.3948 46.4678C73.2902 46.3808 73.2136 46.2649 73.1745 46.1347C73.171 46.1202 73.1678 46.107 73.1646 46.0938L72.6794 44.0933C72.6759 44.0788 72.6727 44.0656 72.6695 44.0524C72.6091 43.7168 72.8135 43.3742 73.1585 43.1915C73.2391 43.1481 73.3248 43.1151 73.4137 43.0933L111.613 33.8303L111.637 33.8246C111.667 33.8182 111.698 33.814 111.73 33.8118C111.789 33.8057 111.848 33.8053 111.907 33.8107C111.936 33.8116 111.964 33.8149 111.993 33.8205C112.1 33.8373 112.203 33.8728 112.297 33.9253L112.31 33.9333C112.342 33.9512 112.373 33.9707 112.403 33.9918C112.538 34.0899 112.635 34.2323 112.676 34.3944Z" fill="#FFB93E"/>
<path d="M94.6165 41.7234L74.18 46.6791C74.0455 46.7127 73.905 46.7135 73.7701 46.6813C73.6353 46.6492 73.5102 46.585 73.4054 46.4944C73.2984 46.4011 73.2204 46.2791 73.1806 46.1428C73.1771 46.1283 73.1739 46.1151 73.1707 46.102L72.6834 44.0922C72.6798 44.0777 72.6766 44.0645 72.6734 44.0513C72.6446 43.8718 72.6766 43.6879 72.7645 43.5287C72.8523 43.3696 72.9909 43.2444 73.1582 43.1733C73.2104 43.1482 73.2651 43.1288 73.3214 43.1156L91.2448 38.7693C91.2581 38.7954 91.2737 38.8195 91.2883 38.8453C92.022 40.1642 93.1978 41.1817 94.6083 41.7184C94.6114 41.7194 94.6142 41.7211 94.6165 41.7234Z" fill="#FFA412"/>
<path d="M107.845 34.7439L107.411 34.849L108.275 38.4099L108.708 38.3048L107.845 34.7439Z" fill="#FFA412"/>
<path d="M106.377 35.0998L105.943 35.205L106.807 38.7659L107.24 38.6608L106.377 35.0998Z" fill="#FFA412"/>
<path d="M104.617 35.5265L104.184 35.6316L105.047 39.1925L105.481 39.0874L104.617 35.5265Z" fill="#FFA412"/>
<path d="M101.919 36.1806L101.485 36.2858L102.349 39.8467L102.782 39.7416L101.919 36.1806Z" fill="#FFA412"/>
<path d="M99.0664 36.8726L98.6328 36.9778L99.4963 40.5387L99.9299 40.4336L99.0664 36.8726Z" fill="#FFA412"/>
<path d="M94.6924 37.9329L94.2588 38.0381L95.1223 41.599L95.5559 41.4939L94.6924 37.9329Z" fill="#FFA412"/>
<path d="M90.5976 38.9262L90.1641 39.0314L91.0276 42.5923L91.4611 42.4872L90.5976 38.9262Z" fill="#FFA412"/>
<path d="M86.9414 39.8126L86.5078 39.9177L87.3713 43.4787L87.8049 43.3735L86.9414 39.8126Z" fill="#FFA412"/>
<path d="M109.242 34.405L108.809 34.5101L109.672 38.0711L110.106 37.9659L109.242 34.405Z" fill="#FFA412"/>
<path d="M110.163 34.1814L109.729 34.2865L110.593 37.8474L111.027 37.7423L110.163 34.1814Z" fill="#FFA412"/>
<path d="M111.056 33.9649L110.622 34.0701L111.486 37.631L111.919 37.5259L111.056 33.9649Z" fill="#FFA412"/>
<path d="M111.73 33.8185L112.588 37.3558C112.536 37.3767 112.483 37.3939 112.428 37.4069L112.157 37.4728L111.294 33.9145L111.567 33.8483C111.62 33.8344 111.675 33.8244 111.73 33.8185Z" fill="#FFA412"/>
<path d="M112.411 33.9993L113.108 36.8763C113.028 37.0399 112.903 37.1769 112.746 37.271L111.908 33.8142C112.09 33.8255 112.265 33.8898 112.411 33.9993Z" fill="#FFA412"/>
<path d="M114.636 30.2334L115.124 32.2445C115.161 32.4033 115.142 32.5698 115.071 32.7165C114.99 32.8803 114.864 33.0175 114.708 33.1115C114.657 33.1428 114.604 33.1697 114.549 33.192C114.496 33.213 114.443 33.2302 114.388 33.2435L76.239 42.4943C76.0976 42.5294 75.9506 42.5356 75.8067 42.5126C75.6626 42.4958 75.5257 42.4408 75.41 42.3533C75.2943 42.2658 75.2041 42.149 75.1488 42.0149C75.1456 42.0045 75.143 41.994 75.1411 41.9833C75.1376 41.9688 75.1344 41.9556 75.1312 41.9424L74.6435 39.9313C74.6404 39.9182 74.6372 39.905 74.634 39.8918C74.5663 39.5091 74.8394 39.1164 75.2701 38.9645C75.306 38.9536 75.3425 38.9448 75.3794 38.938L113.526 29.6878C113.58 29.6745 113.636 29.6652 113.692 29.66C113.751 29.6549 113.811 29.6549 113.871 29.66C114.053 29.6718 114.228 29.736 114.375 29.8448C114.503 29.9411 114.595 30.0781 114.636 30.2334Z" fill="#FFB93E"/>
<path d="M96.578 37.5622L76.1402 42.5183C76.0128 42.5498 75.8799 42.5525 75.7514 42.526C75.6154 42.4999 75.4885 42.4391 75.383 42.3496C75.2774 42.26 75.1968 42.1448 75.1488 42.0149C75.1456 42.0045 75.143 41.994 75.1411 41.9833C75.1376 41.9688 75.1344 41.9556 75.1312 41.9424L74.6435 39.9313C74.6404 39.9182 74.6372 39.905 74.634 39.8918C74.6047 39.7003 74.6437 39.5047 74.744 39.339C74.8444 39.1734 74.9998 39.0483 75.1831 38.9856C75.2151 38.9757 75.2476 38.9678 75.2806 38.962L93.2039 34.6157C93.9133 35.9262 95.0562 36.9494 96.437 37.5099L96.578 37.5622Z" fill="#FFA412"/>
<path d="M109.806 30.5847L109.372 30.6898L110.236 34.2508L110.669 34.1456L109.806 30.5847Z" fill="#FFA412"/>
<path d="M108.339 30.9403L107.905 31.0454L108.769 34.6064L109.202 34.5012L108.339 30.9403Z" fill="#FFA412"/>
<path d="M106.577 31.3673L106.144 31.4724L107.007 35.0334L107.441 34.9282L106.577 31.3673Z" fill="#FFA412"/>
<path d="M103.881 32.0213L103.447 32.1265L104.311 35.6874L104.744 35.5823L103.881 32.0213Z" fill="#FFA412"/>
<path d="M101.026 32.7133L100.593 32.8185L101.456 36.3794L101.89 36.2743L101.026 32.7133Z" fill="#FFA412"/>
<path d="M96.6543 33.7736L96.2207 33.8788L97.0842 37.4397L97.5178 37.3346L96.6543 33.7736Z" fill="#FFA412"/>
<path d="M92.5596 34.7666L92.126 34.8717L92.9895 38.4326L93.4231 38.3275L92.5596 34.7666Z" fill="#FFA412"/>
<path d="M88.9023 35.6534L88.4688 35.7585L89.3323 39.3195L89.7658 39.2143L88.9023 35.6534Z" fill="#FFA412"/>
<path d="M111.202 30.2459L110.769 30.3511L111.632 33.912L112.066 33.8069L111.202 30.2459Z" fill="#FFA412"/>
<path d="M112.126 30.0218L111.692 30.127L112.556 33.6879L112.989 33.5828L112.126 30.0218Z" fill="#FFA412"/>
<path d="M113.017 29.8059L112.583 29.911L113.447 33.472L113.88 33.3668L113.017 29.8059Z" fill="#FFA412"/>
<path d="M113.691 29.655L114.549 33.1922C114.497 33.2132 114.443 33.2305 114.388 33.2437L114.125 33.3076L113.262 29.7493L113.525 29.6854C113.58 29.6712 113.635 29.6611 113.691 29.655Z" fill="#FFA412"/>
<path d="M114.374 29.8397L115.072 32.7167C114.99 32.8801 114.864 33.0171 114.708 33.1117L113.87 29.6549C114.052 29.6668 114.227 29.7309 114.374 29.8397Z" fill="#FFA412"/>
<path d="M114.968 26.3884L115.456 28.3995C115.493 28.558 115.474 28.7246 115.401 28.8704C115.321 29.0345 115.196 29.172 115.04 29.2665C114.989 29.2972 114.936 29.3241 114.881 29.3469L114.827 29.36L114.796 29.3674L76.5683 38.6374C76.0754 38.7569 75.5916 38.5282 75.4675 38.1257C75.4643 38.1125 75.4611 38.0994 75.4579 38.0862L74.9731 36.0869C74.9699 36.0738 74.9667 36.0606 74.9635 36.0474C74.8895 35.6328 75.2148 35.2078 75.7077 35.0883L113.857 25.8375C113.911 25.8242 113.967 25.8149 114.023 25.8097C114.082 25.8048 114.142 25.8044 114.201 25.8083C114.383 25.8209 114.558 25.8856 114.704 25.9948C114.835 26.0914 114.929 26.2305 114.968 26.3884Z" fill="#FFB93E"/>
<path d="M96.9103 33.7172L76.4724 38.6732C76.2686 38.7281 76.0515 38.7033 75.8654 38.6038C75.6792 38.5042 75.538 38.3375 75.4704 38.1376C75.4672 38.1244 75.464 38.1112 75.4608 38.098L74.9731 36.0869C74.9699 36.0738 74.9667 36.0606 74.9635 36.0474C74.932 35.8387 74.9812 35.6258 75.1011 35.4521C75.221 35.2784 75.4026 35.1569 75.6089 35.1123L93.5322 30.766C94.2643 32.1216 95.4592 33.169 96.8991 33.7171L96.9103 33.7172Z" fill="#FFA412"/>
<path d="M110.138 26.7393L109.704 26.8445L110.568 30.4054L111.001 30.3003L110.138 26.7393Z" fill="#FFA412"/>
<path d="M108.669 27.0954L108.235 27.2006L109.099 30.7615L109.532 30.6564L108.669 27.0954Z" fill="#FFA412"/>
<path d="M106.911 27.5219L106.478 27.6271L107.341 31.188L107.775 31.0829L106.911 27.5219Z" fill="#FFA412"/>
<path d="M104.212 28.1762L103.778 28.2814L104.642 31.8423L105.075 31.7372L104.212 28.1762Z" fill="#FFA412"/>
<path d="M101.359 28.8681L100.926 28.9733L101.789 32.5342L102.223 32.4291L101.359 28.8681Z" fill="#FFA412"/>
<path d="M96.9863 29.9284L96.5527 30.0336L97.4162 33.5945L97.8498 33.4894L96.9863 29.9284Z" fill="#FFA412"/>
<path d="M92.8906 30.9213L92.457 31.0265L93.3205 34.5874L93.7541 34.4823L92.8906 30.9213Z" fill="#FFA412"/>
<path d="M89.2344 31.8081L88.8008 31.9132L89.6643 35.4741L90.0979 35.369L89.2344 31.8081Z" fill="#FFA412"/>
<path d="M111.534 26.4006L111.101 26.5057L111.964 30.0667L112.398 29.9615L111.534 26.4006Z" fill="#FFA412"/>
<path d="M112.458 26.1766L112.024 26.2817L112.888 29.8427L113.322 29.7375L112.458 26.1766Z" fill="#FFA412"/>
<path d="M113.349 25.9605L112.915 26.0657L113.779 29.6266L114.212 29.5215L113.349 25.9605Z" fill="#FFA412"/>
<path d="M114.023 25.8098L114.881 29.347C114.828 29.368 114.775 29.3852 114.72 29.3985L114.45 29.464L113.587 25.9057L113.857 25.8402C113.912 25.826 113.967 25.8158 114.023 25.8098Z" fill="#FFA412"/>
<path d="M114.705 25.9945L115.403 28.8701C115.322 29.0344 115.196 29.1721 115.04 29.2665L114.201 25.8083C114.384 25.8205 114.559 25.8851 114.705 25.9945Z" fill="#FFA412"/>
<path opacity="0.5" d="M93.4573 53.1898C93.4598 53.2003 93.4617 53.2082 93.4637 53.2161C93.687 54.4259 93.7823 55.6558 93.7478 56.8855C93.7436 57.0637 93.7364 57.2413 93.7253 57.4198C93.66 58.5544 93.4873 59.6802 93.2095 60.7822C92.855 62.1908 92.3329 63.5518 91.6543 64.8361C91.6376 64.8709 91.6186 64.9076 91.5993 64.943C90.71 66.6006 89.5788 68.1164 88.2429 69.4407C87.9553 69.7281 87.6559 70.0086 87.3446 70.2823C87.1354 70.4725 86.922 70.6457 86.706 70.8194C86.49 70.9932 86.2896 71.1855 86.0928 71.3867C85.4387 72.0091 84.7051 72.5422 83.9111 72.9721L83.5305 71.4025C83.5273 71.3893 83.5245 71.3774 83.5213 71.3643C83.5163 71.3384 83.5128 71.3122 83.5106 71.2859C83.509 71.2555 83.5096 71.2251 83.5123 71.1948C83.524 71.0141 83.5938 70.842 83.7112 70.7042C83.8287 70.5664 83.9875 70.4701 84.164 70.4298L80.0785 71.4205C79.9028 71.4652 79.7172 71.4519 79.5496 71.3827C79.382 71.3135 79.2412 71.192 79.1481 71.0363C79.1335 71.0105 79.1189 70.9848 79.1066 70.9571C79.0962 70.9333 79.087 70.9089 79.0792 70.8842C79.076 70.871 79.0728 70.8578 79.0692 70.8433L78.5816 68.8322C78.5784 68.8191 78.5752 68.8059 78.572 68.7927C78.5677 68.7671 78.5646 68.7413 78.563 68.7153C78.556 68.6863 78.5621 68.6542 78.5633 68.6246C78.5748 68.4437 78.6444 68.2713 78.7618 68.1332C78.8792 67.9951 79.038 67.8987 79.2147 67.8582L80.8067 67.4722C80.6826 67.4456 80.5664 67.3904 80.4674 67.311C80.3684 67.2315 80.2894 67.13 80.2367 67.0146C80.2325 66.9974 80.2287 66.9816 80.2179 66.9661C80.2145 66.9548 80.2117 66.9434 80.2096 66.9318C80.2064 66.9186 80.2032 66.9055 80.2 66.8923L79.7133 64.8851C79.7096 64.8726 79.7065 64.8598 79.7041 64.8469C79.6992 64.8214 79.6958 64.7957 79.6937 64.7699C79.6922 64.7404 79.6929 64.7108 79.696 64.6814C79.7062 64.5 79.7753 64.3268 79.8927 64.188C80.0101 64.0493 80.1695 63.9525 80.3468 63.9124L81.2614 63.6907C81.0856 63.7351 80.9002 63.7218 80.7326 63.6526C80.565 63.5834 80.4242 63.462 80.331 63.3065C80.3149 63.2812 80.3005 63.2549 80.2881 63.2276C80.2782 63.2036 80.2695 63.1792 80.262 63.1544L79.7536 61.0576C79.7243 60.8664 79.7631 60.6709 79.8632 60.5053C79.9633 60.3398 80.1184 60.2146 80.3014 60.1517L77.605 60.8056C77.4011 60.8605 77.1841 60.8356 76.9979 60.7361C76.8118 60.6366 76.6705 60.4699 76.603 60.2699C76.5998 60.2567 76.5966 60.2436 76.593 60.2291L76.107 58.2246C76.1038 58.2114 76.1003 58.1969 76.0971 58.1837C76.0939 58.1733 76.0913 58.1628 76.0894 58.1521C76.069 57.9802 76.1039 57.8064 76.1891 57.6557C76.2743 57.5051 76.4053 57.3855 76.563 57.3144C76.3843 57.3395 76.2023 57.3056 76.0446 57.218C75.8869 57.1303 75.762 56.9937 75.6889 56.8287C75.6796 56.8074 75.6715 56.7856 75.6647 56.7634C75.6612 56.7489 75.658 56.7357 75.6548 56.7225L75.1652 54.7035C75.1617 54.689 75.1585 54.6759 75.1553 54.6627C75.151 54.6371 75.148 54.6112 75.1463 54.5853C75.1393 54.5563 75.1458 54.5254 75.147 54.4959C75.1584 54.3148 75.2279 54.1424 75.3452 54.004C75.4625 53.8657 75.6213 53.769 75.7981 53.7282L77.3901 53.3421C77.2657 53.3162 77.1492 53.2613 77.0501 53.1817C76.9511 53.1022 76.8722 53.0004 76.82 52.8845C76.8162 52.8687 76.812 52.8516 76.8013 52.8361C76.7979 52.8248 76.7951 52.8134 76.793 52.8018C76.7898 52.7886 76.7866 52.7754 76.7834 52.7623L76.2957 50.7512C76.2925 50.738 76.289 50.7235 76.2858 50.7103C76.281 50.6848 76.2776 50.6591 76.2755 50.6333C76.2743 50.6038 76.275 50.5742 76.2778 50.5448C76.2884 50.3635 76.3576 50.1905 76.475 50.0518C76.5923 49.9132 76.7515 49.8163 76.9285 49.7758L80.0467 49.0197C79.8709 49.0648 79.6852 49.0518 79.5175 48.9825C79.3498 48.9133 79.209 48.7915 79.1163 48.6355C79.1012 48.6103 79.0875 48.5843 79.075 48.5576C79.0643 48.5335 79.0554 48.5086 79.0486 48.4831C79.0454 48.4699 79.0422 48.4567 79.039 48.4436L78.5513 46.4325C78.5481 46.4193 78.5449 46.4061 78.5418 46.3929C78.512 46.202 78.5505 46.0066 78.6505 45.8413C78.7505 45.6759 78.9056 45.551 79.0885 45.4887L74.1794 46.6791C74.0449 46.7127 73.9044 46.7135 73.7696 46.6813C73.6347 46.6492 73.5096 46.585 73.4048 46.4944L73.4003 46.4759L73.15 43.1877L73.1458 43.1706L72.7896 38.4847C73.6702 38.3927 74.5559 38.3583 75.441 38.3818L75.5952 38.3849L75.6057 38.3823C76.1207 38.3998 76.6339 38.4372 77.1455 38.4945L77.1587 38.4913C79.5192 38.7521 81.812 39.4427 83.9237 40.5291C83.9617 40.5478 83.9988 40.5681 84.0358 40.5884C85.1477 41.1709 86.197 41.8656 87.1674 42.6617C87.364 42.8219 87.5572 42.9858 87.7448 43.1552C87.8082 43.2096 87.8703 43.2643 87.9318 43.3219C87.933 43.3239 87.9335 43.3262 87.9333 43.3285C88.2388 43.6061 88.5355 43.8956 88.8235 44.1969C89.489 44.8931 90.0978 45.6414 90.6443 46.4345C91.3465 47.4521 91.9382 48.5416 92.4092 49.6848C92.4231 49.7135 92.4341 49.7415 92.4451 49.7696C92.898 50.8722 93.2372 52.0182 93.4573 53.1898Z" fill="#E2810E"/>
<path d="M76.0638 75.2706C86.1957 71.9432 91.7117 61.0323 88.3844 50.9005C85.057 40.7687 74.1461 35.2526 64.0143 38.58C53.8824 41.9074 48.3663 52.8182 51.6937 62.9501C55.0211 73.0819 65.932 78.598 76.0638 75.2706Z" fill="#E2810E"/>
<path d="M82.4473 71.7171C82.2508 71.914 82.0482 72.1083 81.8416 72.2979C81.7721 72.3622 81.7009 72.4255 81.6311 72.4885C81.4692 72.6324 81.3077 72.772 81.1443 72.9093C77.4231 76.004 72.6755 77.5884 67.8415 77.349C63.0076 77.1096 58.4398 75.0637 55.0427 71.6164C51.6455 68.1692 49.6667 63.572 49.498 58.7351C49.3293 53.8982 50.983 49.1743 54.1318 45.4987C54.6386 44.909 55.18 44.35 55.7533 43.8246C55.9616 43.6327 56.1733 43.4469 56.3884 43.2673C56.5959 43.0928 56.8086 42.9226 57.0212 42.758C58.6154 41.5293 60.3921 40.5575 62.2867 39.8779C66.4168 38.4004 70.927 38.3729 75.0749 39.8001C79.2227 41.2272 82.7611 44.0239 85.1078 47.73C87.4545 51.436 88.4696 55.8305 87.986 60.1903C87.5024 64.5501 85.549 68.6153 82.4473 71.7171Z" fill="#FFB93E"/>
<path d="M73.055 75.0452C71.4652 75.4291 69.8292 75.5867 68.1954 75.5133C63.854 75.3114 59.7503 73.4721 56.7107 70.3658C53.671 67.2595 51.9212 63.1168 51.8135 58.7721C51.7058 54.4273 53.2483 50.2031 56.1303 46.95C59.0123 43.6969 63.0198 41.6565 67.3459 41.2398C71.6719 40.823 75.9953 42.0608 79.4453 44.7038C82.8954 47.3469 85.2159 51.199 85.9396 55.4844C86.6633 59.7698 85.7365 64.1703 83.3458 67.7998C80.9551 71.4293 77.278 74.0182 73.055 75.0452ZM64.9553 41.8791C61.3711 42.7551 58.174 44.7847 55.8561 47.6554C53.5381 50.5262 52.2277 54.079 52.1264 57.7674C52.0251 61.4557 53.1386 65.0752 55.2955 68.0688C57.4524 71.0624 60.5332 73.2644 64.0639 74.3358C67.5947 75.4073 71.3797 75.2889 74.8365 73.9989C78.2934 72.7089 81.2306 70.3187 83.1962 67.1962C85.1619 64.0736 86.047 60.3917 85.7154 56.7169C85.3838 53.0421 83.8539 49.578 81.3611 46.8578C79.3293 44.626 76.732 42.9851 73.844 42.1086C70.9559 41.2322 67.8847 41.1529 64.9553 41.8791Z" fill="#FFA412"/>
<path d="M77.6213 57.8577C77.562 57.7743 77.5007 57.6943 77.4398 57.6156C77.0258 57.0665 76.5043 56.6076 75.9071 56.2668C75.2751 55.9207 74.5782 55.7096 73.8604 55.6468C73.0647 55.5804 72.2637 55.6221 71.4792 55.7707C70.6296 55.9228 69.7156 56.1318 68.7373 56.3979C68.2215 56.5446 67.6975 56.6605 67.1679 56.745C66.7855 56.8095 66.3957 56.8185 66.0107 56.7716C65.705 56.7327 65.4125 56.6236 65.1561 56.4528C64.9025 56.2731 64.682 56.0509 64.5043 55.796C64.3151 55.5382 64.1695 55.251 64.0735 54.946C63.9834 54.6616 63.9581 54.3607 63.9995 54.0653C64.0492 53.7535 64.168 53.4568 64.347 53.1968C64.566 52.8771 64.8426 52.6009 65.1626 52.3823C65.8231 51.9068 66.5081 51.7472 67.2177 51.9035C67.9272 52.0598 68.5988 52.583 69.2323 53.4731L72.6777 50.9939C72.1981 50.3059 71.6041 49.7051 70.9214 49.2179C70.3203 48.7891 69.6392 48.4853 68.9186 48.3245C68.1979 48.1637 67.4523 48.1492 66.7259 48.2817C65.9376 48.4211 65.1777 48.6898 64.4768 49.0769L62.7483 46.6731L60.8402 48.0456L62.5452 50.416C61.9191 50.9493 61.3772 51.5742 60.9379 52.2695C60.5505 52.8837 60.276 53.5622 60.1274 54.2731C59.9902 54.9458 59.9963 55.6399 60.1456 56.3101C60.5165 57.796 61.4591 59.0754 62.7684 59.87C63.3994 60.215 64.0955 60.424 64.8122 60.4838C65.6077 60.5462 66.4081 60.4991 67.1908 60.3437C68.1149 60.1692 69.0294 59.9474 69.9307 59.6793C70.4195 59.5256 70.9189 59.4078 71.4248 59.3268C71.8057 59.2644 72.1936 59.2572 72.5765 59.3056C72.895 59.3482 73.1998 59.4622 73.4681 59.6392C73.7472 59.8375 73.9892 60.0835 74.1829 60.3659C74.3728 60.6234 74.5097 60.9161 74.5856 61.2269C74.6579 61.5266 74.6596 61.8391 74.5907 62.1396C74.5124 62.4684 74.3687 62.778 74.1682 63.05C73.9229 63.3798 73.6255 63.6673 73.2876 63.9012C72.9636 64.1344 72.6102 64.3238 72.2367 64.4644C71.867 64.604 71.4708 64.6591 71.0771 64.6256C70.6512 64.5831 70.2416 64.44 69.8819 64.208C69.4209 63.9044 69.0247 63.5125 68.7162 63.0548L65.2704 65.5328C65.9068 66.4194 66.5971 67.0772 67.3411 67.5061C68.0358 67.9205 68.8127 68.1783 69.6174 68.2616C70.4005 68.3363 71.1906 68.2611 71.9456 68.0402C72.7235 67.8182 73.4709 67.501 74.1711 67.0959L75.7482 69.2894L77.6497 67.9241L76.0645 65.72C76.6933 65.1825 77.243 64.5587 77.6972 63.8673C78.0686 63.3056 78.3427 62.6853 78.5081 62.0325C78.5196 61.9823 78.5311 61.932 78.542 61.8847C78.6844 61.2152 78.683 60.523 78.538 59.854C78.3747 59.132 78.0625 58.4521 77.6213 57.8577Z" fill="#FFA412"/>
</svg>
