<svg width="73" height="72" viewBox="0 0 73 72" fill="none" xmlns="http://www.w3.org/2000/svg">
<path d="M58.4586 13.0554C59.3219 13.8888 60.1984 14.709 60.9694 15.6294C61.5153 16.2929 61.8759 17.089 62.0146 17.937C62.0318 18.0333 62.0146 18.1361 62.1122 18.2008V19.5853C61.8301 20.7299 61.4044 21.7914 60.5239 22.6314C59.7331 23.3804 58.9871 24.1663 58.2161 24.9311C57.9011 25.2436 57.5755 25.543 57.2539 25.8542C57.0681 25.8014 56.96 25.6471 56.8335 25.5205C54.0428 22.7321 51.2529 19.9409 48.464 17.1472C48.3612 17.0443 48.2729 16.9243 48.178 16.8122C48.2267 16.7701 48.2782 16.7313 48.3322 16.6962C51.2582 15.1784 54.3002 13.9837 57.5439 13.335C57.8483 13.2717 58.2213 13.3653 58.4586 13.0554Z" fill="#FE9FAA"/>
<path d="M11.5 8.01689C11.7478 7.60811 11.9086 7.15186 12.2908 6.8222C12.8971 6.30529 13.6168 6.25914 14.3535 6.23804C15.2761 6.23804 16.1988 6.23804 17.1214 6.25386C17.8793 6.26837 18.5422 6.5255 19.0128 7.1479C19.5769 7.89557 19.681 8.70785 19.2764 9.56102C18.8572 10.4419 18.1099 10.8335 17.1675 10.8678C16.2251 10.9021 15.2906 10.8836 14.3522 10.8876C12.9591 10.9403 11.9415 10.4102 11.5 9.00587V8.01689Z" fill="#827F98"/>
<path d="M14.3548 36.5114C13.8856 36.4785 13.4138 36.5035 12.9564 36.3295C12.192 36.0367 11.8111 35.4143 11.5066 34.7194V33.7304C11.9534 32.4553 12.8246 31.8144 14.202 31.9146C14.2512 31.9126 14.2999 31.9042 14.3469 31.8896C15.2999 31.9898 16.2541 31.908 17.2084 31.9357C17.4865 31.9437 17.7633 31.9357 18.0335 32.0478C19.0734 32.4843 19.6836 33.5339 19.4952 34.5836C19.3959 35.1266 19.1077 35.6168 18.6816 35.9675C18.2556 36.3182 17.7192 36.5067 17.1675 36.4996C16.2317 36.5062 15.2933 36.5062 14.3548 36.5114Z" fill="#827F98"/>
<path d="M11.5 26.1152V25.2252C11.7636 24.4195 12.2051 23.7852 13.0368 23.4845C13.4665 23.3289 13.9146 23.3698 14.3548 23.3355L17.0713 23.35C18.4816 23.358 19.4991 24.3324 19.511 25.655C19.5215 26.8919 18.4051 27.9943 17.1003 27.9271C16.181 27.8613 15.2579 27.8715 14.3403 27.9574C13.8896 27.8783 13.4177 27.9666 12.9762 27.7926C12.1906 27.4853 11.7821 26.8603 11.5 26.1152Z" fill="#827F98"/>
<path d="M11.5 17.5111V16.621C11.8321 15.7784 12.3198 15.0822 13.2714 14.8883C13.6282 14.8374 13.9879 14.8096 14.3483 14.8052L17.2097 14.8342C18.5053 14.8488 19.5057 15.8377 19.507 17.1049C19.5075 17.4059 19.4486 17.704 19.3335 17.9821C19.2184 18.2602 19.0495 18.5128 18.8365 18.7253C18.6234 18.9378 18.3705 19.1061 18.0922 19.2204C17.8139 19.3347 17.5158 19.3929 17.215 19.3915C16.2607 19.3994 15.306 19.406 14.3509 19.4113C12.9287 19.4891 11.9191 18.9431 11.5 17.5111Z" fill="#827F98"/>
<path d="M14.3548 23.3356V19.4113C15.3091 19.4051 16.2638 19.3985 17.2189 19.3915C17.5197 19.3929 17.8179 19.3348 18.0962 19.2204C18.3744 19.1061 18.6274 18.9378 18.8404 18.7253C19.0534 18.5128 19.2223 18.2602 19.3374 17.9821C19.4525 17.7041 19.5115 17.406 19.511 17.105C19.511 15.8378 18.5093 14.8488 17.2136 14.8343L14.3522 14.8053C14.3522 13.4998 14.3553 12.1939 14.3614 10.8876C15.2999 10.8876 16.2396 10.9021 17.1767 10.8678C18.1138 10.8335 18.8598 10.4419 19.2856 9.56103C19.6942 8.70786 19.59 7.89558 19.022 7.14791C18.5514 6.52551 17.8885 6.26838 17.1306 6.25387C16.208 6.23541 15.2854 6.242 14.3627 6.23805C14.31 5.00512 14.3996 3.80911 15.118 2.74233C16.1052 1.27072 17.4957 0.545467 19.2342 0.51382C21.0438 0.482172 22.8548 0.51382 24.6644 0.521732C24.6644 0.62063 24.6644 0.719528 24.6644 0.818426C24.6644 11.5575 24.6644 22.2965 24.6644 33.0355C24.6644 33.1674 24.6644 33.2992 24.675 33.4311L22.4831 35.6899C22.3078 36.1356 22.3012 36.613 22.234 37.0798C22.0482 38.3694 21.7529 39.6432 21.6765 40.9487C21.4643 41.3522 21.5447 41.8256 21.3786 42.2409C20.2201 42.179 19.0536 42.3636 17.9016 42.0577C15.8824 41.5196 14.3904 39.6379 14.3627 37.5466C14.3627 37.2024 14.3627 36.8569 14.3548 36.5114C15.2933 36.5114 16.2317 36.5114 17.1715 36.4943C17.7206 36.4992 18.2538 36.3103 18.6776 35.9609C19.1013 35.6114 19.3885 35.1238 19.4885 34.5836C19.677 33.5287 19.0668 32.4843 18.0269 32.0478C17.7567 31.9344 17.4799 31.9437 17.2018 31.9358C16.2475 31.9081 15.2933 31.9898 14.3403 31.8896V27.9574C15.258 27.872 16.1811 27.8623 17.1003 27.9284C18.4051 27.9956 19.5215 26.8933 19.511 25.6564C19.4991 24.3377 18.4816 23.3593 17.0713 23.3514L14.3548 23.3356Z" fill="#FE9FAA"/>
<path d="M40.9672 42.2343C39.1114 44.0804 37.2556 45.9265 35.3998 47.7726C35.268 47.9045 35.16 48.0957 34.9372 48.1194C34.9016 47.7107 34.8726 47.3006 34.8265 46.8931C34.6749 45.5745 34.5141 44.2558 34.3652 42.9293C34.3401 42.7104 34.2914 42.564 34.0278 42.5403C33.407 42.4849 32.7875 42.4084 32.168 42.3346C31.1413 42.2185 30.1132 42.1038 29.0865 41.9812C28.8993 41.9587 28.7122 41.9627 28.6911 41.666C28.616 40.7997 28.5224 39.932 28.3945 39.0722C28.2627 38.1848 28.2838 37.2776 28.0163 36.4112C28.0083 36.3783 28.0004 36.3479 27.9912 36.3163C28.1955 36.3018 28.239 36.1277 28.3207 35.9879C28.8585 35.0649 29.3751 34.126 29.9445 33.2267C31.2724 31.1724 32.7715 29.2342 34.4258 27.4326C36.2704 25.4218 38.2641 23.5533 40.3899 21.8429C41.1267 21.2442 41.9465 20.7523 42.6305 20.093H42.6727H42.7136C42.8454 20.2367 42.9772 20.3858 43.1169 20.5242C46.231 23.6415 49.3455 26.7588 52.4604 29.876C52.5988 30.0145 52.7675 30.1292 52.8321 30.3283L50.8405 32.3524C50.7522 32.425 50.6573 32.4909 50.5769 32.5713C47.4444 35.7035 44.3128 38.8366 41.182 41.9706C41.1082 42.0537 41.0397 42.1473 40.9672 42.2343ZM39.122 34.0588C41.6447 34.0232 44.3532 31.3331 44.4099 28.804C44.4468 27.1913 43.2316 26.0704 41.6526 26.2629C39.2946 26.5504 37.0816 28.6246 36.6441 30.9586C36.3001 32.7599 37.3532 34.0772 39.1167 34.0535L39.122 34.0588Z" fill="#36D299"/>
<path d="M52.8387 30.3309C52.7741 30.1318 52.6054 30.0171 52.467 29.8786C49.3538 26.7614 46.2393 23.6441 43.1235 20.5268C42.9838 20.3884 42.8599 20.2394 42.7202 20.0956C44.4365 18.8804 46.2327 17.7821 48.0964 16.8083H48.1782C48.2731 16.9203 48.3614 17.0403 48.4642 17.1432C51.2531 19.9378 54.0451 22.7294 56.8402 25.5179C56.972 25.6498 57.0748 25.7988 57.2607 25.8515C57.693 26.4739 58.0265 27.1214 57.7721 27.9152C57.7591 27.9793 57.7387 28.0417 57.7115 28.1011C57.0379 29.1943 56.1812 30.1371 55.053 30.7384C54.2819 31.1445 53.5096 30.8294 52.8387 30.3309Z" fill="#827F98"/>
<path d="M28.0123 36.4125C28.2759 37.2789 28.2601 38.1861 28.3905 39.0736C28.5223 39.9333 28.612 40.801 28.6871 41.6673C28.7121 41.964 28.8993 41.9601 29.0825 41.9825C30.1092 42.1051 31.1373 42.2198 32.164 42.3359C32.7835 42.4071 33.403 42.4862 34.0238 42.5416C34.2874 42.5653 34.3362 42.7117 34.3612 42.9306C34.5101 44.2492 34.6709 45.5679 34.8225 46.8944C34.8686 47.3019 34.8976 47.712 34.9332 48.1208C34.4601 48.4082 33.9078 48.3581 33.3938 48.4531C32.1614 48.6799 30.9172 48.8486 29.6782 49.0412C28.3523 47.6039 26.942 46.2483 25.5462 44.8795L25.5186 44.7384C25.5648 44.5985 25.6005 44.4552 25.6253 44.3099C25.8138 42.3899 26.374 40.5689 27.0514 38.7716C27.3559 37.9764 27.8356 37.2551 28.0123 36.4125Z" fill="#FCD1A3"/>
<path d="M40.967 42.2343C41.0395 42.1473 41.1081 42.0537 41.1885 41.9706C44.3192 38.8366 47.4509 35.7035 50.5834 32.5713C50.6638 32.4909 50.7587 32.4249 50.847 32.3524C50.847 34.0798 50.8602 35.8073 50.847 37.5334C50.8233 40.0717 48.6815 42.2119 46.1495 42.2304C44.419 42.2462 42.6923 42.2356 40.967 42.2343Z" fill="#80DCFB"/>
<path d="M25.5225 44.7384L25.5502 44.8795C25.5805 45.5824 25.3446 46.2786 25.45 46.9788C25.5818 47.8689 25.5133 48.7695 25.6372 49.6583C24.2151 50.0789 22.3263 49.2073 21.4722 47.741C20.8989 46.7573 20.8132 45.7169 21.0294 44.6132C21.1836 43.8299 21.2653 43.0308 21.3787 42.2396C21.5461 41.8242 21.4643 41.3508 21.6779 40.9473C21.8202 41.0792 21.9665 41.2111 22.1062 41.3495C23.2467 42.4791 24.3855 43.6088 25.5225 44.7384Z" fill="#78728C"/>
<path d="M25.6372 49.6583C25.5133 48.7695 25.5832 47.8689 25.4501 46.9788C25.3446 46.2786 25.5819 45.5824 25.5502 44.8795C26.946 46.2483 28.3563 47.6038 29.6822 49.0412L25.6372 49.6583Z" fill="#827F98"/>
<path d="M24.6697 33.4298C24.6697 33.2979 24.6592 33.166 24.6592 33.0342C24.6592 22.2951 24.6592 11.5561 24.6592 0.8171C24.6592 0.718202 24.6592 0.619304 24.6592 0.520406C25.0216 0.520406 25.3828 0.504582 25.7452 0.504582C32.4804 0.504582 39.215 0.504582 45.9493 0.504582C46.9439 0.491753 47.9182 0.786783 48.7388 1.34929C49.5594 1.91179 50.1862 2.71428 50.5334 3.64691C50.7331 4.13468 50.8382 4.65603 50.8431 5.18313C50.8365 6.31979 50.8431 7.45646 50.8431 8.59313C49.8796 8.79225 48.9886 9.16674 48.2782 9.85376C47.092 11.0049 45.9361 12.1917 44.7683 13.364C44.1093 12.8734 43.3514 12.499 42.583 12.9315C41.4179 13.5908 40.436 14.5138 39.8547 15.7336C39.5107 16.4549 39.8376 17.1735 40.3002 17.7959C40.233 17.8685 40.1684 17.9436 40.0999 18.0135C35.029 23.0876 29.9576 28.1613 24.8859 33.2346C24.8226 33.3071 24.7449 33.3665 24.6697 33.4298ZM37.7525 10.1926C38.2063 10.1925 38.6553 10.1006 39.0728 9.92247C39.4902 9.74437 39.8673 9.48373 40.1816 9.15619C40.5414 8.78302 40.5862 8.32941 40.2963 8.01293C39.976 7.66085 39.541 7.67536 39.1219 8.05381C38.2243 8.86477 37.3057 8.86082 36.3949 8.04326C35.9995 7.68327 35.5817 7.66481 35.2574 7.99183C34.9332 8.31886 34.9582 8.75005 35.326 9.13246C35.6396 9.46177 36.0158 9.72515 36.4324 9.9072C36.8491 10.0892 37.2979 10.1863 37.7525 10.1926ZM45.9941 7.86392C45.9941 7.61734 46.0073 7.36943 45.9941 7.12417C45.9625 6.6811 45.6369 6.34617 45.2362 6.36727C44.8039 6.391 44.5087 6.63099 44.477 7.06878C44.4346 7.59539 44.4346 8.12455 44.477 8.65115C44.5139 9.07971 44.7947 9.3263 45.2468 9.32102C45.4386 9.32252 45.6235 9.2491 45.762 9.11637C45.9006 8.98365 45.982 8.80208 45.9888 8.61028C46.0099 8.35973 45.9928 8.11183 45.9941 7.86392ZM31.0687 7.87316C31.0687 7.60943 31.0859 7.3457 31.0687 7.08197C31.0613 6.88967 30.9797 6.70774 30.8411 6.57426C30.7025 6.44079 30.5177 6.36614 30.3254 6.36595C29.9207 6.38045 29.6268 6.5888 29.5728 7.00944C29.5009 7.56447 29.5009 8.12645 29.5728 8.68148C29.5814 8.77652 29.6094 8.86879 29.655 8.95263C29.7005 9.03646 29.7627 9.11009 29.8378 9.169C29.9128 9.2279 29.9991 9.27084 30.0914 9.29517C30.1836 9.3195 30.2798 9.32471 30.3741 9.31047C30.7972 9.27355 31.0332 9.01906 31.0701 8.61028C31.0834 8.36474 31.0829 8.11865 31.0687 7.87316Z" fill="#81DCFC"/>
<path d="M44.7749 13.3666C45.9427 12.1943 47.0959 11.0076 48.2848 9.85639C48.9952 9.16937 49.8862 8.79488 50.8497 8.59577C52.7885 8.30171 54.4018 8.92543 55.7528 10.31C56.6464 11.233 57.5558 12.1376 58.4587 13.0501C58.2214 13.36 57.8484 13.2664 57.5439 13.3271C54.3003 13.9758 51.2583 15.1732 48.3323 16.6883C48.2783 16.7234 48.2268 16.7622 48.178 16.8043H48.0963C47.5098 16.2043 46.9101 15.6175 46.3394 15.0017C45.8201 14.4571 45.2204 13.9851 44.7749 13.3666Z" fill="#FE8997"/>
<path d="M24.6696 33.4298C24.7447 33.3665 24.8225 33.3071 24.8924 33.2372L40.1011 18.0162C40.1709 17.9463 40.2329 17.8711 40.3001 17.7986C41.1423 18.4988 41.8817 19.3058 42.6317 20.0943C41.9424 20.7537 41.1226 21.2455 40.3911 21.8442C38.2675 23.5549 36.2761 25.4234 34.4336 27.4339C32.7793 29.2355 31.2802 31.1738 29.9523 33.228C29.3776 34.1273 28.8662 35.0675 28.3285 35.9892C28.2467 36.129 28.1967 36.3031 27.999 36.3176L22.4949 35.6899L24.6696 33.4298Z" fill="#01CC8C"/>
<path d="M22.483 35.6899L27.9871 36.3176C27.9964 36.3492 28.0043 36.3795 28.0122 36.4125C27.8356 37.2551 27.3532 37.9764 27.0553 38.7729C26.3778 40.5689 25.8177 42.3899 25.6292 44.3112C25.6043 44.4565 25.5687 44.5998 25.5224 44.7397C24.3801 43.6092 23.2414 42.48 22.1061 41.3521C21.9664 41.2137 21.8201 41.0884 21.6777 40.95C21.7529 39.6445 22.0481 38.3707 22.2339 37.0811C22.3078 36.6143 22.3078 36.1356 22.483 35.6899Z" fill="#FEBC86"/>
<path d="M39.1167 34.0535C37.3532 34.0772 36.3001 32.7599 36.6388 30.9534C37.0764 28.6194 39.2894 26.5451 41.6473 26.2577C43.2289 26.0651 44.4415 27.1807 44.4046 28.7987C44.3479 31.3278 41.6394 34.0179 39.1167 34.0535Z" fill="#FDFEFD"/>
<path d="M42.6371 20.0943C41.8832 19.3031 41.1477 18.4988 40.3055 17.7986C39.8442 17.1762 39.5147 16.4575 39.8613 15.7362C40.4426 14.5138 41.4245 13.5895 42.5896 12.9341C43.358 12.5016 44.1133 12.8761 44.7749 13.3666C45.2204 13.9851 45.8201 14.4571 46.3394 15.0057C46.9167 15.6149 47.5098 16.2083 48.0964 16.8083C46.2326 17.7821 44.4364 18.8804 42.7201 20.0956H42.6793L42.6371 20.0943Z" fill="#77718C"/>
<path d="M37.7525 10.1926C37.2983 10.187 36.8498 10.0908 36.4331 9.90963C36.0165 9.72849 35.6401 9.46608 35.326 9.13773C34.9583 8.75533 34.9385 8.31754 35.2575 7.99711C35.5765 7.67668 35.9943 7.68854 36.395 8.04853C37.3057 8.86609 38.2244 8.87005 39.122 8.05908C39.5411 7.68063 39.9761 7.66349 40.2963 8.0182C40.5863 8.33468 40.5415 8.78829 40.1817 9.16147C39.867 9.48805 39.4896 9.74771 39.0722 9.9249C38.6548 10.1021 38.206 10.1932 37.7525 10.1926Z" fill="#434152"/>
<path d="M45.9928 7.8639C45.9928 8.11181 46.0099 8.35971 45.9928 8.60498C45.9859 8.79841 45.9033 8.98136 45.7627 9.11434C45.6221 9.24733 45.4349 9.31966 45.2415 9.31573C44.7894 9.31573 44.5087 9.07442 44.4718 8.64586C44.4293 8.11926 44.4293 7.59009 44.4718 7.06349C44.5034 6.62965 44.7987 6.3857 45.231 6.36197C45.6264 6.34087 45.9572 6.6758 45.9888 7.11887C46.0073 7.36941 45.9941 7.62127 45.9928 7.8639Z" fill="#434152"/>
<path d="M31.0687 7.87316C31.0826 8.11955 31.0826 8.36653 31.0687 8.61292C31.0252 9.0217 30.7959 9.27224 30.3728 9.31312C30.2785 9.32735 30.1823 9.32214 30.09 9.29781C29.9978 9.27348 29.9115 9.23055 29.8365 9.17164C29.7614 9.11274 29.6992 9.03911 29.6536 8.95527C29.6081 8.87144 29.5801 8.77917 29.5715 8.68413C29.4996 8.1291 29.4996 7.56712 29.5715 7.01209C29.6255 6.59144 29.9194 6.3831 30.3241 6.36859C30.5164 6.36879 30.7012 6.44344 30.8398 6.57691C30.9784 6.71038 31.0599 6.89232 31.0674 7.08461C31.0859 7.34571 31.0687 7.61075 31.0687 7.87316Z" fill="#434152"/>
<path d="M7.66427 59.4642V65.7642H6.76427V62.9562H3.14627V65.7642H2.24627V59.4642H3.14627V62.1732H6.76427V59.4642H7.66427ZM13.894 65.8362C13.258 65.8362 12.685 65.6982 12.175 65.4222C11.665 65.1402 11.263 64.7532 10.969 64.2612C10.681 63.7692 10.537 63.2202 10.537 62.6142C10.537 62.0082 10.681 61.4592 10.969 60.9672C11.263 60.4752 11.665 60.0912 12.175 59.8152C12.685 59.5332 13.258 59.3922 13.894 59.3922C14.524 59.3922 15.094 59.5332 15.604 59.8152C16.114 60.0912 16.513 60.4752 16.801 60.9672C17.089 61.4532 17.233 62.0022 17.233 62.6142C17.233 63.2262 17.089 63.7782 16.801 64.2702C16.513 64.7562 16.114 65.1402 15.604 65.4222C15.094 65.6982 14.524 65.8362 13.894 65.8362ZM13.894 65.0352C14.356 65.0352 14.77 64.9302 15.136 64.7202C15.508 64.5102 15.799 64.2222 16.009 63.8562C16.225 63.4842 16.333 63.0702 16.333 62.6142C16.333 62.1582 16.225 61.7472 16.009 61.3812C15.799 61.0092 15.508 60.7182 15.136 60.5082C14.77 60.2982 14.356 60.1932 13.894 60.1932C13.432 60.1932 13.012 60.2982 12.634 60.5082C12.262 60.7182 11.968 61.0092 11.752 61.3812C11.542 61.7472 11.437 62.1582 11.437 62.6142C11.437 63.0702 11.542 63.4842 11.752 63.8562C11.968 64.2222 12.262 64.5102 12.634 64.7202C13.012 64.9302 13.432 65.0352 13.894 65.0352ZM25.9496 65.7642L25.9406 61.1742L23.6636 64.9992H23.2496L20.9726 61.2012V65.7642H20.1086V59.4642H20.8466L23.4746 63.8922L26.0666 59.4642H26.8046L26.8136 65.7642H25.9496ZM34.7763 64.9812V65.7642H30.2043V59.4642H34.6503V60.2472H31.1043V62.1822H34.2633V62.9472H31.1043V64.9812H34.7763ZM46.5467 59.4642L44.4407 65.7642H43.4957L41.7767 60.7332L40.0577 65.7642H39.0947L36.9887 59.4642H37.9157L39.6167 64.5852L41.3897 59.4642H42.2177L43.9547 64.6122L45.6917 59.4642H46.5467ZM51.9213 65.8362C51.2853 65.8362 50.7123 65.6982 50.2023 65.4222C49.6923 65.1402 49.2903 64.7532 48.9963 64.2612C48.7083 63.7692 48.5643 63.2202 48.5643 62.6142C48.5643 62.0082 48.7083 61.4592 48.9963 60.9672C49.2903 60.4752 49.6923 60.0912 50.2023 59.8152C50.7123 59.5332 51.2853 59.3922 51.9213 59.3922C52.5513 59.3922 53.1213 59.5332 53.6313 59.8152C54.1413 60.0912 54.5403 60.4752 54.8283 60.9672C55.1163 61.4532 55.2603 62.0022 55.2603 62.6142C55.2603 63.2262 55.1163 63.7782 54.8283 64.2702C54.5403 64.7562 54.1413 65.1402 53.6313 65.4222C53.1213 65.6982 52.5513 65.8362 51.9213 65.8362ZM51.9213 65.0352C52.3833 65.0352 52.7973 64.9302 53.1633 64.7202C53.5353 64.5102 53.8263 64.2222 54.0363 63.8562C54.2523 63.4842 54.3603 63.0702 54.3603 62.6142C54.3603 62.1582 54.2523 61.7472 54.0363 61.3812C53.8263 61.0092 53.5353 60.7182 53.1633 60.5082C52.7973 60.2982 52.3833 60.1932 51.9213 60.1932C51.4593 60.1932 51.0393 60.2982 50.6613 60.5082C50.2893 60.7182 49.9953 61.0092 49.7793 61.3812C49.5693 61.7472 49.4643 62.1582 49.4643 62.6142C49.4643 63.0702 49.5693 63.4842 49.7793 63.8562C49.9953 64.2222 50.2893 64.5102 50.6613 64.7202C51.0393 64.9302 51.4593 65.0352 51.9213 65.0352ZM62.3479 65.7642L60.9889 63.8292C60.8209 63.8412 60.6889 63.8472 60.5929 63.8472H59.0359V65.7642H58.1359V59.4642H60.5929C61.4089 59.4642 62.0509 59.6592 62.5189 60.0492C62.9869 60.4392 63.2209 60.9762 63.2209 61.6602C63.2209 62.1462 63.1009 62.5602 62.8609 62.9022C62.6209 63.2442 62.2789 63.4932 61.8349 63.6492L63.3289 65.7642H62.3479ZM60.5659 63.0822C61.1359 63.0822 61.5709 62.9592 61.8709 62.7132C62.1709 62.4672 62.3209 62.1162 62.3209 61.6602C62.3209 61.2042 62.1709 60.8562 61.8709 60.6162C61.5709 60.3702 61.1359 60.2472 60.5659 60.2472H59.0359V63.0822H60.5659ZM68.227 62.9652L67.075 64.1352V65.7642H66.175V59.4642H67.075V62.9832L70.495 59.4642H71.521L68.83 62.2992L71.692 65.7642H70.639L68.227 62.9652Z" fill="black"/>
</svg>
