<svg width="52" height="50" viewBox="0 0 52 50" fill="none" xmlns="http://www.w3.org/2000/svg">
<path d="M47.4586 13.0554C48.3219 13.8888 49.1984 14.709 49.9694 15.6294C50.5153 16.2929 50.8759 17.089 51.0146 17.937C51.0318 18.0333 51.0146 18.1361 51.1122 18.2008V19.5853C50.8301 20.7299 50.4044 21.7914 49.5239 22.6314C48.7331 23.3804 47.9871 24.1663 47.2161 24.9311C46.9011 25.2436 46.5755 25.543 46.2539 25.8542C46.0681 25.8014 45.96 25.6471 45.8335 25.5205C43.0428 22.7321 40.2529 19.9409 37.464 17.1472C37.3612 17.0443 37.2729 16.9243 37.178 16.8122C37.2267 16.7701 37.2782 16.7313 37.3322 16.6962C40.2582 15.1784 43.3002 13.9837 46.5439 13.335C46.8483 13.2717 47.2213 13.3653 47.4586 13.0554Z" fill="#FE9FAA"/>
<path d="M0.5 8.01689C0.747789 7.60811 0.908588 7.15186 1.29082 6.8222C1.89711 6.30529 2.61675 6.25914 3.35353 6.23804C4.27615 6.23804 5.19877 6.23804 6.12139 6.25386C6.87925 6.26837 7.54222 6.5255 8.01275 7.1479C8.57687 7.89557 8.68099 8.70785 8.27636 9.56102C7.85723 10.4419 7.10991 10.8335 6.16752 10.8678C5.22513 10.9021 4.29065 10.8836 3.35221 10.8876C1.95906 10.9403 0.941539 10.4102 0.5 9.00587V8.01689Z" fill="#827F98"/>
<path d="M3.35485 36.5114C2.88563 36.4785 2.41378 36.5035 1.95642 36.3295C1.19197 36.0367 0.811056 35.4143 0.506592 34.7194V33.7304C0.953403 32.4553 1.82462 31.8144 3.20196 31.9146C3.25117 31.9126 3.2999 31.9042 3.34694 31.8896C4.29987 31.9898 5.25413 31.908 6.20838 31.9357C6.48648 31.9437 6.76327 31.9357 7.03346 32.0478C8.07339 32.4843 8.68363 33.5339 8.49515 34.5836C8.39588 35.1266 8.10768 35.6168 7.68163 35.9675C7.25558 36.3182 6.71919 36.5067 6.16752 36.4996C5.23172 36.5062 4.29328 36.5062 3.35485 36.5114Z" fill="#827F98"/>
<path d="M0.5 26.1152V25.2252C0.763605 24.4195 1.20514 23.7852 2.03682 23.4845C2.4665 23.3289 2.91463 23.3698 3.35485 23.3355L6.0713 23.35C7.48159 23.358 8.49911 24.3324 8.51097 25.655C8.52151 26.8919 7.40514 27.9943 6.1003 27.9271C5.18104 27.8613 4.25794 27.8715 3.34035 27.9574C2.88958 27.8783 2.41773 27.9666 1.97619 27.7926C1.19065 27.4853 0.782058 26.8603 0.5 26.1152Z" fill="#827F98"/>
<path d="M0.5 17.5111V16.621C0.832143 15.7784 1.31981 15.0822 2.27143 14.8883C2.6282 14.8374 2.9879 14.8096 3.34826 14.8052L6.20969 14.8342C7.50531 14.8488 8.5057 15.8377 8.50701 17.1049C8.50754 17.4059 8.44856 17.704 8.33348 17.9821C8.2184 18.2602 8.04948 18.5128 7.83646 18.7253C7.62343 18.9378 7.37049 19.1061 7.09221 19.2204C6.81393 19.3347 6.5158 19.3929 6.21496 19.3915C5.26071 19.3994 4.30602 19.406 3.35089 19.4113C1.92874 19.4891 0.919133 18.9431 0.5 17.5111Z" fill="#827F98"/>
<path d="M3.35483 23.3356V19.4113C4.30908 19.4051 5.26377 19.3985 6.2189 19.3915C6.51973 19.3929 6.81787 19.3348 7.09615 19.2204C7.37443 19.1061 7.62737 18.9378 7.84039 18.7253C8.05342 18.5128 8.22234 18.2602 8.33742 17.9821C8.4525 17.7041 8.51148 17.406 8.51095 17.105C8.51095 15.8378 7.50925 14.8488 6.21363 14.8343L3.35219 14.8053C3.35219 13.4998 3.35527 12.1939 3.36142 10.8876C4.29986 10.8876 5.23961 10.9021 6.17673 10.8678C7.11384 10.8335 7.85985 10.4419 8.28557 9.56103C8.69416 8.70786 8.59003 7.89558 8.02196 7.14791C7.55143 6.52551 6.88846 6.26838 6.1306 6.25387C5.20798 6.23541 4.28536 6.242 3.36274 6.23805C3.31002 5.00512 3.39964 3.80911 4.11797 2.74233C5.10517 1.27072 6.49569 0.545467 8.23417 0.51382C10.0438 0.482172 11.8548 0.51382 13.6644 0.521732C13.6644 0.62063 13.6644 0.719528 13.6644 0.818426C13.6644 11.5575 13.6644 22.2965 13.6644 33.0355C13.6644 33.1674 13.6644 33.2992 13.675 33.4311L11.4831 35.6899C11.3078 36.1356 11.3012 36.613 11.234 37.0798C11.0482 38.3694 10.7529 39.6432 10.6765 40.9487C10.4643 41.3522 10.5447 41.8256 10.3786 42.2409C9.22005 42.179 8.0536 42.3636 6.90164 42.0577C4.88242 41.5196 3.39042 39.6379 3.36274 37.5466C3.36274 37.2024 3.36274 36.8569 3.35483 36.5114C4.29327 36.5114 5.2317 36.5114 6.17145 36.4943C6.72057 36.4992 7.25384 36.3103 7.67759 35.9609C8.10134 35.6114 8.38847 35.1238 8.48855 34.5836C8.67702 33.5287 8.06678 32.4843 7.02685 32.0478C6.75666 31.9344 6.47987 31.9437 6.20177 31.9358C5.24752 31.9081 4.29327 31.9898 3.34033 31.8896V27.9574C4.25796 27.872 5.18106 27.8623 6.10028 27.9284C7.40513 27.9956 8.5215 26.8933 8.51095 25.6564C8.49909 24.3377 7.48157 23.3593 6.07128 23.3514L3.35483 23.3356Z" fill="#FE9FAA"/>
<path d="M29.9672 42.2343C28.1114 44.0804 26.2556 45.9265 24.3998 47.7726C24.268 47.9045 24.16 48.0957 23.9372 48.1194C23.9016 47.7107 23.8726 47.3006 23.8265 46.8931C23.6749 45.5745 23.5141 44.2558 23.3652 42.9293C23.3401 42.7104 23.2914 42.564 23.0278 42.5403C22.407 42.4849 21.7875 42.4084 21.168 42.3346C20.1413 42.2185 19.1132 42.1038 18.0865 41.9812C17.8993 41.9587 17.7122 41.9627 17.6911 41.666C17.616 40.7997 17.5224 39.932 17.3945 39.0722C17.2627 38.1848 17.2838 37.2776 17.0163 36.4112C17.0083 36.3783 17.0004 36.3479 16.9912 36.3163C17.1955 36.3018 17.239 36.1277 17.3207 35.9879C17.8585 35.0649 18.3751 34.126 18.9445 33.2267C20.2724 31.1724 21.7715 29.2342 23.4258 27.4326C25.2704 25.4218 27.2641 23.5533 29.3899 21.8429C30.1267 21.2442 30.9465 20.7523 31.6305 20.093H31.6727H31.7136C31.8454 20.2367 31.9772 20.3858 32.1169 20.5242C35.231 23.6415 38.3455 26.7588 41.4604 29.876C41.5988 30.0145 41.7675 30.1292 41.8321 30.3283L39.8405 32.3524C39.7522 32.425 39.6573 32.4909 39.5769 32.5713C36.4444 35.7035 33.3128 38.8366 30.182 41.9706C30.1082 42.0537 30.0397 42.1473 29.9672 42.2343ZM28.122 34.0588C30.6447 34.0232 33.3532 31.3331 33.4099 28.804C33.4468 27.1913 32.2316 26.0704 30.6526 26.2629C28.2946 26.5504 26.0816 28.6246 25.6441 30.9586C25.3001 32.7599 26.3532 34.0772 28.1167 34.0535L28.122 34.0588Z" fill="#36D299"/>
<path d="M41.8387 30.3309C41.7741 30.1318 41.6054 30.0171 41.467 29.8786C38.3538 26.7614 35.2393 23.6441 32.1235 20.5268C31.9838 20.3884 31.8599 20.2394 31.7202 20.0956C33.4365 18.8804 35.2327 17.7821 37.0964 16.8083H37.1782C37.2731 16.9203 37.3614 17.0403 37.4642 17.1432C40.2531 19.9378 43.0451 22.7294 45.8402 25.5179C45.972 25.6498 46.0748 25.7988 46.2607 25.8515C46.693 26.4739 47.0265 27.1214 46.7721 27.9152C46.7591 27.9793 46.7387 28.0417 46.7115 28.1011C46.0379 29.1943 45.1812 30.1371 44.053 30.7384C43.2819 31.1445 42.5096 30.8294 41.8387 30.3309Z" fill="#827F98"/>
<path d="M17.0123 36.4125C17.2759 37.2789 17.2601 38.1861 17.3905 39.0736C17.5223 39.9333 17.612 40.801 17.6871 41.6673C17.7121 41.964 17.8993 41.9601 18.0825 41.9825C19.1092 42.1051 20.1373 42.2198 21.164 42.3359C21.7835 42.4071 22.403 42.4862 23.0238 42.5416C23.2874 42.5653 23.3362 42.7117 23.3612 42.9306C23.5101 44.2492 23.6709 45.5679 23.8225 46.8944C23.8686 47.3019 23.8976 47.712 23.9332 48.1208C23.4601 48.4082 22.9078 48.3581 22.3938 48.4531C21.1614 48.6799 19.9172 48.8486 18.6782 49.0412C17.3523 47.6039 15.942 46.2483 14.5462 44.8795L14.5186 44.7384C14.5648 44.5985 14.6005 44.4552 14.6253 44.3099C14.8138 42.3899 15.374 40.5689 16.0514 38.7716C16.3559 37.9764 16.8356 37.2551 17.0123 36.4125Z" fill="#FCD1A3"/>
<path d="M29.967 42.2343C30.0395 42.1473 30.1081 42.0537 30.1885 41.9706C33.3192 38.8366 36.4509 35.7035 39.5834 32.5713C39.6638 32.4909 39.7587 32.4249 39.847 32.3524C39.847 34.0798 39.8602 35.8073 39.847 37.5334C39.8233 40.0717 37.6815 42.2119 35.1495 42.2304C33.419 42.2462 31.6923 42.2356 29.967 42.2343Z" fill="#80DCFB"/>
<path d="M14.5225 44.7384L14.5502 44.8795C14.5805 45.5824 14.3446 46.2786 14.45 46.9788C14.5818 47.8689 14.5133 48.7695 14.6372 49.6583C13.2151 50.0789 11.3263 49.2073 10.4722 47.741C9.8989 46.7573 9.81323 45.7169 10.0294 44.6132C10.1836 43.8299 10.2653 43.0308 10.3787 42.2396C10.5461 41.8242 10.4643 41.3508 10.6779 40.9473C10.8202 41.0792 10.9665 41.2111 11.1062 41.3495C12.2467 42.4791 13.3855 43.6088 14.5225 44.7384Z" fill="#78728C"/>
<path d="M14.6372 49.6583C14.5133 48.7695 14.5832 47.8689 14.4501 46.9788C14.3446 46.2786 14.5819 45.5824 14.5502 44.8795C15.946 46.2483 17.3563 47.6038 18.6822 49.0412L14.6372 49.6583Z" fill="#827F98"/>
<path d="M13.6697 33.4298C13.6697 33.2979 13.6592 33.166 13.6592 33.0342C13.6592 22.2951 13.6592 11.5561 13.6592 0.8171C13.6592 0.718202 13.6592 0.619304 13.6592 0.520406C14.0216 0.520406 14.3828 0.504582 14.7452 0.504582C21.4804 0.504582 28.215 0.504582 34.9493 0.504582C35.9439 0.491753 36.9182 0.786783 37.7388 1.34929C38.5594 1.91179 39.1862 2.71428 39.5334 3.64691C39.7331 4.13468 39.8382 4.65603 39.8431 5.18313C39.8365 6.31979 39.8431 7.45646 39.8431 8.59313C38.8796 8.79225 37.9886 9.16674 37.2782 9.85376C36.092 11.0049 34.9361 12.1917 33.7683 13.364C33.1093 12.8734 32.3514 12.499 31.583 12.9315C30.4179 13.5908 29.436 14.5138 28.8547 15.7336C28.5107 16.4549 28.8376 17.1735 29.3002 17.7959C29.233 17.8685 29.1684 17.9436 29.0999 18.0135C24.029 23.0876 18.9576 28.1613 13.8859 33.2346C13.8226 33.3071 13.7449 33.3665 13.6697 33.4298ZM26.7525 10.1926C27.2063 10.1925 27.6553 10.1006 28.0728 9.92247C28.4902 9.74437 28.8673 9.48373 29.1816 9.15619C29.5414 8.78302 29.5862 8.32941 29.2963 8.01293C28.976 7.66085 28.541 7.67536 28.1219 8.05381C27.2243 8.86477 26.3057 8.86082 25.3949 8.04326C24.9995 7.68327 24.5817 7.66481 24.2574 7.99183C23.9332 8.31886 23.9582 8.75005 24.326 9.13246C24.6396 9.46177 25.0158 9.72515 25.4324 9.9072C25.8491 10.0892 26.2979 10.1863 26.7525 10.1926ZM34.9941 7.86392C34.9941 7.61734 35.0073 7.36943 34.9941 7.12417C34.9625 6.6811 34.6369 6.34617 34.2362 6.36727C33.8039 6.391 33.5087 6.63099 33.477 7.06878C33.4346 7.59539 33.4346 8.12455 33.477 8.65115C33.5139 9.07971 33.7947 9.3263 34.2468 9.32102C34.4386 9.32252 34.6235 9.2491 34.762 9.11637C34.9006 8.98365 34.982 8.80208 34.9888 8.61028C35.0099 8.35973 34.9928 8.11183 34.9941 7.86392ZM20.0687 7.87316C20.0687 7.60943 20.0859 7.3457 20.0687 7.08197C20.0613 6.88967 19.9797 6.70774 19.8411 6.57426C19.7025 6.44079 19.5177 6.36614 19.3254 6.36595C18.9207 6.38045 18.6268 6.5888 18.5728 7.00944C18.5009 7.56447 18.5009 8.12645 18.5728 8.68148C18.5814 8.77652 18.6094 8.86879 18.655 8.95263C18.7005 9.03646 18.7627 9.11009 18.8378 9.169C18.9128 9.2279 18.9991 9.27084 19.0914 9.29517C19.1836 9.3195 19.2798 9.32471 19.3741 9.31047C19.7972 9.27355 20.0332 9.01906 20.0701 8.61028C20.0834 8.36474 20.0829 8.11865 20.0687 7.87316Z" fill="#81DCFC"/>
<path d="M33.7749 13.3666C34.9427 12.1943 36.0959 11.0076 37.2848 9.85639C37.9952 9.16937 38.8862 8.79488 39.8497 8.59577C41.7885 8.30171 43.4018 8.92543 44.7528 10.31C45.6464 11.233 46.5558 12.1376 47.4587 13.0501C47.2214 13.36 46.8484 13.2664 46.5439 13.3271C43.3003 13.9758 40.2583 15.1732 37.3323 16.6883C37.2783 16.7234 37.2268 16.7622 37.178 16.8043H37.0963C36.5098 16.2043 35.9101 15.6175 35.3394 15.0017C34.8201 14.4571 34.2204 13.9851 33.7749 13.3666Z" fill="#FE8997"/>
<path d="M13.6696 33.4298C13.7447 33.3665 13.8225 33.3071 13.8924 33.2372L29.1011 18.0162C29.1709 17.9463 29.2329 17.8711 29.3001 17.7986C30.1423 18.4988 30.8817 19.3058 31.6317 20.0943C30.9424 20.7537 30.1226 21.2455 29.3911 21.8442C27.2675 23.5549 25.2761 25.4234 23.4336 27.4339C21.7793 29.2355 20.2802 31.1738 18.9523 33.228C18.3776 34.1273 17.8662 35.0675 17.3285 35.9892C17.2467 36.129 17.1967 36.3031 16.999 36.3176L11.4949 35.6899L13.6696 33.4298Z" fill="#01CC8C"/>
<path d="M11.483 35.6899L16.9871 36.3176C16.9964 36.3492 17.0043 36.3795 17.0122 36.4125C16.8356 37.2551 16.3532 37.9764 16.0553 38.7729C15.3778 40.5689 14.8177 42.3899 14.6292 44.3112C14.6043 44.4565 14.5687 44.5998 14.5224 44.7397C13.3801 43.6092 12.2414 42.48 11.1061 41.3521C10.9664 41.2137 10.8201 41.0884 10.6777 40.95C10.7529 39.6445 11.0481 38.3707 11.2339 37.0811C11.3078 36.6143 11.3078 36.1356 11.483 35.6899Z" fill="#FEBC86"/>
<path d="M28.1167 34.0535C26.3532 34.0772 25.3001 32.7599 25.6388 30.9534C26.0764 28.6194 28.2894 26.5451 30.6473 26.2577C32.2289 26.0651 33.4415 27.1807 33.4046 28.7987C33.3479 31.3278 30.6394 34.0179 28.1167 34.0535Z" fill="#FDFEFD"/>
<path d="M31.6371 20.0943C30.8832 19.3031 30.1477 18.4988 29.3055 17.7986C28.8442 17.1762 28.5147 16.4575 28.8613 15.7362C29.4426 14.5138 30.4245 13.5895 31.5896 12.9341C32.358 12.5016 33.1133 12.8761 33.7749 13.3666C34.2204 13.9851 34.8201 14.4571 35.3394 15.0057C35.9167 15.6149 36.5098 16.2083 37.0964 16.8083C35.2326 17.7821 33.4364 18.8804 31.7201 20.0956H31.6793L31.6371 20.0943Z" fill="#77718C"/>
<path d="M26.7525 10.1926C26.2983 10.187 25.8498 10.0908 25.4331 9.90963C25.0165 9.72849 24.6401 9.46608 24.326 9.13773C23.9583 8.75533 23.9385 8.31754 24.2575 7.99711C24.5765 7.67668 24.9943 7.68854 25.395 8.04853C26.3057 8.86609 27.2244 8.87005 28.122 8.05908C28.5411 7.68063 28.9761 7.66349 29.2963 8.0182C29.5863 8.33468 29.5415 8.78829 29.1817 9.16147C28.867 9.48805 28.4896 9.74771 28.0722 9.9249C27.6548 10.1021 27.206 10.1932 26.7525 10.1926Z" fill="#434152"/>
<path d="M34.9928 7.8639C34.9928 8.11181 35.0099 8.35971 34.9928 8.60498C34.9859 8.79841 34.9033 8.98136 34.7627 9.11434C34.6221 9.24733 34.4349 9.31966 34.2415 9.31573C33.7894 9.31573 33.5087 9.07442 33.4718 8.64586C33.4293 8.11926 33.4293 7.59009 33.4718 7.06349C33.5034 6.62965 33.7987 6.3857 34.231 6.36197C34.6264 6.34087 34.9572 6.6758 34.9888 7.11887C35.0073 7.36941 34.9941 7.62127 34.9928 7.8639Z" fill="#434152"/>
<path d="M20.0687 7.87316C20.0826 8.11955 20.0826 8.36653 20.0687 8.61292C20.0252 9.0217 19.7959 9.27224 19.3728 9.31312C19.2785 9.32735 19.1823 9.32214 19.09 9.29781C18.9978 9.27348 18.9115 9.23055 18.8365 9.17164C18.7614 9.11274 18.6992 9.03911 18.6536 8.95527C18.6081 8.87144 18.5801 8.77917 18.5715 8.68413C18.4996 8.1291 18.4996 7.56712 18.5715 7.01209C18.6255 6.59144 18.9194 6.3831 19.3241 6.36859C19.5164 6.36879 19.7012 6.44344 19.8398 6.57691C19.9784 6.71038 20.0599 6.89232 20.0674 7.08461C20.0859 7.34571 20.0687 7.61075 20.0687 7.87316Z" fill="#434152"/>
</svg>
