<svg width="101" height="84" viewBox="0 0 101 84" fill="none" xmlns="http://www.w3.org/2000/svg">
<path d="M58.2374 11.089L89.5269 13.7797C90.9527 13.9024 92.2714 14.5858 93.1928 15.6797C94.1143 16.7736 94.563 18.1884 94.4402 19.6128L91.1052 58.3161C90.9702 59.8837 90.2173 61.3335 89.0122 62.3466C87.8071 63.3596 86.2485 63.8529 84.6794 63.718L53.9303 61.0737C53.2243 61.013 52.5372 60.814 51.9082 60.488C51.2792 60.162 50.7207 59.7154 50.2644 59.1737C49.8082 58.6321 49.4632 58.006 49.2492 57.3311C49.0351 56.6563 48.9563 55.9459 49.017 55.2407L52.3985 15.9974C52.5213 14.573 53.2054 13.2556 54.3004 12.3351C55.3954 11.4146 56.8116 10.9664 58.2374 11.089Z" fill="#22BAAF"/>
<path opacity="0.45" d="M87.306 21.677C89.6479 25.2301 91.2051 29.2409 91.8741 33.4422C92.1881 35.1393 92.4451 36.8791 92.802 38.5904L94.3294 20.8642C94.4838 19.0981 93.93 17.3429 92.7898 15.9845C91.6495 14.6261 90.016 13.7755 88.2482 13.6197L77.8274 12.7213C81.5796 15.0108 84.8089 18.0618 87.306 21.677Z" fill="white"/>
<g style="mix-blend-mode:multiply">
<path d="M61.3257 49.7995C56.4454 45.6682 52.796 40.2761 50.7764 34.2125L49.0777 53.9352C48.9312 55.6966 49.4886 57.4444 50.6281 58.7965C51.7676 60.1486 53.3965 60.9952 55.1589 61.1512L83.8947 63.6183C85.6602 63.7686 87.4134 63.2135 88.77 62.0748C90.1267 60.936 90.9761 59.3065 91.1321 57.5432L91.4319 53.9494C81.368 57.6573 70.2048 57.2294 61.3257 49.7995Z" fill="#CDC3FF"/>
</g>
<g opacity="0.31">
<path opacity="0.31" d="M82.1818 61.8357L57.2289 59.6966C56.3153 59.616 55.4266 59.356 54.6138 58.9314C53.801 58.5068 53.0802 57.9261 52.4926 57.2225C51.905 56.5189 51.4623 55.7064 51.1899 54.8315C50.9175 53.9566 50.8207 53.0365 50.905 52.1241L53.76 19.6808C53.9197 17.8467 54.8019 16.1509 56.2125 14.9663C57.6232 13.7817 59.447 13.2051 61.283 13.3632L86.2359 15.5023C88.0729 15.662 89.7717 16.5427 90.9598 17.9515C92.1478 19.3602 92.7283 21.1821 92.574 23.0178L89.719 55.4612C89.6453 56.3749 89.3915 57.2651 88.9723 58.0807C88.5532 58.8962 87.9768 59.6209 87.2765 60.2132C86.5761 60.8056 85.7655 61.2538 84.8912 61.5323C84.0169 61.8107 83.0961 61.9139 82.1818 61.8357ZM61.1688 13.9479C59.4776 13.8095 57.8003 14.3452 56.5032 15.438C55.206 16.5308 54.3943 18.092 54.2454 19.7806L51.3904 52.2239C51.2479 53.912 51.7808 55.5877 52.8724 56.884C53.9641 58.1804 55.5254 58.9917 57.2146 59.1404L82.1818 61.2796C83.8715 61.4219 85.5489 60.8896 86.8465 59.799C88.1442 58.7085 88.9564 57.1487 89.1052 55.4612L91.9602 23.0178C92.1027 21.3297 91.5698 19.654 90.4782 18.3577C89.3865 17.0613 87.8252 16.25 86.136 16.1013L61.1688 13.9479Z" fill="#0F0B49"/>
</g>
<path opacity="0.44" d="M85.6504 25.6274L59.1701 23.3456C58.1221 23.2512 57.1528 22.7505 56.4697 21.9508C55.7867 21.1512 55.4442 20.1162 55.5156 19.0674C55.6102 18.0205 56.1114 17.0521 56.9118 16.3698C57.7123 15.6874 58.7483 15.3453 59.7982 15.4166L86.2785 17.6984C87.3265 17.7929 88.2958 18.2935 88.9788 19.0932C89.6619 19.8928 90.0043 20.9278 89.9329 21.9766C89.8383 23.0236 89.3372 23.9919 88.5367 24.6742C87.7363 25.3566 86.7002 25.6987 85.6504 25.6274Z" fill="#0F0B49"/>
<path d="M61.924 30.8614C62.152 29.526 61.2532 28.2588 59.9165 28.031C58.5797 27.8032 57.3113 28.7011 57.0833 30.0365C56.8552 31.3719 57.754 32.6391 59.0908 32.8669C60.4275 33.0947 61.696 32.1968 61.924 30.8614Z" fill="#CE2489"/>
<path d="M70.048 31.3602C70.0041 31.8425 69.8181 32.3011 69.5137 32.678C69.2093 33.055 68.7999 33.3334 68.3373 33.4783C67.8747 33.6232 67.3795 33.628 66.9141 33.4922C66.4488 33.3564 66.0341 33.0859 65.7223 32.715C65.4106 32.344 65.2158 31.8892 65.1624 31.4078C65.109 30.9264 65.1995 30.44 65.4224 30.0099C65.6454 29.5798 65.9907 29.2253 66.4151 28.991C66.8394 28.7567 67.3236 28.6532 67.8068 28.6934C68.1297 28.7203 68.4441 28.8108 68.7318 28.9596C69.0195 29.1085 69.2749 29.3127 69.4832 29.5606C69.6916 29.8085 69.8488 30.0952 69.9457 30.404C70.0426 30.7129 70.0774 31.0378 70.048 31.3602Z" fill="#CE2489"/>
<path d="M78.1132 32.2522C78.3409 30.9168 77.4419 29.6498 76.1051 29.4222C74.7684 29.1947 73.5001 30.0928 73.2723 31.4282C73.0445 32.7636 73.9435 34.0307 75.2803 34.2582C76.6171 34.4858 77.8854 33.5876 78.1132 32.2522Z" fill="#CE2489"/>
<path d="M87.2924 32.8435C87.2512 33.3296 87.0667 33.7926 86.7621 34.1739C86.4576 34.5553 86.0468 34.8378 85.5815 34.986C85.1163 35.1341 84.6175 35.1411 84.1483 35.0061C83.6791 34.8711 83.2604 34.6002 82.9453 34.2276C82.6301 33.855 82.4326 33.3974 82.3777 32.9127C82.3228 32.4279 82.413 31.9378 82.6369 31.5043C82.8607 31.0708 83.2082 30.7133 83.6354 30.477C84.0626 30.2407 84.5503 30.1362 85.037 30.1768C85.3611 30.2019 85.677 30.291 85.9664 30.4391C86.2557 30.5871 86.5128 30.7911 86.7226 31.0392C86.9324 31.2873 87.0908 31.5745 87.1886 31.8843C87.2864 32.194 87.3217 32.5201 87.2924 32.8435Z" fill="#F5C40D"/>
<path d="M86.5926 40.9292C86.5539 41.4167 86.371 41.8817 86.0672 42.2652C85.7634 42.6486 85.3523 42.9332 84.8863 43.0828C84.4202 43.2324 83.9202 43.2403 83.4497 43.1054C82.9791 42.9705 82.5593 42.699 82.2436 42.3253C81.9278 41.9516 81.7303 41.4926 81.6763 41.0066C81.6222 40.5205 81.7139 40.0294 81.9398 39.5956C82.1656 39.1617 82.5155 38.8047 82.9449 38.5699C83.3743 38.3351 83.8639 38.233 84.3514 38.2767C84.9994 38.3348 85.5983 38.646 86.018 39.1426C86.4376 39.6393 86.6441 40.2813 86.5926 40.9292Z" fill="#F5C40D"/>
<path d="M85.8928 49.0295C85.8606 49.5137 85.6854 49.9774 85.3893 50.3621C85.0932 50.7468 84.6895 51.0351 84.2294 51.1906C83.7692 51.346 83.2732 51.3616 82.8042 51.2354C82.3352 51.1092 81.9142 50.8468 81.5944 50.4815C81.2747 50.1162 81.0706 49.6643 81.008 49.1831C80.9454 48.7019 81.0271 48.2129 81.2428 47.7781C81.4584 47.3432 81.7983 46.9821 82.2195 46.7403C82.6406 46.4985 83.1241 46.3869 83.6088 46.4197C84.2565 46.4673 84.8594 46.7679 85.2869 47.2563C85.7144 47.7448 85.9321 48.3818 85.8928 49.0295Z" fill="#F5C40D"/>
<path d="M85.1932 57.1297C85.152 57.613 84.9683 58.0732 84.6654 58.4521C84.3624 58.8311 83.9538 59.1119 83.4912 59.2589C83.0286 59.4059 82.5327 59.4127 82.0663 59.2782C81.5998 59.1438 81.1837 58.8743 80.8706 58.5036C80.5574 58.133 80.3613 57.678 80.3069 57.196C80.2526 56.7141 80.3425 56.2269 80.5653 55.7959C80.788 55.365 81.1337 55.0098 81.5585 54.775C81.9834 54.5403 82.4683 54.4367 82.9521 54.4772C83.2736 54.5042 83.5868 54.5942 83.8735 54.7421C84.1602 54.89 84.4149 55.093 84.6231 55.3393C84.8312 55.5857 84.9887 55.8706 85.0866 56.1778C85.1844 56.485 85.2206 56.8085 85.1932 57.1297Z" fill="#F5C40D"/>
<path d="M61.2397 38.7616C61.1957 39.2439 61.0098 39.7025 60.7054 40.0794C60.4009 40.4563 59.9916 40.7348 59.529 40.8797C59.0664 41.0246 58.5712 41.0294 58.1058 40.8936C57.6404 40.7577 57.2257 40.4873 56.914 40.1164C56.6022 39.7454 56.4074 39.2906 56.354 38.8092C56.3007 38.3278 56.3912 37.8414 56.6141 37.4113C56.837 36.9812 57.1824 36.6267 57.6067 36.3924C58.0311 36.1581 58.5153 36.0545 58.9985 36.0948C59.3214 36.1217 59.6357 36.2122 59.9235 36.361C60.2112 36.5098 60.4666 36.7141 60.6749 36.962C60.8833 37.2099 61.0404 37.4965 61.1374 37.8054C61.2343 38.1142 61.2691 38.4392 61.2397 38.7616Z" fill="#CE2489"/>
<path d="M69.3299 39.6642C69.564 38.3299 68.6709 37.0586 67.3352 36.8248C65.9995 36.5909 64.727 37.4831 64.4929 38.8174C64.2588 40.1518 65.1519 41.423 66.4876 41.6569C67.8233 41.8907 69.0958 40.9986 69.3299 39.6642Z" fill="#CE2489"/>
<path d="M77.4562 40.1448C77.415 40.628 77.2313 41.0882 76.9284 41.4672C76.6254 41.8462 76.2168 42.1269 75.7542 42.274C75.2915 42.421 74.7957 42.4278 74.3292 42.2933C73.8627 42.1589 73.4467 41.8893 73.1335 41.5187C72.8204 41.1481 72.6242 40.6931 72.5699 40.2111C72.5155 39.7292 72.6054 39.2419 72.8282 38.811C73.051 38.3801 73.3966 38.0248 73.8215 37.7901C74.2463 37.5554 74.7312 37.4517 75.215 37.4923C75.5366 37.5192 75.8497 37.6093 76.1364 37.7572C76.4232 37.9051 76.6779 38.1081 76.886 38.3544C77.0942 38.6008 77.2517 38.8857 77.3495 39.1929C77.4474 39.5001 77.4836 39.8236 77.4562 40.1448Z" fill="#CE2489"/>
<path d="M60.5543 46.8618C60.5128 47.3484 60.3277 47.8118 60.0224 48.1932C59.7171 48.5746 59.3053 48.8569 58.8393 49.0044C58.3732 49.1518 57.8738 49.1578 57.4044 49.0215C56.935 48.8852 56.5166 48.6128 56.2023 48.2387C55.8879 47.8647 55.6918 47.4059 55.6386 46.9204C55.5855 46.4349 55.6779 45.9446 55.9039 45.5116C56.13 45.0786 56.4795 44.7223 56.9084 44.4879C57.3373 44.2535 57.8262 44.1516 58.3131 44.195C58.636 44.2219 58.9504 44.3124 59.2381 44.4612C59.5258 44.61 59.7812 44.8143 59.9896 45.0622C60.1979 45.3101 60.3551 45.5967 60.452 45.9056C60.5489 46.2145 60.5837 46.5394 60.5543 46.8618Z" fill="#CE2489"/>
<path d="M68.6489 47.5461C68.6061 48.0319 68.4193 48.494 68.1123 48.8732C67.8053 49.2524 67.3921 49.5316 66.9255 49.6751C66.4589 49.8186 65.9601 49.8199 65.4928 49.6788C65.0254 49.5377 64.6108 49.2606 64.3019 48.883C63.993 48.5053 63.8037 48.0442 63.7584 47.5586C63.7131 47.073 63.8137 46.5849 64.0474 46.1567C64.2811 45.7285 64.6373 45.3796 65.0704 45.1546C65.5036 44.9296 65.994 44.8387 66.4791 44.8935C67.1157 44.9655 67.6989 45.2832 68.1043 45.7787C68.5097 46.2743 68.7051 46.9085 68.6489 47.5461Z" fill="#CE2489"/>
<path d="M76.7575 48.2448C76.7163 48.728 76.5326 49.1882 76.2297 49.5672C75.9267 49.9462 75.5181 50.2269 75.0554 50.374C74.5928 50.521 74.0969 50.5277 73.6305 50.3933C73.164 50.2589 72.7479 49.9893 72.4348 49.6187C72.1216 49.2481 71.9255 48.793 71.8711 48.3111C71.8168 47.8292 71.9067 47.3419 72.1295 46.911C72.3522 46.4801 72.6979 46.1248 73.1227 45.8901C73.5476 45.6554 74.0325 45.5517 74.5163 45.5923C74.8379 45.6192 75.151 45.7092 75.4377 45.8572C75.7244 46.0051 75.9792 46.208 76.1873 46.4544C76.3955 46.7008 76.553 46.9857 76.6508 47.2929C76.7486 47.6001 76.7849 47.9236 76.7575 48.2448Z" fill="#CE2489"/>
<path d="M59.856 54.9762C59.8173 55.4637 59.6344 55.9287 59.3306 56.3121C59.0268 56.6955 58.6157 56.9801 58.1497 57.1298C57.6836 57.2794 57.1836 57.2872 56.7131 57.1524C56.2425 57.0175 55.8227 56.746 55.507 56.3723C55.1912 55.9986 54.9938 55.5396 54.9397 55.0535C54.8856 54.5675 54.9773 54.0764 55.2032 53.6425C55.4291 53.2087 55.7789 52.8516 56.2083 52.6168C56.6377 52.382 57.1273 52.28 57.6148 52.3237C58.2628 52.3817 58.8617 52.6929 59.2813 53.1896C59.701 53.6862 59.9075 54.3283 59.856 54.9762Z" fill="#CE2489"/>
<path d="M67.9061 55.6465C67.8673 56.134 67.6844 56.599 67.3806 56.9824C67.0768 57.3658 66.6658 57.6504 66.1998 57.8C65.7337 57.9497 65.2336 57.9575 64.7631 57.8227C64.2926 57.6878 63.8728 57.4163 63.557 57.0426C63.2413 56.6689 63.0438 56.2098 62.9897 55.7238C62.9356 55.2378 63.0274 54.7466 63.2533 54.3128C63.4791 53.8789 63.829 53.5219 64.2584 53.2871C64.6878 53.0523 65.1773 52.9502 65.6649 52.9939C66.3129 53.052 66.9118 53.3632 67.3314 53.8598C67.7511 54.3565 67.9576 54.9986 67.9061 55.6465Z" fill="#CE2489"/>
<path d="M76.057 56.4021C76.0155 56.8859 75.8312 57.3465 75.5274 57.7256C75.2237 58.1046 74.8142 58.3851 74.3507 58.5315C73.8873 58.6778 73.3908 58.6835 72.9242 58.5477C72.4575 58.412 72.0417 58.141 71.7293 57.7689C71.417 57.3969 71.2222 56.9406 71.1697 56.4579C71.1171 55.9752 71.2091 55.4878 71.4341 55.0574C71.659 54.627 72.0068 54.273 72.4333 54.0402C72.8598 53.8073 73.3459 53.7062 73.83 53.7496C74.4769 53.8076 75.0745 54.1193 75.4918 54.6164C75.9092 55.1136 76.1124 55.7557 76.057 56.4021Z" fill="#CE2489"/>
<path d="M74.0017 21.349C74.616 20.9164 75.198 20.4398 75.7433 19.923C76.4428 19.2812 76.5855 19.053 76.4713 18.668C76.3571 18.283 75.9574 18.2117 75.5149 18.2544C75.3803 18.2593 75.2526 18.3155 75.158 18.4113C75.1074 18.4526 75.067 18.5049 75.0398 18.5643C75.0126 18.6236 74.9993 18.6883 75.001 18.7536V19.0245C75.001 19.0245 75.001 19.0245 74.8725 19.1101C74.5442 19.1101 74.4014 18.9675 74.4871 18.5682C74.5727 18.1689 74.9582 17.8837 75.6862 17.9122C75.912 17.905 76.1365 17.9489 76.3429 18.0405C76.6375 18.1146 76.8958 18.2917 77.0709 18.5397C77.0954 18.6812 77.0954 18.8259 77.0709 18.9675C77.0749 19.0724 77.0551 19.177 77.0131 19.2733C76.9711 19.3695 76.9079 19.4551 76.8282 19.5237C76.2683 20.0981 75.6723 20.6364 75.0438 21.1351C74.8243 21.2728 74.6145 21.4253 74.4157 21.5915H74.8297C75.4005 21.6108 75.9687 21.6776 76.5284 21.7911C76.8425 21.8767 76.9995 21.9908 76.9139 22.0621C76.8282 22.1334 76.6284 22.0621 75.9146 22.0621C75.3055 21.9682 74.6891 21.93 74.0731 21.948C73.8652 21.9834 73.6529 21.9834 73.445 21.948C73.3879 21.8196 73.5164 21.6913 74.0017 21.349Z" fill="#0F0B49"/>
<path d="M79.7119 21.8342C79.7119 21.8342 79.7119 21.4206 79.7119 20.95L78.2844 20.8216C78.1131 20.8216 78.0132 20.7218 78.0132 20.6648C78.0132 20.6077 78.1131 20.5222 78.2987 20.5079L79.7262 20.6077V20.1656C79.7262 20.023 79.7262 19.6665 79.869 19.6808C80.2829 19.6808 80.34 19.8804 80.3543 20.0373C80.3686 20.1942 80.3543 20.3653 80.3543 20.6505H81.2965C81.5391 20.6505 82.2101 20.6505 82.1958 20.7931C82.1815 20.9357 81.8817 21.007 81.5962 21.007H80.3543C80.3437 21.3032 80.3151 21.5985 80.2687 21.8912C80.2469 21.9322 80.2138 21.9661 80.1733 21.9888C80.1328 22.0116 80.0866 22.0222 80.0402 22.0195C79.9747 22.0168 79.9108 21.9986 79.8537 21.9664C79.7966 21.9341 79.748 21.8888 79.7119 21.8342Z" fill="#0F0B49"/>
<path d="M83.6803 22.1763C84.2964 21.7402 84.8829 21.2638 85.4361 20.7503C86.1356 20.1085 86.264 19.8804 86.1641 19.5096C86.0635 19.3503 85.9168 19.2254 85.7433 19.1515C85.5699 19.0776 85.3781 19.0583 85.1934 19.096C85.0605 19.0956 84.9326 19.1468 84.8365 19.2386C84.7858 19.2791 84.7462 19.3316 84.7212 19.3915C84.6963 19.4513 84.6868 19.5164 84.6938 19.5809C84.6786 19.6706 84.6786 19.7622 84.6938 19.8518C84.6938 19.8518 84.6938 19.9231 84.5511 19.9374C84.237 19.9374 84.08 19.7948 84.1656 19.3955C84.2513 18.9962 84.6367 18.7252 85.379 18.7395C85.604 18.7405 85.8268 18.7841 86.0356 18.8678C86.3245 18.9461 86.5769 19.1226 86.7494 19.367C86.7744 19.5133 86.7744 19.6628 86.7494 19.8091C86.7533 19.9119 86.7335 20.0143 86.6914 20.1083C86.6493 20.2023 86.5861 20.2853 86.5067 20.351C85.9567 20.9112 85.3753 21.4397 84.7652 21.9339L84.1371 22.3903H84.5368C85.1067 22.4119 85.6743 22.4739 86.2355 22.5757C86.5495 22.6755 86.7208 22.7753 86.6209 22.8609C86.521 22.9464 86.3497 22.9322 85.6217 22.8609C85.0112 22.781 84.3959 22.7429 83.7802 22.7468C83.573 22.7898 83.3592 22.7898 83.1521 22.7468C83.0664 22.647 83.1949 22.5186 83.6803 22.1763Z" fill="#0F0B49"/>
<path d="M11.991 34.3884L11.9236 33.8929L11.4282 33.9602L9.98924 34.1556L9.49378 34.2228L9.56119 34.7183L16.115 82.8897L16.1824 83.3852L16.6779 83.3179L18.1168 83.1225L18.6123 83.0552L18.5449 82.5598L11.991 34.3884Z" fill="white" stroke="white"/>
<path d="M27.0502 76.2848L19.2285 41.8806L27.8423 41.3365L35.004 75.3946L27.0502 76.2848Z" fill="#21B95C"/>
<path d="M32.908 51.5742L36.3733 73.9443L43.5514 72.642L40.4327 50.1235C37.9079 50.5521 35.3997 51.0961 32.908 51.5742Z" fill="#F4C222"/>
<path d="M46.4233 65.7839L48.5025 73.0703L53.9975 72.5263L51.7533 65.2894C49.6906 65.3223 48.486 65.7015 46.4233 65.7839Z" fill="#21B95C"/>
<path d="M75.2118 68.7355L75.1469 68.2397L74.6511 68.3045L9.49663 76.8159L9.00084 76.8806L9.06574 77.3764L9.25402 78.8149L9.31892 79.3106L9.8147 79.2459L74.9691 70.7345L75.4649 70.6697L75.4 70.1739L75.2118 68.7355Z" fill="white" stroke="white"/>
<path d="M65.1624 78.9856L98.3206 82.0881L100.545 31.5673L65.1624 78.9856ZM76.5813 72.4554L94.4555 48.5024L93.3299 74.0135L76.5813 72.4554Z" fill="#F4C222"/>
<g opacity="0.58">
<path opacity="0.58" d="M68.9216 73.6618L68.7344 74.0679L71.3212 75.2582L71.5084 74.8521L68.9216 73.6618Z" fill="#0F0B49"/>
</g>
<g opacity="0.58">
<path opacity="0.58" d="M71.9033 69.4698L71.7161 69.8759L74.3028 71.0661L74.4901 70.6601L71.9033 69.4698Z" fill="#0F0B49"/>
</g>
<g opacity="0.58">
<path opacity="0.58" d="M75.3652 65.2411L75.178 65.6472L77.7647 66.8374L77.9519 66.4313L75.3652 65.2411Z" fill="#0F0B49"/>
</g>
<g opacity="0.58">
<path opacity="0.58" d="M78.2465 61.106L78.0593 61.5121L80.6463 62.7019L80.8334 62.2958L78.2465 61.106Z" fill="#0F0B49"/>
</g>
<g opacity="0.58">
<path opacity="0.58" d="M80.9216 57.5262L80.7344 57.9323L83.3211 59.1225L83.5084 58.7164L80.9216 57.5262Z" fill="#0F0B49"/>
</g>
<g opacity="0.58">
<path opacity="0.58" d="M83.9018 53.5194L83.7146 53.9255L86.3014 55.1157L86.4886 54.7096L83.9018 53.5194Z" fill="#0F0B49"/>
</g>
<g opacity="0.58">
<path opacity="0.58" d="M86.58 49.7453L86.3928 50.1514L88.9796 51.3417L89.1668 50.9356L86.58 49.7453Z" fill="#0F0B49"/>
</g>
<g opacity="0.58">
<path opacity="0.58" d="M89.1045 46.5834L88.9172 46.9895L91.504 48.1797L91.6913 47.7736L89.1045 46.5834Z" fill="#0F0B49"/>
</g>
<g opacity="0.58">
<path opacity="0.58" d="M91.3205 43.6521L91.1333 44.0582L93.7201 45.2484L93.9073 44.8424L91.3205 43.6521Z" fill="#0F0B49"/>
</g>
<g opacity="0.58">
<path opacity="0.58" d="M93.8752 40.1556L93.688 40.5616L96.2748 41.7519L96.462 41.3458L93.8752 40.1556Z" fill="#0F0B49"/>
</g>
<g opacity="0.58">
<path opacity="0.58" d="M96.0315 37.1246L95.8442 37.5307L98.431 38.7209L98.6182 38.3148L96.0315 37.1246Z" fill="#0F0B49"/>
</g>
<path d="M33.8008 34.2184L4.16757 10.9465C3.85753 10.7034 3.59851 10.4016 3.40542 10.0583C3.21233 9.71495 3.08898 9.33696 3.04243 8.94599C2.99587 8.55502 3.02705 8.15877 3.13416 7.78002C3.24127 7.40127 3.4222 7.04747 3.66657 6.73896L6.25445 3.44084C6.49731 3.13114 6.79903 2.87251 7.14228 2.67981C7.48553 2.48711 7.86355 2.36414 8.25462 2.31796C8.64569 2.27179 9.04212 2.30333 9.42111 2.41075C9.8001 2.51818 10.1542 2.69938 10.463 2.94394L40.0468 26.1823L40.2308 26.4701L45.8879 34.9811L47.5116 37.4591C47.591 37.5997 47.6265 37.7608 47.6134 37.9217C47.6003 38.0826 47.5393 38.2358 47.4381 38.3615C47.337 38.4873 47.2004 38.5798 47.0461 38.627C46.8917 38.6743 46.7267 38.6742 46.5723 38.6268L43.7949 37.6584L34.182 34.2429L33.8008 34.2184Z" fill="#FFBE06"/>
<path d="M7.11132 13.2386L4.16758 10.9465C3.85753 10.7034 3.59852 10.4016 3.40543 10.0582C3.21234 9.71494 3.08899 9.33695 3.04243 8.94598C2.99588 8.55501 3.02705 8.15876 3.13416 7.78002C3.24127 7.40127 3.42221 7.04747 3.66657 6.73896L6.25446 3.44084C6.49731 3.13114 6.79903 2.87251 7.14228 2.67981C7.48553 2.48711 7.86355 2.36413 8.25462 2.31796C8.64569 2.27179 9.04212 2.30333 9.42111 2.41075C9.8001 2.51818 10.1542 2.69937 10.463 2.94394L13.3573 5.20247L7.11132 13.2386Z" fill="#F72872"/>
<path d="M34.1236 34.3296C34.5976 33.2609 33.1586 32.3721 33.8818 31.2561C34.605 30.1401 36.1132 31.1664 36.8686 30.1627C37.6239 29.1589 36.312 27.9771 37.2206 26.9873C38.1292 25.9975 39.3621 27.2159 40.2806 26.5039L45.8883 34.9813L47.5119 37.4593C47.5914 37.5999 47.6269 37.761 47.6138 37.9219C47.6007 38.0827 47.5396 38.236 47.4385 38.3617C47.3374 38.4874 47.2008 38.5799 47.0464 38.6272C46.8921 38.6745 46.7271 38.6744 46.5727 38.627L43.7953 37.6585L34.1236 34.3296Z" fill="#FFDC9C"/>
<g opacity="0.3">
<path opacity="0.3" d="M33.8009 34.2189L4.16767 10.9469C3.85763 10.7039 3.59861 10.402 3.40552 10.0587C3.21243 9.71539 3.08908 9.3374 3.04253 8.94642C2.99597 8.55545 3.02715 8.1592 3.13426 7.78045C3.24137 7.4017 3.4223 7.0479 3.66667 6.73939L5.32766 4.61736C5.08329 4.92587 4.90236 5.27967 4.79524 5.65842C4.68813 6.03717 4.65697 6.43341 4.70352 6.82438C4.75007 7.21536 4.87344 7.59336 5.06653 7.93667C5.25962 8.27997 5.51862 8.58182 5.82866 8.82487L35.1489 31.8658C35.3124 32.0215 35.5003 32.1494 35.7052 32.2443L47.14 38.6702C47.0342 38.737 46.9142 38.7782 46.7896 38.7906C46.665 38.8031 46.5392 38.7863 46.4221 38.7418L43.6447 37.7733L34.0318 34.3579L33.8009 34.2189Z" fill="#390075"/>
</g>
<g opacity="0.55">
<path opacity="0.55" d="M46.857 38.7661C46.8391 38.6514 46.7962 38.542 46.7314 38.4457L45.1201 35.9761L39.5336 27.4409L39.3497 27.1531L9.76595 3.9148C9.45709 3.67023 9.10301 3.48903 8.72402 3.38161C8.34503 3.27418 7.9486 3.24265 7.55753 3.28882C7.16646 3.33499 6.78845 3.45796 6.4452 3.65066C6.10194 3.84336 5.80022 4.10199 5.55737 4.41169L6.30383 3.47418C6.54668 3.16448 6.8484 2.90585 7.19165 2.71315C7.5349 2.52045 7.91294 2.39748 8.30401 2.35131C8.69508 2.30514 9.09149 2.33666 9.47048 2.44409C9.84947 2.55151 10.2036 2.73271 10.5124 2.97727L40.0961 26.2156L40.2801 26.5034L45.8878 34.9808L47.5114 37.4588C47.6009 37.5807 47.6549 37.725 47.6677 37.8756C47.6805 38.0262 47.6514 38.1774 47.5838 38.3126C47.5162 38.4477 47.4125 38.5615 47.2843 38.6415C47.156 38.7215 47.0082 38.7646 46.857 38.7661Z" fill="white"/>
</g>
<path d="M13.3979 5.23357L7.10229 13.2432L9.64179 15.2387L15.9374 7.22908L13.3979 5.23357Z" fill="#3F3F3F"/>
<path d="M43.7855 37.7786C43.9112 37.1957 44.1669 36.6489 44.5337 36.1789C44.9005 35.7089 45.3688 35.3279 45.9037 35.0643L47.5273 37.5423C47.6068 37.6829 47.6423 37.844 47.6292 38.0049C47.6161 38.1658 47.555 38.319 47.4539 38.4447C47.3527 38.5704 47.2162 38.6629 47.0618 38.7102C46.9075 38.7575 46.7424 38.7574 46.5881 38.71L43.7855 37.7786Z" fill="#3F3F3F"/>
</svg>
