<svg width="67" height="76" viewBox="0 0 67 76" fill="none" xmlns="http://www.w3.org/2000/svg">
<path d="M2.49658 19.4108H6.49006V38.5517H2.49658V19.4108Z" fill="#FFB357"/>
<path d="M4.49348 33.2271C2.28788 33.2271 0.5 35.0151 0.5 37.2206V39.8829C0.5 42.0884 2.28788 43.8764 4.49348 43.8764C6.69907 43.8764 8.48695 42.0884 8.48695 39.8829V37.2206C8.48695 35.0151 6.69907 33.2271 4.49348 33.2271Z" fill="#FFCE71"/>
<path d="M30.1892 23.9759H11.553V39.4903C11.553 42.0831 13.0555 44.4474 15.4111 45.5307C24.0631 49.5096 33.7379 50.497 42.8978 48.4935C45.9223 47.832 48.8908 46.8447 51.7477 45.5309C54.1035 44.4476 55.6058 42.0833 55.6058 39.4905V23.9758H30.1892V23.9759Z" fill="#1771B9"/>
<path d="M30.1892 39.4903V23.9759H11.553V39.4903C11.553 42.0832 13.0555 44.4474 15.4111 45.5307C24.0631 49.5096 33.7379 50.497 42.8978 48.4935C39.8731 47.8319 36.9044 46.8446 34.0474 45.5307C31.6915 44.4474 30.1892 42.0832 30.1892 39.4903Z" fill="#1E5B8C"/>
<path d="M64.0715 15.8658L36.9367 5.13589C35.8646 4.71192 34.7219 4.5 33.5794 4.5C33.1103 4.5 32.6385 4.53807 32.1695 4.61062C31.5093 4.71285 30.8547 4.88564 30.222 5.13589L3.08717 15.8658C-0.362391 17.2299 -0.362391 21.7473 3.08717 23.1113L30.222 33.8413C31.2942 34.2651 32.4367 34.477 33.5794 34.477C34.722 34.4772 35.8647 34.2651 36.9367 33.8413L64.0715 23.1113C67.521 21.7473 67.521 17.2297 64.0715 15.8658Z" fill="#1771B9"/>
<path d="M32.1695 4.61069C31.5093 4.71292 30.8547 4.8857 30.222 5.13596L3.08717 15.8659C-0.362391 17.2299 -0.362391 21.7474 3.08717 23.1114L30.222 33.8413C31.2942 34.2652 32.4367 34.4771 33.5794 34.4771C34.722 34.4772 35.8647 34.2652 36.9367 33.8413C28.9508 25.992 25.5168 13.0562 32.1695 4.61069Z" fill="#1E5B8C"/>
<path d="M22.4899 46.0673C24.648 46.0673 26.3975 44.674 26.3975 42.9554C26.3975 41.2368 24.648 39.8436 22.4899 39.8436C20.3318 39.8436 18.5823 41.2368 18.5823 42.9554C18.5823 44.674 20.3318 46.0673 22.4899 46.0673Z" fill="#FF8E9E"/>
<path d="M43.6701 46.0673C45.8282 46.0673 47.5777 44.674 47.5777 42.9554C47.5777 41.2368 45.8282 39.8436 43.6701 39.8436C41.512 39.8436 39.7625 41.2368 39.7625 42.9554C39.7625 44.674 41.512 46.0673 43.6701 46.0673Z" fill="#FF8E9E"/>
<path d="M24.7672 37.3641C24.2157 37.3641 23.7688 37.8111 23.7688 38.3624V39.9598C23.7688 40.5112 24.2157 40.9582 24.7672 40.9582C25.3187 40.9582 25.7655 40.5112 25.7655 39.9598V38.3624C25.7655 37.8111 25.3185 37.3641 24.7672 37.3641Z" fill="#313D40"/>
<path d="M41.3929 37.3641C40.8414 37.3641 40.3945 37.8111 40.3945 38.3624V39.9598C40.3945 40.5112 40.8414 40.9582 41.3929 40.9582C41.9444 40.9582 42.3913 40.5112 42.3913 39.9598V38.3624C42.3913 37.8111 41.9444 37.3641 41.3929 37.3641Z" fill="#313D40"/>
<path d="M35.9274 39.1595C35.5118 38.7973 34.881 38.8406 34.5189 39.2563C34.1556 39.6732 33.6312 39.9123 33.0799 39.9123C32.5287 39.9123 32.0042 39.6732 31.6409 39.2563C31.2787 38.8406 30.648 38.7973 30.2324 39.1595C29.8167 39.5217 29.7733 40.1523 30.1355 40.5682C30.8781 41.4204 31.9512 41.909 33.0798 41.909C34.2083 41.909 35.2815 41.4204 36.024 40.5682C36.3867 40.1524 36.3431 39.5217 35.9274 39.1595Z" fill="#313D40"/>
<path d="M8.06925 73.076C7.86525 73.316 7.62825 73.499 7.35825 73.625C7.08825 73.751 6.79725 73.814 6.48525 73.814C6.08925 73.814 5.71725 73.718 5.36925 73.526C5.02725 73.34 4.63425 73.019 4.19025 72.563C3.59625 72.533 3.05925 72.374 2.57925 72.086C2.10525 71.798 1.73325 71.417 1.46325 70.943C1.19925 70.463 1.06725 69.932 1.06725 69.35C1.06725 68.744 1.21125 68.195 1.49925 67.703C1.79325 67.211 2.19525 66.827 2.70525 66.551C3.21525 66.269 3.78825 66.128 4.42425 66.128C5.05425 66.128 5.62425 66.269 6.13425 66.551C6.64425 66.827 7.04325 67.211 7.33125 67.703C7.61925 68.189 7.76325 68.738 7.76325 69.35C7.76325 69.866 7.65825 70.34 7.44825 70.772C7.24425 71.204 6.95325 71.567 6.57525 71.861C6.20325 72.155 5.77425 72.359 5.28825 72.473C5.49825 72.695 5.69925 72.854 5.89125 72.95C6.08925 73.052 6.29025 73.103 6.49425 73.103C6.93825 73.103 7.32225 72.923 7.64625 72.563L8.06925 73.076ZM1.96725 69.35C1.96725 69.806 2.07225 70.22 2.28225 70.592C2.49825 70.958 2.79225 71.246 3.16425 71.456C3.54225 71.666 3.96225 71.771 4.42425 71.771C4.88025 71.771 5.29425 71.666 5.66625 71.456C6.03825 71.246 6.32925 70.958 6.53925 70.592C6.75525 70.22 6.86325 69.806 6.86325 69.35C6.86325 68.894 6.75525 68.483 6.53925 68.117C6.32925 67.745 6.03825 67.454 5.66625 67.244C5.29425 67.034 4.88025 66.929 4.42425 66.929C3.96225 66.929 3.54225 67.034 3.16425 67.244C2.79225 67.454 2.49825 67.745 2.28225 68.117C2.07225 68.483 1.96725 68.894 1.96725 69.35ZM13.2488 72.572C12.4088 72.572 11.7548 72.332 11.2868 71.852C10.8188 71.372 10.5848 70.682 10.5848 69.782V66.2H11.4848V69.746C11.4848 71.096 12.0758 71.771 13.2578 71.771C13.8338 71.771 14.2748 71.606 14.5808 71.276C14.8868 70.94 15.0398 70.43 15.0398 69.746V66.2H15.9128V69.782C15.9128 70.688 15.6788 71.381 15.2108 71.861C14.7428 72.335 14.0888 72.572 13.2488 72.572ZM23.83 71.717V72.5H19.258V66.2H23.704V66.983H20.158V68.918H23.317V69.683H20.158V71.717H23.83ZM28.6233 72.572C28.1493 72.572 27.6903 72.5 27.2463 72.356C26.8083 72.206 26.4633 72.014 26.2113 71.78L26.5443 71.078C26.7843 71.294 27.0903 71.471 27.4623 71.609C27.8403 71.741 28.2273 71.807 28.6233 71.807C29.1453 71.807 29.5353 71.72 29.7933 71.546C30.0513 71.366 30.1803 71.129 30.1803 70.835C30.1803 70.619 30.1083 70.445 29.9643 70.313C29.8263 70.175 29.6523 70.07 29.4423 69.998C29.2383 69.926 28.9473 69.845 28.5693 69.755C28.0953 69.641 27.7113 69.527 27.4173 69.413C27.1293 69.299 26.8803 69.125 26.6703 68.891C26.4663 68.651 26.3643 68.33 26.3643 67.928C26.3643 67.592 26.4513 67.289 26.6253 67.019C26.8053 66.749 27.0753 66.533 27.4353 66.371C27.7953 66.209 28.2423 66.128 28.7763 66.128C29.1483 66.128 29.5143 66.176 29.8743 66.272C30.2343 66.368 30.5433 66.506 30.8013 66.686L30.5043 67.406C30.2403 67.238 29.9583 67.112 29.6583 67.028C29.3583 66.938 29.0643 66.893 28.7763 66.893C28.2663 66.893 27.8823 66.986 27.6243 67.172C27.3723 67.358 27.2463 67.598 27.2463 67.892C27.2463 68.108 27.3183 68.285 27.4623 68.423C27.6063 68.555 27.7833 68.66 27.9933 68.738C28.2093 68.81 28.5003 68.888 28.8663 68.972C29.3403 69.086 29.7213 69.2 30.0093 69.314C30.2973 69.428 30.5433 69.602 30.7473 69.836C30.9573 70.07 31.0623 70.385 31.0623 70.781C31.0623 71.111 30.9723 71.414 30.7923 71.69C30.6123 71.96 30.3393 72.176 29.9733 72.338C29.6073 72.494 29.1573 72.572 28.6233 72.572ZM35.0402 66.983H32.8802V66.2H38.0912V66.983H35.9312V72.5H35.0402V66.983ZM40.5715 66.2H41.4715V72.5H40.5715V66.2ZM47.7016 72.572C47.0656 72.572 46.4926 72.434 45.9826 72.158C45.4726 71.876 45.0706 71.489 44.7766 70.997C44.4886 70.505 44.3446 69.956 44.3446 69.35C44.3446 68.744 44.4886 68.195 44.7766 67.703C45.0706 67.211 45.4726 66.827 45.9826 66.551C46.4926 66.269 47.0656 66.128 47.7016 66.128C48.3316 66.128 48.9016 66.269 49.4116 66.551C49.9216 66.827 50.3206 67.211 50.6086 67.703C50.8966 68.189 51.0406 68.738 51.0406 69.35C51.0406 69.962 50.8966 70.514 50.6086 71.006C50.3206 71.492 49.9216 71.876 49.4116 72.158C48.9016 72.434 48.3316 72.572 47.7016 72.572ZM47.7016 71.771C48.1636 71.771 48.5776 71.666 48.9436 71.456C49.3156 71.246 49.6066 70.958 49.8166 70.592C50.0326 70.22 50.1406 69.806 50.1406 69.35C50.1406 68.894 50.0326 68.483 49.8166 68.117C49.6066 67.745 49.3156 67.454 48.9436 67.244C48.5776 67.034 48.1636 66.929 47.7016 66.929C47.2396 66.929 46.8196 67.034 46.4416 67.244C46.0696 67.454 45.7756 67.745 45.5596 68.117C45.3496 68.483 45.2446 68.894 45.2446 69.35C45.2446 69.806 45.3496 70.22 45.5596 70.592C45.7756 70.958 46.0696 71.246 46.4416 71.456C46.8196 71.666 47.2396 71.771 47.7016 71.771ZM59.3342 66.2V72.5H58.5962L54.8162 67.802V72.5H53.9162V66.2H54.6542L58.4342 70.898V66.2H59.3342ZM64.5559 72.572C64.0819 72.572 63.6229 72.5 63.1789 72.356C62.7409 72.206 62.3959 72.014 62.1439 71.78L62.4769 71.078C62.7169 71.294 63.0229 71.471 63.3949 71.609C63.7729 71.741 64.1599 71.807 64.5559 71.807C65.0779 71.807 65.4679 71.72 65.7259 71.546C65.9839 71.366 66.1129 71.129 66.1129 70.835C66.1129 70.619 66.0409 70.445 65.8969 70.313C65.7589 70.175 65.5849 70.07 65.3749 69.998C65.1709 69.926 64.8799 69.845 64.5019 69.755C64.0279 69.641 63.6439 69.527 63.3499 69.413C63.0619 69.299 62.8129 69.125 62.6029 68.891C62.3989 68.651 62.2969 68.33 62.2969 67.928C62.2969 67.592 62.3839 67.289 62.5579 67.019C62.7379 66.749 63.0079 66.533 63.3679 66.371C63.7279 66.209 64.1749 66.128 64.7089 66.128C65.0809 66.128 65.4469 66.176 65.8069 66.272C66.1669 66.368 66.4759 66.506 66.7339 66.686L66.4369 67.406C66.1729 67.238 65.8909 67.112 65.5909 67.028C65.2909 66.938 64.9969 66.893 64.7089 66.893C64.1989 66.893 63.8149 66.986 63.5569 67.172C63.3049 67.358 63.1789 67.598 63.1789 67.892C63.1789 68.108 63.2509 68.285 63.3949 68.423C63.5389 68.555 63.7159 68.66 63.9259 68.738C64.1419 68.81 64.4329 68.888 64.7989 68.972C65.2729 69.086 65.6539 69.2 65.9419 69.314C66.2299 69.428 66.4759 69.602 66.6799 69.836C66.8899 70.07 66.9949 70.385 66.9949 70.781C66.9949 71.111 66.9049 71.414 66.7249 71.69C66.5449 71.96 66.2719 72.176 65.9059 72.338C65.5399 72.494 65.0899 72.572 64.5559 72.572Z" fill="black"/>
</svg>
