<svg width="141" height="133" viewBox="0 0 141 133" fill="none" xmlns="http://www.w3.org/2000/svg">
<path opacity="0.22" d="M139.188 56.7104L120.476 49.0842C119.977 48.9355 119.44 48.9851 118.977 49.2224C118.513 49.4598 118.159 49.8668 117.988 50.3586C117.761 50.8321 117.727 51.3755 117.893 51.8738C118.059 52.3722 118.412 52.7864 118.878 53.0288L120.335 53.6154L104.799 91.7665C104.799 91.7665 99.6408 103.216 107.894 106.776H108.117H108.339C116.734 109.992 121.043 98.179 121.043 98.179L136.578 60.0481L137.59 60.4527C138.089 60.6013 138.626 60.5518 139.089 60.3144C139.553 60.077 139.907 59.6701 140.078 59.1783C140.247 58.7282 140.25 58.2327 140.087 57.7805C139.924 57.3282 139.605 56.9489 139.188 56.7104Z" fill="white"/>
<path d="M118.494 64.4987L106.357 94.174C105.901 94.9571 105.618 95.829 105.528 96.7307C105.438 97.6324 105.543 98.543 105.835 99.4008C106.127 100.259 106.6 101.044 107.222 101.703C107.843 102.362 108.599 102.881 109.438 103.223C110.278 103.565 111.18 103.723 112.086 103.686C112.991 103.649 113.878 103.418 114.687 103.009C115.495 102.6 116.207 102.022 116.773 101.315C117.339 100.607 117.747 99.7862 117.968 98.9075L130.105 69.2321L118.494 64.4987Z" fill="#F4C222"/>
<path d="M110.928 83.0483L106.417 94.1134C105.961 94.8965 105.679 95.7684 105.589 96.6701C105.499 97.5718 105.604 98.4823 105.896 99.3401C106.188 100.198 106.661 100.983 107.282 101.642C107.904 102.302 108.66 102.82 109.499 103.162C110.338 103.504 111.241 103.662 112.146 103.625C113.052 103.589 113.939 103.358 114.747 102.949C115.556 102.54 116.267 101.962 116.833 101.254C117.4 100.546 117.807 99.7256 118.029 98.8469L123.591 85.1521C119.283 84.9903 115.116 83.6147 110.928 83.0483Z" fill="#CC5B1D"/>
<path opacity="0.56" d="M120.416 69.8998C120.306 70.0827 120.147 70.2304 119.955 70.3251C119.764 70.4198 119.55 70.4577 119.338 70.4341C119.126 70.4106 118.926 70.3266 118.76 70.1922C118.595 70.0578 118.471 69.8787 118.404 69.6762C118.338 69.4736 118.331 69.2562 118.384 69.0498C118.437 68.8433 118.549 68.6566 118.706 68.5118C118.862 68.3669 119.057 68.2702 119.267 68.2329C119.477 68.1957 119.693 68.2196 119.89 68.3017C120.167 68.4485 120.377 68.6969 120.475 68.9948C120.573 69.2927 120.552 69.617 120.416 69.8998Z" fill="white"/>
<path opacity="0.56" d="M124.056 79.3666C123.947 79.5495 123.787 79.6972 123.596 79.7919C123.405 79.8867 123.191 79.9245 122.979 79.9009C122.767 79.8774 122.566 79.7934 122.401 79.659C122.235 79.5247 122.112 79.3455 122.045 79.143C121.978 78.9404 121.971 78.723 122.025 78.5166C122.078 78.3101 122.19 78.1234 122.346 77.9785C122.503 77.8337 122.698 77.737 122.908 77.6997C123.118 77.6625 123.334 77.6864 123.531 77.7685C123.811 77.9115 124.024 78.1597 124.123 78.4591C124.222 78.7585 124.198 79.0847 124.056 79.3666Z" fill="white"/>
<path opacity="0.56" d="M125.251 56.2859C125.141 56.4689 124.981 56.6165 124.79 56.7112C124.599 56.806 124.385 56.8438 124.173 56.8202C123.961 56.7967 123.761 56.7127 123.595 56.5783C123.429 56.444 123.306 56.2649 123.239 56.0623C123.173 55.8598 123.166 55.6423 123.219 55.4359C123.272 55.2294 123.384 55.0427 123.541 54.8979C123.697 54.753 123.892 54.6563 124.102 54.619C124.312 54.5818 124.528 54.6057 124.725 54.6878C125.006 54.8308 125.219 55.079 125.317 55.3784C125.416 55.6778 125.392 56.0041 125.251 56.2859Z" fill="white"/>
<path opacity="0.56" d="M118.049 80.6814C117.941 80.8647 117.782 81.0133 117.592 81.1093C117.403 81.2054 117.189 81.245 116.977 81.2235C116.766 81.2019 116.565 81.12 116.398 80.9876C116.231 80.8552 116.106 80.6778 116.037 80.4764C115.968 80.275 115.959 80.0581 116.01 79.8514C116.06 79.6448 116.169 79.457 116.323 79.3103C116.478 79.1637 116.671 79.0643 116.88 79.0241C117.089 78.9839 117.305 79.0044 117.503 79.0833C117.783 79.2266 117.997 79.4735 118.099 79.7717C118.201 80.07 118.183 80.3962 118.049 80.6814Z" fill="white"/>
<path opacity="0.56" d="M129.64 63.4872C129.521 63.8167 129.336 64.1183 129.097 64.3737C128.857 64.6291 128.568 64.8328 128.247 64.9723C127.925 65.1118 127.579 65.1841 127.229 65.1849C126.879 65.1856 126.532 65.1147 126.21 64.9766C125.888 64.8385 125.598 64.636 125.357 64.3817C125.117 64.1273 124.931 63.8264 124.81 63.4975C124.69 63.1686 124.638 62.8185 124.659 62.4689C124.679 62.1193 124.77 61.7774 124.927 61.4644C125.046 61.1349 125.23 60.8332 125.47 60.5779C125.71 60.3225 125.999 60.1188 126.32 59.9793C126.642 59.8398 126.988 59.7675 127.338 59.7667C127.688 59.766 128.035 59.8369 128.357 59.975C128.679 60.1131 128.969 60.3155 129.209 60.5699C129.45 60.8243 129.636 61.1252 129.757 61.4541C129.877 61.783 129.928 62.1331 129.908 62.4827C129.888 62.8323 129.797 63.1742 129.64 63.4872Z" fill="white"/>
<path opacity="0.45" d="M108.906 105.988H108.744C108.675 105.949 108.624 105.885 108.602 105.81C108.579 105.734 108.587 105.653 108.623 105.583C108.65 105.513 108.703 105.456 108.77 105.422C108.837 105.388 108.915 105.381 108.987 105.401C110.195 105.895 111.528 105.995 112.796 105.686C114.064 105.377 115.202 104.676 116.047 103.682C117.184 102.613 118.152 101.379 118.919 100.02L134.151 62.476C134.156 62.4324 134.17 62.3904 134.194 62.3534C134.217 62.3164 134.249 62.2853 134.287 62.2627C134.324 62.24 134.366 62.2263 134.41 62.2227C134.454 62.2192 134.498 62.2258 134.538 62.2421C134.579 62.2583 134.615 62.2838 134.645 62.3165C134.674 62.3492 134.695 62.3883 134.706 62.4306C134.718 62.4729 134.719 62.5172 134.711 62.5602C134.702 62.6032 134.684 62.6436 134.657 62.6783L119.405 100.121C119.344 100.324 114.874 108.415 108.906 105.988Z" fill="white"/>
<path opacity="0.45" d="M138.48 58.0662L127.8 53.717C127.766 53.6999 127.737 53.6764 127.712 53.6477C127.688 53.6191 127.67 53.586 127.659 53.5502C127.647 53.5145 127.643 53.4768 127.647 53.4395C127.65 53.4021 127.661 53.3658 127.678 53.3327C127.687 53.2946 127.704 53.2589 127.728 53.2278C127.752 53.1966 127.782 53.1707 127.816 53.1517C127.85 53.1327 127.888 53.121 127.927 53.1173C127.966 53.1137 128.005 53.1181 128.042 53.1304L138.723 57.4795C138.759 57.4964 138.791 57.5208 138.817 57.551C138.843 57.5811 138.863 57.6165 138.874 57.6546C138.886 57.6928 138.889 57.733 138.884 57.7726C138.879 57.8121 138.865 57.8501 138.844 57.8841C138.833 57.9203 138.814 57.9539 138.79 57.9828C138.765 58.0117 138.735 58.0353 138.701 58.0523C138.667 58.0693 138.63 58.0793 138.592 58.0817C138.554 58.084 138.516 58.0788 138.48 58.0662Z" fill="white"/>
<path d="M86.5397 33.5557C86.5397 34.4546 86.2732 35.3333 85.7738 36.0807C85.2744 36.8281 84.5646 37.4106 83.7342 37.7546C82.9037 38.0986 81.9899 38.1886 81.1083 38.0132C80.2267 37.8379 79.4169 37.405 78.7813 36.7694C78.1457 36.1338 77.7129 35.324 77.5375 34.4424C77.3622 33.5608 77.4522 32.647 77.7962 31.8165C78.1401 30.9861 78.7226 30.2763 79.47 29.7769C80.2174 29.2775 81.0961 29.0109 81.995 29.0109C82.5927 29.0076 83.1852 29.1229 83.7381 29.3501C84.291 29.5773 84.7934 29.9119 85.2161 30.3346C85.6387 30.7573 85.9734 31.2597 86.2006 31.8126C86.4278 32.3655 86.5431 32.958 86.5397 33.5557Z" fill="#EC5858"/>
<path d="M85.8827 44.5644C88.3927 44.5644 90.4275 42.5297 90.4275 40.0196C90.4275 37.5096 88.3927 35.4749 85.8827 35.4749C83.3727 35.4749 81.3379 37.5096 81.3379 40.0196C81.3379 42.5297 83.3727 44.5644 85.8827 44.5644Z" fill="#CE2489"/>
<path d="M81.9937 40.1464C81.9739 41.0407 81.6905 41.9092 81.1792 42.6432C80.6679 43.3772 79.9513 43.944 79.1193 44.2725C78.2873 44.6011 77.3768 44.6768 76.502 44.4902C75.6271 44.3036 74.8268 43.863 74.2013 43.2235C73.5758 42.5841 73.1528 41.7743 72.9855 40.8955C72.8182 40.0168 72.9139 39.1082 73.2606 38.2836C73.6074 37.459 74.1898 36.7551 74.9348 36.26C75.6798 35.765 76.5544 35.5008 77.4489 35.5006C78.0553 35.4969 78.6563 35.6154 79.216 35.8489C79.7756 36.0823 80.2826 36.426 80.7067 36.8595C81.1307 37.293 81.4633 37.8074 81.6844 38.3721C81.9055 38.9368 82.0107 39.5402 81.9937 40.1464Z" fill="#F4C222"/>
<path d="M80.7079 72.9692C72.805 72.9692 66.5938 57.3653 66.5938 37.4692C66.5938 17.5731 72.805 1.96924 80.7079 1.96924C88.6109 1.96924 94.8221 17.5478 94.8221 37.4692C94.8221 57.3906 88.6109 72.9692 80.7079 72.9692ZM80.7079 2.95395C73.4867 2.95395 67.6037 18.4315 67.6037 37.4692C67.6037 56.5069 73.4867 71.9592 80.7079 71.9592C87.9291 71.9592 93.8374 56.4816 93.8374 37.4692C93.8374 18.4568 87.9544 2.9287 80.7079 2.9287V2.95395Z" fill="white"/>
<path d="M80.707 51.5329C60.8109 51.5329 45.207 45.3469 45.207 37.444C45.207 29.5411 60.8109 23.3298 80.707 23.3298C100.603 23.3298 116.207 29.5411 116.207 37.444C116.207 45.3469 100.603 51.5329 80.707 51.5329ZM80.707 24.3145C61.6693 24.3145 46.1917 30.1975 46.1917 37.444C46.1917 44.6904 61.6693 50.5481 80.707 50.5481C99.7447 50.5481 115.323 44.6652 115.323 37.444C115.323 30.2228 99.7447 24.3145 80.707 24.3145Z" fill="white"/>
<path d="M101.637 62.1629C99.0594 62.0933 96.5068 61.6423 94.0619 60.8247C86.0416 58.0633 78.5837 53.8811 72.0448 48.478C65.2916 43.3399 59.5185 37.028 55.0018 29.8443C51.3155 23.5321 50.6085 18.4065 53.0072 15.3767C55.4058 12.3468 60.5818 11.8923 67.5505 14.0385C83.5552 19.9107 97.2486 30.7716 106.611 45.0189C110.297 51.3311 111.004 56.4819 108.63 59.4865C107.753 60.4458 106.664 61.1873 105.45 61.6519C104.236 62.1165 102.93 62.2915 101.637 62.1629ZM59.7739 13.685C58.6455 13.5783 57.5077 13.7322 56.4483 14.135C55.3888 14.5377 54.4361 15.1785 53.6636 16.0079C51.5427 18.6843 52.3002 23.4058 55.7593 29.3393C60.2196 36.4153 65.9053 42.6397 72.5498 47.7205C79.0071 53.0353 86.3601 57.1564 94.2639 59.8905C100.829 61.9104 105.626 61.5569 107.747 58.8805C109.868 56.2041 109.135 51.4574 105.651 45.5239C101.19 38.456 95.5039 32.2401 88.8606 27.1679C82.4094 21.8441 75.0547 17.7221 67.1465 14.9979C64.7687 14.1929 62.2834 13.7503 59.7739 13.685Z" fill="white"/>
<path d="M62.1482 65.723C60.3798 65.8067 58.6433 65.2308 57.2752 64.1071C54.3968 61.5822 54.1696 56.3809 56.6692 49.5132C59.8357 41.6407 64.3848 34.398 70.1016 28.1274C75.5888 21.6476 82.19 16.2008 89.5938 12.0438C96.0828 8.68571 101.234 8.23123 104.137 10.7814C110.071 15.9826 104.44 31.7885 91.3107 46.7611C85.831 53.2452 79.2388 58.7002 71.8438 62.8699C68.8784 64.5633 65.5583 65.5403 62.1482 65.723ZM99.2389 10.1754C96.0126 10.3745 92.8759 11.3164 90.0735 12.9275C82.7866 17.032 76.2888 22.4012 70.8843 28.7838C65.2513 34.9609 60.7627 42.0913 57.6287 49.8414C55.2805 56.3052 55.3815 61.1025 57.9569 63.3749C60.5323 65.6473 65.3044 65.117 71.4146 61.9357C78.6985 57.848 85.1894 52.4859 90.5785 46.1046C103.203 31.8137 108.934 16.2856 103.506 11.5136C102.308 10.5329 100.785 10.0374 99.2389 10.1249V10.1754Z" fill="white"/>
<path d="M80.7066 6.41321C82.4776 6.41321 83.9132 4.97757 83.9132 3.20661C83.9132 1.43565 82.4776 0 80.7066 0C78.9356 0 77.5 1.43565 77.5 3.20661C77.5 4.97757 78.9356 6.41321 80.7066 6.41321Z" fill="#1771B9"/>
<path d="M107.343 62.7437C109.114 62.7437 110.55 61.308 110.55 59.5371C110.55 57.7661 109.114 56.3304 107.343 56.3304C105.572 56.3304 104.137 57.7661 104.137 59.5371C104.137 61.308 105.572 62.7437 107.343 62.7437Z" fill="#1771B9"/>
<path d="M57.6549 37.141C59.4258 37.141 60.8614 35.7053 60.8614 33.9344C60.8614 32.1634 59.4258 30.7278 57.6549 30.7278C55.8839 30.7278 54.4482 32.1634 54.4482 33.9344C54.4482 35.7053 55.8839 37.141 57.6549 37.141Z" fill="#1771B9"/>
<path d="M81.1947 74.7782C82.4937 74.7782 83.5466 73.7252 83.5466 72.4263C83.5466 71.1273 82.4937 70.0743 81.1947 70.0743C79.8958 70.0743 78.8428 71.1273 78.8428 72.4263C78.8428 73.7252 79.8958 74.7782 81.1947 74.7782Z" fill="#1771B9"/>
<path d="M99.4275 104.709L69.0472 115.821C68.0417 116.189 67.5247 117.302 67.8925 118.308L68.2085 119.172C68.5763 120.177 69.6895 120.694 70.6951 120.326L101.075 109.215C102.081 108.847 102.598 107.734 102.23 106.728L101.914 105.864C101.546 104.859 100.433 104.342 99.4275 104.709Z" fill="#1771B9"/>
<path d="M68.0098 114.381V128.516C68.0098 128.516 96.0864 123.643 104.44 114.69L96.7051 104.132L68.0098 114.381Z" fill="#1771B9"/>
<g style="mix-blend-mode:multiply" opacity="0.61">
<path d="M78.5481 117.107C85.8767 114.555 93.1472 111.867 100.418 109.121L96.7825 104.132L68.0098 114.381V120.491C71.5483 119.389 75.0869 118.325 78.5481 117.107Z" fill="#0F0B49"/>
</g>
<path opacity="0.61" d="M71.627 92.2021L75.4749 99.7626L77.5246 98.4864L74.4888 90.7518L71.627 92.2021Z" fill="#0F0B49"/>
<path opacity="0.61" d="M77.833 89.3792L81.681 96.9398L83.7306 95.6636L80.7141 87.929L77.833 89.3792Z" fill="#0F0B49"/>
<path opacity="0.61" d="M83.1895 86.8455L87.7723 94.0193L89.6672 92.5304L85.9159 85.1245L83.1895 86.8455Z" fill="#0F0B49"/>
<path d="M69.2855 85.7433L60.8161 65.4013C60.8161 65.4013 59.9653 60.8958 65.6116 58.6335C71.2579 56.3711 73.1528 60.8958 73.1528 60.8958L81.6223 79.5363C81.6223 79.5363 79.94 84.8925 69.2855 85.7433Z" fill="#1771B9"/>
<path d="M68.3585 82.9202L66.4248 95.0636C66.4248 95.0636 82.8029 94.2128 89.6287 82.6302L80.3084 76.6938L68.3585 82.9202Z" fill="#1771B9"/>
<path d="M62.7114 66.5424C62.7114 66.5424 42.3694 73.8709 44.3417 94.2129C46.314 114.555 65.2445 114.555 66.0953 114.826L67.5068 111.152C67.5068 111.152 51.6896 108.058 51.1288 93.9229C50.8886 89.021 52.0997 84.1571 54.6105 79.9403C57.1214 75.7234 60.8204 72.3409 65.2445 70.2163L62.7114 66.5424Z" fill="#1771B9"/>
<path d="M103.631 113.835L67.8743 126.914C66.6908 127.346 66.0823 128.657 66.5152 129.84L66.8872 130.857C67.32 132.041 68.6303 132.649 69.8138 132.216L105.571 119.138C106.754 118.705 107.363 117.395 106.93 116.211L106.558 115.194C106.125 114.011 104.815 113.402 103.631 113.835Z" fill="#1771B9"/>
<path d="M69.1167 115.332C69.5648 112.56 67.6803 109.949 64.9076 109.501C62.135 109.053 59.5241 110.937 59.076 113.71C58.6279 116.483 60.5123 119.093 63.285 119.542C66.0577 119.99 68.6686 118.105 69.1167 115.332Z" fill="#F5C40D"/>
<path opacity="0.55" d="M74.856 68.7659C74.7439 68.7667 74.6344 68.7315 74.5439 68.6653C74.4533 68.5991 74.3865 68.5056 74.3533 68.3985C72.9417 64.3185 71.1627 61.9014 69.1517 61.418C68.5257 61.3003 67.8811 61.328 67.2675 61.499C66.654 61.67 66.088 61.9797 65.6131 62.4041C65.5643 62.455 65.5058 62.4955 65.441 62.5232C65.3762 62.5508 65.3065 62.5651 65.236 62.5651C65.1655 62.5651 65.0958 62.5508 65.031 62.5232C64.9662 62.4955 64.9077 62.455 64.859 62.4041C64.7609 62.3031 64.7061 62.1678 64.7061 62.0271C64.7061 61.8863 64.7609 61.751 64.859 61.65C65.4618 61.1004 66.1854 60.7002 66.9714 60.4819C67.7575 60.2635 68.5838 60.2331 69.3837 60.3931C71.8008 60.9732 73.8119 63.5643 75.3395 68.1278C75.3839 68.2638 75.3745 68.4117 75.3134 68.5411C75.2523 68.6705 75.144 68.7717 75.0107 68.8239L74.856 68.7659Z" fill="#CDC3FF"/>
<path opacity="0.55" d="M86.9967 83.4617C86.9148 83.487 86.8272 83.487 86.7453 83.4617L80.2482 80.0778C80.1756 80.0513 80.1094 80.0094 80.0543 79.9552C79.9991 79.9009 79.9562 79.8354 79.9285 79.7632C79.9008 79.691 79.8889 79.6136 79.8936 79.5364C79.8983 79.4592 79.9195 79.3838 79.9557 79.3155C79.992 79.2471 80.0425 79.1874 80.1038 79.1402C80.1652 79.093 80.2359 79.0595 80.3112 79.0419C80.3866 79.0244 80.4648 79.0232 80.5407 79.0385C80.6165 79.0537 80.6882 79.085 80.751 79.1303L87.2481 82.5142C87.3733 82.5839 87.4672 82.6988 87.5103 82.8354C87.5535 82.9721 87.5427 83.1201 87.4801 83.249C87.4232 83.3215 87.3493 83.3787 87.265 83.4158C87.1807 83.4529 87.0886 83.4687 86.9967 83.4617Z" fill="#CDC3FF"/>
<path opacity="0.57" d="M65.4269 117.683C67.1521 116.964 67.9682 114.983 67.2497 113.258C66.5312 111.533 64.5502 110.716 62.825 111.435C61.0997 112.153 60.2836 114.134 61.0021 115.86C61.7206 117.585 63.7017 118.401 65.4269 117.683Z" fill="white"/>
<path opacity="0.55" d="M81.159 123.063C81.0338 123.061 80.913 123.016 80.8173 122.935C80.7216 122.855 80.6568 122.743 80.6341 122.62C80.6113 122.497 80.6318 122.37 80.6923 122.26C80.7527 122.15 80.8493 122.065 80.9656 122.019L103.125 114.091C103.261 114.051 103.407 114.062 103.536 114.123C103.664 114.183 103.766 114.289 103.821 114.419C103.866 114.555 103.856 114.703 103.795 114.833C103.734 114.962 103.626 115.063 103.493 115.116L81.333 123.121C81.2702 123.121 81.2092 123.101 81.159 123.063Z" fill="#CDC3FF"/>
<path d="M93.9262 98.4346L75.5041 105.425C74.9749 105.626 74.7087 106.218 74.9095 106.747L75.081 107.199C75.2818 107.728 75.8736 107.994 76.4028 107.794L94.8249 100.803C95.3541 100.602 95.6203 100.01 95.4195 99.4812L95.248 99.0292C95.0472 98.5 94.4554 98.2338 93.9262 98.4346Z" fill="#CDC3FF"/>
<g style="mix-blend-mode:overlay" opacity="0.48">
<path d="M81.8542 103.011L80.0172 103.707C79.5145 104.79 79.0311 105.892 78.5283 106.975L80.5973 106.201C81.0034 105.138 81.4288 104.074 81.8542 103.011Z" fill="white"/>
</g>
<g style="mix-blend-mode:overlay" opacity="0.48">
<path d="M90.0541 99.8979L87.3083 100.923C86.8829 102.006 86.4381 103.069 86.0127 104.152L89.0679 102.992C89.3773 101.948 89.706 100.923 90.0541 99.8979Z" fill="white"/>
</g>
<path opacity="0.22" d="M32.7242 91.6541C28.2481 92.1129 23.7659 90.844 20.1945 88.1071C16.6231 85.3701 14.2325 81.3719 13.5117 76.9305C12.6049 72.4556 13.3752 67.8035 15.6758 63.8596C18.1726 59.6708 22.1664 57.1041 26.1079 54.3781C28.2457 53.0472 30.0998 51.3074 31.5639 49.2585C33.0279 47.2096 34.0731 44.8919 34.6396 42.4382C35.7794 37.3515 36.3777 32.1584 36.4244 26.9458L30.4164 25.7072C30.2183 25.6672 30.0141 25.6678 29.8163 25.709C29.6184 25.7502 29.431 25.8311 29.2653 25.9469C29.0997 26.0627 28.9593 26.2109 28.8526 26.3826C28.7459 26.5543 28.6752 26.7458 28.6448 26.9456C28.5992 27.1441 28.5957 27.35 28.6345 27.55C28.6734 27.7499 28.7538 27.9395 28.8705 28.1065C28.9872 28.2734 29.1377 28.4141 29.3121 28.5193C29.4865 28.6244 29.6811 28.6919 29.8832 28.7172L32.0625 29.1635L27.0516 53.0934C16.7189 53.4576 8.04047 59.3102 6.26896 67.9935C4.08102 78.5926 13.0246 89.3738 26.2247 92.0837C39.4249 94.7936 51.8925 88.3974 54.0567 77.8081C54.1461 77.3527 54.2119 76.9071 54.2776 76.4615C52.2879 80.6285 49.2607 84.2142 45.4864 86.8746C41.7122 89.535 37.3175 91.1808 32.7242 91.6541Z" fill="white"/>
<path opacity="0.47" d="M48.544 31.0812L37.4994 28.8276C37.3808 28.8048 37.2762 28.7358 37.2085 28.6358C37.1407 28.5359 37.1155 28.4131 37.1383 28.2945C37.1611 28.176 37.2301 28.0713 37.3301 28.0036C37.43 27.9359 37.5528 27.9107 37.6714 27.9335L48.7091 30.204C48.7717 30.2118 48.8319 30.2326 48.886 30.2649C48.9401 30.2972 48.9869 30.3405 49.0234 30.3918C49.0599 30.4432 49.0854 30.5016 49.0982 30.5633C49.1109 30.625 49.1108 30.6887 49.0977 30.7504C49.0845 30.812 49.0587 30.8702 49.0219 30.9214C48.9851 30.9726 48.9381 31.0155 48.8838 31.0476C48.8295 31.0796 48.7692 31.1 48.7066 31.1075C48.644 31.115 48.5806 31.1094 48.5203 31.0911L48.544 31.0812Z" fill="white"/>
<path opacity="0.22" d="M40.8434 55.8504L45.777 31.8689L47.9325 32.3252C48.3164 32.3978 48.7136 32.3188 49.0405 32.1049C49.3675 31.891 49.5989 31.5587 49.6862 31.1778C49.7636 30.7934 49.6866 30.394 49.4719 30.0658C49.2572 29.7377 48.9221 29.5072 48.5388 29.4241L30.3832 25.6933C30.1851 25.6533 29.9809 25.6539 29.7831 25.6951C29.5852 25.7363 29.3978 25.8173 29.2321 25.9331C29.0665 26.0489 28.9261 26.1971 28.8194 26.3687C28.7127 26.5404 28.6421 26.732 28.6116 26.9318C28.566 27.1303 28.5625 27.3362 28.6013 27.5361C28.6402 27.7361 28.7206 27.9257 28.8373 28.0926C28.954 28.2596 29.1045 28.4002 29.2789 28.5054C29.4533 28.6106 29.6479 28.678 29.85 28.7033L32.0293 29.1497L27.0521 53.0935C16.7193 53.4577 8.04092 59.3103 6.26942 67.9935C4.08147 78.5927 13.025 89.3739 26.2252 92.0838C39.4253 94.7936 51.8929 88.3974 54.0571 77.8082C55.8732 69.0645 50.198 60.2427 40.8434 55.8504Z" fill="white"/>
<g opacity="0.47">
<path opacity="0.47" d="M39.2067 56.1404C39.0893 56.1107 38.987 56.0386 38.9195 55.938C38.8519 55.8374 38.8239 55.7155 38.8408 55.5955L43.175 34.4982C43.2004 34.3808 43.2713 34.2782 43.3721 34.2128C43.4728 34.1474 43.5954 34.1245 43.713 34.1491C43.7712 34.1587 43.8268 34.1801 43.8765 34.2118C43.9262 34.2435 43.969 34.2849 44.0023 34.3336C44.0355 34.3823 44.0586 34.4373 44.0701 34.4951C44.0816 34.553 44.0812 34.6125 44.0691 34.6703L39.7517 55.7745C39.7219 55.8919 39.6498 55.9942 39.5492 56.0617C39.4487 56.1293 39.3267 56.1573 39.2067 56.1404Z" fill="white"/>
</g>
<g opacity="0.47">
<path opacity="0.47" d="M49.9555 84.0729L49.8545 84.0312C49.8009 84.0042 49.7532 83.9668 49.7142 83.9212C49.6751 83.8756 49.6455 83.8228 49.627 83.7657C49.6084 83.7086 49.6013 83.6484 49.6061 83.5886C49.6109 83.5288 49.6275 83.4705 49.655 83.4171C50.7629 81.4796 51.4656 79.3371 51.7205 77.1198C51.9753 74.9024 51.7771 72.6564 51.1376 70.518C48.7508 63.3684 41.3366 59.6193 41.2693 59.5915C41.1598 59.5362 41.076 59.4406 41.0356 59.3247C40.9953 59.2088 41.0015 59.0818 41.0529 58.9705C41.08 58.9169 41.1174 58.8692 41.163 58.8302C41.2085 58.7911 41.2614 58.7615 41.3185 58.7429C41.3755 58.7244 41.4357 58.7173 41.4956 58.7221C41.5554 58.7269 41.6137 58.7435 41.6671 58.7709C42.0036 58.9098 49.5049 62.7342 51.9994 70.2434C52.6791 72.4938 52.8939 74.8589 52.6307 77.1949C52.3676 79.5309 51.632 81.789 50.4686 83.8317C50.423 83.924 50.3474 83.9982 50.2542 84.042C50.161 84.0858 50.0557 84.0967 49.9555 84.0729Z" fill="white"/>
</g>
<path d="M38.5503 76.1554C33.16 76.2593 27.8085 75.2252 22.845 73.1208C18.6713 71.3984 14.6249 69.177 10.4561 67.6338C10.2724 68.1595 10.1231 68.6966 10.0092 69.2416C8.25422 78.2666 15.6108 87.3096 26.601 89.5998C37.5912 91.8901 48.0102 86.4013 49.8661 77.418C50.0208 76.6288 50.1076 75.8278 50.1254 75.0238C46.2931 75.6314 42.4278 76.0093 38.5503 76.1554Z" fill="#FE487C"/>
<path d="M10.4561 67.6338C10.4561 67.6338 18.3171 62.3302 50.1255 75.0238C50.1255 75.0238 32.6217 85.9396 10.4561 67.6338Z" fill="#FE9BB8"/>
<path d="M22.7428 72.1727C22.697 72.3875 22.5885 72.5839 22.4311 72.7371C22.2737 72.8902 22.0743 72.9933 21.8583 73.0332C21.6423 73.0731 21.4194 73.048 21.2176 72.9612C21.0159 72.8743 20.8444 72.7296 20.7249 72.5453C20.6053 72.361 20.5432 72.1455 20.5462 71.9258C20.5492 71.7062 20.6173 71.4924 20.7418 71.3115C20.8663 71.1305 21.0417 70.9906 21.2458 70.9093C21.4498 70.8281 21.6734 70.8091 21.8882 70.8549C22.1763 70.9164 22.4282 71.0897 22.5884 71.3368C22.7487 71.584 22.8042 71.8846 22.7428 72.1727Z" fill="white"/>
<path d="M25.2305 61.4213C25.1404 61.8673 24.8769 62.2593 24.4979 62.511C24.1188 62.7627 23.6553 62.8535 23.2093 62.7635C22.7633 62.6735 22.3713 62.4099 22.1196 62.0309C21.8679 61.6518 21.777 61.1883 21.8671 60.7423C21.9826 60.3105 22.2529 59.9363 22.6266 59.6909C23.0002 59.4456 23.4511 59.3463 23.8932 59.412C24.1138 59.4544 24.3238 59.5404 24.5108 59.6648C24.6979 59.7891 24.8583 59.9495 24.9827 60.1365C25.1072 60.3235 25.1932 60.5334 25.2357 60.754C25.2783 60.9746 25.2765 61.2014 25.2305 61.4213Z" fill="white"/>
<path d="M38.8421 73.3016C38.7498 73.7467 38.4845 74.1369 38.1046 74.3864C37.7246 74.6359 37.2611 74.7242 36.816 74.6319C36.3709 74.5397 35.9807 74.2744 35.7312 73.8944C35.4817 73.5144 35.3934 73.0509 35.4856 72.6058C35.5313 72.3854 35.62 72.1762 35.7465 71.99C35.8731 71.8039 36.0351 71.6445 36.2232 71.521C36.4114 71.3975 36.622 71.3122 36.8431 71.2701C37.0642 71.2279 37.2914 71.2298 37.5118 71.2755C37.7322 71.3212 37.9414 71.4098 38.1276 71.5364C38.3137 71.6629 38.4731 71.8249 38.5966 72.013C38.7201 72.2012 38.8054 72.4118 38.8475 72.6329C38.8896 72.854 38.8878 73.0812 38.8421 73.3016Z" fill="white"/>
<path d="M34.2669 53.5102C34.2244 53.7264 34.1187 53.925 33.963 54.0809C33.8074 54.2367 33.6089 54.3428 33.3929 54.3856C33.1768 54.4284 32.9529 54.4059 32.7496 54.3211C32.5463 54.2363 32.3728 54.093 32.2512 53.9094C32.1296 53.7257 32.0653 53.5101 32.0666 53.2898C32.0679 53.0695 32.1346 52.8546 32.2583 52.6724C32.382 52.4902 32.5571 52.3488 32.7614 52.2664C32.9656 52.1839 33.1898 52.1641 33.4054 52.2093C33.6912 52.2693 33.9418 52.4395 34.1031 52.683C34.2643 52.9265 34.3232 53.2237 34.2669 53.5102Z" fill="white"/>
<path d="M41.861 64.5031C41.8152 64.7179 41.7068 64.9143 41.5493 65.0675C41.3919 65.2206 41.1926 65.3237 40.9766 65.3636C40.7606 65.4035 40.5376 65.3784 40.3359 65.2916C40.1341 65.2047 39.9626 65.06 39.8431 64.8757C39.7236 64.6914 39.6614 64.4759 39.6644 64.2562C39.6674 64.0366 39.7355 63.8228 39.8601 63.6419C39.9846 63.4609 40.16 63.321 40.364 63.2397C40.5681 63.1585 40.7917 63.1395 41.0065 63.1853C41.2921 63.251 41.541 63.4253 41.7005 63.6712C41.86 63.9171 41.9176 64.2155 41.861 64.5031Z" fill="white"/>
<path d="M32.7748 65.8546C32.7613 66.0106 32.715 66.1619 32.639 66.2988C32.5629 66.4356 32.4588 66.5548 32.3334 66.6485C32.2081 66.7423 32.0643 66.8085 31.9116 66.8428C31.7589 66.8771 31.6006 66.8787 31.4472 66.8475C31.2938 66.8163 31.1487 66.7531 31.0215 66.6619C30.8942 66.5707 30.7877 66.4537 30.7089 66.3184C30.63 66.1832 30.5807 66.0328 30.5641 65.8771C30.5474 65.7215 30.5639 65.5641 30.6124 65.4152C30.6968 65.1561 30.8736 64.937 31.1091 64.7997C31.3446 64.6624 31.6224 64.6166 31.8895 64.6709C32.1566 64.7251 32.3944 64.8758 32.5577 65.0941C32.7209 65.3124 32.7982 65.5831 32.7748 65.8546Z" fill="white"/>
<path d="M14.4373 75.2639C14.4098 75.4066 14.3541 75.5423 14.2735 75.6632C14.1929 75.7841 14.089 75.8877 13.9678 75.9679C13.8467 76.0481 13.7107 76.1034 13.568 76.1304C13.4252 76.1575 13.2785 76.1557 13.1364 76.1254C12.8772 76.0409 12.6581 75.8642 12.5209 75.6287C12.3836 75.3932 12.3377 75.1154 12.392 74.8483C12.4463 74.5812 12.5969 74.3433 12.8152 74.1801C13.0335 74.0168 13.3042 73.9396 13.5758 73.963C13.7185 73.9905 13.8542 74.0462 13.9751 74.1268C14.096 74.2074 14.1996 74.3113 14.2798 74.4325C14.36 74.5536 14.4153 74.6896 14.4423 74.8323C14.4694 74.9751 14.4677 75.1218 14.4373 75.2639Z" fill="white"/>
<path d="M32.4065 82.877C32.3641 83.0932 32.2583 83.2918 32.1027 83.4477C31.947 83.6035 31.7486 83.7096 31.5325 83.7524C31.3164 83.7952 31.0925 83.7727 30.8892 83.688C30.686 83.6032 30.5125 83.4598 30.3909 83.2762C30.2693 83.0925 30.205 82.8769 30.2063 82.6566C30.2075 82.4364 30.2743 82.2214 30.398 82.0392C30.5217 81.857 30.6968 81.7156 30.9011 81.6332C31.1053 81.5507 31.3295 81.5309 31.545 81.5762C31.8308 81.6362 32.0815 81.8063 32.2427 82.0498C32.404 82.2933 32.4628 82.5905 32.4065 82.877Z" fill="white"/>
</svg>
