<svg width="124" height="181" viewBox="0 0 124 181" fill="none" xmlns="http://www.w3.org/2000/svg">
<path d="M101.207 161.879L99.8236 176.585L105.876 180.709H87.0241L81.144 158.422" fill="#FFE0C2"/>
<path d="M29.0631 161.879L30.4469 176.585L24.3945 180.709H43.2464L49.1319 158.422" fill="#FFE0C2"/>
<path d="M19.667 140.949C19.667 140.949 22.5047 169.143 41.2058 167.759C59.9069 166.375 66.0131 172.95 82.7219 172.95C99.4306 172.95 120.043 170.354 112.02 140.949C103.997 111.543 58.3076 120.907 58.3076 120.907" fill="#75B1C9"/>
<path d="M27.7869 81.4637L19.5429 113.815C19.5429 113.815 17.7929 123.324 19.5429 142.354C19.5429 142.354 60.7413 129.899 111.874 142.354C111.874 142.354 116.414 90.8116 98.3589 68.6643C80.3039 46.517 27.7869 81.4637 27.7869 81.4637Z" fill="#75B1C9"/>
<path d="M27.9487 81.3776C26.3333 81.9161 20.4102 110.993 20.4102 110.993C103.388 102.723 91.5313 78.3676 91.5313 78.3676C91.5313 78.3676 29.5642 80.8391 27.9487 81.3776Z" fill="#FFD3AE"/>
<path d="M121.621 101.522C121.621 101.522 124.932 122.522 104.11 127.525C104.11 127.525 97.7235 140.658 93.2596 140.087C88.7957 139.516 85.7964 129.581 85.7964 129.581C85.7964 129.581 83.7017 133.017 79.7332 128.628C75.7647 124.24 103.507 105.824 105.311 90.7093C107.114 75.5944 119.289 85.3084 121.621 101.522Z" fill="#FFE0C2"/>
<path d="M21.8417 44.677C26.4246 42.7788 28.6009 37.5248 26.7026 32.9419C24.8043 28.359 19.5503 26.1828 14.9674 28.081C10.3846 29.9793 8.20829 35.2333 10.1066 39.8162C12.0049 44.399 17.2589 46.5753 21.8417 44.677Z" fill="#FFE0C2"/>
<path d="M27.185 38.0291C28.0997 34.1535 25.6995 30.2702 21.8239 29.3555C17.9484 28.4408 14.0651 30.841 13.1504 34.7166C12.2357 38.5922 14.6359 42.4754 18.5115 43.3902C22.387 44.3049 26.2703 41.9046 27.185 38.0291Z" fill="#FFD3AE"/>
<path d="M115.038 44.6744C119.62 42.7762 121.797 37.5222 119.898 32.9393C118 28.3564 112.746 26.1802 108.163 28.0785C103.58 29.9767 101.404 35.2307 103.302 39.8136C105.201 44.3964 110.455 46.5727 115.038 44.6744Z" fill="#FFE0C2"/>
<path d="M114.926 41.4764C117.742 38.6607 117.742 34.0955 114.926 31.2798C112.111 28.464 107.545 28.464 104.73 31.2798C101.914 34.0955 101.914 38.6607 104.73 41.4764C107.545 44.2921 112.111 44.2921 114.926 41.4764Z" fill="#FFD3AE"/>
<path d="M18.4016 42.9308C18.4016 42.9308 10.9653 1.46857 60.8816 1.46857C110.798 1.46857 112.925 42.9308 112.925 42.9308C112.925 42.9308 116.252 71.292 65.4693 71.292C14.6862 71.292 18.4016 42.9308 18.4016 42.9308Z" fill="#FFE0C2"/>
<path d="M39.4881 30.7991C41.4267 30.7982 43.3387 31.25 45.072 32.1183C45.3345 31.0049 45.4646 29.8644 45.4597 28.7206C45.4597 24.4936 43.7958 21.0635 41.7443 21.0635C39.6927 21.0635 38.0288 24.5205 38.0288 28.7206C38.0283 29.4412 38.0786 30.1609 38.1796 30.8744C38.6104 30.826 39.0465 30.7991 39.4881 30.7991Z" fill="#634E42"/>
<path d="M89.0055 30.7991C87.0668 30.7982 85.1548 31.25 83.4215 32.1183C83.1591 31.0049 83.0289 29.8644 83.0338 28.7206C83.0338 24.4936 84.6977 21.0635 86.7493 21.0635C88.8008 21.0635 90.4647 24.4936 90.4647 28.7206C90.4653 29.4412 90.4149 30.1609 90.3139 30.8744C89.8832 30.826 89.447 30.7991 89.0055 30.7991Z" fill="#634E42"/>
<path d="M18.0082 25.7536C18.0082 25.7536 17.8682 30.4006 21.0559 30.0021C24.2437 29.6037 24.906 24.9567 24.906 24.9567C24.906 24.9567 28.4868 24.0305 28.4868 20.4443C28.4868 20.4443 34.9969 10.8864 23.9744 10.4879C23.9744 10.4879 14.4166 6.90174 16.0105 18.0535C15.9943 18.0588 9.25264 23.7612 18.0082 25.7536Z" fill="#EFEFEF"/>
<path d="M110.227 25.7536C110.227 25.7536 110.362 30.4006 107.179 30.0021C103.997 29.6037 103.329 24.9567 103.329 24.9567C103.329 24.9567 99.743 24.0305 99.743 20.4443C99.743 20.4443 93.2383 10.8864 104.255 10.4879C104.255 10.4879 113.813 6.90174 112.225 18.0535C112.214 18.0588 118.972 23.7612 110.227 25.7536Z" fill="#EFEFEF"/>
<path d="M65.8192 38.8061V104.634L64.7423 104.833L63.6977 104.634C58.636 103.584 46.1274 100.24 45.4381 92.6262C45.4381 92.6262 26.344 90.677 25.6386 81.1191C25.6386 81.1191 6.87288 71.2005 15.1923 56.888C15.1923 56.888 14.4815 29.4529 20.1462 24.6713L20.857 27.4175C20.857 27.4175 30.614 34.213 29.1979 41.9939C29.1979 41.9939 39.8165 40.05 43.7366 47.4863C43.7366 47.4863 53.2944 37.1315 59.8422 37.4384C61.5074 37.4617 63.1651 37.6675 64.7854 38.0523C66.0131 38.4238 65.8192 38.8061 65.8192 38.8061Z" fill="#EFEFEF"/>
<path d="M103.878 81.1191C103.173 90.677 84.073 92.6262 84.073 92.6262C83.3838 100.24 70.8751 103.584 65.8188 104.634L64.7419 104.833L63.6973 104.634V38.8061C63.6973 38.8061 63.498 38.4238 64.7419 38.0522C66.3712 37.6674 68.038 37.4633 69.712 37.4438C76.2598 37.1368 85.823 47.4916 85.823 47.4916C89.7162 40.0554 100.335 41.9992 100.335 41.9992C98.9186 34.213 108.654 27.3959 108.654 27.3959L109.37 24.6497C115.03 29.4313 114.324 56.8664 114.324 56.8664C122.638 71.2005 103.878 81.1191 103.878 81.1191Z" fill="#EFEFEF"/>
<path d="M74.4939 33.5237C74.1184 33.5225 73.7435 33.5549 73.3739 33.6206C71.8823 31.9083 69.0661 30.756 65.8353 30.756C62.6044 30.756 59.7667 31.9083 58.2967 33.6206C57.927 33.5552 57.5521 33.5227 57.1767 33.5237C54.7428 33.5237 52.772 34.7999 52.772 36.3776C52.772 37.9553 54.7428 39.2315 57.1767 39.2315C57.552 39.2298 57.9266 39.1974 58.2967 39.1346C59.7829 40.8415 62.6044 41.9939 65.8353 41.9939C69.0661 41.9939 71.8984 40.8415 73.3739 39.1346C73.7439 39.1976 74.1185 39.23 74.4939 39.2315C76.9224 39.2315 78.8932 37.9499 78.8932 36.3776C78.8932 34.8053 76.9224 33.5237 74.4939 33.5237Z" fill="#FFD3AE"/>
<path d="M79.0441 11.0587C79.0441 11.0587 76.5672 3.19707 84.8704 1.00011C93.1736 -1.19685 95.1875 8.00023 95.1875 8.00023C95.1875 8.00023 89.4851 4.03708 85.9096 4.98479C82.3342 5.9325 81.3111 6.78867 79.0441 11.0587Z" fill="#EFEFEF"/>
<path d="M32.752 7.28944C32.752 7.28944 33.6943 -0.927623 42.1752 0.445477C50.6561 1.81858 48.7445 11.0587 48.7445 11.0587C48.7445 11.0587 45.1529 5.13555 41.5021 4.52708C37.8513 3.91861 36.5536 4.30093 32.752 7.28944Z" fill="#EFEFEF"/>
<path d="M11.2021 96.7401C11.2021 96.7401 -6.31971 84.6946 4.3797 66.1389C4.3797 66.1389 -0.757311 52.4671 2.72659 49.624C6.2105 46.7809 15.4883 51.444 15.4883 51.444C15.4883 51.444 14.4114 47.5562 20.3346 47.6747C26.2578 47.7932 14.4922 71.1628 28.3309 82.6753C37.6841 90.4939 23.1562 103.988 11.2021 96.7401Z" fill="#FFE0C2"/>
</svg>
