<svg width="31" height="31" viewBox="0 0 31 31" fill="none" xmlns="http://www.w3.org/2000/svg">
<path d="M14.3315 0.503143H16.6748C16.7084 0.568755 16.7716 0.557038 16.831 0.561725C17.9377 0.653513 19.0302 0.872891 20.0866 1.21549C21.4761 1.6654 22.7837 2.28246 23.9725 3.13931C23.7303 3.33146 23.6842 3.58297 23.6913 3.8829C23.7077 4.59057 23.6913 5.29901 23.6842 6.00746L22.7313 6.93304C22.3408 6.51907 21.8588 6.21679 21.3777 5.9231C19.0196 4.48668 16.4654 3.96101 13.7465 4.39373C11.1463 4.80849 8.93812 6.00433 7.17677 7.97423C4.81477 10.6198 3.87278 13.7285 4.39689 17.227C4.82258 20.0686 6.19338 22.4282 8.44447 24.2239C11.2564 26.468 14.451 27.2257 17.9737 26.4602C20.4287 25.9259 22.4579 24.6496 24.0849 22.7446C24.8481 21.8668 25.4557 20.8651 25.8814 19.7827L25.9291 19.7725C26.4493 19.8725 26.8968 20.0444 27.0929 20.6192C27.2296 21.0199 27.5022 21.3769 27.6186 21.7807C27.7834 22.3532 28.22 22.4837 28.6988 22.5946C28.6465 22.6993 28.5996 22.8063 28.5426 22.907C27.5773 24.6061 26.2885 26.0995 24.7489 27.303C22.7141 28.9107 20.2926 29.9556 17.7269 30.3328C17.3567 30.3883 16.9755 30.375 16.6154 30.4968H14.3315C14.2964 30.4344 14.2339 30.4453 14.1753 30.4383C13.702 30.3758 13.2247 30.3375 12.7576 30.2461C9.10293 29.5306 6.07622 27.7427 3.76889 24.8191C0.956984 21.2613 -0.0248412 17.2067 0.761712 12.7537C1.32722 9.56374 2.83706 6.85337 5.18891 4.62493C7.46968 2.46393 10.1662 1.14468 13.2786 0.667171C13.6293 0.613276 13.9925 0.631241 14.3315 0.503143Z" fill="#219EBC"/>
<path d="M30.5 16.6716C30.3868 16.8935 30.4453 17.1465 30.3727 17.3746C29.9908 17.1973 29.6205 17.1723 29.244 17.4105C29.023 17.5511 28.7684 17.6371 28.5411 17.7698C27.9037 18.1424 27.2616 18.3541 26.5688 17.9089C26.554 17.8987 26.5305 17.9026 26.5118 17.8995L26.4993 17.8386C27.0228 15.3727 26.702 12.8025 25.5886 10.5409C25.1879 9.71215 24.6575 8.96934 24.1006 8.24215L24.9934 7.31969C25.7018 7.315 26.4103 7.29704 27.1179 7.31422C27.4179 7.32125 27.6694 7.27673 27.8615 7.03459C27.8897 7.06091 27.9158 7.08937 27.9396 7.11973C29.1793 8.96035 29.9959 11.0528 30.3305 13.2466C30.3852 13.6067 30.3688 13.9784 30.4977 14.3268L30.5 16.6716Z" fill="#219EBC"/>
<path d="M26.6337 0.503143C26.6337 1.7935 26.6337 3.08359 26.6337 4.37342L23.7116 7.23923L23.6812 6.00746C23.6858 5.29901 23.7046 4.59057 23.6882 3.8829C23.6812 3.58297 23.7272 3.33146 23.9686 3.13931C24.7794 2.33479 25.5891 1.52975 26.3978 0.724191C26.4634 0.659361 26.5595 0.611714 26.5751 0.503143H26.6337Z" fill="#EC5858"/>
<path d="M25.883 19.7827C25.4572 20.8651 24.8497 21.8668 24.0865 22.7446C22.4595 24.6496 20.4303 25.9259 17.9753 26.4602C14.4518 27.2257 11.258 26.468 8.44606 24.2239C6.19575 22.4274 4.82417 20.0686 4.39848 17.227C3.87437 13.7285 4.81636 10.6198 7.17836 7.97423C8.93815 6.00433 11.1463 4.80849 13.7465 4.39373C16.4655 3.96101 19.0196 4.48512 21.3746 5.9231C21.8557 6.21679 22.3345 6.51907 22.7282 6.93304C22.2182 7.43762 21.7128 7.94377 21.1988 8.44522C20.8185 8.81702 20.4326 9.18335 20.0491 9.55202C18.3799 8.28901 16.4998 7.78599 14.4346 8.07968C10.266 8.66861 7.42206 12.6022 8.11879 16.7802C8.82176 21.0184 13.1177 23.8404 17.2794 22.7781C19.6593 22.1705 21.341 20.7075 22.3791 18.4892C22.4271 18.4923 22.4746 18.4999 22.5212 18.5119C23.3601 18.8134 24.2013 19.107 25.034 19.4234C25.3206 19.532 25.6417 19.5655 25.883 19.7827Z" fill="#F1F1F1"/>
<path d="M20.0491 9.55203C20.4326 9.18336 20.8185 8.81703 21.1988 8.44523C21.7105 7.94378 22.2143 7.43763 22.7282 6.93305L23.6811 6.00746L23.7116 7.23924C23.7772 7.34937 23.8858 7.30172 23.9756 7.30407C24.3146 7.31422 24.6544 7.31578 24.991 7.32125L24.1014 8.24371C23.1828 9.1115 22.2947 10.0105 21.4183 10.9213C20.5024 11.8008 19.6041 12.6988 18.7236 13.6152C18.3518 13.9488 18.0019 14.3042 17.6644 14.6721C17.3317 14.9986 16.9935 15.3196 16.6685 15.6531C16.4709 15.8706 16.2012 16.0094 15.9093 16.0436C15.4586 16.0233 15.1236 15.8249 14.972 15.3899C14.8205 14.9548 14.9572 14.6002 15.2798 14.2846C15.9742 13.6051 16.6561 12.9138 17.3434 12.2273C17.4918 12.089 17.6441 11.9539 17.7886 11.8117C18.5455 11.0619 19.3266 10.3331 20.0491 9.55203Z" fill="#415A6B"/>
<path d="M26.5125 17.9011C26.5313 17.9011 26.5547 17.9011 26.5695 17.9104C27.2624 18.3556 27.9044 18.1448 28.5418 17.7714C28.7683 17.6386 29.0229 17.5527 29.2448 17.4121C29.6212 17.1778 29.9915 17.1989 30.3734 17.3762C30.179 19.0328 29.6977 20.643 28.9511 22.1346C28.873 22.2908 28.7847 22.4415 28.7003 22.5946C28.2223 22.4829 27.7857 22.3533 27.6209 21.7807C27.5045 21.3769 27.2303 21.0199 27.0952 20.6192C26.8992 20.0444 26.4516 19.8725 25.9314 19.7725C26.1246 19.1487 26.3183 18.5249 26.5125 17.9011Z" fill="#188DA0"/>
<path d="M26.5126 17.9011C26.3178 18.5259 26.1239 19.1508 25.9307 19.7757L25.883 19.7858C25.6417 19.5687 25.3207 19.5351 25.034 19.4265C24.2014 19.1141 23.3601 18.8165 22.5212 18.515C22.4747 18.503 22.4271 18.4954 22.3791 18.4923C22.3767 18.4742 22.3767 18.4558 22.3791 18.4377C22.6581 17.8691 22.833 17.2551 22.8954 16.6248L22.9415 16.6123C23.8257 16.9247 24.7083 17.2481 25.5972 17.5566C25.8971 17.6613 26.1798 17.819 26.5048 17.8433L26.5126 17.9011Z" fill="#CBD0D4"/>
<path d="M26.5001 17.8433C26.1752 17.819 25.8924 17.6613 25.5925 17.5566C24.706 17.2481 23.8233 16.9317 22.9368 16.6123C22.943 16.4857 22.9438 16.3592 22.9563 16.2327C23.1417 14.2607 22.6283 12.4902 21.416 10.9213C22.2924 10.0105 23.1805 9.1115 24.0991 8.24371C24.656 8.9709 25.1863 9.71372 25.587 10.5424C26.702 12.8047 27.0236 15.3761 26.5001 17.8433Z" fill="#F1F1F1"/>
<path d="M24.9941 7.32125C24.6544 7.31578 24.3146 7.31422 23.9787 7.30406C23.8889 7.30406 23.7803 7.34937 23.7147 7.23923L26.6352 4.37343L30.3844 4.38202V4.482C29.6377 5.23445 28.8912 5.98689 28.145 6.73934C28.049 6.83619 27.9584 6.93695 27.8654 7.03615C27.6733 7.27829 27.4218 7.32281 27.1218 7.31578C26.411 7.2986 25.7026 7.31656 24.9941 7.32125Z" fill="#C94545"/>
<path d="M22.3766 18.4345C22.3743 18.4527 22.3743 18.4711 22.3766 18.4892C21.3394 20.7075 19.6569 22.1705 17.2769 22.7782C13.1177 23.8404 8.82246 21.0184 8.11636 16.7802C7.42198 12.6022 10.2659 8.66861 14.4346 8.07967C16.4998 7.78755 18.3798 8.29057 20.049 9.55358C19.3234 10.3347 18.5454 11.0634 17.7878 11.8133C17.6433 11.9554 17.491 12.0906 17.3425 12.2288C16.4896 11.7523 15.5773 11.6086 14.6361 11.8453C14.0682 11.981 13.5398 12.247 13.0925 12.6222C12.6452 12.9974 12.2913 13.4715 12.0588 14.007C11.8263 14.5426 11.7217 15.1249 11.7531 15.7079C11.7845 16.2908 11.9511 16.8585 12.2397 17.366C13.0638 18.8423 14.9735 19.6155 16.5833 19.0969C17.0684 18.9486 17.5188 18.7044 17.9079 18.379C18.297 18.0535 18.6168 17.6533 18.8485 17.202L19.3695 17.3769C20.3786 17.7159 21.3573 18.1276 22.3766 18.4345Z" fill="#EC5858"/>
<path d="M18.8516 17.2004C18.6199 17.6517 18.3001 18.0519 17.911 18.3774C17.522 18.7029 17.0716 18.947 16.5865 19.0953C14.9759 19.614 13.0669 18.8407 12.2429 17.3644C11.9542 16.8569 11.7876 16.2892 11.7563 15.7061C11.7249 15.1231 11.8297 14.5408 12.0622 14.0052C12.2948 13.4697 12.6487 12.9955 13.0961 12.6204C13.5435 12.2452 14.0721 11.9793 14.64 11.8437C15.5812 11.6094 16.4935 11.7508 17.3465 12.2272C16.6591 12.9138 15.9772 13.6051 15.2828 14.2846C14.9602 14.5971 14.8236 14.9571 14.9751 15.3899C15.1266 15.8226 15.4625 16.0233 15.9124 16.0436C16.0749 16.2904 16.367 16.278 16.6005 16.3623C17.3433 16.6388 18.0768 16.9481 18.8477 17.1434C18.8467 17.1625 18.848 17.1816 18.8516 17.2004Z" fill="#F4C222"/>
<path d="M21.4183 10.9213C22.6274 12.4886 23.1408 14.2591 22.9586 16.2326C22.9461 16.3592 22.9453 16.4857 22.939 16.6123L22.8929 16.6248C22.8649 16.5994 22.8337 16.5779 22.8 16.5607C21.9244 16.242 21.0504 15.9171 20.1693 15.6117C19.8694 15.5078 19.5882 15.3336 19.2578 15.3235L19.2461 15.2633C19.2283 14.6771 19.0473 14.1074 18.7235 13.6184C19.6041 12.7008 20.5023 11.8018 21.4183 10.9213Z" fill="#EC5858"/>
<path d="M19.2484 15.2602L19.2601 15.3203C19.2601 15.4266 19.2547 15.5328 19.2547 15.6382C19.2628 16.1685 19.1215 16.6904 18.8469 17.1442C18.076 16.9481 17.3426 16.6388 16.5998 16.3631C16.3654 16.2756 16.0741 16.2912 15.9116 16.0444C16.2035 16.0101 16.4732 15.8714 16.6708 15.6539C16.9958 15.3203 17.334 14.9993 17.6667 14.6728C18.1736 14.9165 18.7181 15.068 19.2484 15.2602Z" fill="#CE9F1B"/>
<path d="M19.2485 15.2602C18.7204 15.0681 18.176 14.9165 17.6667 14.672C18.0042 14.3042 18.3541 13.9488 18.7259 13.6152C19.0497 14.1043 19.2307 14.6739 19.2485 15.2602Z" fill="#F4C222"/>
<path d="M18.8446 17.1442C19.1192 16.6904 19.2605 16.1685 19.2523 15.6382C19.2523 15.5328 19.2523 15.4266 19.2578 15.3203C19.5882 15.3305 19.8694 15.5047 20.1693 15.6086C21.0504 15.914 21.9244 16.2389 22.8 16.5576C22.8337 16.5748 22.865 16.5963 22.893 16.6216C22.8306 17.2519 22.6557 17.8659 22.3767 18.4345C21.3613 18.1276 20.3787 17.7159 19.3726 17.3754L18.8516 17.2004C18.847 17.182 18.8447 17.1631 18.8446 17.1442Z" fill="#C94545"/>
</svg>
