<svg width="512" height="425" viewBox="0 0 512 425" fill="none" xmlns="http://www.w3.org/2000/svg">
<path d="M49.747 272.934C77.2215 272.934 99.494 245.866 99.494 212.475C99.494 179.084 77.2215 152.016 49.747 152.016C22.2725 152.016 0 179.084 0 212.475C0 245.866 22.2725 272.934 49.747 272.934Z" fill="#EFEDEE"/>
<path d="M462.253 272.934C489.727 272.934 512 245.866 512 212.475C512 179.084 489.727 152.016 462.253 152.016C434.778 152.016 412.506 179.084 412.506 212.475C412.506 245.866 434.778 272.934 462.253 272.934Z" fill="#EFEDEE"/>
<path d="M488.734 161.301C481.063 155.425 471.987 152.013 462.25 152.013C434.774 152.013 412.5 179.081 412.5 212.472C412.5 245.863 434.774 272.931 462.25 272.931C471.987 272.931 481.063 269.518 488.734 263.643C492.354 247.021 494.224 229.891 494.224 212.472C494.224 195.053 492.354 177.923 488.734 161.301Z" fill="#D4D2D3"/>
<path d="M49.7503 152.012C40.0133 152.012 30.9373 155.425 23.2673 161.3C19.6473 177.922 17.7773 195.052 17.7773 212.471C17.7773 229.89 19.6473 247.02 23.2673 263.642C30.9383 269.518 40.0143 272.93 49.7503 272.93C77.2263 272.93 99.5003 245.862 99.5003 212.471C99.4983 179.081 77.2243 152.012 49.7503 152.012Z" fill="#D4D2D3"/>
<path d="M256 424.95C373.347 424.95 468.475 329.822 468.475 212.475C468.475 95.1283 373.347 0 256 0C138.654 0 43.5254 95.1283 43.5254 212.475C43.5254 329.822 138.654 424.95 256 424.95Z" fill="#E6742E"/>
<path d="M256 375.192C345.866 375.192 418.717 302.341 418.717 212.475C418.717 122.609 345.866 49.7581 256 49.7581C166.134 49.7581 93.2832 122.609 93.2832 212.475C93.2832 302.341 166.134 375.192 256 375.192Z" fill="#FF8840"/>
<path d="M379.843 167.871C375.131 154.833 362.76 146.139 348.895 146.139H163.103C149.24 146.139 136.868 154.833 132.155 167.871C127.119 181.804 124.371 196.822 124.371 212.472C124.371 228.122 127.118 243.139 132.155 257.073C136.867 270.111 149.238 278.805 163.103 278.805H348.896C362.759 278.805 375.131 270.111 379.844 257.073C384.88 243.14 387.628 228.122 387.628 212.472C387.628 196.822 384.88 181.804 379.843 167.871Z" fill="#FBC4AC"/>
<path d="M152.759 257.072C147.723 243.139 144.975 228.121 144.975 212.471C144.975 196.823 147.722 181.804 152.759 167.871C157.471 154.833 169.842 146.139 183.707 146.139H163.103C149.24 146.139 136.868 154.833 132.155 167.871C127.119 181.804 124.371 196.822 124.371 212.471C124.371 228.12 127.118 243.138 132.155 257.072C136.867 270.11 149.238 278.804 163.103 278.804H183.707C169.844 278.803 157.472 270.109 152.759 257.072Z" fill="#E3B098"/>
</svg>
