<svg width="388" height="215" viewBox="0 0 388 215" fill="none" xmlns="http://www.w3.org/2000/svg">
<path d="M387.138 177.581C378.642 78.242 295.071 0 193.569 0C92.067 0 8.495 78.242 0 177.582L16.618 169.445L50.172 145.293H336.965L370.519 169.445L387.138 177.581Z" fill="#BF4E57"/>
<path d="M209.022 0.62C203.922 0.217 198.771 0 193.569 0C92.066 0 8.495 78.242 0 177.582L16.618 169.445L33.779 157.093C50.221 72.621 121.56 7.536 209.022 0.62Z" fill="#A03A46"/>
<path d="M337.841 146.978C337.544 145.887 336.858 144.958 335.901 144.356C325.072 137.552 256.339 95.9814 193.569 95.9814C130.799 95.9814 62.0661 137.552 51.2371 144.356C50.2801 144.958 49.5941 145.887 49.2971 146.978C46.3781 157.711 31.6311 216.037 56.2501 214.638C83.3601 213.097 135.813 155.31 193.569 155.31C251.325 155.31 303.778 213.097 330.888 214.638C355.507 216.037 340.759 157.71 337.841 146.978Z" fill="#DC5A64"/>
<path d="M77.9191 129.343C64.3791 136.27 54.7531 142.146 51.2371 144.356C50.2801 144.958 49.5941 145.887 49.2971 146.978C46.3781 157.711 31.6311 216.038 56.2501 214.638C62.1591 214.302 69.2741 211.293 77.3841 206.792C70.2321 190.084 74.4681 150.812 77.9191 129.343Z" fill="#BF4E57"/>
</svg>
