<svg width="397" height="397" viewBox="0 0 397 397" fill="none" xmlns="http://www.w3.org/2000/svg">
<path d="M344.95 108.562C369.665 108.562 389.7 88.5272 389.7 63.8125C389.7 39.0978 369.665 19.0625 344.95 19.0625C320.235 19.0625 300.2 39.0978 300.2 63.8125C300.2 88.5272 320.235 108.562 344.95 108.562Z" fill="#A05C42"/>
<path d="M51.6899 108.562C76.4047 108.562 96.4399 88.5272 96.4399 63.8125C96.4399 39.0978 76.4047 19.0625 51.6899 19.0625C26.9752 19.0625 6.93994 39.0978 6.93994 63.8125C6.93994 88.5272 26.9752 108.562 51.6899 108.562Z" fill="#A05C42"/>
<path d="M69.17 183.813C69.17 119.503 87.27 58.7225 124.39 14.2725C51.56 43.6425 0 115.003 0 198.263C0 307.603 89 396.563 198.3 396.563C204.3 396.563 210.3 396.273 216.15 395.743C136.62 370.023 69.15 288.553 69.15 183.813H69.17Z" fill="#A05C42"/>
<path d="M135.509 106.217C135.54 90.0737 119.134 76.9554 98.8656 76.9165C78.5968 76.8776 62.1406 89.9328 62.1096 106.076C62.0786 122.219 78.4846 135.338 98.7534 135.376C119.022 135.415 135.478 122.36 135.509 106.217Z" fill="white"/>
<path d="M334.391 106.648C334.422 90.5049 318.016 77.3867 297.747 77.3478C277.479 77.3088 261.022 90.364 260.991 106.507C260.96 122.651 277.366 135.769 297.635 135.808C317.904 135.847 334.36 122.791 334.391 106.648Z" fill="white"/>
<path d="M338.46 58.0725C261.03 -19.3575 135.46 -19.3575 58.07 58.0725C-19.32 135.503 -19.36 261.073 58.07 338.462C135.5 415.852 261.07 415.892 338.46 338.462C415.85 261.033 415.89 135.503 338.46 58.0725ZM198.32 338.893C122.32 338.893 60.54 306.073 60.54 230.103C60.54 154.133 122.34 150.303 198.32 150.303C274.3 150.303 336.09 154.133 336.09 230.103C336.09 306.073 274.29 338.893 198.32 338.893Z" fill="#C17452"/>
<path d="M120.6 61.7725C119.585 61.7725 118.58 61.9725 117.642 62.3609C116.704 62.7494 115.852 63.3188 115.134 64.0366C114.416 64.7544 113.847 65.6065 113.458 66.5444C113.07 67.4822 112.87 68.4874 112.87 69.5025V84.4125C112.833 85.4504 113.005 86.4851 113.376 87.4549C113.748 88.4248 114.311 89.3098 115.032 90.0573C115.753 90.8047 116.617 91.3992 117.573 91.8052C118.529 92.2112 119.556 92.4205 120.595 92.4205C121.634 92.4205 122.661 92.2112 123.617 91.8052C124.573 91.3992 125.437 90.8047 126.158 90.0573C126.879 89.3098 127.442 88.4248 127.814 87.4549C128.185 86.4851 128.357 85.4504 128.32 84.4125V69.5025C128.32 67.4541 127.507 65.4895 126.059 64.0401C124.612 62.5908 122.648 61.7752 120.6 61.7725Z" fill="#423E4F"/>
<path d="M283.55 84.4125V69.5025C283.587 68.4646 283.415 67.4299 283.044 66.4601C282.672 65.4902 282.109 64.6052 281.388 63.8578C280.667 63.1103 279.803 62.5158 278.847 62.1098C277.891 61.7038 276.863 61.4945 275.825 61.4945C274.786 61.4945 273.759 61.7038 272.803 62.1098C271.847 62.5158 270.983 63.1103 270.262 63.8578C269.541 64.6052 268.978 65.4902 268.606 66.4601C268.235 67.4299 268.063 68.4646 268.1 69.5025V84.4125C268.063 85.4503 268.235 86.4851 268.606 87.4549C268.978 88.4247 269.541 89.3098 270.262 90.0572C270.983 90.8047 271.847 91.3991 272.803 91.8052C273.759 92.2112 274.786 92.4205 275.825 92.4205C276.863 92.4205 277.891 92.2112 278.847 91.8052C279.803 91.3991 280.667 90.8047 281.388 90.0572C282.109 89.3098 282.672 88.4247 283.044 87.4549C283.415 86.4851 283.587 85.4503 283.55 84.4125Z" fill="#423E4F"/>
<path d="M234.37 85.5825C233.355 85.5812 232.35 85.7799 231.413 86.1673C230.475 86.5547 229.623 87.1231 228.905 87.8401C228.187 88.5571 227.617 89.4086 227.229 90.3459C226.84 91.2832 226.64 92.2879 226.64 93.3025C226.64 94.6473 226.375 95.9788 225.861 97.2212C225.346 98.4636 224.592 99.5924 223.641 100.543C222.69 101.494 221.561 102.248 220.319 102.763C219.076 103.278 217.745 103.543 216.4 103.543C215.055 103.543 213.724 103.278 212.481 102.763C211.239 102.248 210.11 101.494 209.159 100.543C208.208 99.5924 207.454 98.4636 206.939 97.2212C206.425 95.9788 206.16 94.6473 206.16 93.3025C206.088 91.3018 205.243 89.4071 203.802 88.0172C202.361 86.6272 200.437 85.8505 198.435 85.8505C196.433 85.8505 194.509 86.6272 193.068 88.0172C191.627 89.4071 190.782 91.3018 190.71 93.3025C190.71 96.0183 189.631 98.6229 187.711 100.543C185.79 102.464 183.186 103.543 180.47 103.543C177.754 103.543 175.15 102.464 173.229 100.543C171.309 98.6229 170.23 96.0183 170.23 93.3025C170.158 91.3018 169.313 89.4071 167.872 88.0172C166.431 86.6272 164.507 85.8505 162.505 85.8505C160.503 85.8505 158.579 86.6272 157.138 88.0172C155.697 89.4071 154.852 91.3018 154.78 93.3025C154.779 98.3606 156.272 103.306 159.071 107.519C161.87 111.732 165.851 115.024 170.515 116.983C175.178 118.942 180.316 119.48 185.284 118.53C190.252 117.58 194.829 115.184 198.44 111.643C202.05 115.185 206.626 117.583 211.594 118.534C216.562 119.484 221.7 118.946 226.364 116.987C231.027 115.028 235.007 111.735 237.805 107.521C240.603 103.307 242.094 98.3606 242.09 93.3025C242.09 91.2551 241.277 89.2914 239.829 87.8437C238.381 86.3959 236.417 85.5825 234.37 85.5825Z" fill="#423E4F"/>
</svg>
