<svg width="410" height="115" viewBox="0 0 410 115" fill="none" xmlns="http://www.w3.org/2000/svg">
<path d="M409.44 92.0264H0C9.2214 67.8605 22.6449 45.5162 39.65 26.0264H369.78C386.785 45.5183 400.211 67.8619 409.44 92.0264Z" fill="#FF889E"/>
<path d="M272 13.9364C271.353 10.7499 269.78 7.82518 267.478 5.52868C265.176 3.23217 262.248 1.66601 259.06 1.0264C249.983 -0.827294 240.571 -0.161251 231.845 2.95235C223.119 6.06596 215.412 11.5084 209.558 18.6898C203.705 25.8712 199.928 34.5176 198.638 43.6921C197.348 52.8666 198.594 62.2193 202.24 70.7364C210.758 74.3936 220.114 75.6486 229.294 74.3652C238.475 73.0819 247.128 69.3092 254.316 63.4564C261.505 57.6037 266.953 49.8943 270.07 41.1647C273.188 32.4351 273.855 23.0185 272 13.9364Z" fill="#F9496E"/>
<path d="M196.42 14.8864C190.491 8.94792 183.182 4.57318 175.147 2.15426C167.112 -0.264665 158.602 -0.652194 150.38 1.0264C147.204 1.67342 144.288 3.24052 141.996 5.53254C139.704 7.82457 138.137 10.7402 137.49 13.9164C135.632 22.9953 136.295 32.4096 139.406 41.1386C142.518 49.8677 147.96 57.5783 155.142 63.4345C162.324 69.2907 170.973 73.069 180.149 74.3597C189.326 75.6504 198.681 74.4042 207.2 70.7564C211.186 61.4318 212.29 51.1273 210.368 41.1701C208.447 31.2128 203.589 22.0587 196.42 14.8864Z" fill="#FD5F7E"/>
<path d="M204.72 114.676C221.327 114.676 234.79 101.214 234.79 84.6064C234.79 67.9992 221.327 54.5364 204.72 54.5364C188.113 54.5364 174.65 67.9992 174.65 84.6064C174.65 101.214 188.113 114.676 204.72 114.676Z" fill="#FF748F"/>
<path d="M99.8 26.0264H39.65C22.6449 45.5162 9.2214 67.8605 0 92.0264H72.63C78.5039 68.8469 87.6527 46.6233 99.8 26.0264Z" fill="#FF748F"/>
</svg>
