<svg width="441" height="152" viewBox="0 0 441 152" fill="none" xmlns="http://www.w3.org/2000/svg">
<path d="M402.982 0.868473C410.513 1.66497 417.63 4.70466 423.412 9.59366C429.194 14.4826 433.375 20.9956 435.412 28.2885C454.612 96.0885 411.772 151.998 411.772 151.998L291.982 38.1585C329.202 0.318474 375.502 -2.00153 402.982 0.868473Z" fill="#6A647F"/>
<path d="M393.152 37.0685H393.222C395.096 37.1791 396.882 37.8981 398.31 39.1164C399.737 40.3347 400.728 41.9856 401.132 43.8185C410.982 88.7285 384.982 125.998 382.412 129.538L318.412 64.0785C342.672 39.3785 372.912 35.9085 393.172 37.0785L393.152 37.0685Z" fill="#FF9DB0"/>
<path d="M37.3825 0.868473C29.8572 1.66934 22.7458 4.71114 16.9691 9.59992C11.1924 14.4887 7.01663 20.9993 4.98246 28.2885C-14.2875 96.0885 28.5525 151.998 28.5525 151.998L148.312 38.1585C111.122 0.318474 64.8225 -2.00153 37.3825 0.868473Z" fill="#5C586F"/>
<path d="M47.1724 37.0685H47.1024C45.2288 37.1791 43.4426 37.8981 42.0149 39.1164C40.5873 40.3347 39.5962 41.9856 39.1924 43.8185C29.3624 88.7285 55.3224 125.998 57.9124 129.538L121.912 64.0785C97.6724 39.3785 67.4324 35.9085 47.1724 37.0685Z" fill="#FF9DB0"/>
</svg>
