<svg width="411" height="411" viewBox="0 0 411 411" fill="none" xmlns="http://www.w3.org/2000/svg">
<path d="M403.62 25.3873C401.198 18.3088 396.706 12.1209 390.725 7.62586C384.745 3.1308 377.552 0.535808 370.08 0.177259C342.85 -1.11274 297.31 3.79726 262.77 43.2273L387.33 148.777C387.33 148.777 426.43 91.1873 403.62 25.3873Z" fill="#FCCB88"/>
<path d="M7.13945 25.3873C9.56355 18.3102 14.0564 12.1239 20.0362 7.6292C26.016 3.13451 33.2075 0.538495 40.6795 0.177259C67.9195 -1.11274 113.459 3.79726 147.999 43.2273L23.4395 148.777C23.4395 148.777 -15.6605 91.1873 7.13945 25.3873Z" fill="#FCCB88"/>
<path d="M370.73 42.6573C370.227 40.8707 369.155 39.2967 367.677 38.1742C366.199 37.0517 364.395 36.4419 362.54 36.4373H362.47C342.42 36.4373 312.79 41.5673 290.25 67.2973L357.1 128.297C359.45 124.587 383 86.3873 370.73 42.6573Z" fill="#FF9DB0"/>
<path d="M39.9995 42.6573C40.4991 40.869 41.5699 39.2932 43.0486 38.1702C44.5273 37.0472 46.3327 36.4386 48.1895 36.4373H48.2495C68.3095 36.4373 97.9395 41.5673 120.479 67.2973L53.6295 128.297C51.3095 124.587 27.8095 86.3873 39.9995 42.6573Z" fill="#FF9DB0"/>
<path d="M205.379 35.5773C96.5794 35.5773 8.37939 119.487 8.37939 222.997C8.37939 326.507 96.5894 410.407 205.379 410.407C314.169 410.407 402.379 326.497 402.379 222.997C402.379 119.497 314.189 35.5773 205.379 35.5773ZM290.709 338.207L224.439 350.647H186.319L120.059 338.207C104.571 329.902 91.4327 317.817 81.8642 303.075C72.2957 288.334 66.6074 271.413 65.3274 253.885C64.0475 236.357 67.2175 218.79 74.543 202.815C81.8685 186.84 93.112 172.975 107.229 162.507L170.729 141.897H239.999L303.509 162.507C317.624 172.976 328.866 186.842 336.19 202.817C343.513 218.792 346.683 236.358 345.403 253.885C344.123 271.412 338.435 288.331 328.869 303.073C319.302 317.814 306.166 329.9 290.679 338.207H290.709Z" fill="#FBE29F"/>
<path d="M170.729 141.897L156.059 185.437C149.429 205.117 121.579 205.117 114.949 185.437L107.229 162.507C125.191 149.097 147.014 141.866 169.429 141.897H170.729Z" fill="white"/>
<path d="M303.54 162.507L295.82 185.437C289.19 205.117 261.34 205.117 254.71 185.437L240 141.897H241.31C263.725 141.868 285.547 149.099 303.51 162.507H303.54Z" fill="white"/>
<path d="M186.32 350.647H169.43C152.194 350.671 135.226 346.395 120.06 338.207L130.54 307.107C137.17 287.427 165.02 287.427 171.65 307.107L186.32 350.647Z" fill="white"/>
<path d="M290.699 338.207C275.537 346.395 258.571 350.671 241.339 350.647H224.439L239.119 307.107C245.749 287.427 273.599 287.427 280.229 307.107L290.699 338.207Z" fill="white"/>
<path d="M119.879 124.927C117.829 124.927 115.863 124.113 114.413 122.663C112.964 121.214 112.149 119.247 112.149 117.197V100.787C112.149 99.7721 112.349 98.767 112.738 97.8291C113.126 96.8913 113.696 96.0391 114.413 95.3213C115.131 94.6035 115.983 94.0341 116.921 93.6457C117.859 93.2572 118.864 93.0573 119.879 93.0573C120.895 93.0573 121.9 93.2572 122.838 93.6457C123.775 94.0341 124.628 94.6035 125.345 95.3213C126.063 96.0391 126.633 96.8913 127.021 97.8291C127.409 98.767 127.609 99.7721 127.609 100.787V117.197C127.609 119.247 126.795 121.214 125.345 122.663C123.896 124.113 121.93 124.927 119.879 124.927Z" fill="#423E4F"/>
<path d="M290.699 124.927C288.654 124.919 286.696 124.101 285.253 122.653C283.81 121.204 282.999 119.242 282.999 117.197V100.787C282.962 99.7494 283.134 98.7147 283.506 97.7449C283.877 96.775 284.44 95.89 285.161 95.1425C285.882 94.3951 286.746 93.8006 287.702 93.3946C288.658 92.9886 289.686 92.7793 290.724 92.7793C291.763 92.7793 292.791 92.9886 293.747 93.3946C294.702 93.8006 295.567 94.3951 296.288 95.1425C297.009 95.89 297.572 96.775 297.943 97.7449C298.315 98.7147 298.487 99.7494 298.449 100.787V117.197C298.449 118.214 298.249 119.221 297.859 120.16C297.469 121.099 296.898 121.952 296.178 122.67C295.458 123.388 294.604 123.957 293.664 124.345C292.724 124.732 291.716 124.93 290.699 124.927Z" fill="#423E4F"/>
<path d="M231.529 98.1773C231.529 107.917 219.819 115.817 205.38 115.817C190.94 115.817 179.229 107.917 179.229 98.1773C179.229 88.4373 190.94 86.6373 205.38 86.6373C219.819 86.6373 231.529 88.4373 231.529 98.1773Z" fill="#FF9DB0"/>
<path d="M50.4794 222.467C50.4794 146.697 88.9994 80.3272 146.799 43.5472C66.6094 66.1172 8.36938 134.587 8.36938 222.997C8.36938 303.847 57.0894 367.997 126.759 395.647C76.7594 359.327 50.4794 298.027 50.4794 222.467Z" fill="#FCCB88"/>
</svg>
