<svg width="379" height="408" viewBox="0 0 379 408" fill="none" xmlns="http://www.w3.org/2000/svg">
<path d="M300.5 91.9856C293.694 88.184 288.028 82.6325 284.088 75.9057C280.148 69.179 278.077 61.5214 278.09 53.7256V44.9756C278.178 39.1014 277.097 33.2683 274.911 27.8156C272.724 22.3629 269.474 17.3996 265.351 13.2143C261.228 9.02907 256.315 5.70546 250.895 3.43687C245.476 1.16828 239.66 0 233.785 0C227.91 0 222.094 1.16828 216.675 3.43687C211.255 5.70546 206.341 9.02907 202.219 13.2143C198.096 17.3996 194.846 22.3629 192.659 27.8156C190.473 33.2683 189.392 39.1014 189.48 44.9756C189.568 39.1014 188.487 33.2683 186.301 27.8156C184.114 22.3629 180.864 17.3996 176.741 13.2143C172.619 9.02907 167.705 5.70546 162.285 3.43687C156.866 1.16828 151.05 0 145.175 0C139.3 0 133.484 1.16828 128.065 3.43687C122.645 5.70546 117.731 9.02907 113.609 13.2143C109.486 17.3996 106.236 22.3629 104.049 27.8156C101.863 33.2683 100.782 39.1014 100.87 44.9756V53.7256C100.883 61.5214 98.8124 69.179 94.8723 75.9057C90.9323 82.6325 85.266 88.184 78.46 91.9856C30.93 118.406 0 164.266 0 227.446C0 332.096 84.83 407.666 189.48 407.666C294.13 407.666 379 332.096 379 227.446C379 164.266 348 118.406 300.5 91.9856ZM273.69 341.146L208.29 353.426H170.67L105.28 341.146C89.9951 332.95 77.029 321.025 67.5857 306.477C58.1424 291.93 52.528 275.232 51.2641 257.935C50.0001 240.637 53.1275 223.301 60.3558 207.535C67.5841 191.77 78.6789 178.086 92.61 167.756L155.29 147.416H223.68L286.35 167.756C300.282 178.086 311.377 191.768 318.606 207.533C325.835 223.298 328.964 240.635 327.701 257.932C326.438 275.229 320.824 291.927 311.382 306.475C301.94 321.023 288.974 332.949 273.69 341.146Z" fill="#50E1CD"/>
<path d="M155.29 147.416L140.81 190.416C134.26 209.846 106.81 209.846 100.23 190.416L92.6101 167.796C110.334 154.548 131.872 147.398 154 147.416H155.29Z" fill="white"/>
<path d="M286.35 167.756L278.73 190.386C272.19 209.806 244.73 209.806 238.16 190.386L223.68 147.386H225C247.12 147.357 268.654 154.493 286.38 167.726L286.35 167.756Z" fill="white"/>
<path d="M170.67 353.426H154C136.991 353.45 120.245 349.229 105.28 341.146L115.62 310.466C122.16 291.036 149.62 291.036 156.19 310.466L170.67 353.426Z" fill="white"/>
<path d="M273.69 341.146C258.733 349.223 241.999 353.444 225 353.426H208.29L222.78 310.426C229.32 290.996 256.78 290.996 263.35 310.426L273.69 341.146Z" fill="white"/>
<path d="M215.24 71.9556C210.32 71.9534 205.459 73.0376 201.006 75.131C196.553 77.2244 192.618 80.2752 189.48 84.0656C185.087 78.7611 179.164 74.9415 172.52 73.1281C165.875 71.3147 158.833 71.596 152.354 73.9335C145.876 76.271 140.276 80.5508 136.32 86.1888C132.364 91.8268 130.244 98.5482 130.25 105.436C130.322 107.436 131.167 109.331 132.608 110.721C134.049 112.111 135.973 112.888 137.975 112.888C139.977 112.888 141.901 112.111 143.342 110.721C144.783 109.331 145.628 107.436 145.7 105.436C145.7 100.654 147.6 96.0678 150.981 92.6865C154.362 89.3052 158.948 87.4056 163.73 87.4056C168.512 87.4056 173.098 89.3052 176.479 92.6865C179.86 96.0678 181.76 100.654 181.76 105.436C181.832 107.436 182.677 109.331 184.118 110.721C185.559 112.111 187.483 112.888 189.485 112.888C191.487 112.888 193.411 112.111 194.852 110.721C196.293 109.331 197.138 107.436 197.21 105.436C197.21 100.662 199.106 96.0834 202.482 92.7077C205.858 89.3321 210.436 87.4356 215.21 87.4356C219.984 87.4356 224.562 89.3321 227.938 92.7077C231.314 96.0834 233.21 100.662 233.21 105.436C233.21 107.486 234.024 109.452 235.474 110.902C236.924 112.351 238.89 113.166 240.94 113.166C242.99 113.166 244.956 112.351 246.406 110.902C247.856 109.452 248.67 107.486 248.67 105.436C248.659 96.5681 245.136 88.066 238.87 81.791C232.604 75.516 224.108 71.9794 215.24 71.9556Z" fill="#00D1B3"/>
<path d="M145.18 62.0856C147.228 62.083 149.192 61.2674 150.639 59.818C152.087 58.3687 152.9 56.404 152.9 54.3556V39.6656C152.828 37.6649 151.983 35.7702 150.542 34.3803C149.101 32.9903 147.177 32.2136 145.175 32.2136C143.173 32.2136 141.249 32.9903 139.808 34.3803C138.367 35.7702 137.522 37.6649 137.45 39.6656V54.3556C137.45 56.4058 138.264 58.3719 139.714 59.8216C141.164 61.2712 143.13 62.0856 145.18 62.0856Z" fill="#423E4F"/>
<path d="M163.73 97.5956C162.715 97.5943 161.71 97.793 160.773 98.1804C159.835 98.5678 158.983 99.1362 158.265 99.8532C157.547 100.57 156.977 101.422 156.589 102.359C156.2 103.296 156 104.301 156 105.316V113.876C156 115.926 156.814 117.892 158.264 119.342C159.714 120.791 161.68 121.606 163.73 121.606C165.78 121.606 167.746 120.791 169.196 119.342C170.646 117.892 171.46 115.926 171.46 113.876V105.316C171.457 103.267 170.642 101.304 169.192 99.8562C167.743 98.4087 165.778 97.5956 163.73 97.5956Z" fill="#00D1B3"/>
<path d="M215.24 97.5956C214.225 97.5943 213.22 97.793 212.282 98.1804C211.345 98.5678 210.492 99.1362 209.775 99.8532C209.057 100.57 208.487 101.422 208.098 102.359C207.71 103.296 207.51 104.301 207.51 105.316V113.876C207.473 114.913 207.645 115.948 208.016 116.918C208.388 117.888 208.951 118.773 209.672 119.52C210.393 120.268 211.257 120.862 212.213 121.268C213.168 121.674 214.196 121.884 215.235 121.884C216.273 121.884 217.301 121.674 218.257 121.268C219.213 120.862 220.077 120.268 220.798 119.52C221.519 118.773 222.082 117.888 222.454 116.918C222.825 115.948 222.997 114.913 222.96 113.876V105.316C222.96 103.268 222.147 101.305 220.699 99.8568C219.251 98.409 217.287 97.5956 215.24 97.5956Z" fill="#00D1B3"/>
<path d="M233.79 62.0856C234.805 62.0856 235.809 61.8856 236.747 61.497C237.684 61.1084 238.535 60.5389 239.252 59.821C239.969 59.103 240.538 58.2508 240.925 57.313C241.313 56.3752 241.511 55.3703 241.51 54.3556V39.6656C241.438 37.6649 240.593 35.7702 239.152 34.3803C237.711 32.9903 235.787 32.2136 233.785 32.2136C231.783 32.2136 229.859 32.9903 228.418 34.3803C226.977 35.7702 226.132 37.6649 226.06 39.6656V54.3556C226.06 56.4058 226.874 58.3719 228.324 59.8216C229.774 61.2712 231.74 62.0856 233.79 62.0856Z" fill="#423E4F"/>
<path d="M75.35 240.486C75.3439 215.099 81.4601 190.085 93.18 167.566L92.61 167.756C78.9523 177.882 68.016 191.235 60.7786 206.62C53.5412 222.005 50.2281 238.944 51.1354 255.922C52.0427 272.9 57.1421 289.389 65.978 303.915C74.8138 318.441 87.1108 330.552 101.77 339.166C84.5 311.516 75.35 277.406 75.35 240.486Z" fill="#00D1B3"/>
</svg>
