<svg width="512" height="455" viewBox="0 0 512 455" fill="none" xmlns="http://www.w3.org/2000/svg">
<path d="M97.466 441.382H88.717C84.08 441.382 80.321 437.623 80.321 432.986V316.29H105.861V432.986C105.862 437.623 102.103 441.382 97.466 441.382Z" fill="#5C626B"/>
<path opacity="0.1" d="M80.321 316.29V372.69C88.488 374.905 97.039 376.983 105.861 378.911V316.29H80.321Z" fill="black"/>
<path d="M414.534 441.382H423.283C427.92 441.382 431.679 437.623 431.679 432.986V316.29H406.139V432.986C406.138 437.623 409.897 441.382 414.534 441.382Z" fill="#5C626B"/>
<path opacity="0.1" d="M406.138 316.29V378.911C414.961 376.983 423.511 374.905 431.678 372.69V316.29H406.138Z" fill="black"/>
<path d="M256 374.487C369.521 374.487 553.76 335.989 503.499 285.156C461.401 242.579 374.142 227.854 256 227.854C137.858 227.854 50.5989 242.579 8.50095 285.156C-41.7601 335.989 142.479 374.487 256 374.487Z" fill="#E15F76"/>
<path opacity="0.1" d="M256 374.487C369.521 374.487 553.76 335.989 503.499 285.156C461.401 242.579 374.142 227.854 256 227.854C137.858 227.854 50.5989 242.579 8.50095 285.156C-41.7601 335.989 142.479 374.487 256 374.487Z" fill="black"/>
<path opacity="0.1" d="M235.537 228.011C127.782 229.679 48.1301 245.077 8.50105 285.156C-30.923 325.028 73.9301 357.31 175.764 369.378C151.48 337.888 159.452 275.171 235.537 228.011Z" fill="black"/>
<path d="M256 304.966C355.984 304.966 437.038 279.029 437.038 253.216C437.038 153.232 393.389 61.546 256 61.546C118.611 61.546 86.4951 151.941 74.9621 253.216C72.0421 278.864 156.016 304.966 256 304.966Z" fill="#E15F76"/>
<path d="M265.872 0H246.129C231.762 0 220.115 11.647 220.115 26.014V152.82C220.115 167.187 231.762 178.834 246.129 178.834H265.872C280.239 178.834 291.886 167.187 291.886 152.82V26.014C291.886 11.647 280.239 0 265.872 0Z" fill="#E15F76"/>
<path opacity="0.1" d="M265.872 0H246.129C231.762 0 220.115 11.647 220.115 26.014V152.82C220.115 167.187 231.762 178.834 246.129 178.834H265.872C280.239 178.834 291.886 167.187 291.886 152.82V26.014C291.886 11.647 280.239 0 265.872 0Z" fill="black"/>
<path d="M109.42 417.505H76.7619C72.8339 417.505 69.6499 420.689 69.6499 424.617V447.328C69.6499 451.256 72.8339 454.44 76.7619 454.44H109.42C113.348 454.44 116.532 451.256 116.532 447.328V424.617C116.532 420.689 113.348 417.505 109.42 417.505Z" fill="#494F57"/>
<path d="M324.354 207.4L330.284 142.08C331.197 132.021 319.935 125.487 311.655 131.272L311.294 131.524C300.016 139.404 284.925 139.035 274.046 130.613C263.42 122.388 248.577 122.388 237.952 130.613C227.073 139.035 211.982 139.403 200.704 131.524L200.343 131.272C192.064 125.487 180.801 132.022 181.715 142.08L187.645 207.4C190.855 242.756 220.498 269.83 255.999 269.83C291.502 269.83 321.145 242.757 324.354 207.4Z" fill="#FBE067"/>
<path d="M213.264 202.912C209.122 202.912 205.764 199.554 205.764 195.412V188.318C205.764 184.176 209.122 180.818 213.264 180.818C217.406 180.818 220.764 184.176 220.764 188.318V195.412C220.764 199.554 217.406 202.912 213.264 202.912Z" fill="#494F57"/>
<path d="M298.736 202.912C294.594 202.912 291.236 199.554 291.236 195.412V188.318C291.236 184.176 294.594 180.818 298.736 180.818C302.878 180.818 306.236 184.176 306.236 188.318V195.412C306.236 199.554 302.878 202.912 298.736 202.912Z" fill="#494F57"/>
<path d="M256 208.359C249.514 208.359 243.347 205.55 239.079 200.654C236.357 197.531 236.683 192.794 239.805 190.072C242.927 187.35 247.665 187.675 250.387 190.798C251.805 192.426 253.851 193.359 256 193.359C258.149 193.359 260.195 192.426 261.613 190.798C264.334 187.675 269.071 187.35 272.194 190.072C275.317 192.793 275.642 197.531 272.92 200.654C268.653 205.551 262.486 208.359 256 208.359Z" fill="#494F57"/>
<path opacity="0.1" d="M203.398 66.839C109.876 87.56 84.8499 166.386 74.9619 253.216C72.9399 270.972 112.57 288.943 170.321 298.323C120.163 217.161 163.328 99.853 203.398 66.839Z" fill="black"/>
<path opacity="0.1" d="M228.075 135.74C218.976 138.579 208.849 137.214 200.705 131.524L200.344 131.272C192.065 125.487 180.802 132.022 181.716 142.081L187.646 207.401C190.856 242.757 220.499 269.831 256 269.831C265.063 269.831 273.74 268.057 281.698 264.841C220.305 247.965 224.937 162.191 228.075 135.74Z" fill="black"/>
</svg>
