<svg width="376" height="372" viewBox="0 0 376 372" fill="none" xmlns="http://www.w3.org/2000/svg">
<path d="M375.334 184.146C375.43 163.273 376.291 141.052 363.626 113.296C353.095 90.216 338.175 69.5826 319.963 52.4527C285.358 19.9021 238.858 0 187.95 0C113.262 0 43.2491 44.272 11.7544 113.296C-0.909646 141.051 -0.0484204 163.272 0.0463563 184.146L0 184.184V356.201C0 364.735 6.9187 371.653 15.4527 371.653C23.9867 371.653 30.9054 364.735 30.9054 356.201V277.289C48.9542 272.855 62.3466 256.574 62.3466 237.158V237.153C62.3466 236.42 62.3806 235.694 62.3981 234.966C63.4787 188.59 98.7078 149.723 145.071 144.976C159.197 143.53 173.423 142.791 187.691 142.774C201.959 142.79 216.185 143.53 230.31 144.976C277.403 149.798 313.035 189.815 313.035 237.154V237.159C313.035 256.576 326.427 272.857 344.476 277.29V356.202C344.476 364.736 351.395 371.654 359.929 371.654C368.463 371.654 375.381 364.736 375.381 356.202V184.185L375.334 184.146Z" fill="#C77464"/>
<path d="M250.232 39.0871C274.872 39.0871 298.4 43.8342 319.964 52.4527C285.358 19.9021 238.858 0 187.95 0C113.262 0 43.2491 44.272 11.7544 113.296C-0.909646 141.051 -0.0484204 163.272 0.0463563 184.146L0 184.184V356.201C0 364.735 6.9187 371.653 15.4527 371.653C23.9867 371.653 30.9054 364.735 30.9054 356.201V277.289C48.9491 272.857 62.3466 256.582 62.3466 237.153C62.3466 230.186 62.2219 232.285 62.2219 227.097C62.2229 123.262 146.397 39.0871 250.232 39.0871Z" fill="#AC6757"/>
<path d="M375.38 226.593V184.184L375.334 184.146C375.377 174.629 375.58 164.83 374.587 154.356C351.607 132.651 325.021 115.089 296.119 102.472V154.064C327.631 171.383 354.978 196.141 375.38 226.593Z" fill="#676FB2"/>
<path d="M41.1784 123.125C26.6498 132.424 13.1389 142.974 0.769547 154.611C-0.195733 164.989 0.00308866 174.706 0.0463563 184.146L0 184.184V226.616C20.4975 196.059 48.0281 171.233 79.7803 153.901V102.506C66.4817 108.308 53.5735 115.192 41.1784 123.125Z" fill="#4C5699"/>
<path d="M272.941 69.9833H236.885C221.763 69.9833 208.078 76.2293 198.253 86.2684H177.65C167.825 76.2293 154.14 69.9833 139.018 69.9833H102.961C73.1388 69.9833 48.877 94.2451 48.877 124.068V139.521C48.877 169.343 73.1388 193.605 102.961 193.605H139.018C154.14 193.605 167.825 187.359 177.65 177.32H198.253C208.078 187.358 221.763 193.605 236.885 193.605H272.941C302.764 193.605 327.026 169.343 327.026 139.521V124.068C327.026 94.2451 302.763 69.9833 272.941 69.9833Z" fill="#676FB2"/>
<path d="M134.381 139.521V124.068C134.381 103.154 146.321 84.9704 163.734 75.9758C156.321 72.1446 147.922 69.9833 139.017 69.9833H102.96C73.1378 69.9833 48.876 94.2451 48.876 124.068V139.521C48.876 169.343 73.1378 193.605 102.96 193.605H139.017C147.922 193.605 156.32 191.444 163.734 187.612C146.32 178.618 134.381 160.434 134.381 139.521Z" fill="#4C5699"/>
<path d="M139.017 162.7H102.96C90.2118 162.7 79.7812 152.269 79.7812 139.52V124.068C79.7812 111.319 90.2118 100.889 102.96 100.889H139.017C151.765 100.889 162.196 111.319 162.196 124.068V139.52C162.196 152.269 151.765 162.7 139.017 162.7Z" fill="#7CE3FF"/>
<path d="M272.941 162.7H236.885C224.137 162.7 213.706 152.269 213.706 139.52V124.068C213.706 111.319 224.137 100.889 236.885 100.889H272.941C285.69 100.889 296.121 111.319 296.121 124.068V139.52C296.121 152.269 285.69 162.7 272.941 162.7Z" fill="#B9F0FF"/>
</svg>
