<svg width="313" height="135" viewBox="0 0 313 135" fill="none" xmlns="http://www.w3.org/2000/svg">
<path d="M245.185 8.83955e-06C230.011 0.0228883 215.287 5.15479 203.386 14.5685C191.485 23.9821 183.101 37.1291 179.585 51.89C172.235 48.6977 164.308 47.0504 156.295 47.0504C148.282 47.0504 140.355 48.6977 133.005 51.89C129.049 35.1885 118.87 20.6251 104.546 11.1697C90.2217 1.71424 72.83 -1.92103 55.9176 1.00517C39.0052 3.93137 23.8459 13.1987 13.5311 26.9172C3.21627 40.6357 -1.47712 57.7722 0.408008 74.8321C2.29313 91.8919 10.6148 107.59 23.676 118.726C36.7371 129.861 53.5541 135.595 70.6974 134.758C87.8407 133.921 104.019 126.576 115.933 114.221C127.848 101.867 134.601 85.4324 134.815 68.27C141.348 64.4852 148.765 62.492 156.315 62.492C163.865 62.492 171.282 64.4852 177.815 68.27C177.985 81.5662 182.083 94.5153 189.594 105.488C197.105 116.461 207.694 124.967 220.028 129.936C232.362 134.905 245.89 136.116 258.91 133.415C271.93 130.715 283.861 124.224 293.201 114.759C302.541 105.294 308.873 93.2783 311.4 80.2234C313.928 67.1685 312.538 53.6577 307.406 41.3909C302.273 29.1241 293.627 18.6492 282.556 11.2842C271.485 3.91927 258.482 -0.00679935 245.185 8.83955e-06ZM67.4149 119.39C57.1303 119.39 47.0766 116.34 38.5253 110.626C29.9739 104.913 23.309 96.7913 19.3732 87.2895C15.4374 77.7878 14.4077 67.3323 16.4141 57.2453C18.4205 47.1583 23.373 37.8928 30.6454 30.6205C37.9177 23.3481 47.1832 18.3956 57.2702 16.3892C67.3572 14.3827 77.8127 15.4125 87.3145 19.3483C96.8162 23.284 104.938 29.949 110.651 38.5004C116.365 47.0517 119.415 57.1054 119.415 67.39C119.415 81.1813 113.936 94.4077 104.184 104.16C94.4326 113.911 81.2062 119.39 67.4149 119.39ZM245.185 119.39C234.9 119.39 224.847 116.34 216.295 110.626C207.744 104.913 201.079 96.7913 197.143 87.2895C193.207 77.7878 192.178 67.3323 194.184 57.2453C196.191 47.1583 201.143 37.8928 208.415 30.6205C215.688 23.3481 224.953 18.3956 235.04 16.3892C245.127 14.3827 255.583 15.4125 265.084 19.3483C274.586 23.284 282.708 29.949 288.421 38.5004C294.135 47.0517 297.185 57.1054 297.185 67.39C297.185 81.1813 291.706 94.4077 281.954 104.16C272.203 113.911 258.976 119.39 245.185 119.39Z" fill="#5C586F"/>
</svg>
