<svg width="419" height="178" viewBox="0 0 419 178" fill="none" xmlns="http://www.w3.org/2000/svg">
<path d="M209.29 5.12363C23 -17.8764 19.84 42.1936 29.91 73.6636C31.8374 79.6019 32.4819 85.8818 31.801 92.0878C31.1201 98.2938 29.1292 104.285 25.96 109.664C13.4274 130.707 4.64363 153.766 0 177.814H418.58C399.58 79.5636 312.21 17.8136 209.29 5.12363Z" fill="#CE2489"/>
<path d="M227.61 85.3536H191C184.128 85.4878 177.583 88.3118 172.771 93.2191C167.958 98.1264 165.262 104.725 165.262 111.599C165.262 118.472 167.958 125.071 172.771 129.978C177.583 134.885 184.128 137.709 191 137.844H227.64C234.512 137.709 241.057 134.885 245.869 129.978C250.682 125.071 253.378 118.472 253.378 111.599C253.378 104.725 250.682 98.1264 245.869 93.2191C241.057 88.3118 234.512 85.4878 227.64 85.3536H227.61Z" fill="white"/>
<path d="M194.74 3.46363C22.85 -14.6764 20.11 43.0036 29.91 73.6636C31.8374 79.6019 32.4819 85.8818 31.801 92.0878C31.1201 98.2938 29.1292 104.285 25.96 109.664C13.4316 130.709 4.64812 153.767 0 177.814H40C63.88 98.1936 121.2 34.0636 194.74 3.46363Z" fill="#9B196D"/>
</svg>
