<svg width="405" height="222" viewBox="0 0 405 222" fill="none" xmlns="http://www.w3.org/2000/svg">
<path d="M378.305 176.75C427.195 45.92 364.165 0 201.985 0C39.8048 0 -23.2252 45.92 25.6648 176.75H378.305Z" fill="#F4C223"/>
<path d="M387.065 163.4C340.125 139.45 273.985 125.68 201.985 125.68C129.985 125.68 63.8448 139.45 16.9048 163.39C12.8307 165.454 9.26578 168.396 6.46748 172.005C3.66919 175.615 1.70739 179.8 0.723787 184.26C-0.259819 188.72 -0.240679 193.342 0.779823 197.794C1.80033 202.245 3.79672 206.414 6.6248 210C11.0733 215.606 17.3303 219.493 24.3267 220.998C31.3231 222.502 38.625 221.531 44.9848 218.25C82.6548 199.08 140.885 187.31 202.035 187.31C263.185 187.31 321.415 199.08 359.085 218.25C362.697 220.201 366.662 221.409 370.747 221.806C374.833 222.202 378.957 221.777 382.876 220.557C386.795 219.337 390.431 217.346 393.57 214.701C396.708 212.055 399.287 208.809 401.153 205.153C403.019 201.497 404.136 197.505 404.437 193.411C404.739 189.318 404.219 185.205 402.908 181.315C401.598 177.425 399.523 173.837 396.805 170.76C394.088 167.683 390.783 165.181 387.085 163.4H387.065Z" fill="#CC5B1D"/>
<path d="M201.985 97.16C216.477 97.16 228.225 82.3809 228.225 64.15C228.225 45.9191 216.477 31.14 201.985 31.14C187.493 31.14 175.745 45.9191 175.745 64.15C175.745 82.3809 187.493 97.16 201.985 97.16Z" fill="#CC5B1D"/>
</svg>
