<svg width="408" height="145" viewBox="0 0 408 145" fill="none" xmlns="http://www.w3.org/2000/svg">
<path d="M82.8697 52.3928C31.8537 42.7568 41.8147 0.693834 19.2507 0.00483363C-3.31331 -0.684166 -12.7273 72.4728 28.8717 99.6778C70.4707 126.883 82.8697 52.3928 82.8697 52.3928Z" fill="#9E9C9D"/>
<path d="M324.928 52.3928C375.944 42.7578 365.984 0.693834 388.548 0.00483363C411.112 -0.684166 420.526 72.4728 378.927 99.6778C337.328 126.883 324.928 52.3928 324.928 52.3928Z" fill="#9E9C9D"/>
<path d="M388.545 112.334C380.352 100.67 370.876 89.6959 360.177 79.5769C318.359 40.0249 262.858 18.2439 203.899 18.2439C144.94 18.2439 89.4387 40.0249 47.6187 79.5759C36.9197 89.6939 27.4446 100.669 19.2516 112.333L19.2437 112.334L203.899 128.228L388.554 112.334H388.545Z" fill="#D4D2D3"/>
<path d="M19.2436 144.122C10.4656 144.122 3.34961 137.007 3.34961 128.228C3.34961 119.45 10.4646 112.334 19.2436 112.334H388.555C397.333 112.334 404.449 119.449 404.449 128.228C404.449 137.006 397.334 144.122 388.555 144.122H19.2436Z" fill="#9E9C9D"/>
</svg>
