<svg width="460" height="159" viewBox="0 0 460 159" fill="none" xmlns="http://www.w3.org/2000/svg">
<path d="M410.007 5.1193C402.659 -1.70643 391.291 -1.70643 383.944 5.1193L355.158 31.8593L326.372 5.1193C319.024 -1.70643 307.656 -1.70643 300.309 5.1193L271.523 31.8593L242.737 5.1193C235.389 -1.70643 224.021 -1.70643 216.674 5.1193L187.888 31.8593L159.1 5.1193C151.753 -1.70643 140.385 -1.70643 133.038 5.1193L104.251 31.8593L75.4654 5.1193C68.1183 -1.70643 56.7497 -1.70643 49.4025 5.1193C31.0462 22.1712 20.6165 55.8481 20.6165 80.9014V117.101L229.706 137.719L438.794 117.101V80.9014C438.793 55.8481 428.363 22.1712 410.007 5.1193Z" fill="#FFCE1C"/>
<path d="M52.7147 117.101V80.9014C52.7147 57.1993 62.0528 25.7918 78.601 8.0326L75.4654 5.1193C68.1183 -1.70643 56.7497 -1.70643 49.4026 5.1193C31.0462 22.1712 20.6165 55.8481 20.6165 80.9014V117.101L229.706 137.719L245.756 136.136L52.7147 117.101Z" fill="#ECB000"/>
<path d="M229.705 43.5468C223.122 43.5468 217.785 48.8842 217.785 55.4658V77.5487C217.785 84.1325 223.123 89.4689 229.705 89.4689C236.288 89.4689 241.625 84.1314 241.625 77.5487V55.4669C241.625 48.8831 236.288 43.5468 229.705 43.5468Z" fill="#DC5A64"/>
<path d="M438.795 117.101H20.6174C9.23116 117.101 0 126.331 0 137.719C0 149.105 9.23012 158.336 20.6174 158.336H438.795C450.181 158.336 459.412 149.106 459.412 137.719C459.411 126.332 450.181 117.101 438.795 117.101Z" fill="#FFA74F"/>
<path d="M32.0993 137.719C32.0993 126.332 41.3294 117.101 52.7167 117.101H20.6174C9.23116 117.101 0 126.331 0 137.719C0 149.105 9.23012 158.336 20.6174 158.336H52.7156C41.3294 158.336 32.0993 149.105 32.0993 137.719Z" fill="#F2973D"/>
</svg>
