<svg width="408" height="408" viewBox="0 0 408 408" fill="none" xmlns="http://www.w3.org/2000/svg">
<path d="M348.209 59.7474C268.546 -19.9158 139.354 -19.9158 59.732 59.7474C-19.8901 139.411 -19.9312 268.602 59.732 348.224C139.395 427.846 268.587 427.888 348.209 348.224C427.831 268.561 427.872 139.411 348.209 59.7474ZM204.027 246.586C163.799 246.586 105.778 287.798 81.0505 276.808C47.3939 264.445 54.2626 173.778 54.2626 163.475C73.495 159.354 125.856 159.354 204.027 159.354C254.214 159.354 329.01 161.414 355.111 161.414C355.111 171.03 355.798 186.141 355.111 214.303C351.677 252.081 343.434 276.808 321.455 278.182C276.808 278.182 246.586 246.586 204.027 246.586Z" fill="#EC5858"/>
<path d="M32.3189 205.374C32.3189 98.9056 114.435 11.6232 218.786 3.38836C213.454 2.96821 208.067 2.74737 202.626 2.74737C90.719 2.74737 0 93.4664 0 205.374C0 317.281 90.719 408 202.626 408C208.066 408 213.454 407.779 218.786 407.359C114.435 399.124 32.3189 311.842 32.3189 205.374V205.374Z" fill="#C63D3D"/>
<path d="M404.492 135.498C400.998 125.499 396.776 115.839 391.891 106.582C387.695 98.6301 379.391 93.7004 370.4 93.7004H37.5997C28.6086 93.7004 20.3058 98.6301 16.1098 106.582C11.2242 115.839 7.0034 125.499 3.50866 135.498C-2.03618 151.366 9.66971 167.973 26.4787 167.973H381.523C398.33 167.973 410.037 151.367 404.492 135.498V135.498Z" fill="#77718C"/>
<path d="M35.8265 135.498C39.3202 125.499 43.5421 115.839 48.4276 106.582C52.6237 98.6301 60.9275 93.7004 69.9186 93.7004H37.5998C28.6087 93.7004 20.3059 98.6301 16.1088 106.582C11.2233 115.839 7.00242 125.499 3.50768 135.498C-2.03716 151.366 9.66873 167.973 26.4778 167.973H58.7966C41.9887 167.973 30.2828 151.367 35.8265 135.498V135.498Z" fill="#5C586F"/>
<path d="M259.834 71.3702H148.166C125.383 71.3702 106.915 89.8383 106.915 112.621V149.054C106.915 171.837 125.383 190.305 148.166 190.305H259.835C282.618 190.305 301.086 171.837 301.086 149.054V112.621C301.085 89.8394 282.616 71.3702 259.834 71.3702Z" fill="#C7C5CB"/>
<path d="M139.234 149.054V112.621C139.234 89.8394 157.702 71.3702 180.485 71.3702H148.166C125.383 71.3702 106.915 89.8394 106.915 112.621V149.054C106.915 171.837 125.383 190.305 148.166 190.305H180.485C157.702 190.306 139.234 171.837 139.234 149.054Z" fill="#B2B0BC"/>
</svg>
