<svg width="407" height="147" viewBox="0 0 407 147" fill="none" xmlns="http://www.w3.org/2000/svg">
<path d="M406.8 146.24H0C28.59 61.32 109 0 203.4 0C297.8 0 378.21 61.32 406.8 146.24Z" fill="#6A647F"/>
<path d="M152.59 6.08C117.425 14.7341 85.0092 32.1134 58.3387 56.6113C31.6682 81.1092 11.6038 111.935 0 146.24H59.93C68.84 82.31 94.46 36.53 152.59 6.08Z" fill="#5C586F"/>
<path d="M245.86 75C245.93 76 245.96 77 245.96 78C246 101.45 226.9 110 203.4 110C179.9 110 160.83 101.45 160.83 78C160.83 77 160.83 76 160.94 75H245.86Z" fill="#FCCB88"/>
<path d="M245.86 75C234 78.18 219.3 79.57 203.4 79.57C187.5 79.57 172.81 78.18 160.94 75C161.679 64.2425 166.473 54.1664 174.355 46.8075C182.236 39.4487 192.617 35.3558 203.4 35.3558C214.183 35.3558 224.564 39.4487 232.445 46.8075C240.327 54.1664 245.121 64.2425 245.86 75Z" fill="#FBE29F"/>
<path d="M117.48 84.45C115.43 84.45 113.464 83.6356 112.014 82.1859C110.564 80.7363 109.75 78.7701 109.75 76.72V60.21C109.822 58.2093 110.667 56.3146 112.108 54.9246C113.549 53.5347 115.473 52.758 117.475 52.758C119.477 52.758 121.401 53.5347 122.842 54.9246C124.283 56.3146 125.128 58.2093 125.2 60.21V76.72C125.2 78.7684 124.387 80.733 122.939 82.1824C121.492 83.6318 119.528 84.4473 117.48 84.45Z" fill="#423E4F"/>
<path d="M289.32 84.45C287.272 84.4473 285.308 83.6318 283.861 82.1824C282.413 80.733 281.6 78.7684 281.6 76.72V60.21C281.672 58.2093 282.517 56.3146 283.958 54.9246C285.399 53.5347 287.323 52.758 289.325 52.758C291.327 52.758 293.251 53.5347 294.692 54.9246C296.133 56.3146 296.978 58.2093 297.05 60.21V76.72C297.05 78.7701 296.236 80.7363 294.786 82.1859C293.336 83.6356 291.37 84.45 289.32 84.45Z" fill="#423E4F"/>
</svg>
