<svg width="484" height="272" viewBox="0 0 484 272" fill="none" xmlns="http://www.w3.org/2000/svg">
<path d="M241.558 146.405C349.695 146.405 440.475 183.931 440.475 183.931C440.475 183.931 483.421 162.675 483.421 108.857C483.421 55.039 426.043 101.347 378.483 63.799C330.923 26.251 298.938 0 241.71 0C184.482 0 152.499 26.25 104.938 63.799C57.377 101.348 0 55.037 0 108.857C0 162.677 42.946 183.931 42.946 183.931C42.946 183.931 133.726 146.405 241.863 146.405H241.558Z" fill="#3A484A"/>
<path d="M32.965 98.5549C32.965 90.3299 34.31 84.4539 36.751 80.2489C15.35 79.9709 0 81.0209 0 108.857C0 162.676 42.946 183.931 42.946 183.931C42.946 183.931 54.624 179.104 74.59 172.912C67.377 168.814 32.965 146.734 32.965 98.5549Z" fill="#313D40"/>
<path d="M260.853 76.6521L280.076 57.4291C285.321 52.1851 285.321 43.6831 280.076 38.4391C274.832 33.1941 266.329 33.1941 261.086 38.4391L241.863 57.6621L222.64 38.4391C217.396 33.1941 208.893 33.1941 203.65 38.4391C198.406 43.6831 198.406 52.1851 203.65 57.4291L222.873 76.6521L203.65 95.8751C198.406 101.119 198.406 109.621 203.65 114.865C206.272 117.487 209.708 118.798 213.145 118.798C216.582 118.798 220.018 117.487 222.64 114.865L241.863 95.6421L261.086 114.865C263.708 117.487 267.145 118.798 270.581 118.798C274.018 118.798 277.454 117.487 280.076 114.865C285.321 109.621 285.321 101.119 280.076 95.8751L260.853 76.6521Z" fill="#EFEDEE"/>
<path d="M249.936 146.486C240.212 160.287 227.736 172.558 212.57 183.141C192.074 197.445 166.675 208.77 137.082 216.801C113.722 223.141 91.374 226.403 73.975 228.079C59.757 229.448 48.85 229.757 43.397 229.814C43.76 235.023 44.34 240.176 45.142 245.259C51.415 245.171 62.271 244.794 76.071 243.445C93.918 241.699 116.665 238.324 140.763 231.812C172.151 223.331 199.228 211.258 221.243 195.93C240.943 182.213 256.577 165.86 267.992 147.137C262.045 146.814 256.021 146.593 249.936 146.486Z" fill="#313D40"/>
<path d="M97.5701 209.966C97.5701 175.943 198.302 175.943 198.302 209.966C198.302 243.989 175.752 271.569 147.935 271.569C120.118 271.569 97.5701 243.989 97.5701 209.966Z" fill="#3A484A"/>
</svg>
