<svg width="402" height="144" viewBox="0 0 402 144" fill="none" xmlns="http://www.w3.org/2000/svg">
<path d="M399.139 116.84C360.319 47.21 285.959 0 200.679 0C115.399 0 41.0493 47.21 2.21933 116.84C0.719745 119.559 -0.0445276 122.623 0.00200466 125.727C0.0485369 128.832 0.904264 131.872 2.48466 134.545C4.06505 137.218 6.31544 139.432 9.01352 140.969C11.7116 142.507 14.764 143.313 17.8693 143.31H383.489C386.595 143.313 389.647 142.507 392.345 140.969C395.043 139.432 397.294 137.218 398.874 134.545C400.454 131.872 401.31 128.832 401.357 125.727C401.403 122.623 400.639 119.559 399.139 116.84Z" fill="#FF7171"/>
<path d="M128.399 143.31V110.62C128.399 108.57 129.214 106.604 130.663 105.154C132.113 103.704 134.079 102.89 136.129 102.89C138.179 102.89 140.146 103.704 141.595 105.154C143.045 106.604 143.859 108.57 143.859 110.62V143.31H128.399Z" fill="#EC5858"/>
<path d="M63.8493 143.31V110.62C63.8493 108.57 64.6637 106.604 66.1134 105.154C67.563 103.704 69.5292 102.89 71.5793 102.89C73.6294 102.89 75.5956 103.704 77.0452 105.154C78.4949 106.604 79.3093 108.57 79.3093 110.62V143.31H63.8493Z" fill="#EC5858"/>
<path d="M337.509 143.31V110.62C337.509 108.57 336.695 106.604 335.245 105.154C333.796 103.704 331.829 102.89 329.779 102.89C327.729 102.89 325.763 103.704 324.313 105.154C322.864 106.604 322.049 108.57 322.049 110.62V143.31H272.959V110.62C272.959 108.57 272.145 106.604 270.695 105.154C269.246 103.704 267.279 102.89 265.229 102.89C263.179 102.89 261.213 103.704 259.763 105.154C258.314 106.604 257.499 108.57 257.499 110.62V143.31H337.509Z" fill="#EC5858"/>
<path d="M192.959 143.31V110.62C192.959 108.57 193.774 106.604 195.223 105.154C196.673 103.704 198.639 102.89 200.689 102.89C202.739 102.89 204.706 103.704 206.155 105.154C207.605 106.604 208.419 108.57 208.419 110.62V143.31H192.959Z" fill="#EC5858"/>
<path d="M50.4193 140.1C50.4193 86.3 87.5993 34.64 142.359 7.59C112.877 15.4925 85.2809 29.2343 61.2083 48.0008C37.1356 66.7673 17.0762 90.1764 2.21933 116.84C0.719745 119.559 -0.0445276 122.623 0.00200466 125.727C0.0485369 128.832 0.904264 131.872 2.48466 134.545C4.06505 137.218 6.31544 139.432 9.01352 140.969C11.7116 142.507 14.764 143.313 17.8693 143.31H50.4693C50.4393 142.24 50.4193 141.17 50.4193 140.1Z" fill="#EC5858"/>
</svg>
