<svg width="446" height="172" viewBox="0 0 446 172" fill="none" xmlns="http://www.w3.org/2000/svg">
<path d="M411 65.11V68.69L227 90.88L34.1101 68.69V65.11C34.1088 56.5601 35.7917 48.0937 39.0627 40.1942C42.3337 32.2948 47.1287 25.117 53.1739 19.0709C59.2191 13.0247 66.3962 8.22861 74.2951 4.9564C82.1941 1.68419 90.6602 -1.00872e-07 99.2101 0L345.92 0C363.184 0.00530359 379.739 6.86775 391.943 19.078C404.148 31.2882 411.003 47.8461 411 65.11Z" fill="#FBE29F"/>
<path d="M85.6201 1.43C71.0434 4.54721 57.977 12.5703 48.6024 24.1597C39.2278 35.7492 34.1124 50.2037 34.1101 65.11V68.69L68.1101 72.6C69.3701 46 74.0001 21.62 85.6201 1.43Z" fill="#FCCB88"/>
<path d="M34.1101 68.69H411V143.57H34.1101V68.69Z" fill="#9AE0EB"/>
<path d="M192.49 105C192.49 105 188.62 113.58 194.12 118.68C212.85 136.06 261.54 161.68 261.54 90.93C261.54 -0.639999 192.49 76.87 192.49 76.87V105Z" fill="#FFA2E7"/>
<path d="M161 105C161 105 164.12 113.07 158.74 118.08C140.13 135.38 92 161.93 92 90.88C92 -0.690002 161 76.82 161 76.82V105Z" fill="#FFA2E7"/>
<path d="M182 61.89H171.5C167.692 61.89 163.921 62.6401 160.402 64.0975C156.884 65.5549 153.687 67.691 150.994 70.3839C148.301 73.0768 146.165 76.2737 144.707 79.7922C143.25 83.3106 142.5 87.0817 142.5 90.89C142.5 94.6983 143.25 98.4694 144.707 101.988C146.165 105.506 148.301 108.703 150.994 111.396C153.687 114.089 156.884 116.225 160.402 117.683C163.921 119.14 167.692 119.89 171.5 119.89H182C185.808 119.89 189.579 119.14 193.098 117.683C196.616 116.225 199.813 114.089 202.506 111.396C205.199 108.703 207.335 105.506 208.793 101.988C210.25 98.4694 211 94.6983 211 90.89C211 87.0817 210.25 83.3106 208.793 79.7922C207.335 76.2737 205.199 73.0768 202.506 70.3839C199.813 67.691 196.616 65.5549 193.098 64.0975C189.579 62.6401 185.808 61.89 182 61.89Z" fill="#FFB5EC"/>
<path d="M67.7001 90.28C67.7001 82.95 67.8801 75.74 68.3101 68.69H34.1101V143.57H79.3401C71.7042 126.84 67.7354 108.67 67.7001 90.28Z" fill="#64D1E1"/>
<path d="M425.34 115.19H19.8C17.1986 115.189 14.6225 115.7 12.219 116.695C9.81552 117.691 7.63182 119.15 5.79282 120.99C3.95383 122.83 2.49563 125.014 1.50164 127.418C0.507656 129.822 -0.00261921 132.399 1.01096e-05 135V152.15C1.01096e-05 157.401 2.08608 162.437 5.7993 166.151C9.51252 169.864 14.5487 171.95 19.8 171.95H425.34C430.59 171.947 435.625 169.86 439.338 166.148C443.05 162.435 445.137 157.4 445.14 152.15V135C445.141 132.399 444.63 129.823 443.636 127.42C442.641 125.016 441.183 122.832 439.344 120.993C437.505 119.153 435.322 117.694 432.919 116.698C430.517 115.702 427.941 115.19 425.34 115.19Z" fill="#FBE29F"/>
<path d="M70.18 115.19H19.8C17.1986 115.189 14.6225 115.7 12.219 116.695C9.81552 117.691 7.63182 119.15 5.79282 120.99C3.95383 122.83 2.49563 125.014 1.50164 127.418C0.507656 129.822 -0.00261921 132.399 1.01096e-05 135V152.15C1.01096e-05 157.401 2.08608 162.437 5.7993 166.151C9.51252 169.864 14.5487 171.95 19.8 171.95H96.39C83.4262 155.284 74.4595 135.866 70.18 115.19Z" fill="#FCCB88"/>
</svg>
