<svg width="318" height="138" viewBox="0 0 318 138" fill="none" xmlns="http://www.w3.org/2000/svg">
<circle cx="69.5298" cy="69.5298" r="58.1002" fill="#5E6366" fill-opacity="0.9"/>
<circle cx="244.783" cy="69.5298" r="58.1002" fill="#5E6366" fill-opacity="0.9"/>
<path d="M249.397 8.9914e-06C233.962 0.0232815 218.985 5.24334 206.88 14.8187C194.775 24.3941 186.246 37.7669 182.67 52.7814C175.194 49.5343 167.13 47.8587 158.98 47.8587C150.829 47.8587 142.766 49.5343 135.29 52.7814C131.265 35.793 120.913 20.9794 106.342 11.3615C91.7716 1.74369 74.0811 -1.95404 56.8782 1.02244C39.6752 3.99891 24.2555 13.4254 13.7635 27.3796C3.27152 41.3338 -1.50249 58.7646 0.415017 76.1176C2.33253 93.4705 10.7971 109.438 24.0827 120.765C37.3682 132.092 54.4741 137.924 71.9119 137.073C89.3496 136.222 105.806 128.751 117.925 116.184C130.044 103.617 136.913 86.9 137.131 69.4428C143.776 65.5929 151.32 63.5655 159 63.5655C166.68 63.5655 174.224 65.5929 180.87 69.4428C181.042 82.9674 185.211 96.1389 192.851 107.3C200.491 118.461 211.262 127.113 223.808 132.168C236.353 137.223 250.114 138.454 263.358 135.707C276.601 132.96 288.737 126.357 298.238 116.73C307.738 107.103 314.179 94.8806 316.75 81.6015C319.321 68.3224 317.907 54.5795 312.686 42.1019C307.466 29.6244 298.671 18.9696 287.41 11.4781C276.148 3.9866 262.923 -0.00691616 249.397 8.9914e-06ZM68.573 121.441C58.1117 121.441 47.8853 118.339 39.1871 112.527C30.4888 106.715 23.7094 98.454 19.706 88.789C15.7026 79.1241 14.6552 68.489 16.6961 58.2287C18.737 47.9684 23.7746 38.5437 31.1718 31.1465C38.5691 23.7492 47.9938 18.7116 58.2541 16.6707C68.5144 14.6298 79.1494 15.6773 88.8144 19.6806C98.4794 23.684 106.74 30.4635 112.552 39.1617C118.364 47.86 121.466 58.0864 121.466 68.5477C121.466 82.5758 115.894 96.0294 105.974 105.949C96.0548 115.868 82.6012 121.441 68.573 121.441ZM249.397 121.441C238.936 121.441 228.709 118.339 220.011 112.527C211.313 106.715 204.533 98.454 200.53 88.789C196.526 79.1241 195.479 68.489 197.52 58.2287C199.561 47.9684 204.598 38.5437 211.996 31.1465C219.393 23.7492 228.818 18.7116 239.078 16.6707C249.338 14.6298 259.973 15.6773 269.638 19.6806C279.303 23.684 287.564 30.4635 293.376 39.1617C299.188 47.86 302.29 58.0864 302.29 68.5477C302.29 82.5758 296.717 96.0294 286.798 105.949C276.879 115.868 263.425 121.441 249.397 121.441Z" fill="#3F3F3F"/>
</svg>
