<svg width="496" height="324" viewBox="0 0 496 324" fill="none" xmlns="http://www.w3.org/2000/svg">
<path d="M478.216 13.0067C473.939 0.252048 458.191 -4.10459 447.752 4.38101C431.305 17.7497 401.922 33.633 351.482 40.3879C320.158 44.5828 288.497 35.476 264.144 15.3329C254.535 7.38502 240.635 7.38502 231.026 15.3329C206.673 35.476 175.012 44.5838 143.688 40.3879C93.2479 33.633 63.8651 17.7497 47.4182 4.38101C36.9794 -4.10459 21.231 0.252048 16.9537 13.0067C-29.2911 150.901 27.9231 254.601 82.671 316.49C89.393 324.088 100.688 325.551 109.076 319.844L119.58 312.696C129.592 305.883 131.32 291.859 123.32 282.769C98.8778 254.999 59.2117 193.863 94.0628 116.538H167.457C190.325 116.538 212.659 123.444 231.535 136.353L232.92 137.3C241.762 143.346 253.408 143.346 262.25 137.3L263.635 136.353C282.511 123.445 304.845 116.538 327.713 116.538H401.107C435.958 193.863 396.292 254.999 371.85 282.769C363.849 291.859 365.578 305.883 375.59 312.696L386.094 319.844C394.482 325.551 405.777 324.088 412.499 316.49C467.247 254.601 524.461 150.902 478.216 13.0067Z" fill="#EC5858"/>
<path d="M113.575 316.49C58.8275 254.601 1.61335 150.902 47.8582 13.0067C48.5968 10.8052 49.6826 8.86127 51.0177 7.18311C49.7568 6.23946 48.5525 5.30406 47.4173 4.38101C36.9784 -4.10459 21.2301 0.252048 16.9527 13.0067C-29.2921 150.901 27.9221 254.601 82.6701 316.49C89.392 324.088 100.687 325.551 109.075 319.844L113.745 316.666C113.691 316.605 113.63 316.553 113.575 316.49Z" fill="#BE3737"/>
<path d="M247.584 106.776C259.557 106.776 269.264 94.5409 269.264 79.4482C269.264 64.3556 259.557 52.1206 247.584 52.1206C235.611 52.1206 225.905 64.3556 225.905 79.4482C225.905 94.5409 235.611 106.776 247.584 106.776Z" fill="#E8E8E8"/>
</svg>
