<svg width="436" height="223" viewBox="0 0 436 223" fill="none" xmlns="http://www.w3.org/2000/svg">
<path d="M414.695 5.983L394.762 45.85C387.346 60.683 372.185 70.052 355.602 70.052H79.598C63.014 70.052 47.854 60.682 40.438 45.85L20.505 5.983C18.671 2.316 14.923 0 10.824 0C4.846 0 0 4.846 0 10.824V52.54C0 100.901 39.204 140.105 87.565 140.105H347.634C395.995 140.105 435.199 100.901 435.199 52.54V10.824C435.2 4.846 430.354 0 424.376 0C420.277 0 416.529 2.316 414.695 5.983Z" fill="#FCF2D0"/>
<path d="M347.635 105.078H87.565C39.204 105.078 0 65.874 0 17.513V52.539C0 100.9 39.204 140.104 87.565 140.104H347.634C395.995 140.104 435.199 100.9 435.199 52.539V17.513C435.2 65.874 395.996 105.078 347.635 105.078Z" fill="#EFDFB4"/>
<path d="M217.599 37.087C126.566 37.087 52.77 110.883 52.77 201.916H382.428C382.427 110.883 308.631 37.087 217.599 37.087Z" fill="#9AA3B1"/>
<path d="M217.6 37.087H217.599C126.567 37.087 52.77 110.883 52.77 201.916H114.581C114.581 132.743 157.195 73.532 217.601 49.082V37.087H217.6Z" fill="#7E8B9E"/>
<path d="M217.6 0C206.221 0 196.996 9.225 196.996 20.604V201.916H238.203V20.604C238.203 9.225 228.979 0 217.6 0V0Z" fill="#FCF2D0"/>
<path d="M217.6 125.586C206.221 125.586 196.996 116.361 196.996 104.982V201.915H238.203V104.982C238.203 116.362 228.979 125.586 217.6 125.586Z" fill="#EFDFB4"/>
<path d="M413.334 222.519H21.866C10.487 222.519 1.26196 213.294 1.26196 201.915C1.26196 190.536 10.487 181.311 21.866 181.311H413.335C424.714 181.311 433.939 190.536 433.939 201.915C433.938 213.295 424.713 222.519 413.334 222.519Z" fill="#C6C6C6"/>
<path d="M177.603 201.915C177.603 190.536 186.828 181.311 198.207 181.311H21.866C10.487 181.311 1.26196 190.536 1.26196 201.915C1.26196 213.294 10.487 222.519 21.866 222.519H198.207C186.827 222.519 177.603 213.295 177.603 201.915Z" fill="#9AA3B1"/>
<path d="M295.711 148.956C307.09 148.956 316.315 139.731 316.315 128.352C316.315 116.973 307.09 107.748 295.711 107.748C284.332 107.748 275.107 116.973 275.107 128.352C275.107 139.731 284.332 148.956 295.711 148.956Z" fill="#7E8B9E"/>
<path d="M139.486 148.956C150.865 148.956 160.09 139.731 160.09 128.352C160.09 116.973 150.865 107.748 139.486 107.748C128.107 107.748 118.882 116.973 118.882 128.352C118.882 139.731 128.107 148.956 139.486 148.956Z" fill="#7E8B9E"/>
</svg>
