<svg width="512" height="437" viewBox="0 0 512 437" fill="none" xmlns="http://www.w3.org/2000/svg">
<path d="M322.968 165.178C302.765 129.557 311.949 67.414 327.021 27.668C333.623 10.258 314.991 -6.34402 298.56 2.41398C279.018 12.831 265.265 31.342 256 47.103L93.5349 333.553H418.466L322.968 165.178Z" fill="#5C626B"/>
<path d="M385.12 274.76H126.88L93.5349 333.553H418.465L385.12 274.76Z" fill="#64D19B"/>
<path opacity="0.15" d="M255.869 47.334L93.5349 333.553H214.943C168.496 263.104 227.725 125.268 255.869 47.334Z" fill="black"/>
<path d="M291.572 333.553H220.429C198.639 333.553 180.912 315.826 180.912 294.036V285.633C180.912 263.843 198.639 246.116 220.429 246.116H291.572C313.362 246.116 331.089 263.843 331.089 285.633V294.036C331.088 315.826 313.361 333.553 291.572 333.553ZM220.428 274.76C214.433 274.76 209.555 279.638 209.555 285.633V294.036C209.555 300.031 214.433 304.909 220.428 304.909H291.571C297.566 304.909 302.444 300.031 302.444 294.036V285.633C302.444 279.637 297.566 274.76 291.571 274.76H220.428Z" fill="#FBE067"/>
<path d="M460.449 436.656H51.551C23.08 436.656 0 413.576 0 385.105C0 356.634 23.08 333.554 51.551 333.554H460.448C488.919 333.554 511.999 356.634 511.999 385.105C512 413.576 488.92 436.656 460.449 436.656Z" fill="#5C626B"/>
<path opacity="0.15" d="M120.1 385.105C120.1 356.634 143.18 333.553 171.651 333.553H51.551C23.08 333.553 0 356.634 0 385.105C0 413.576 23.08 436.656 51.551 436.656H171.651C143.18 436.656 120.1 413.576 120.1 385.105Z" fill="black"/>
<path d="M181.785 392.874C177.643 392.874 174.285 389.516 174.285 385.374V373.055C174.285 368.913 177.643 365.555 181.785 365.555C185.927 365.555 189.285 368.913 189.285 373.055V385.374C189.285 389.516 185.927 392.874 181.785 392.874Z" fill="white"/>
<path d="M330.215 392.874C326.073 392.874 322.715 389.516 322.715 385.374V373.055C322.715 368.913 326.073 365.555 330.215 365.555C334.357 365.555 337.715 368.913 337.715 373.055V385.374C337.715 389.516 334.357 392.874 330.215 392.874Z" fill="white"/>
<path d="M256 402.334C246.334 402.334 237.142 398.147 230.78 390.848C228.058 387.726 228.384 382.988 231.506 380.267C234.628 377.545 239.366 377.87 242.087 380.993C245.6 385.023 250.67 387.335 256 387.335C261.329 387.335 266.4 385.023 269.913 380.993C272.635 377.87 277.371 377.545 280.494 380.267C283.617 382.988 283.942 387.726 281.22 390.848C274.858 398.148 265.666 402.334 256 402.334Z" fill="white"/>
</svg>
