<svg width="306" height="444" viewBox="0 0 306 444" fill="none" xmlns="http://www.w3.org/2000/svg">
<path d="M78.5927 441.212C50.31 441.212 28.38 409.83 28.38 367.715L27.5759 103.774C27.5759 83.5647 32.9714 64.1834 42.5756 49.8936C52.1797 35.6037 65.2057 27.5757 78.788 27.5757C92.3703 27.5757 105.396 35.6037 115 49.8936C124.605 64.1834 130 83.5647 130 103.774L128.851 367.39C128.84 409.506 106.875 441.212 78.5927 441.212Z" fill="#3F3F3F"/>
<path d="M27.5761 358.485V383.751C27.5761 416.574 27.0441 443.182 78.788 443.182C130.532 443.182 130 417.112 130 383.751V358.485H27.5761Z" fill="#A685E2"/>
<path d="M218.441 441.212C190.159 441.212 168.229 409.83 168.229 367.715L167.424 103.774C167.424 83.5647 172.82 64.1834 182.424 49.8936C192.028 35.6037 205.054 27.5757 218.636 27.5757C232.219 27.5757 245.245 35.6037 254.849 49.8936C264.453 64.1834 269.849 83.5647 269.849 103.774L268.7 367.39C268.688 409.506 246.724 441.212 218.441 441.212Z" fill="#3F3F3F"/>
<path d="M167.425 358.485V383.751C167.425 416.574 166.893 443.182 218.636 443.182C270.38 443.182 269.848 417.112 269.848 383.751V358.485H167.425Z" fill="#A685E2"/>
<path d="M0 0C0 74.8485 34.4697 108.333 152.652 108.333C270.833 108.333 305.303 74.8485 305.303 0H0Z" fill="#3F3F3F"/>
</svg>
