<svg width="306" height="444" viewBox="0 0 306 444" fill="none" xmlns="http://www.w3.org/2000/svg">
<path d="M80.5625 441.212C52.2798 441.212 30.3498 409.83 30.3498 367.715L29.5457 103.774C29.5457 83.5647 34.9412 64.1834 44.5453 49.8936C54.1495 35.6037 67.1755 27.5757 80.7578 27.5757C94.3401 27.5757 107.366 35.6037 116.97 49.8936C126.574 64.1834 131.97 83.5647 131.97 103.774L130.821 367.39C130.81 409.506 108.845 441.212 80.5625 441.212Z" fill="#21B95C"/>
<path d="M29.5459 358.485V383.751C29.5459 416.574 29.0139 443.182 80.7578 443.182C132.502 443.182 131.97 417.112 131.97 383.751V358.485H29.5459Z" fill="#13705F"/>
<path d="M220.411 441.212C192.128 441.212 170.198 409.83 170.198 367.715L169.394 103.774C169.394 83.5647 174.79 64.1834 184.394 49.8936C193.998 35.6037 207.024 27.5757 220.606 27.5757C234.189 27.5757 247.215 35.6037 256.819 49.8936C266.423 64.1834 271.818 83.5647 271.818 103.774L270.67 367.39C270.658 409.506 248.694 441.212 220.411 441.212Z" fill="#21B95C"/>
<path d="M169.394 358.485V383.751C169.394 416.574 168.862 443.182 220.606 443.182C272.35 443.182 271.818 417.112 271.818 383.751V358.485H169.394Z" fill="#13705F"/>
<path d="M0 0C0 74.8485 34.4697 108.333 152.652 108.333C270.833 108.333 305.303 74.8485 305.303 0H0Z" fill="#21B95C"/>
</svg>
