<svg width="306" height="444" viewBox="0 0 306 444" fill="none" xmlns="http://www.w3.org/2000/svg">
<path d="M78.5926 441.212C50.3099 441.212 28.3799 409.83 28.3799 367.715L27.5757 103.774C27.5757 83.5647 32.9713 64.1834 42.5754 49.8936C52.1796 35.6037 65.2056 27.5757 78.7879 27.5757C92.3702 27.5757 105.396 35.6037 115 49.8936C124.604 64.1834 130 83.5647 130 103.774L128.851 367.39C128.84 409.506 106.875 441.212 78.5926 441.212Z" fill="#F4C222"/>
<path d="M27.576 358.485V383.751C27.576 416.574 27.044 443.182 78.7879 443.182C130.532 443.182 130 417.112 130 383.751V358.485H27.576Z" fill="#3F3F3F"/>
<path d="M218.441 441.212C190.158 441.212 168.228 409.83 168.228 367.715L167.424 103.774C167.424 83.5647 172.82 64.1834 182.424 49.8936C192.028 35.6037 205.054 27.5757 218.636 27.5757C232.219 27.5757 245.245 35.6037 254.849 49.8936C264.453 64.1834 269.848 83.5647 269.848 103.774L268.7 367.39C268.688 409.506 246.724 441.212 218.441 441.212Z" fill="#F4C222"/>
<path d="M167.424 358.485V383.751C167.424 416.574 166.892 443.182 218.636 443.182C270.38 443.182 269.848 417.112 269.848 383.751V358.485H167.424Z" fill="#3F3F3F"/>
<path d="M0 0C0 74.8485 34.4697 108.333 152.652 108.333C270.833 108.333 305.303 74.8485 305.303 0H0Z" fill="#F4C222"/>
</svg>
