<svg width="306" height="444" viewBox="0 0 306 444" fill="none" xmlns="http://www.w3.org/2000/svg">
<path d="M80.5618 441.212C52.2792 441.212 30.3492 409.83 30.3492 367.715L29.545 103.774C29.545 83.5647 34.9406 64.1834 44.5447 49.8936C54.1488 35.6037 67.1748 27.5757 80.7571 27.5757C94.3394 27.5757 107.365 35.6037 116.97 49.8936C126.574 64.1834 131.969 83.5647 131.969 103.774L130.82 367.39C130.809 409.506 108.845 441.212 80.5618 441.212Z" fill="#3F3F3F"/>
<path d="M29.5452 358.485V383.751C29.5452 416.574 29.0132 443.182 80.7571 443.182C132.501 443.182 131.969 417.112 131.969 383.751V358.485H29.5452Z" fill="#26B824"/>
<path d="M220.41 441.212C192.128 441.212 170.198 409.83 170.198 367.715L169.393 103.774C169.393 83.5647 174.789 64.1834 184.393 49.8936C193.997 35.6037 207.023 27.5757 220.606 27.5757C234.188 27.5757 247.214 35.6037 256.818 49.8936C266.422 64.1834 271.818 83.5647 271.818 103.774L270.669 367.39C270.657 409.506 248.693 441.212 220.41 441.212Z" fill="#3F3F3F"/>
<path d="M169.394 358.485V383.751C169.394 416.574 168.862 443.182 220.606 443.182C272.35 443.182 271.818 417.112 271.818 383.751V358.485H169.394Z" fill="#26B824"/>
<path d="M0 0C0 74.8485 34.4697 108.333 152.652 108.333C270.833 108.333 305.303 74.8485 305.303 0H0Z" fill="#3F3F3F"/>
</svg>
