<svg width="306" height="444" viewBox="0 0 306 444" fill="none" xmlns="http://www.w3.org/2000/svg">
<path d="M78.5922 441.212C50.3095 441.212 28.3795 409.83 28.3795 367.715L27.5753 103.774C27.5753 83.5647 32.9709 64.1834 42.575 49.8936C52.1791 35.6037 65.2051 27.5757 78.7874 27.5757C92.3697 27.5757 105.396 35.6037 115 49.8936C124.604 64.1834 130 83.5647 130 103.774L128.851 367.39C128.839 409.506 106.875 441.212 78.5922 441.212Z" fill="#A685E2"/>
<path d="M27.5755 358.485V383.751C27.5755 416.574 27.0435 443.182 78.7874 443.182C130.531 443.182 129.999 417.112 129.999 383.751V358.485H27.5755Z" fill="#3F3F3F"/>
<path d="M218.441 441.212C190.158 441.212 168.228 409.83 168.228 367.715L167.424 103.774C167.424 83.5647 172.819 64.1834 182.424 49.8936C192.028 35.6037 205.054 27.5757 218.636 27.5757C232.218 27.5757 245.244 35.6037 254.848 49.8936C264.453 64.1834 269.848 83.5647 269.848 103.774L268.699 367.39C268.688 409.506 246.723 441.212 218.441 441.212Z" fill="#A685E2"/>
<path d="M167.424 358.485V383.751C167.424 416.574 166.892 443.182 218.636 443.182C270.38 443.182 269.848 417.112 269.848 383.751V358.485H167.424Z" fill="#3F3F3F"/>
<path d="M0 0C0 74.8485 34.4697 108.333 152.652 108.333C270.833 108.333 305.303 74.8485 305.303 0H0Z" fill="#A685E2"/>
</svg>
