<svg width="427" height="446" viewBox="0 0 427 446" fill="none" xmlns="http://www.w3.org/2000/svg">
<path d="M140.114 443.407C111.808 443.407 89.8601 422.298 89.8601 393.969L89.0553 216.432C89.0553 202.839 94.4552 189.802 104.067 180.19C113.679 170.578 126.716 165.178 140.309 165.178C153.902 165.178 166.939 170.578 176.551 180.19C186.163 189.802 191.563 202.839 191.563 216.432L190.413 393.751C190.402 422.08 168.419 443.407 140.114 443.407Z" fill="#FFD3BC"/>
<path d="M89.2063 327.665V362.72C89.2063 408.259 88.6774 445.176 140.115 445.176C191.553 445.176 191.024 409.007 191.024 362.72V327.665H89.2063Z" fill="#3F3F3F"/>
<path d="M280.378 443.407C252.072 443.407 230.124 422.298 230.124 393.969L229.32 216.432C229.32 202.839 234.72 189.802 244.332 180.19C253.944 170.578 266.98 165.178 280.573 165.178C294.167 165.178 307.203 170.578 316.815 180.19C326.427 189.802 331.827 202.839 331.827 216.432L330.678 393.751C330.666 422.08 308.684 443.407 280.378 443.407Z" fill="#FFD3BC"/>
<path d="M229.47 327.665V362.72C229.47 408.259 228.941 445.176 280.379 445.176C331.816 445.176 331.287 409.007 331.287 362.72V327.665H229.47Z" fill="#3F3F3F"/>
<path d="M373.683 0H71.8565L0 244.887H426.54L373.683 0Z" fill="#22BAAF"/>
</svg>
