<svg width="427" height="446" viewBox="0 0 427 446" fill="none" xmlns="http://www.w3.org/2000/svg">
<path d="M140.113 443.407C111.807 443.407 89.8595 422.298 89.8595 393.969L89.0547 216.432C89.0547 202.839 94.4546 189.802 104.067 180.19C113.679 170.578 126.715 165.178 140.308 165.178C153.902 165.178 166.938 170.578 176.55 180.19C186.162 189.802 191.562 202.839 191.562 216.432L190.413 393.751C190.401 422.08 168.419 443.407 140.113 443.407Z" fill="#FFD3BC"/>
<path d="M89.2063 327.665V362.72C89.2063 408.259 88.6774 445.176 140.115 445.176C191.553 445.176 191.024 409.007 191.024 362.72V327.665H89.2063Z" fill="#2BB7AB"/>
<path d="M280.378 443.407C252.072 443.407 230.124 422.298 230.124 393.969L229.319 216.432C229.319 202.839 234.719 189.802 244.331 180.19C253.943 170.578 266.98 165.178 280.573 165.178C294.166 165.178 307.203 170.578 316.815 180.19C326.427 189.802 331.827 202.839 331.827 216.432L330.677 393.751C330.666 422.08 308.683 443.407 280.378 443.407Z" fill="#FFD3BC"/>
<path d="M229.469 327.665V362.72C229.469 408.259 228.941 445.176 280.378 445.176C331.816 445.176 331.287 409.007 331.287 362.72V327.665H229.469Z" fill="#2BB7AB"/>
<path d="M373.683 0H71.8565L0 244.887H426.54L373.683 0Z" fill="#EC5858"/>
</svg>
