<svg width="427" height="446" viewBox="0 0 427 446" fill="none" xmlns="http://www.w3.org/2000/svg">
<path d="M140.114 443.407C111.809 443.407 89.8607 422.298 89.8607 393.969L89.0559 216.432C89.0559 202.839 94.4558 189.802 104.068 180.19C113.68 170.578 126.716 165.178 140.31 165.178C153.903 165.178 166.94 170.578 176.552 180.19C186.164 189.802 191.563 202.839 191.563 216.432L190.414 393.751C190.402 422.08 168.42 443.407 140.114 443.407Z" fill="#FFD3BC"/>
<path d="M88.6369 277.727V327.671C88.6369 392.554 88.1049 445.152 139.849 445.152C191.593 445.152 191.061 393.619 191.061 327.671V277.727H88.6369Z" fill="#1771B9"/>
<path d="M280.379 443.407C252.073 443.407 230.125 422.298 230.125 393.969L229.32 216.432C229.32 202.839 234.72 189.802 244.332 180.19C253.944 170.578 266.981 165.178 280.574 165.178C294.167 165.178 307.204 170.578 316.816 180.19C326.428 189.802 331.828 202.839 331.828 216.432L330.678 393.751C330.667 422.08 308.684 443.407 280.379 443.407Z" fill="#FFD3BC"/>
<path d="M230.455 277.727V327.671C230.455 392.554 229.934 445.152 280.682 445.152C331.431 445.152 330.909 393.619 330.909 327.671V277.727H230.455Z" fill="#1771B9"/>
<path d="M373.683 0H71.8565L0 244.887H426.54L373.683 0Z" fill="#21B95C"/>
</svg>
