<svg width="427" height="446" viewBox="0 0 427 446" fill="none" xmlns="http://www.w3.org/2000/svg">
<path d="M140.114 443.407C111.808 443.407 89.8602 422.298 89.8602 393.969L89.0554 216.432C89.0554 202.839 94.4554 189.802 104.067 180.19C113.679 170.578 126.716 165.178 140.309 165.178C153.903 165.178 166.939 170.578 176.551 180.19C186.163 189.802 191.563 202.839 191.563 216.432L190.413 393.751C190.402 422.08 168.419 443.407 140.114 443.407Z" fill="#FFD3BC"/>
<path d="M88.6367 277.727V327.671C88.6367 392.554 88.1047 445.151 139.849 445.151C191.593 445.151 191.06 393.619 191.06 327.671V277.727H88.6367Z" fill="#3F3F3F"/>
<path d="M280.378 443.407C252.072 443.407 230.125 422.298 230.125 393.969L229.32 216.432C229.32 202.839 234.72 189.802 244.332 180.19C253.944 170.578 266.98 165.178 280.574 165.178C294.167 165.178 307.204 170.578 316.815 180.19C326.427 189.802 331.827 202.839 331.827 216.432L330.678 393.751C330.666 422.08 308.684 443.407 280.378 443.407Z" fill="#FFD3BC"/>
<path d="M230.455 277.727V327.671C230.455 392.554 229.933 445.151 280.682 445.151C331.431 445.151 330.909 393.619 330.909 327.671V277.727H230.455Z" fill="#3F3F3F"/>
<path d="M373.683 0H71.8565L0 244.887H426.54L373.683 0Z" fill="#F4C222"/>
</svg>
