<svg width="250" height="250" viewBox="0 0 250 250" fill="none" xmlns="http://www.w3.org/2000/svg">
<circle cx="125" cy="125" r="120" fill="white"/>
<circle cx="125" cy="125" r="120" fill="#26B824" fill-opacity="0.5"/>
<circle cx="125" cy="125" r="120" stroke="#21B95C" stroke-width="10"/>
<mask id="mask0_1654_11752" style="mask-type:alpha" maskUnits="userSpaceOnUse" x="6" y="6" width="238" height="238">
<circle cx="125" cy="125" r="118.274" fill="#EC5858"/>
</mask>
<g mask="url(#mask0_1654_11752)">
<path d="M240.068 246.016H9.01093V138.455H56.8163L124.539 70.7316L192.264 138.455H240.068V246.016Z" fill="#E6BE94"/>
<path d="M148.442 198.211H100.637V246.016H148.442V198.211Z" fill="#996459"/>
<path d="M147.446 182.276H101.633C101.083 182.276 100.637 182.722 100.637 183.272V198.211H148.442V183.272C148.442 182.722 147.996 182.276 147.446 182.276Z" fill="#4BB9EC"/>
<path d="M161.307 38.8619L167.8 29.1207C168.614 27.8991 168.691 26.3276 167.999 25.0318C167.306 23.7361 165.956 22.9269 164.486 22.9269H124.649C122.447 22.9269 120.665 24.7087 120.665 26.9107V50.8131C120.665 53.0151 122.447 54.7969 124.649 54.7969H164.486C165.956 54.7969 167.306 53.9877 167.999 52.6919C168.692 51.3962 168.614 49.8246 167.801 48.6031L161.307 38.8619Z" fill="#FF4F19"/>
<path d="M124.648 74.7155C122.446 74.7155 120.665 72.9337 120.665 70.7317V18.9431C120.665 16.7411 122.446 14.9594 124.648 14.9594C126.85 14.9594 128.632 16.7411 128.632 18.9431V70.7317C128.632 72.9337 126.85 74.7155 124.648 74.7155Z" fill="#5C546A"/>
<path d="M140.778 89.1256C141.393 87.6357 142.848 86.6666 144.459 86.6666H220.15C221.511 86.6666 222.78 87.3628 223.511 88.5106L251.397 132.332C252.179 133.561 252.226 135.113 251.53 136.389C250.83 137.661 249.491 138.455 248.036 138.455H188.28C187.222 138.455 186.21 138.034 185.464 137.287L141.642 93.4664C140.502 92.327 140.159 90.6155 140.778 89.1256Z" fill="#FF4F19"/>
<path d="M108.41 89.1256C107.795 87.6351 106.34 86.6666 104.73 86.6666H29.0389C27.6775 86.6666 26.4092 87.3628 25.6777 88.5106L-2.20852 132.332C-2.99033 133.561 -3.03714 135.113 -2.34098 136.389C-1.64034 137.661 -0.3023 138.455 1.15276 138.455H60.9088C61.967 138.455 62.9784 138.035 63.7253 137.288L107.546 93.4668C108.686 92.327 109.029 90.6155 108.41 89.1256Z" fill="#FF4F19"/>
<path d="M192.318 142.385C191.298 142.385 190.279 141.996 189.501 141.217L124.649 76.3651L59.7962 141.217C58.2401 142.774 55.7189 142.774 54.1627 141.217C52.6066 139.661 52.6066 137.14 54.1627 135.584L121.832 67.9146C123.388 66.3585 125.909 66.3585 127.466 67.9146L195.135 135.584C196.691 137.14 196.691 139.661 195.135 141.217C194.356 141.995 193.337 142.385 192.318 142.385Z" fill="#E3001E"/>
<path d="M124.649 171.463C134.078 171.463 141.722 163.819 141.722 154.39C141.722 144.961 134.078 137.317 124.649 137.317C115.22 137.317 107.576 144.961 107.576 154.39C107.576 163.819 115.22 171.463 124.649 171.463Z" fill="#FFEBB7"/>
<path d="M124.648 143.008C123.076 143.008 121.803 144.281 121.803 145.854V151.545H116.112C114.539 151.545 113.266 152.817 113.266 154.39C113.266 155.963 114.539 157.236 116.112 157.236H124.648C126.221 157.236 127.494 155.963 127.494 154.39V145.854C127.494 144.281 126.221 143.008 124.648 143.008Z" fill="#5C546A"/>
<path d="M184.295 164.349C184.295 158.849 179.836 154.39 174.336 154.39C168.835 154.39 164.377 158.849 164.377 164.349C164.377 165.032 164.447 165.697 164.577 166.341H164.377V182.276H184.295V166.341H184.095C184.226 165.697 184.295 165.032 184.295 164.349Z" fill="#4BB9EC"/>
<path d="M174.445 150.406C166.757 150.406 160.502 156.662 160.502 164.349V182.276C160.502 184.478 162.284 186.26 164.486 186.26H184.404C186.606 186.26 188.388 184.478 188.388 182.276V164.349C188.388 156.662 182.133 150.406 174.445 150.406ZM174.445 158.374C177.74 158.374 180.421 161.054 180.421 164.349V166.341H168.469V164.349C168.469 161.054 171.15 158.374 174.445 158.374ZM168.469 178.293V174.309H180.421V178.293H168.469Z" fill="#7E5C62"/>
<path d="M84.8116 202.195H64.8929V226.098H84.8116V202.195Z" fill="#4BB9EC"/>
<path d="M84.8112 198.211H64.8926C62.6905 198.211 60.9088 199.993 60.9088 202.195V226.097C60.9088 228.299 62.6905 230.081 64.8926 230.081H84.8112C87.0133 230.081 88.795 228.299 88.795 226.097V202.195C88.795 199.993 87.0133 198.211 84.8112 198.211ZM80.8275 206.179V210.162H68.8763V206.179H80.8275ZM68.8763 222.114V218.13H80.8275V222.114H68.8763Z" fill="#7E5C62"/>
<path d="M48.8486 202.195H28.9299V226.097H48.8486V202.195Z" fill="#4BB9EC"/>
<path d="M48.8484 198.211H28.9297C26.7277 198.211 24.946 199.993 24.946 202.195V226.098C24.946 228.3 26.7277 230.081 28.9297 230.081H48.8484C51.0504 230.081 52.8321 228.3 52.8321 226.098V202.195C52.8321 199.993 51.0504 198.211 48.8484 198.211ZM44.8647 206.179V210.163H32.9135V206.179H44.8647ZM32.9135 222.114V218.13H44.8647V222.114H32.9135Z" fill="#7E5C62"/>
<path d="M220.258 202.195H200.339V226.098H220.258V202.195Z" fill="#4BB9EC"/>
<path d="M220.258 198.211H200.339C198.137 198.211 196.356 199.993 196.356 202.195V226.097C196.356 228.299 198.137 230.081 200.339 230.081H220.258C222.46 230.081 224.242 228.299 224.242 226.097V202.195C224.242 199.993 222.46 198.211 220.258 198.211ZM216.274 206.179V210.162H204.323V206.179H216.274ZM204.323 222.114V218.13H216.274V222.114H204.323Z" fill="#7E5C62"/>
<path d="M184.296 202.195H164.377V226.098H184.296V202.195Z" fill="#4BB9EC"/>
<path d="M184.296 198.211H164.377C162.175 198.211 160.393 199.993 160.393 202.195V226.097C160.393 228.299 162.175 230.081 164.377 230.081H184.296C186.498 230.081 188.279 228.299 188.279 226.097V202.195C188.279 199.993 186.498 198.211 184.296 198.211ZM180.312 206.179V210.162H168.361V206.179H180.312ZM168.361 222.114V218.13H180.312V222.114H168.361Z" fill="#7E5C62"/>
<path d="M220.041 164.349C220.041 158.849 215.582 154.39 210.082 154.39C204.581 154.39 200.122 158.849 200.122 164.349C200.122 165.032 200.192 165.697 200.323 166.341H200.122V182.276H220.041V166.341H219.84C219.971 165.697 220.041 165.032 220.041 164.349Z" fill="#4BB9EC"/>
<path d="M210.19 150.406C202.502 150.406 196.247 156.662 196.247 164.35V182.276C196.247 184.478 198.028 186.26 200.231 186.26H220.149C222.351 186.26 224.133 184.478 224.133 182.276V164.35C224.133 156.662 217.877 150.406 210.19 150.406ZM210.19 158.374C213.485 158.374 216.165 161.054 216.165 164.35V166.341H204.214V164.35C204.214 161.054 206.895 158.374 210.19 158.374ZM204.214 178.293V174.309H216.165V178.293H204.214Z" fill="#7E5C62"/>
<path d="M48.7396 164.349C48.7396 158.849 44.2808 154.39 38.7802 154.39C33.2797 154.39 28.8209 158.849 28.8209 164.349C28.8209 165.032 28.8911 165.697 29.0216 166.341H28.8209V182.276H48.7396V166.341H48.5389C48.6694 165.697 48.7396 165.032 48.7396 164.349Z" fill="#4BB9EC"/>
<path d="M38.8891 150.406C31.2014 150.406 24.946 156.662 24.946 164.35V182.276C24.946 184.478 26.7277 186.26 28.9297 186.26H48.8484C51.0504 186.26 52.8321 184.478 52.8321 182.276V164.35C52.8321 156.662 46.5767 150.406 38.8891 150.406ZM38.8891 158.374C42.1841 158.374 44.8647 161.054 44.8647 164.35V166.341H32.9135V164.35C32.9135 161.054 35.594 158.374 38.8891 158.374ZM32.9135 178.293V174.309H44.8647V178.293H32.9135Z" fill="#7E5C62"/>
<path d="M84.4847 164.35C84.4847 158.849 80.0259 154.39 74.5254 154.39C69.0248 154.39 64.566 158.849 64.566 164.35C64.566 165.032 64.6363 165.698 64.7667 166.341H64.566V182.276H84.4847V166.341H84.284C84.4145 165.698 84.4847 165.032 84.4847 164.35Z" fill="#4BB9EC"/>
<path d="M74.6346 150.406C66.947 150.406 60.6915 156.662 60.6915 164.35V182.276C60.6915 184.478 62.4733 186.26 64.6753 186.26H84.594C86.796 186.26 88.5777 184.478 88.5777 182.276V164.35C88.5777 156.662 82.3217 150.406 74.6346 150.406ZM74.6346 158.374C77.9297 158.374 80.6102 161.054 80.6102 164.35V166.341H68.659V164.35C68.659 161.054 71.3391 158.374 74.6346 158.374ZM68.659 178.293V174.309H80.6102V178.293H68.659Z" fill="#7E5C62"/>
<path d="M124.649 174.309C113.665 174.309 104.73 165.374 104.73 154.39C104.73 143.407 113.665 134.472 124.649 134.472C135.632 134.472 144.567 143.407 144.567 154.39C144.567 165.374 135.632 174.309 124.649 174.309ZM124.649 140.163C116.804 140.163 110.421 146.545 110.421 154.39C110.421 162.236 116.804 168.618 124.649 168.618C132.493 168.618 138.876 162.236 138.876 154.39C138.876 146.545 132.493 140.163 124.649 140.163Z" fill="#7E5C62"/>
<path d="M140.584 178.293H108.714C102.124 178.293 96.7626 183.654 96.7626 190.244V246.016C96.7626 248.218 98.5444 250 100.746 250C102.948 250 104.73 248.218 104.73 246.016V202.195H120.556V246.016H128.523V202.195H144.567V246.016C144.567 248.218 146.349 250 148.551 250C150.753 250 152.535 248.218 152.535 246.016V190.244C152.535 183.654 147.174 178.293 140.584 178.293ZM144.567 194.228H104.73V190.244C104.73 188.046 106.516 186.26 108.714 186.26H140.584C142.782 186.26 144.567 188.046 144.567 190.244V194.228Z" fill="#7E5C62"/>
<path d="M248.145 250H1.15271C-1.0493 250 -2.83102 248.218 -2.83102 246.016C-2.83102 243.814 -1.0493 242.033 1.15271 242.033H248.145C250.347 242.033 252.128 243.814 252.128 246.016C252.128 248.218 250.347 250 248.145 250Z" fill="#5C546A"/>
<path d="M112.787 99.0799L110.236 110.544C110.236 110.544 109.723 113.909 110.533 120.581C110.533 120.581 123.496 124.189 142.837 119.589C142.837 119.589 143.892 101.413 137.348 93.8167C130.805 86.22 112.787 99.0799 112.787 99.0799Z" fill="#75B1C9"/>
<path d="M112.691 98.9774C112.135 99.1797 110.384 109.264 110.384 109.264C139.251 105.59 134.834 97.3006 134.834 97.3006C134.834 97.3006 113.25 98.7754 112.691 98.9774Z" fill="#FFD3AE"/>
<ellipse cx="108.731" cy="83.1482" rx="3.15892" ry="3.15892" transform="rotate(-24.22 108.731 83.1482)" fill="#FFE0C2"/>
<ellipse cx="109.36" cy="83.1193" rx="2.53562" ry="2.53562" transform="rotate(-78.44 109.36 83.1193)" fill="#FFD3AE"/>
<ellipse cx="141.492" cy="82.1626" rx="3.15892" ry="3.15892" transform="rotate(-24.22 141.492 82.1626)" fill="#FFE0C2"/>
<ellipse cx="140.87" cy="82.1839" rx="2.53562" ry="2.53562" transform="rotate(-46.72 140.87 82.1839)" fill="#FFD3AE"/>
<path d="M108.544 85.5332C108.544 85.5332 105.486 70.9279 123.103 70.3928C140.719 69.8576 141.907 84.5142 141.907 84.5142C141.907 84.5142 143.375 94.5196 125.454 95.069C107.533 95.6184 108.544 85.5332 108.544 85.5332Z" fill="#FFE0C2"/>
<path d="M116.085 80.99C116.77 80.9725 117.452 81.11 118.075 81.3915C118.154 81.007 118.187 80.6147 118.172 80.2224C118.123 78.7689 117.496 77.6071 116.768 77.6267C116.04 77.6463 115.495 78.8388 115.544 80.2891C115.553 80.5367 115.579 80.7835 115.622 81.0278C115.776 81.0088 115.929 80.996 116.085 80.99Z" fill="#634E42"/>
<path d="M133.569 80.4484C132.884 80.4675 132.213 80.6439 131.61 80.9633C131.506 80.5785 131.447 80.1834 131.434 79.7856C131.387 78.313 131.937 77.1044 132.662 77.0832C133.387 77.062 134.016 78.2418 134.063 79.7112C134.07 79.9617 134.061 80.2124 134.033 80.4614C133.879 80.449 133.724 80.4447 133.569 80.4484Z" fill="#634E42"/>
<path d="M108.565 79.549C108.565 79.549 108.571 81.2314 109.766 81.0509C110.961 80.8704 111.147 79.198 111.147 79.198C111.147 79.198 112.481 78.8303 112.434 77.5372C112.434 77.5372 114.755 74.0305 110.611 73.9818C110.611 73.9818 106.971 72.7785 107.715 76.7822C107.715 76.7888 105.249 78.9111 108.565 79.549Z" fill="#EFEFEF"/>
<path d="M141.057 78.6616C141.057 78.6616 141.145 80.3387 140.04 80.2428C138.936 80.147 138.668 78.4679 138.668 78.4679C138.668 78.4679 137.409 78.177 137.391 76.882C137.391 76.882 135.061 73.5108 138.864 73.2285C138.864 73.2285 142.135 71.8133 141.68 75.8608C141.681 75.8508 144.064 77.8297 141.057 78.6616Z" fill="#EFEFEF"/>
<path d="M125.37 83.3925L126.098 106.549L125.728 106.628L125.356 106.569C123.544 106.254 119.063 105.202 118.733 102.533C118.733 102.533 111.926 102.044 111.569 98.6882C111.569 98.6882 104.792 95.3933 107.59 90.2693C107.59 90.2693 107.034 80.6317 108.992 78.8915L109.276 79.8501C109.276 79.8501 112.81 82.1479 112.395 84.9002C112.395 84.9002 116.128 84.1046 117.612 86.6825C117.612 86.6825 120.895 82.9451 123.226 82.9867C123.818 82.9774 124.41 83.0329 124.99 83.1524C125.431 83.2545 125.37 83.3925 125.37 83.3925Z" fill="#EFEFEF"/>
<path d="M139.37 98.1096C139.222 101.49 132.515 102.379 132.515 102.379C132.353 105.073 127.982 106.389 126.211 106.813L125.844 106.893L125.475 106.834L124.778 83.6174C124.778 83.6174 124.703 83.4844 125.138 83.3258C125.705 83.1726 126.286 83.0813 126.873 83.0537C129.177 82.8775 132.652 86.428 132.652 86.428C133.945 83.764 137.711 84.3245 137.711 84.3245C137.13 81.5921 140.488 79.0826 140.488 79.0826L140.708 78.1175C142.754 79.7424 142.791 89.4305 142.791 89.4305C145.877 94.3993 139.37 98.1096 139.37 98.1096Z" fill="#EFEFEF"/>
<path d="M129.75 73.5602C129.75 73.5602 128.747 70.8723 131.741 70.0314C134.735 69.1905 135.578 72.3714 135.578 72.3714C135.578 72.3714 133.451 71.0472 132.161 71.4055C130.871 71.7638 130.506 72.0708 129.75 73.5602Z" fill="#EFEFEF"/>
<path d="M113.322 72.9681C113.322 72.9681 113.566 70.0366 116.668 70.4426C119.771 70.8486 119.179 74.1564 119.179 74.1564C119.179 74.1564 117.805 72.0739 116.471 71.9004C115.137 71.727 114.663 71.8736 113.322 72.9681Z" fill="#EFEFEF"/>
<path d="M128.673 81.2615C128.543 81.2667 128.413 81.2825 128.286 81.3087C127.753 80.7285 126.765 80.3543 125.634 80.3787C124.502 80.4031 123.538 80.8455 123.039 81.4573C122.91 81.4407 122.78 81.4336 122.649 81.4359C121.803 81.4609 121.132 81.9276 121.148 82.4796C121.165 83.0316 121.863 83.4534 122.709 83.4284C122.839 83.4235 122.969 83.4077 123.097 83.3812C123.632 83.9617 124.618 84.3356 125.749 84.3112C126.88 84.2868 127.844 83.8411 128.343 83.2293C128.471 83.254 128.601 83.2677 128.731 83.2701C129.577 83.2418 130.249 82.7784 130.232 82.2264C130.216 81.6743 129.535 81.2381 128.673 81.2615Z" fill="#FFD3AE"/>
<path d="M107.216 104.921C107.216 104.921 100.187 101.949 102.768 94.9338C102.768 94.9338 100.039 90.609 101.091 89.4145C102.143 88.22 105.747 89.2032 105.747 89.2032C105.747 89.2032 105.115 87.9462 107.229 87.6129C109.344 87.2797 106.705 95.9967 112.386 99.0367C116.222 101.078 111.945 106.617 107.216 104.921Z" fill="#FFE0C2"/>
<path d="M107.729 74.1902L107.609 74.3078C107.573 74.3453 107.524 74.3744 107.467 74.3921C107.41 74.4097 107.348 74.4153 107.287 74.4081C107.226 74.4009 107.169 74.3812 107.122 74.3512C107.075 74.3212 107.04 74.2821 107.02 74.238C106.654 73.3954 106.001 72.6404 105.127 72.0487C105.066 72.0068 104.986 71.9836 104.904 71.9836C104.821 71.9836 104.742 72.0068 104.681 72.0487C103.807 72.641 103.153 73.3958 102.785 74.238C102.767 74.2825 102.732 74.3223 102.686 74.3529C102.64 74.3836 102.583 74.404 102.522 74.4118C102.461 74.4196 102.399 74.4146 102.342 74.3972C102.285 74.3798 102.235 74.3508 102.198 74.3134L102.079 74.1902C102.048 74.1586 102.007 74.133 101.96 74.1153C101.914 74.0977 101.862 74.0885 101.81 74.0885C101.758 74.0885 101.706 74.0977 101.66 74.1153C101.613 74.133 101.572 74.1586 101.541 74.1902C97.5951 78.1571 100.743 80.874 100.743 80.874H109.065C109.065 80.874 112.213 78.1571 108.267 74.1902C108.235 74.1586 108.195 74.133 108.148 74.1153C108.101 74.0977 108.05 74.0885 107.998 74.0885C107.945 74.0885 107.894 74.0977 107.847 74.1153C107.801 74.133 107.76 74.1586 107.729 74.1902Z" fill="#EC631D"/>
<path d="M109.066 80.874H107.994C107.994 80.874 111.035 78.2564 107.408 74.4108C107.489 74.399 107.562 74.3642 107.61 74.3134L107.729 74.1957C107.76 74.1641 107.801 74.1385 107.848 74.1208C107.894 74.1032 107.946 74.094 107.998 74.094C108.05 74.094 108.102 74.1032 108.149 74.1208C108.195 74.1385 108.236 74.1641 108.267 74.1957C112.213 78.159 109.066 80.874 109.066 80.874Z" fill="#DD4429"/>
<path d="M110.577 81.091C110.575 81.0335 110.544 80.9786 110.49 80.938C110.436 80.8975 110.363 80.8746 110.287 80.8741H99.5205C99.4443 80.8746 99.3713 80.8975 99.3172 80.938C99.2631 80.9786 99.2321 81.0335 99.2308 81.091C99.2016 83.1976 101.758 83.9642 101.758 83.9642H108.05C108.05 83.9642 110.606 83.1976 110.577 81.091Z" fill="#B7C1CA"/>
<path d="M110.577 81.091C110.606 83.1976 108.05 83.9642 108.05 83.9642H106.96C106.96 83.9642 109.513 83.1976 109.484 81.091C109.484 81.0335 109.454 80.9783 109.4 80.9376C109.346 80.8969 109.273 80.8741 109.197 80.8741H110.287C110.364 80.8746 110.437 80.8975 110.491 80.938C110.545 80.9786 110.576 81.0335 110.577 81.091Z" fill="#A3AEB7"/>
<path d="M104.903 83.9643H101.792L103.126 92.1665C103.257 92.9772 103.992 93.5765 104.857 93.5765H104.966C105.83 93.5765 106.565 92.9772 106.697 92.1665L108.023 83.9643H104.903Z" fill="#B7C1CA"/>
<path d="M108.016 83.9643L106.689 92.1665C106.558 92.9772 105.823 93.5765 104.958 93.5765H104.849C104.689 93.576 104.53 93.5555 104.379 93.5158C105.027 93.3448 105.53 92.8246 105.638 92.1665L106.964 83.9643H108.016Z" fill="#A3AEB7"/>
<path d="M104.649 76.8703C101.38 78.6644 103.547 80.874 103.547 80.874H106.261C106.261 80.874 108.427 78.6681 105.158 76.8703C105.084 76.8308 104.995 76.8096 104.904 76.8096C104.813 76.8096 104.724 76.8308 104.649 76.8703Z" fill="#F9AF2F"/>
<path d="M106.261 80.874H105.358C105.358 80.874 107.434 78.7563 104.452 76.9842C104.516 76.9456 104.581 76.9089 104.649 76.8703C104.724 76.8308 104.813 76.8096 104.904 76.8096C104.995 76.8096 105.084 76.8308 105.158 76.8703C108.427 78.6644 106.261 80.874 106.261 80.874Z" fill="#F18415"/>
<path d="M108.155 87.5561H101.665C101.511 87.5561 101.358 87.5332 101.215 87.4885C101.073 87.4439 100.943 87.3785 100.834 87.296C100.725 87.2135 100.639 87.1156 100.58 87.0079C100.521 86.9002 100.491 86.7848 100.492 86.6683C100.492 86.4333 100.615 86.2079 100.835 86.0417C101.055 85.8756 101.354 85.7822 101.665 85.7822H108.155C108.466 85.7822 108.764 85.8756 108.984 86.0417C109.204 86.2079 109.328 86.4333 109.328 86.6683C109.328 86.7848 109.298 86.9002 109.239 87.0079C109.18 87.1156 109.094 87.2135 108.985 87.296C108.876 87.3785 108.747 87.4439 108.604 87.4885C108.462 87.5332 108.309 87.5561 108.155 87.5561Z" fill="#30B5AB"/>
<path d="M109.328 86.6683C109.328 86.9034 109.205 87.129 108.985 87.2954C108.765 87.4619 108.467 87.5557 108.155 87.5561H107.291C107.593 87.5457 107.879 87.4478 108.088 87.2826C108.297 87.1174 108.413 86.8977 108.413 86.6692C108.413 86.4407 108.297 86.221 108.088 86.0558C107.879 85.8906 107.593 85.7926 107.291 85.7822H108.155C108.466 85.7822 108.765 85.8756 108.985 86.0417C109.205 86.2079 109.328 86.4333 109.328 86.6683Z" fill="#11877C"/>
<path d="M145.345 103.275C145.345 103.275 147.521 110.577 140.41 113.335C140.41 113.335 138.783 118.294 137.18 118.314C135.577 118.334 134.043 114.948 134.043 114.948C134.043 114.948 133.471 116.276 131.857 114.902C130.244 113.528 139.16 105.678 139.071 100.234C138.982 94.791 143.745 97.6422 145.345 103.275Z" fill="#FFE0C2"/>
<rect x="102.24" y="118.536" width="45.813" height="8.46544" rx="4.23272" fill="#7E5C62"/>
</g>
</svg>
