<svg width="659" height="326" viewBox="0 0 659 326" fill="none" xmlns="http://www.w3.org/2000/svg">
<path d="M602.538 239.556L477.403 67.3704C460.203 44.4168 430.269 37.7678 410.57 52.5335C390.871 67.2991 388.884 97.8396 406.089 120.771L531.185 293.019C548.384 315.972 578.307 322.619 598.017 307.856C617.728 293.093 619.738 262.51 602.538 239.556Z" fill="#FFD3BC"/>
<path d="M55.8824 240.722L181.018 68.5361C198.217 45.5825 228.151 38.9336 247.85 53.6993C267.549 68.4649 269.537 99.0054 252.332 121.936L127.236 294.185C110.036 317.138 80.1135 323.784 60.4031 309.021C40.6928 294.259 38.6828 263.676 55.8824 240.722Z" fill="#FFD3BC"/>
<path d="M482.013 223.768C482.013 101.152 420.457 0.359375 328.568 0.359375C236.678 0.359375 174.711 101.152 174.711 223.768C174.711 265.041 174.711 322.591 174.711 322.591H482.013C482.013 322.591 482.013 261.65 482.013 223.768Z" fill="#1771B9"/>
</svg>
