<svg width="666" height="328" viewBox="0 0 666 328" fill="none" xmlns="http://www.w3.org/2000/svg">
<path d="M605.843 241.846L480.708 69.6599C463.508 46.7063 433.574 40.0574 413.875 54.823C394.176 69.5887 392.188 100.129 409.394 123.06L534.49 295.308C551.689 318.262 581.612 324.908 601.322 310.145C621.032 295.382 623.042 264.799 605.843 241.846Z" fill="#FFD3BC"/>
<path d="M433.126 142.682L411.386 109.893C392.054 81.3273 397.716 55.2598 418.006 41.5308C438.295 27.8018 467.644 32.4597 486.962 61.0341L507.212 92.1912L433.126 142.682Z" fill="#17598D"/>
<path d="M59.189 243.011L184.324 70.825C201.524 47.8713 231.458 41.2224 251.157 55.9881C270.856 70.7537 272.843 101.294 255.638 124.225L130.542 296.473C113.343 319.427 83.4201 326.073 63.7098 311.31C43.9994 296.547 41.9894 265.964 59.189 243.011Z" fill="#FFD3BC"/>
<path d="M231.906 143.848L253.646 111.059C272.978 82.4931 267.316 56.4256 247.026 42.6966C226.737 28.9675 197.388 33.6254 178.07 62.1999L157.82 93.3569L231.906 143.848Z" fill="#17598D"/>
<path d="M485.325 226.055C485.325 103.438 423.77 2.64575 331.88 2.64575C239.99 2.64575 178.023 103.438 178.023 226.055C178.023 267.327 178.023 324.878 178.023 324.878H485.325C485.325 324.878 485.325 263.936 485.325 226.055Z" fill="#1771B9"/>
<path d="M332.354 134.048C369.371 134.048 399.378 104.04 399.378 67.0239C399.378 30.0076 369.371 0 332.354 0C295.338 0 265.331 30.0076 265.331 67.0239C265.331 104.04 295.338 134.048 332.354 134.048Z" fill="#FFD3BC"/>
</svg>
