<svg width="671" height="333" viewBox="0 0 671 333" fill="none" xmlns="http://www.w3.org/2000/svg">
<path d="M610.322 241.53L485.187 69.3443C467.987 46.3906 438.053 39.7417 418.354 54.5074C398.655 69.273 396.667 99.8135 413.873 122.744L538.969 294.993C556.168 317.946 586.091 324.592 605.801 309.83C625.511 295.067 627.521 264.484 610.322 241.53Z" fill="#17598D"/>
<path d="M588.07 209.287L611.067 241.208C631.493 269.002 626.848 295.269 607.106 309.775C587.364 324.282 557.857 320.766 537.444 292.963L516 262.616L588.07 209.287Z" fill="#FFD3BC"/>
<path d="M63.6712 237.805L188.806 65.6196C206.006 42.666 235.94 36.0171 255.639 50.7827C275.338 65.5484 277.325 96.0889 260.12 119.02L135.024 291.268C117.825 314.222 87.9023 320.868 68.192 306.105C48.4816 291.342 46.4716 260.759 63.6712 237.805Z" fill="#17598D"/>
<path d="M84.29 209.8L60.946 241.467C40.2178 269.037 44.5762 295.353 64.1582 310.074C83.7403 324.795 113.284 321.603 133.999 294.024L155.774 263.913L84.29 209.8Z" fill="#FFD3BC"/>
<path d="M494.46 223.409C494.46 100.792 432.905 0 341.015 0C249.125 0 187.158 100.792 187.158 223.409C187.158 264.681 187.158 322.232 187.158 322.232H494.46C494.46 322.232 494.46 261.291 494.46 223.409Z" fill="#1771B9"/>
</svg>
