<svg width="671" height="335" viewBox="0 0 671 335" fill="none" xmlns="http://www.w3.org/2000/svg">
<path d="M610.316 244.174L485.18 71.9883C467.981 49.0347 438.047 42.3857 418.348 57.1514C398.649 71.9171 396.661 102.458 413.866 125.389L538.962 297.637C556.162 320.59 586.085 327.237 605.795 312.474C625.505 297.711 627.515 267.128 610.316 244.174Z" fill="#17598D"/>
<path d="M588.072 211.934L611.069 243.855C631.495 271.649 626.849 297.916 607.108 312.423C587.366 326.929 557.858 323.414 537.446 295.61L516.002 265.263L588.072 211.934Z" fill="#FFD3BC"/>
<path d="M63.6678 240.452L188.803 68.2659C206.003 45.3123 235.936 38.6633 255.635 53.429C275.334 68.1946 277.322 98.7351 260.117 121.666L135.021 293.914C117.821 316.868 87.8989 323.514 68.1885 308.751C48.4782 293.988 46.4682 263.405 63.6678 240.452Z" fill="#17598D"/>
<path d="M84.2905 212.447L60.9465 244.114C40.2183 271.684 44.5766 298 64.1587 312.721C83.7407 327.442 113.285 324.25 134 296.671L155.774 266.56L84.2905 212.447Z" fill="#FFD3BC"/>
<path d="M494.463 226.055C494.463 103.438 432.908 2.64575 341.018 2.64575C249.128 2.64575 187.161 103.438 187.161 226.055C187.161 267.327 187.161 324.878 187.161 324.878H494.463C494.463 324.878 494.463 263.936 494.463 226.055Z" fill="#1771B9"/>
<path d="M341.498 134.048C378.514 134.048 408.522 104.04 408.522 67.0239C408.522 30.0076 378.514 0 341.498 0C304.482 0 274.474 30.0076 274.474 67.0239C274.474 104.04 304.482 134.048 341.498 134.048Z" fill="#FFD3BC"/>
</svg>
