<svg width="666" height="326" viewBox="0 0 666 326" fill="none" xmlns="http://www.w3.org/2000/svg">
<path d="M605.841 239.536L480.706 67.3504C463.506 44.3967 433.573 37.7478 413.874 52.5135C394.175 67.2791 392.187 97.8196 409.392 120.751L534.488 292.999C551.688 315.952 581.61 322.599 601.32 307.836C621.031 293.073 623.041 262.49 605.841 239.536Z" fill="#FFD3BC"/>
<path d="M433.128 140.372L411.388 107.583C392.056 79.0172 397.718 52.9497 418.008 39.2207C438.297 25.4917 467.646 30.1496 486.964 58.7241L507.214 89.8811L433.128 140.372Z" fill="#17598D"/>
<path d="M59.1895 240.699L184.325 68.5132C201.524 45.5596 231.458 38.9106 251.157 53.6763C270.856 68.442 272.844 98.9824 255.639 121.913L130.543 294.162C113.343 317.115 83.4206 323.761 63.7103 308.999C43.9999 294.236 41.9899 263.653 59.1895 240.699Z" fill="#FFD3BC"/>
<path d="M231.906 141.535L253.646 108.745C272.978 80.1796 267.316 54.1121 247.027 40.3831C226.737 26.6541 197.388 31.312 178.07 59.8864L157.82 91.0435L231.906 141.535Z" fill="#17598D"/>
<path d="M485.323 223.741C485.323 101.124 423.767 0.332031 331.878 0.332031C239.988 0.332031 178.021 101.124 178.021 223.741C178.021 265.013 178.021 322.564 178.021 322.564H485.323C485.323 322.564 485.323 261.623 485.323 223.741Z" fill="#1771B9"/>
</svg>
