<svg width="659" height="328" viewBox="0 0 659 328" fill="none" xmlns="http://www.w3.org/2000/svg">
<path d="M602.536 241.845L477.4 69.659C460.201 46.7053 430.267 40.0564 410.568 54.8221C390.869 69.5877 388.881 100.128 406.086 123.059L531.182 295.307C548.382 318.261 578.305 324.907 598.015 310.144C617.725 295.381 619.735 264.798 602.536 241.845Z" fill="#FFD3BC"/>
<path d="M55.8824 243.011L181.018 70.8247C198.217 47.8711 228.151 41.2222 247.85 55.9878C267.549 70.7535 269.537 101.294 252.332 124.225L127.236 296.473C110.036 319.427 80.1135 326.073 60.4031 311.31C40.6928 296.547 38.6828 265.964 55.8824 243.011Z" fill="#FFD3BC"/>
<path d="M482.014 226.055C482.014 103.438 420.458 2.64575 328.569 2.64575C236.679 2.64575 174.712 103.438 174.712 226.055C174.712 267.327 174.712 324.878 174.712 324.878H482.014C482.014 324.878 482.014 263.936 482.014 226.055Z" fill="#1771B9"/>
<path d="M329.048 134.048C366.065 134.048 396.072 104.04 396.072 67.0239C396.072 30.0076 366.065 0 329.048 0C292.032 0 262.024 30.0076 262.024 67.0239C262.024 104.04 292.032 134.048 329.048 134.048Z" fill="#FFD3BC"/>
</svg>
