<svg width="24" height="40" viewBox="0 0 24 40" fill="none" xmlns="http://www.w3.org/2000/svg">
<path d="M15.8315 0V1.47915H23.306V36.9315H21.402V3.44611H15.8787V7.2856C16.4678 7.1443 17.0813 7.13927 17.6726 7.27091C18.2639 7.40255 18.8173 7.66738 19.2908 8.04524C19.7642 8.4231 20.1452 8.90401 20.4047 9.45136C20.6642 9.99871 20.7954 10.5981 20.7883 11.2038C20.7522 11.7857 20.5887 12.3525 20.3095 12.8643C20.0302 13.376 19.642 13.8202 19.1722 14.1654C18.7024 14.5106 18.1625 14.7485 17.5907 14.8621C17.0189 14.9757 16.4291 14.9624 15.863 14.823V40L12.9047 39.3391L3.84098 37.0889C3.49479 37.0102 3.36891 36.9001 3.36891 36.5067C3.36891 25.775 3.36891 15.0433 3.36891 4.31157V3.87097L4.53334 3.50905H2.62933V36.9315H0.693848V1.47915H10.7489C10.9159 1.50325 11.0855 1.50325 11.2525 1.47915L15.627 0.0786782H15.7529L15.8315 0ZM15.8315 11.0149C15.8315 12.022 15.8315 13.0448 15.8315 14.0519C15.8315 14.3509 15.9417 14.4453 16.2092 14.4925C17.0108 14.6471 17.8411 14.5309 18.5695 14.1621C19.3131 13.7513 19.8824 13.0847 20.1717 12.286C20.4611 11.4873 20.4509 10.6108 20.1431 9.81904C19.8385 9.04322 19.2723 8.39833 18.5424 7.99601C17.8125 7.59369 16.9648 7.45928 16.1462 7.61605C16.0951 7.6199 16.0453 7.63413 15.9998 7.65786C15.9544 7.68159 15.9142 7.71433 15.8818 7.75408C15.8495 7.79384 15.8255 7.83977 15.8114 7.88908C15.7974 7.9384 15.7935 7.99006 15.8001 8.04091C15.863 9.03226 15.863 10.0236 15.863 11.0149H15.8315ZM11.7088 22.7065C11.7687 22.9724 11.8423 23.235 11.9291 23.4933C12.0056 23.6893 12.1399 23.8575 12.3141 23.9755C12.4883 24.0935 12.6943 24.1559 12.9047 24.1542C13.1092 24.1476 13.3074 24.0815 13.4751 23.9642C13.6427 23.8468 13.7726 23.6832 13.8488 23.4933C13.9729 23.2459 14.0295 22.9701 14.0129 22.6939C13.9963 22.4176 13.9072 22.1506 13.7544 21.9198C13.6662 21.7661 13.539 21.6385 13.3857 21.5497C13.2323 21.4609 13.0583 21.4142 12.8811 21.4142C12.7039 21.4142 12.5299 21.4609 12.3765 21.5497C12.2232 21.6385 12.096 21.7661 12.0078 21.9198C11.8843 22.1723 11.7842 22.4357 11.7088 22.7065Z" fill="#21B95C"/>
<path d="M17.1063 11.0148H18.491C18.5854 11.0148 18.6798 11.1407 18.7742 11.2037V11.3138H16.8545C16.8545 10.4169 16.8545 9.50422 16.8545 8.59155H17.0905L17.1063 11.0148Z" fill="#21B95C"/>
<path d="M17.0432 8.2612L16.8071 8.00943L17.1376 7.71045V8.19825L17.0432 8.2612Z" fill="#21B95C"/>
<path d="M17.1376 14.0519V14.4925L16.8071 14.162L17.0432 13.8945L17.1376 14.0519Z" fill="#21B95C"/>
</svg>
