<svg width="30" height="30" viewBox="0 0 30 30" fill="none" xmlns="http://www.w3.org/2000/svg">
<path d="M30 19.9805V22.5C29.8258 22.5195 29.6492 22.5258 29.4773 22.5602C28.257 22.8031 27.3734 24.0094 27.5148 25.2328C27.6664 26.5484 28.7398 27.5187 30 27.4805V30H3.28125C3.23889 29.9788 3.1947 29.9616 3.14922 29.9484C1.84922 29.7062 0.907031 28.9891 0.348437 27.7938C0.192188 27.4555 0.114063 27.0781 0 26.7188V23.2617C0.018448 23.24 0.0332264 23.2155 0.04375 23.1891C0.48125 21.1469 1.90078 19.9953 3.98438 19.9953H7.87734C7.97656 19.9953 8.07578 19.9867 8.21875 19.9805C7.42207 19.1604 6.74247 18.2342 6.19922 17.2281C5.36406 15.6781 4.85547 14.0547 5.08906 12.2656C5.55781 8.67188 8.77109 5.50938 12.9602 5.96484C13.2172 5.99297 13.4742 6.01719 13.7414 6.04297C13.7516 5.96484 13.7578 5.91484 13.7625 5.86797C14.0188 3.2625 15.3477 1.43437 17.7625 0.428906C18.2812 0.214062 18.85 0.139062 19.3945 0H19.9805V2.5C18.9953 2.53203 18.1445 2.85547 17.4406 3.51562C16.74 4.15036 16.3168 5.03505 16.2625 5.97891C16.3406 5.97891 16.3789 5.97891 16.4188 5.97891C16.4766 5.97344 16.5344 5.96406 16.5922 5.95469C17.9967 5.71346 19.4415 5.90727 20.7328 6.51016C23.7445 7.90391 25.4398 11.1242 24.8563 14.3617C24.5273 16.1859 23.6695 17.7547 22.5125 19.175C22.2945 19.443 22.0563 19.6953 21.7883 19.9992H29.5312C29.6875 19.9945 29.8438 19.9852 30 19.9805ZM25.6305 22.5203H7.52031V27.482H25.6562C25.4883 27.0617 25.3281 26.6594 25.1609 26.2414H18.7648V23.7453H19.1234C21.057 23.7453 22.9906 23.7453 24.9242 23.75C25.1258 23.75 25.2102 23.693 25.2672 23.4969C25.3617 23.1711 25.5016 22.8594 25.6305 22.5203Z" fill="#21B95C"/>
</svg>
