<svg width="32" height="34" viewBox="0 0 32 34" fill="none" xmlns="http://www.w3.org/2000/svg">
<path d="M16 0.5C24.8428 0.5 32 7.87963 32 17C32 19.8941 31.2681 22.7207 29.8782 25.2137L31.9397 31.8157C32.0835 32.2759 31.9653 32.7804 31.6338 33.1223C31.3054 33.461 30.8174 33.5874 30.3667 33.4378L23.9648 31.3119C21.5474 32.7452 18.8064 33.5 16 33.5C7.15723 33.5 0 26.1204 0 17C0 7.88089 7.15601 0.5 16 0.5ZM16 30.9219C18.5349 30.9219 21.0059 30.1925 23.1458 28.8125C23.4536 28.6142 23.8359 28.5605 24.1917 28.6786L28.813 30.2134L27.3247 25.4476C27.2119 25.0861 27.2595 24.6913 27.4548 24.3691C28.7927 22.1623 29.5 19.6141 29.5 17C29.5 9.32353 23.4438 3.07812 16 3.07812C8.55615 3.07812 2.5 9.32353 2.5 17C2.5 24.6765 8.55615 30.9219 16 30.9219Z" fill="#21B95C"/>
<path d="M13.1793 18.1C13.1793 17.6667 13.321 17.3083 13.6043 17.025C13.8877 16.725 14.246 16.575 14.6793 16.575C15.3627 16.575 15.9793 16.475 16.5293 16.275C17.0793 16.0583 17.5127 15.7167 17.8293 15.25C18.1627 14.7833 18.3293 14.1667 18.3293 13.4C18.3293 12.8333 18.1877 12.3333 17.9043 11.9C17.6377 11.4667 17.2627 11.125 16.7793 10.875C16.3127 10.625 15.7793 10.5 15.1793 10.5C14.7127 10.5 14.271 10.5833 13.8543 10.75C13.4543 10.9167 13.0877 11.1417 12.7543 11.425C12.4877 11.6583 12.1627 11.8333 11.7793 11.95C11.4127 12.05 11.0377 11.9583 10.6543 11.675C10.2543 11.375 10.0377 11.0167 10.0043 10.6C9.97101 10.1833 10.1293 9.8 10.4793 9.45C11.0793 8.83333 11.7793 8.35833 12.5793 8.025C13.396 7.675 14.2627 7.5 15.1793 7.5C16.3293 7.5 17.3627 7.76667 18.2793 8.3C19.2127 8.81667 19.9543 9.51667 20.5043 10.4C21.0543 11.2833 21.3293 12.2833 21.3293 13.4C21.3293 14.2333 21.2043 14.975 20.9543 15.625C20.7043 16.2583 20.346 16.8083 19.8793 17.275C19.4293 17.725 18.896 18.0917 18.2793 18.375C17.6793 18.6417 17.021 18.8333 16.3043 18.95C16.271 18.9667 16.2377 18.9833 16.2043 19C16.1877 19.0167 16.1793 19.0417 16.1793 19.075V20C16.1793 20.4333 16.0377 20.8 15.7543 21.1C15.471 21.3833 15.1127 21.525 14.6793 21.525C14.246 21.525 13.8877 21.3833 13.6043 21.1C13.321 20.8 13.1793 20.4333 13.1793 20V18.1ZM14.5543 26C14.071 26 13.696 25.875 13.4293 25.625C13.1793 25.3583 13.0543 24.9833 13.0543 24.5V24.075C13.0543 23.5917 13.1793 23.225 13.4293 22.975C13.696 22.7083 14.071 22.575 14.5543 22.575H14.8793C15.3627 22.575 15.7293 22.7083 15.9793 22.975C16.246 23.225 16.3793 23.5917 16.3793 24.075V24.5C16.3793 24.9833 16.246 25.3583 15.9793 25.625C15.7293 25.875 15.3627 26 14.8793 26H14.5543Z" fill="#21B95C"/>
</svg>
