<svg width="32" height="32" viewBox="0 0 32 32" fill="none" xmlns="http://www.w3.org/2000/svg">
<path d="M11.2162 31.5H10.4291C10.2475 31.4431 10.0658 31.3886 9.88845 31.3293C7.37046 30.4919 4.85064 29.6588 2.33507 28.8129C1.38575 28.4932 0.782737 27.8393 0.5557 26.8536C0.540965 26.8066 0.522334 26.7608 0.5 26.7168L0.5 2.67969C0.525428 2.60643 0.553884 2.53437 0.575074 2.4593C0.826934 1.56643 1.38716 0.958744 2.25576 0.63623C2.39682 0.585371 2.5391 0.54541 2.67956 0.5H17.7548C17.8311 0.520586 17.9068 0.547832 17.9843 0.560547C19.6638 0.85541 21.072 2.35092 21.1326 4.01172C21.187 5.45273 21.1531 6.89738 21.1489 8.34022C21.1489 8.715 20.9709 9.02137 20.6809 9.24842C20.2734 9.57174 19.8151 9.63168 19.3441 9.42098C18.8598 9.20422 18.5928 8.81551 18.5891 8.27846C18.5794 7.03725 18.5855 5.79604 18.5837 4.55482C18.5837 3.60182 18.0763 3.08898 17.1343 3.08777C15.3378 3.08777 13.5416 3.08777 11.7459 3.08777C11.6587 3.08777 11.5716 3.09564 11.4741 3.09988C11.4953 3.13137 11.5019 3.15316 11.5153 3.16043C12.9289 3.75924 13.4072 4.48217 13.4078 6.01945V25.0366H17.0889C18.0921 25.0366 18.5837 24.5383 18.5843 23.5229C18.5843 21.9285 18.5843 20.3341 18.5843 18.7397C18.5785 18.5687 18.5946 18.3976 18.6321 18.2305C18.7932 17.6311 19.3895 17.2267 19.9834 17.2957C20.6573 17.3738 21.1441 17.8727 21.1489 18.546C21.1618 20.2716 21.163 21.9972 21.1525 23.7228C21.1453 25.943 19.4501 27.6171 17.2299 27.625C16.0693 27.6286 14.9093 27.625 13.7487 27.625H13.4048C13.4048 28.1245 13.4175 28.5774 13.4018 29.0297C13.3739 29.8356 13.0385 30.5064 12.3798 30.9623C12.0341 31.2021 11.6067 31.3244 11.2162 31.5Z" fill="#21B95C"/>
<path d="M31.4984 13.6992C31.2635 14.0189 31.0631 14.3731 30.7876 14.6528C29.2135 16.2482 27.6242 17.8249 26.0429 19.4106C25.7008 19.7539 25.306 19.9404 24.8175 19.8526C24.1757 19.7376 23.7537 19.2181 23.7507 18.5393C23.7452 17.389 23.7507 16.2386 23.7507 15.0882V14.7128H23.3856C21.8218 14.7128 20.2579 14.7128 18.6941 14.7128C17.973 14.7128 17.4518 14.3095 17.3246 13.6744C17.1569 12.8516 17.7551 12.1298 18.6239 12.125C20.2077 12.119 21.7915 12.125 23.3759 12.125H23.7489V11.7908C23.7489 10.6507 23.7537 9.51059 23.7489 8.37049C23.7452 7.76502 23.982 7.30063 24.5456 7.06631C25.1093 6.832 25.6063 6.98458 26.0344 7.41385C27.7084 9.09282 29.3903 10.7633 31.0564 12.4501C31.2472 12.6433 31.3543 12.9176 31.5002 13.1543L31.4984 13.6992Z" fill="#21B95C"/>
</svg>
