<svg width="36" height="30" viewBox="0 0 36 30" fill="none" xmlns="http://www.w3.org/2000/svg">
<path d="M0.804199 17.1285C6.42974 17.1285 12.0553 17.1265 17.6808 17.1226C17.9411 17.1226 18.1006 17.1956 18.2509 17.4148C19.7228 19.5693 21.7203 21.1453 23.8975 22.5198C24.2087 22.7162 24.5241 22.906 24.8437 23.089C25.9294 23.7087 27.041 23.7473 28.1258 23.1268C30.1494 21.9715 32.0536 20.6482 33.6229 18.9001C34.0469 18.4282 34.4172 17.9077 34.811 17.4081C34.8824 17.3174 34.947 17.22 35.0746 17.042C35.0856 17.2443 35.0948 17.3375 35.0948 17.4316C35.0948 20.8388 35.0948 24.2463 35.0948 27.6541C35.0948 29.1184 34.2048 29.9992 32.7279 30H3.16105C1.92595 30 1.21562 29.4677 0.852058 28.2771C0.838573 28.2478 0.82256 28.2197 0.804199 28.1932L0.804199 17.1285ZM8.3399 21.419C7.64804 21.419 6.95703 21.419 6.26517 21.419C5.57331 21.419 5.09892 21.8598 5.08968 22.4811C5.08045 23.1025 5.5624 23.5592 6.24418 23.5617C7.61502 23.5668 8.98642 23.5668 10.3584 23.5617C11.041 23.5617 11.5196 23.105 11.5146 22.4828C11.5095 21.8606 11.0309 21.4232 10.3433 21.419C9.67828 21.4106 9.00909 21.4165 8.3399 21.4165V21.419Z" fill="#21B95C"/>
<path d="M0.804199 8.20987C0.995635 7.54572 1.30798 6.95042 1.96625 6.66159C2.28764 6.51057 2.63583 6.42495 2.9906 6.4097C7.19548 6.39291 11.4004 6.39878 15.6052 6.39962C15.659 6.39962 15.7127 6.4055 15.8068 6.41138C15.7984 8.56 15.7522 10.7019 16.2702 12.8346H0.804199V8.20987Z" fill="#21B95C"/>
<path d="M35.1956 6.93865C35.0773 8.51632 35.0437 10.1066 34.822 11.6691C34.4114 14.56 32.9261 16.8749 30.7212 18.7447C29.6121 19.6868 28.403 20.487 27.1503 21.2191C26.7506 21.4534 26.3518 21.4828 25.9471 21.2468C24.1469 20.1973 22.44 19.0268 21.0218 17.4794C19.4198 15.7321 18.4895 13.67 18.1503 11.3316C17.8111 8.99323 17.9949 6.62967 17.9555 4.27282C17.9479 3.79255 18.1998 3.44326 18.6415 3.25351C21.1175 2.18717 23.5919 1.11664 26.0772 0.0780183C26.3677 -0.0279921 26.6866 -0.0259058 26.9756 0.0838957C29.4526 1.11832 31.916 2.18298 34.3829 3.24511C34.8674 3.45334 35.0957 3.83285 35.0957 4.35175C35.0957 5.21153 35.0957 6.07159 35.0957 6.93194L35.1956 6.93865ZM25.5399 11.0084C25.4559 10.8933 25.3896 10.8077 25.3283 10.717C24.9563 10.1612 24.5944 9.59777 24.2116 9.04865C23.8421 8.51968 23.2225 8.39626 22.7187 8.73211C22.2149 9.06796 22.0907 9.69853 22.4408 10.2359C23.1293 11.291 23.829 12.3403 24.5399 13.3837C25 14.0554 25.8111 14.0982 26.3233 13.4676C27.7506 11.7044 29.1553 9.93194 30.5668 8.16032C30.6829 8.02019 30.7612 7.85264 30.7942 7.67366C30.8272 7.49467 30.8138 7.31022 30.7553 7.13788C30.6968 6.96554 30.5951 6.81106 30.4599 6.68917C30.3248 6.56728 30.1607 6.48205 29.9832 6.44159C29.55 6.33748 29.1856 6.48022 28.9076 6.81439C28.4937 7.31145 28.0966 7.82195 27.6927 8.32573L25.5399 11.0084Z" fill="#21B95C"/>
</svg>
