<svg width="40" height="40" viewBox="0 0 40 40" fill="none" xmlns="http://www.w3.org/2000/svg">
<path d="M16.4093 40H0.886262C0.68578 39.912 0.505824 39.7832 0.35786 39.6219C0.209895 39.4605 0.0971663 39.2701 0.0268555 39.0627L0.0268555 21.6463C3.09386 21.6463 6.16087 21.6463 9.22788 21.6463C9.48159 21.6601 9.73504 21.6147 9.96813 21.5135C10.2012 21.4124 10.4075 21.2583 10.5707 21.0635C13.2384 18.0771 15.9151 15.0987 18.6008 12.1284C18.6842 12.0419 18.7495 11.9396 18.7928 11.8275C18.8362 11.7155 18.8567 11.5959 18.8532 11.4758C18.8532 8.16973 18.8532 4.86639 18.8371 1.56305C18.8371 0.837921 19.0359 0.308849 19.7073 0H26.7168C27.3426 0.381362 27.4258 0.738553 27.0444 1.38311C26.7759 1.82892 26.5207 2.27743 26.2388 2.72593C26.1919 2.78623 26.1665 2.86041 26.1665 2.93675C26.1665 3.0131 26.1919 3.08727 26.2388 3.14758C26.5207 3.59877 26.7759 4.06338 27.0632 4.51457C27.1709 4.64593 27.2379 4.80584 27.256 4.97471C27.2742 5.14358 27.2426 5.31407 27.1653 5.46529C26.9773 5.80368 26.6631 5.87082 26.3005 5.86814C24.6891 5.86814 23.1019 5.86814 21.5013 5.86814C21.2327 5.86814 21.1575 5.92722 21.1602 6.20384C21.1602 8.00054 21.1602 9.79455 21.1602 11.5912C21.1553 11.6805 21.1685 11.7697 21.1989 11.8537C21.2294 11.9377 21.2765 12.0147 21.3375 12.08C24.05 15.1148 26.7598 18.1532 29.4669 21.1951C29.5923 21.3442 29.7496 21.4631 29.9272 21.5431C30.1048 21.6231 30.2981 21.662 30.4928 21.657C33.6529 21.657 36.813 21.657 39.9731 21.657V39.1406C39.8834 39.3399 39.754 39.5189 39.5929 39.6667C39.4317 39.8144 39.2422 39.9278 39.0359 40H23.5155C23.4269 39.8711 23.4725 39.7314 23.4725 39.5837C23.4725 37.2284 23.4725 34.8758 23.4725 32.5205C23.4725 31.6262 23.0187 31.1777 22.1297 31.1777H17.8783C16.8712 31.1777 16.4442 31.6074 16.4442 32.6306V39.5784C16.4442 39.718 16.4254 39.8603 16.4093 40ZM20.0081 15.241C19.3131 15.2368 18.6325 15.4388 18.0523 15.8215C17.4722 16.2042 17.0186 16.7504 16.7489 17.3909C16.4793 18.0315 16.4057 18.7376 16.5375 19.42C16.6693 20.1024 17.0006 20.7303 17.4894 21.2244C17.9782 21.7185 18.6026 22.0564 19.2835 22.1955C19.9644 22.3346 20.6713 22.2686 21.3147 22.0059C21.9581 21.7431 22.5091 21.2954 22.898 20.7194C23.2869 20.1434 23.4962 19.465 23.4994 18.77C23.5037 17.8402 23.1392 16.9466 22.4857 16.2851C21.8323 15.6236 20.9432 15.2481 20.0134 15.241H20.0081ZM7.15187 26.9129C7.15187 26.6147 7.16799 26.314 7.15187 26.0158C7.13213 25.731 7.00757 25.4636 6.80223 25.2652C6.5969 25.0668 6.32536 24.9515 6.04002 24.9416C5.75124 24.9267 5.4676 25.0222 5.24665 25.2087C5.0257 25.3952 4.88399 25.6588 4.85027 25.946C4.77776 26.5787 4.77776 27.2175 4.85027 27.8501C4.88656 28.1369 5.0305 28.399 5.25292 28.5836C5.47534 28.7681 5.7596 28.8611 6.04807 28.8438C6.33596 28.8302 6.60846 28.7099 6.8125 28.5063C7.01654 28.3028 7.13752 28.0306 7.15187 27.7427C7.16799 27.458 7.15187 27.1841 7.15187 26.9129ZM11.8356 26.9129C11.8437 26.6201 11.8437 26.3301 11.8437 26.0615C11.8336 25.7672 11.712 25.4878 11.5036 25.2798C11.2951 25.0719 11.0154 24.951 10.7211 24.9416C10.4324 24.9282 10.1494 25.025 9.92946 25.2126C9.70953 25.4001 9.56913 25.6642 9.53673 25.9514C9.47226 26.5719 9.47226 27.1974 9.53673 27.8179C9.56734 28.1121 9.71045 28.3831 9.93616 28.5743C10.1619 28.7655 10.4527 28.862 10.748 28.8438C11.0375 28.8279 11.3106 28.7041 11.5134 28.4968C11.7162 28.2895 11.8341 28.0138 11.8437 27.7239C11.8437 27.4527 11.8437 27.1787 11.8437 26.9048L11.8356 26.9129ZM7.1465 33.1436C7.1465 32.8454 7.1653 32.5447 7.1465 32.2492C7.12768 31.9668 7.00558 31.7013 6.80349 31.5031C6.6014 31.305 6.33346 31.1882 6.05076 31.175C5.76926 31.1568 5.49114 31.2446 5.27102 31.421C5.05089 31.5974 4.90466 31.8497 4.86102 32.1284C4.76969 32.7976 4.76969 33.4761 4.86102 34.1453C4.90797 34.4174 5.0531 34.6628 5.26891 34.8351C5.48472 35.0073 5.75622 35.0944 6.03196 35.0799C6.31346 35.0706 6.58185 34.9587 6.78662 34.7653C6.99139 34.5719 7.11842 34.3103 7.14382 34.0298C7.16799 33.7344 7.1465 33.4336 7.1465 33.1355V33.1436ZM11.833 33.1436C11.833 32.8562 11.8464 32.5715 11.833 32.2868C11.824 31.9965 11.7064 31.7201 11.5036 31.5123C11.3007 31.3044 11.0272 31.1802 10.7372 31.1642C10.449 31.1446 10.1641 31.2352 9.94026 31.4177C9.71636 31.6002 9.5702 31.861 9.53135 32.1472C9.45212 32.792 9.45212 33.4441 9.53135 34.0889C9.56984 34.3686 9.71108 34.6239 9.92755 34.8051C10.144 34.9863 10.4202 35.0805 10.7023 35.0692C10.9898 35.0619 11.2643 34.9479 11.4723 34.7493C11.6803 34.5507 11.807 34.2818 11.8276 33.9949C11.8437 33.7156 11.8437 33.4282 11.8437 33.1436H11.833ZM18.77 26.8994C18.77 26.6309 18.77 26.3811 18.77 26.1206C18.7773 25.8155 18.6648 25.5197 18.4564 25.2967C18.2481 25.0737 17.9607 24.9414 17.6558 24.928C17.3509 24.9146 17.053 25.0214 16.8259 25.2253C16.5989 25.4292 16.4609 25.714 16.4415 26.0185C16.4066 26.5891 16.4066 27.1614 16.4415 27.732C16.4618 28.0348 16.5995 28.3178 16.8252 28.5208C17.0509 28.7237 17.3469 28.8306 17.6502 28.8187C17.9535 28.8068 18.2402 28.6771 18.4493 28.4571C18.6584 28.2371 18.7735 27.9442 18.77 27.6407C18.7753 27.4043 18.77 27.1358 18.77 26.8994ZM21.2435 26.8672C21.2435 27.1358 21.2435 27.3855 21.2435 27.646C21.24 27.9495 21.355 28.2424 21.5642 28.4624C21.7733 28.6824 22.06 28.8122 22.3633 28.8241C22.6666 28.836 22.9626 28.7291 23.1883 28.5261C23.414 28.3232 23.5516 28.0402 23.5719 27.7373C23.6082 27.1668 23.6082 26.5945 23.5719 26.0239C23.5526 25.7194 23.4145 25.4345 23.1875 25.2306C22.9605 25.0267 22.6625 24.92 22.3576 24.9334C22.0528 24.9467 21.7653 25.0791 21.557 25.3021C21.3487 25.5251 21.2361 25.8209 21.2435 26.126C21.2435 26.3677 21.2435 26.6147 21.2435 26.8672ZM27.8824 26.8672C27.8824 27.1358 27.8824 27.4043 27.8824 27.6729C27.884 27.9746 28.0026 28.264 28.2132 28.4801C28.4238 28.6962 28.71 28.8222 29.0116 28.8316C29.3132 28.841 29.6067 28.733 29.8304 28.5305C30.054 28.3279 30.1904 28.0465 30.2108 27.7454C30.2431 27.1738 30.2431 26.6009 30.2108 26.0293C30.1994 25.7201 30.0657 25.4282 29.8391 25.2177C29.6124 25.0072 29.3114 24.8953 29.0023 24.9067C28.6932 24.9181 28.4012 25.0518 28.1907 25.2785C27.9802 25.5051 27.8683 25.8061 27.8797 26.1152C27.8743 26.3596 27.8797 26.5986 27.8797 26.8672H27.8824ZM32.5634 26.8914C32.5634 27.1599 32.5634 27.4097 32.5634 27.6702C32.5594 27.8233 32.5855 27.9756 32.6404 28.1186C32.6952 28.2616 32.7776 28.3923 32.883 28.5034C32.9884 28.6145 33.1146 28.7038 33.2544 28.7661C33.3943 28.8284 33.5451 28.8626 33.6981 28.8667C33.8512 28.8707 34.0036 28.8446 34.1465 28.7898C34.2895 28.7349 34.4203 28.6525 34.5314 28.5471C34.6425 28.4417 34.7317 28.3155 34.794 28.1757C34.8564 28.0358 34.8905 27.885 34.8946 27.732C34.9214 27.1734 34.9214 26.6121 34.8946 26.0561C34.8875 25.747 34.7578 25.4534 34.5342 25.2398C34.3106 25.0263 34.0113 24.9103 33.7022 24.9174C33.393 24.9245 33.0994 25.0542 32.8858 25.2778C32.6723 25.5014 32.5563 25.8007 32.5634 26.1098C32.5554 26.3569 32.5608 26.6174 32.5608 26.8672L32.5634 26.8914ZM27.8797 33.0979C27.8797 33.3665 27.8797 33.635 27.8797 33.9036C27.8807 34.2055 27.9988 34.4953 28.2092 34.7119C28.4196 34.9285 28.7058 35.055 29.0076 35.0648C29.3094 35.0745 29.6032 34.9667 29.8272 34.7642C30.0511 34.5616 30.1877 34.2801 30.2081 33.9788C30.2404 33.4081 30.2404 32.836 30.2081 32.2653C30.203 32.1123 30.1678 31.9617 30.1045 31.8223C30.0412 31.6828 29.9511 31.5572 29.8392 31.4526C29.7274 31.348 29.596 31.2664 29.4526 31.2125C29.3093 31.1587 29.1567 31.1336 29.0036 31.1387C28.8506 31.1438 28.7 31.179 28.5605 31.2423C28.4211 31.3056 28.2955 31.3958 28.1909 31.5076C28.0862 31.6195 28.0047 31.7509 27.9508 31.8942C27.897 32.0376 27.8719 32.1902 27.877 32.3432C27.8743 32.6037 27.8797 32.8508 27.8797 33.0979ZM32.5608 33.1167C32.5608 33.3853 32.5608 33.635 32.5608 33.8955C32.5604 34.1979 32.6775 34.4887 32.8875 34.7063C33.0975 34.9239 33.3838 35.0515 33.686 35.0619C33.9883 35.0724 34.2827 34.9649 34.5072 34.7623C34.7317 34.5597 34.8687 34.2778 34.8892 33.9761C34.9228 33.4054 34.9228 32.8333 34.8892 32.2627C34.8796 31.9542 34.7479 31.6623 34.523 31.451C34.2981 31.2397 33.9985 31.1264 33.6901 31.136C33.3817 31.1456 33.0897 31.2774 32.8784 31.5023C32.6671 31.7272 32.5538 32.0268 32.5634 32.3352C32.5554 32.5957 32.5608 32.8562 32.5608 33.1167Z" fill="#21B95C"/>
<path d="M18.7563 40C18.7975 39.3913 18.8065 38.7808 18.7832 38.1711C18.7832 36.7262 18.7832 35.2814 18.7832 33.8365C18.7832 33.584 18.8423 33.5008 19.1055 33.5115C19.6883 33.533 20.2737 33.5115 20.8592 33.5115C21.0391 33.5115 21.1278 33.5276 21.1278 33.7559C21.1278 35.7997 21.1278 37.8435 21.1278 39.8846C21.1227 39.923 21.1137 39.9608 21.1009 39.9974L18.7563 40Z" fill="#21B95C"/>
<path d="M16.4899 10.9547L15.9017 11.6154C13.6762 14.0844 11.4525 16.5614 9.23055 19.0466C9.15976 19.1363 9.06833 19.2076 8.96405 19.2543C8.85977 19.3011 8.74574 19.3219 8.63166 19.3151C5.98092 19.3151 3.32751 19.3151 0.676773 19.3151H0.263184C0.644545 17.4674 1.01785 15.6734 1.39384 13.8713C1.51201 13.2993 1.63286 12.7272 1.74835 12.1525C1.92291 11.2824 2.30965 10.9547 3.19322 10.9547H16.4899Z" fill="#21B95C"/>
<path d="M23.5264 10.9547H36.7559C37.7227 10.9547 38.0745 11.2582 38.2706 12.2089C38.7576 14.5615 39.2472 16.9124 39.7396 19.2614C39.6187 19.3135 39.485 19.3285 39.3556 19.3044H31.2825C31.1882 19.3175 31.0921 19.3078 31.0024 19.276C30.9127 19.2442 30.8319 19.1913 30.7669 19.1218C28.3963 16.4486 26.0195 13.7791 23.6365 11.1132C23.5972 11.0622 23.5604 11.0093 23.5264 10.9547Z" fill="#21B95C"/>
<path d="M20.0106 19.9248C19.7017 19.9228 19.4056 19.801 19.1847 19.5851C18.9638 19.3692 18.8353 19.076 18.8262 18.7672C18.8236 18.5353 18.8899 18.3078 19.0167 18.1137C19.1435 17.9195 19.3251 17.7673 19.5385 17.6764C19.7519 17.5856 19.9874 17.5602 20.2153 17.6034C20.4432 17.6466 20.6531 17.7565 20.8184 17.9192C20.9837 18.0819 21.097 18.29 21.1439 18.5171C21.1908 18.7443 21.1691 18.9802 21.0817 19.195C20.9944 19.4099 20.8451 19.5939 20.653 19.7238C20.4609 19.8537 20.2345 19.9237 20.0026 19.9248H20.0106Z" fill="#21B95C"/>
</svg>
