<svg width="30" height="30" viewBox="0 0 30 30" fill="none" xmlns="http://www.w3.org/2000/svg">
<path d="M10.3097 29.9934C9.803 29.7595 9.66074 29.3569 9.65414 28.8142C9.6402 27.6593 9.8008 26.5585 10.4219 25.5634C10.6016 25.2759 10.8113 25.0076 11.0123 24.7238C13.18 27.0953 16.8195 27.0007 18.905 24.7414C19.7071 25.6222 20.1835 26.751 20.2551 27.9401C20.2742 28.2335 20.2456 28.5268 20.2705 28.8201C20.3174 29.365 20.129 29.7661 19.6222 30L10.3097 29.9934Z" fill="#21B95C"/>
<path d="M21.848 29.9934C21.9059 29.7089 22.002 29.4258 22.0152 29.1391C22.0739 27.8822 21.9631 26.6458 21.4329 25.4813C21.4138 25.4301 21.3974 25.378 21.3838 25.3251C23.7708 27.154 26.8009 26.6707 28.6159 24.7384C29.0621 25.2217 29.412 25.7857 29.6469 26.4001C30.0092 27.3014 30.018 28.2452 29.9806 29.1926C29.9644 29.6004 29.6704 29.8145 29.3455 29.9912L21.848 29.9934Z" fill="#21B95C"/>
<path d="M0.00146484 27.7105C0.175997 27.1356 0.305795 26.5409 0.54046 25.9916C0.731858 25.5428 1.04939 25.1468 1.33539 24.6877C2.31511 25.7313 3.45543 26.3326 4.82089 26.4558C6.18634 26.579 7.41906 26.1669 8.55572 25.3052C8.43105 25.6506 8.31372 25.9439 8.21985 26.2446C7.88839 27.3043 7.85319 28.3918 7.95219 29.4874C7.96832 29.659 8.03872 29.8254 8.08419 29.9941H0.646059L0.00146484 29.3502V27.7105Z" fill="#21B95C"/>
<path d="M22.0532 0.0113441C23.7516 0.0113441 25.4497 0.0113441 27.1476 0.0113441C28.7287 0.0128107 29.9702 1.19567 29.9819 2.78698C30.0044 5.70416 30.0044 8.62158 29.9819 11.5392C29.9702 13.0301 28.8137 14.1675 27.2936 14.1792C23.7809 14.2012 20.2678 14.2012 16.7542 14.1792C15.1856 14.1689 14.0629 12.9876 14.0607 11.4234C14.0555 8.58393 14.0687 5.74449 14.0555 2.90578C14.0494 2.52267 14.1203 2.14222 14.2641 1.78704C14.4078 1.43186 14.6215 1.10919 14.8923 0.838177C15.1632 0.567169 15.4858 0.353354 15.8409 0.209428C16.196 0.0655022 16.5764 -0.00559985 16.9595 0.000344175C18.6564 0.0443438 20.3556 0.0113441 22.0532 0.0113441ZM26.4165 7.18694C26.4165 6.33848 26.4165 5.48929 26.4165 4.6401C26.4165 4.04464 26.0608 3.64644 25.5365 3.64644C25.0122 3.64644 24.6565 4.04391 24.6565 4.6401C24.6565 6.31795 24.6565 7.99629 24.6565 9.67512C24.6565 10.2706 25.0122 10.6688 25.5365 10.6688C26.0608 10.6688 26.4128 10.2713 26.4165 9.67585C26.4187 8.84353 26.4165 8.01414 26.4165 7.18694ZM21.1453 8.0354C21.1453 8.59126 21.1453 9.14786 21.1453 9.70372C21.149 10.2742 21.512 10.6688 22.0253 10.6688C22.5387 10.6688 22.9017 10.275 22.9053 9.70519C22.9092 8.59297 22.9092 7.48052 22.9053 6.36782C22.9053 5.79802 22.5387 5.40349 22.029 5.40276C21.5193 5.40203 21.1549 5.79656 21.149 6.36708C21.1424 6.92075 21.1453 7.48027 21.1453 8.0332V8.0354ZM17.632 8.89999C17.632 9.19332 17.6254 9.48666 17.632 9.77999C17.6466 10.2874 18.0148 10.66 18.4936 10.671C18.9842 10.6798 19.3736 10.2984 19.3832 9.77999C19.3934 9.20408 19.3934 8.62842 19.3832 8.053C19.3744 7.54627 19.0018 7.17301 18.5222 7.16201C18.0426 7.15101 17.6474 7.53454 17.632 8.05373C17.6254 8.33167 17.632 8.61473 17.632 8.89779V8.89999Z" fill="#21B95C"/>
<path d="M18.5086 21.2199C18.5035 23.1383 16.8755 24.7289 14.9249 24.723C14.0018 24.7073 13.122 24.329 12.4758 23.6698C11.8295 23.0105 11.4686 22.1234 11.4712 21.2003C11.4738 20.2771 11.8397 19.392 12.4897 18.7365C13.1397 18.0809 14.0216 17.7075 14.9447 17.697C16.8961 17.7014 18.5145 19.3015 18.5086 21.2199Z" fill="#21B95C"/>
<path d="M28.2345 21.2214C28.2286 23.1398 26.5992 24.7296 24.6485 24.723C23.7254 24.707 22.8457 24.3282 22.1997 23.6686C21.5537 23.0091 21.1932 22.1217 21.1963 21.1985C21.1994 20.2752 21.5658 19.3903 22.2162 18.735C22.8666 18.0798 23.7488 17.7069 24.672 17.697C26.6212 17.7022 28.2345 19.3023 28.2345 21.2214Z" fill="#21B95C"/>
<path d="M7.02874 12.425C6.33438 12.4248 5.65568 12.2187 5.07839 11.8329C4.50109 11.447 4.05109 10.8988 3.78524 10.2573C3.51939 9.61587 3.44961 8.91001 3.58472 8.22893C3.71983 7.54784 4.05376 6.92208 4.54434 6.43068C5.03491 5.93929 5.66012 5.60431 6.34098 5.46806C7.02184 5.33182 7.72781 5.40042 8.3697 5.6652C9.01159 5.92999 9.56061 6.37907 9.9474 6.95572C10.3342 7.53237 10.5414 8.21073 10.5428 8.90508C10.5428 9.83762 10.1728 10.732 9.51394 11.392C8.85509 12.052 7.96128 12.4235 7.02874 12.425Z" fill="#21B95C"/>
<path d="M8.78601 21.2104C8.78601 21.905 8.58012 22.584 8.19436 23.1616C7.8086 23.7392 7.26027 24.1896 6.61867 24.4557C5.97707 24.7218 5.27099 24.7918 4.58965 24.6567C3.9083 24.5217 3.28227 24.1877 2.79065 23.697C2.29904 23.2063 1.9639 22.5809 1.82759 21.8998C1.69129 21.2188 1.75992 20.5125 2.02483 19.8704C2.28973 19.2283 2.73902 18.6792 3.31593 18.2923C3.89283 17.9055 4.57145 17.6983 5.26605 17.697C6.19846 17.697 7.09278 18.067 7.75271 18.7257C8.41264 19.3844 8.78426 20.278 8.78601 21.2104Z" fill="#21B95C"/>
<path d="M13.2448 16.2413C11.8134 16.7686 10.7728 17.6992 10.1128 19.094C9.07146 17.0817 7.46767 15.9297 5.19949 15.9568C2.93132 15.9839 1.37153 17.1939 0.386673 19.2069C0.143942 18.9935 0.0266095 18.7288 0.0801424 18.423C0.487872 16.0917 1.74186 14.3655 3.82671 13.2494C3.90371 13.2083 4.0643 13.256 4.15377 13.3139C5.06279 13.9158 6.1377 14.2174 7.22714 14.1763C8.17826 14.1462 9.10122 13.8464 9.88838 13.3117C10.0585 13.1966 10.1817 13.2002 10.357 13.2963C11.575 13.9614 12.6633 15.057 13.2448 16.2413Z" fill="#21B95C"/>
</svg>
